<svg xmlns="http://www.w3.org/2000/svg" fill="none" viewBox="0 0 500 180"><g clip-path="url(#a)"><path fill="#fff" d="M0 0h500v180H0z"/><rect width="113" height="117" y="31" fill="#390B37" rx="10"/><path fill="#390B37" d="M160.32 135.73c-2.106.972-5.103 2.268-9.72 2.268-8.991 0-15.39-6.642-15.39-16.848 0-9.072 5.346-17.091 15.795-17.091 4.293 0 7.29 1.215 9.153 2.268l1.377-3.159c-1.458-1.053-5.427-2.43-10.206-2.43-11.583 0-20.007 8.424-20.007 20.736 0 11.664 7.452 19.845 18.63 19.845 5.67 0 9.72-1.701 11.421-2.511l-1.053-3.078zM170.14 140.51v-38.88h-3.888v38.88h3.888zm-1.944-53.379c-1.782 0-3.159 1.62-3.159 3.402s1.215 3.321 2.997 3.321c2.025 0 3.24-1.539 3.24-3.321 0-1.863-1.296-3.402-3.078-3.402zM181 94.502v7.128h-6.561v3.159H181v24.543c0 3.969.648 7.29 2.43 9.315 1.458 1.863 3.807 2.754 6.642 2.754 2.349 0 4.131-.405 5.427-.972l-.486-2.916c-.972.324-2.43.567-4.455.567-4.131 0-5.67-3.078-5.67-8.019v-25.272h11.097v-3.159h-11.097v-8.586L181 94.502zM198.46 101.63l14.418 36.045c.324.81.486 1.377.486 1.701 0 .405-.162.891-.486 1.701-1.944 4.617-4.536 7.857-6.48 9.801-2.268 2.187-4.86 3.564-6.804 4.293l1.215 3.24c.972-.324 3.726-1.458 6.804-4.05 5.103-4.455 8.424-11.664 13.122-23.733l11.664-28.998h-4.131l-9.477 25.191c-1.215 3.159-2.187 6.237-2.997 8.586h-.162a127.67 127.67 0 0 0-2.835-8.343l-10.206-25.434h-4.131zM273.56 135.73c-2.106.972-5.103 2.268-9.72 2.268-8.991 0-15.39-6.642-15.39-16.848 0-9.072 5.346-17.091 15.795-17.091 4.293 0 7.29 1.215 9.153 2.268l1.377-3.159c-1.458-1.053-5.427-2.43-10.206-2.43-11.583 0-20.007 8.424-20.007 20.736 0 11.664 7.452 19.845 18.63 19.845 5.67 0 9.72-1.701 11.421-2.511l-1.053-3.078zM296.26 100.74c-9.639 0-18.387 7.371-18.387 20.655 0 12.15 7.776 20.007 17.82 20.007 8.667 0 18.63-6.237 18.63-20.736 0-11.826-7.29-19.926-18.063-19.926zm-.081 3.24c10.287 0 14.256 9.801 14.256 16.929 0 9.963-6.399 17.253-14.499 17.253-7.938 0-14.175-7.29-14.175-17.01 0-8.343 4.455-17.172 14.418-17.172zM348.12 101.63h-3.888v24.219c0 1.539-.324 3.078-.729 4.293-1.701 3.888-5.832 7.857-11.502 7.857-7.695 0-10.287-6.075-10.287-14.499v-21.87h-3.888v22.599c0 14.661 8.343 17.172 13.284 17.172 6.885 0 11.34-4.212 13.284-7.857h.162l.243 6.966h3.645c-.243-2.997-.324-6.075-.324-9.477V101.63zM355.11 140.51h3.888v-24.057c0-1.215.243-2.511.486-3.483 1.539-5.022 6.237-8.91 11.664-8.91 8.019 0 10.773 6.399 10.773 13.446v23.004h3.888v-23.328c0-14.58-9.882-16.443-13.608-16.443-6.318 0-11.259 3.564-13.365 7.938h-.162l-.243-7.047h-3.645c.243 3.078.324 5.751.324 9.315v29.565zM420.65 135.73c-2.106.972-5.103 2.268-9.72 2.268-8.991 0-15.39-6.642-15.39-16.848 0-9.072 5.346-17.091 15.795-17.091 4.293 0 7.29 1.215 9.153 2.268l1.377-3.159c-1.458-1.053-5.427-2.43-10.206-2.43-11.583 0-20.007 8.424-20.007 20.736 0 11.664 7.452 19.845 18.63 19.845 5.67 0 9.72-1.701 11.421-2.511l-1.053-3.078zM432.09 140.51v-38.88h-3.888v38.88h3.888zm-1.944-53.379c-1.782 0-3.159 1.62-3.159 3.402s1.215 3.321 2.997 3.321c2.025 0 3.24-1.539 3.24-3.321 0-1.863-1.296-3.402-3.078-3.402zM439.87 140.51h3.888V84h-3.888v56.51zM161.21 69.385c-1.863.81-4.131 1.296-7.047 1.296-5.994 0-10.854-3.888-10.854-11.097-.081-6.48 4.131-11.097 10.611-11.097 3.24 0 5.427.567 6.885 1.215l1.944-9.153c-2.592-.972-6.156-1.539-9.396-1.539-14.742 0-22.68 9.477-22.68 21.06 0 12.393 8.181 20.25 20.979 20.25 4.698 0 8.829-.81 11.016-1.863l-1.458-9.072zM199.78 56.101c0-9.396-4.131-17.172-17.334-17.172-7.209 0-12.636 2.025-15.39 3.564l2.268 7.938c2.592-1.62 6.885-2.997 10.935-2.997 6.075 0 7.209 2.997 7.209 5.184v.486c-14.013 0-23.247 4.86-23.247 15.147 0 6.318 4.779 12.15 12.798 12.15 4.698 0 8.748-1.701 11.34-4.86h.243l.729 3.969h11.097c-.486-2.187-.648-5.832-.648-9.558V56.101zm-11.907 8.991c0 .729-.081 1.458-.243 2.106-.81 2.511-3.402 4.536-6.399 4.536-2.754 0-4.86-1.539-4.86-4.698 0-4.698 5.022-6.237 11.502-6.237v4.293zM205.72 79.51h12.312V56.668c0-1.134.081-2.268.405-3.078.891-2.268 2.916-4.617 6.318-4.617 4.455 0 6.237 3.483 6.237 8.586V79.51h12.312V56.101c0-11.664-6.075-17.091-14.175-17.091-6.642 0-10.611 3.807-12.231 6.399h-.243l-.567-5.508h-10.692c.162 3.564.324 7.695.324 12.636V79.51zM250.59 32.53v7.371h-5.265v9.072h5.265v16.2c0 5.589 1.134 9.396 3.402 11.745 2.025 2.025 5.346 3.402 9.315 3.402 3.402 0 6.399-.486 7.938-1.053l-.081-9.315c-1.134.243-1.944.324-3.645.324-3.645 0-4.86-2.187-4.86-6.966V48.973h8.829v-9.072h-8.829V29.209L250.59 32.53zM310.55 63.634c.162-.891.405-2.754.405-4.86 0-9.801-4.86-19.764-17.658-19.764-13.77 0-20.007 11.097-20.007 21.141 0 12.393 7.695 20.169 21.141 20.169 5.346 0 10.287-.81 14.337-2.511l-1.62-8.343c-3.321 1.134-6.723 1.701-10.935 1.701-5.751 0-10.854-2.43-11.178-7.533h25.515zm-25.596-8.424c.324-3.24 2.43-8.019 7.614-8.019 5.67 0 6.966 5.022 6.966 8.019h-14.58zM315.68 79.51h12.312V59.422c0-.972.081-1.944.243-2.754.81-3.807 3.888-6.237 8.424-6.237 1.377 0 2.349.162 3.321.324V39.172c-.891-.162-1.458-.243-2.592-.243-3.888 0-8.667 2.43-10.692 8.262h-.324l-.486-7.29h-10.53c.243 3.402.324 7.209.324 13.041V79.51zM343.78 67.684c0 4.455-.162 9.234-.324 11.826h10.449l.486-5.508h.162c2.754 4.698 7.29 6.399 11.907 6.399 9.072 0 18.063-7.128 18.063-21.384.081-12.15-6.804-20.007-16.281-20.007-5.508 0-9.639 2.187-11.988 5.589h-.162V22l-12.312 3v42.684zm12.312-10.854c0-.81.081-1.539.243-2.268.81-3.564 3.888-6.075 7.209-6.075 5.751 0 8.505 4.86 8.505 11.016 0 7.128-3.24 11.178-8.505 11.178-3.564 0-6.399-2.592-7.209-5.832-.162-.648-.243-1.377-.243-2.187V56.83zM426.05 39.901h-12.312v23.571c0 1.053-.162 1.944-.486 2.673-.729 1.944-2.754 4.293-6.156 4.293-4.374 0-6.237-3.483-6.237-9.234V39.901h-12.312v23.247c0 12.231 5.832 17.253 13.932 17.253 7.128 0 10.854-4.05 12.393-6.48h.243l.567 5.589h10.692a254.556 254.556 0 0 1-.324-12.717V39.901zM431.64 79.51h12.312V59.422c0-.972.081-1.944.243-2.754.81-3.807 3.888-6.237 8.424-6.237 1.377 0 2.349.162 3.321.324V39.172c-.891-.162-1.458-.243-2.592-.243-3.888 0-8.667 2.43-10.692 8.262h-.324l-.486-7.29h-10.53c.243 3.402.324 7.209.324 13.041V79.51zM458.52 39.901l14.58 36.288c.405.972.486 1.539.486 2.025s-.243 1.134-.648 1.782c-1.134 1.944-3.24 3.969-5.103 4.941-1.863 1.053-3.807 1.782-5.346 2.106l2.673 10.368c3.078-.324 7.614-1.701 11.826-5.427 4.455-3.969 8.262-10.206 13.932-26.001l9.234-26.082h-13.122l-4.941 19.44a453.652 453.652 0 0 0-1.701 7.452h-.324c-.486-2.106-1.296-5.103-1.944-7.371l-5.913-19.521H458.52z"/><mask id="b" width="75" height="126" x="44" y="45" maskUnits="userSpaceOnUse" style="mask-type:alpha"><path fill="#DE2F2F" fill-rule="evenodd" d="m45.353 166.83-1.008 3.227c9.048-3.175 22.633-4.793 22.633-4.793l.014-7.353c0-2.153.788-3.427 2.01-4.109l.006-16.237c0-9.597 3.031-18.583 13.068-22.846 9.694 4.269 13.077 12.641 13.077 22.808l.008 21.128c1.215 1.192 2.008 2.88 2.008 5.255l.014 1.221s10.124 1.152 21.817 4.091l-.055-13.051.012-10.565v-14.294l-2.531-2.62.002-10.802V97.502a77.237 77.237 0 0 1-.365-.92c-.31-.756-.702-.912-.702-.912v-4.09c-.011-.128-.08-.4-.446-.637-.504-.326-.589-.75-.589-.75l-1.077-11.798h-.007l-1.077 11.798s-.088.424-.588.75c-.369.238-.436.51-.442.636v4.091s-.397.156-.707.911c-.09.232-.195.491-.279.7l-.1.25v.294h-.005v8.419h-3.433l-1.208-7.195-1.174 7.195h-4.827V72.539h-.017V65.79c-.1-.243-.276-.678-.427-1.053-.342-.845-.783-1.025-.783-1.025v-4.576c-.01-.14-.084-.444-.496-.711-.563-.367-.662-.836-.662-.836-.732-8.023-.984-12.054-1.23-12.053-.245 0-.483 4.006-1.183 12.053 0 0-.099.469-.66.836-.411.267-.484.571-.495.711v4.576s-.443.18-.788 1.025l-.203.504c-.087.214-.167.412-.221.55v6.748h-20.32V65.79c-.099-.243-.276-.678-.426-1.053-.345-.845-.786-1.025-.786-1.025v-4.576c-.008-.14-.084-.444-.493-.711-.563-.367-.662-.836-.662-.836-.732-8.023-.984-12.054-1.23-12.053-.245 0-.484 4.006-1.185 12.053 0 0-.102.469-.662.836-.412.267-.483.571-.491.711v4.576s-.446.18-.788 1.025c-.15.375-.327.81-.427 1.053v6.749h-.014v33.705h-3.825l-1.174-7.195-1.198 7.195H54.11v-8.42h-.007v-.294a138.1 138.1 0 0 0-.15-.373l-.232-.576c-.307-.755-.7-.91-.7-.91v-4.092c-.008-.127-.077-.398-.443-.636-.501-.326-.591-.75-.591-.75L50.91 78.395h-.005l-1.077 11.798s-.09.424-.593.75c-.366.238-.433.51-.441.636v4.091s-.396.156-.703.911c-.129.324-.278.697-.37.921v31.19l-3.363 2.753v35.375l.996.01z" clip-rule="evenodd"/></mask><g mask="url(#b)"><rect width="112.88" height="116.91" y="31.43" fill="#fff" rx="10"/></g></g><defs><clipPath id="a"><path fill="#fff" d="M0 0h500v180H0z"/></clipPath></defs></svg>