<svg width="999" height="326" viewBox="0 0 999 326" fill="none" xmlns="http://www.w3.org/2000/svg">
<g clip-path="url(#clip0_704_30)">
<rect width="999" height="326" fill="white"/>
<g clip-path="url(#clip1_704_30)">
<mask id="mask0_704_30" style="mask-type:luminance" maskUnits="userSpaceOnUse" x="-75" y="-131" width="1658" height="1084">
<path d="M-74.9502 952.562H1582.08V-130.019H-74.9502V952.562Z" fill="white"/>
</mask>
<g mask="url(#mask0_704_30)">
<path d="M2.29297 178.479C2.29297 178.479 23.193 266.653 102.605 305.86C109.771 308.645 113.354 292.525 113.354 292.525L115.548 183.053L101.216 164.346L2.29297 178.479Z" fill="#EAEAE7"/>
<path d="M285.913 179.471C285.913 179.471 258.645 275.202 186 305.854C113.355 336.506 166.29 184.649 166.29 184.649L205.305 167.532L285.913 179.471Z" fill="#EAEAE7"/>
<path d="M286.712 178.475H2.59082V104.036H286.712V178.475Z" fill="#EE252B"/>
<path d="M185.205 307.943L145.351 323.768L103.317 307.647L103.008 2.23406H185.205V307.943Z" fill="#EE252B"/>
<path d="M103.206 104.042H2.08887V1.75677H103.206V104.042Z" fill="#EAEAE7"/>
</g>
<mask id="mask1_704_30" style="mask-type:luminance" maskUnits="userSpaceOnUse" x="-9" y="-131" width="1591" height="733">
<path d="M-8.06836 601.593H1582V-130.019H-8.06836V601.593Z" fill="white"/>
</mask>
<g mask="url(#mask1_704_30)">
<path d="M103.207 104.042H2.08984V1.75677H103.207V104.042Z" stroke="#231F20" stroke-width="2.38642" stroke-miterlimit="10"/>
</g>
<mask id="mask2_704_30" style="mask-type:luminance" maskUnits="userSpaceOnUse" x="-75" y="-131" width="1658" height="1084">
<path d="M-74.9502 952.562H1582.08V-130.019H-74.9502V952.562Z" fill="white"/>
</mask>
<g mask="url(#mask2_704_30)">
<path d="M286.609 104.042H185.492V1.75677H286.609V104.042Z" fill="#EAEAE7" stroke="#231F20" stroke-width="2.38642" stroke-miterlimit="10"/>
<path d="M141.028 325.485C141.007 325.485 140.98 325.505 140.959 325.505V325.464C140.98 325.485 141.007 325.485 141.028 325.485Z" fill="#231F20"/>
<path d="M141.101 325.462L141.073 325.51C141.053 325.51 141.053 325.51 141.032 325.482C141.053 325.482 141.073 325.462 141.101 325.462Z" fill="#231F20"/>
<path d="M439.886 198.887H326.769L328.667 192.353H330.352C339.409 192.353 344.67 190.249 348.673 186.246C352.263 182.876 354.58 177.402 359.628 160.546L380.274 92.9353C380.48 92.3026 381.12 90.6177 381.746 88.0937C384.07 80.0886 384.276 78.4036 384.276 75.2401C384.276 67.8745 380.48 65.9764 364.263 65.3437L362.792 65.1305L364.477 58.3907H433.146L431.035 65.1305C425.774 65.3437 425.134 65.3437 422.191 65.7632C417.968 66.6091 413.553 68.5003 410.609 71.2375C407.24 74.401 404.915 80.2949 399.867 96.7316L379.222 163.923C376.471 173.186 374.999 178.874 374.999 181.611C374.999 187.725 380.067 189.616 396.071 189.616C424.502 189.616 434.412 183.509 445.154 159.707H453.366L439.886 198.887Z" fill="#231F20"/>
<path d="M514.234 132.115C511.916 136.75 509.179 142.438 505.802 149.178C501.174 158.235 498.017 164.548 496.539 167.506C491.064 178.241 489.379 181.824 489.379 183.516C489.379 185.194 490.638 186.246 492.323 186.246C495.479 186.246 505.176 178.028 512.542 169.397L517.597 173.819C512.122 180.352 510.437 182.037 507.274 185.194C496.539 195.936 486.216 201.837 478.63 201.837C472.736 201.837 468.527 197.415 468.527 191.301C468.527 187.092 470.632 181.198 476.106 170.449L485.163 152.341C497.591 127.693 500.115 122.212 500.115 119.481C500.115 118.209 499.283 117.583 497.797 117.583C494.015 117.583 484.538 126.008 476.312 136.537L470.838 132.328C484.744 113.368 499.908 101.573 510.651 101.573C516.551 101.573 520.554 105.789 520.554 111.896C520.554 116.531 518.436 123.058 514.234 132.115Z" fill="#231F20"/>
<path d="M633.659 136.114C628.391 146.857 622.284 159.071 617.023 169.187C612.381 177.818 610.696 181.608 610.696 183.932C610.696 185.404 611.755 186.243 613.227 186.243C616.81 186.243 623.55 180.982 633.865 169.607L638.92 174.029C623.123 192.983 610.49 202.04 599.747 202.04C593.847 202.04 589.638 197.831 589.638 191.724C589.638 189.826 590.057 187.935 590.69 186.037C592.375 180.982 594.692 175.294 597.849 169.394C600.167 164.758 603.537 158.438 607.546 150.44C618.068 130.214 621.651 121.789 621.651 118.206C621.651 116.102 620.18 114.63 618.068 114.63C615.544 114.63 611.755 116.528 607.333 119.685C604.169 122.002 601.013 124.32 597.849 127.057C582.265 140.537 575.525 149.174 566.255 168.974L556.352 190.039L553.614 195.933L551.09 201.407L533.602 199.516L551.716 159.071L554.674 152.338L561.62 136.114C562.459 134.01 563.731 131.273 564.783 128.529C566.888 123.268 567.307 121.576 567.307 120.111C567.307 118.632 566.674 118 565.416 118C561.406 118 553.195 125.159 544.138 136.534L538.663 132.325L540.981 129.375C548.567 119.898 552.349 115.469 558.669 110.414C565.835 104.727 571.942 101.989 577.623 101.989C583.317 101.989 586.894 105.572 586.894 111.679C586.894 116.947 584.789 123.687 580.161 134.216C588.585 125.372 590.69 123.268 597.01 117.793C608.378 107.89 620.812 101.783 630.076 101.783C637.029 101.783 641.451 105.992 641.451 112.732C641.451 117.793 639.133 124.946 633.659 136.114Z" fill="#231F20"/>
<path d="M728.014 128.324C723.798 128.324 721.48 126.007 719.383 119.054C717.478 113.153 715.58 111.049 712.416 111.049C709.479 111.049 705.69 113.366 701.887 117.795C687.995 133.592 675.354 161.184 675.354 176.348C675.354 183.934 679.57 188.776 686.523 188.776C693.256 188.776 702.313 184.14 712.636 175.509L716.845 179.931C700.415 195.309 687.995 202.049 675.774 202.049C663.56 202.049 655.562 192.991 655.562 179.512C655.562 171.713 657.879 162.869 662.508 152.759C677.039 122.004 699.789 101.572 720.009 101.572C731.377 101.572 739.595 107.686 739.595 116.317C739.595 122.424 733.901 128.324 728.014 128.324Z" fill="#231F20"/>
<path d="M809.514 126.639C809.514 117.162 804.672 111.055 796.873 111.055C790.141 111.055 782.768 115.683 776.867 123.482C765.286 138.646 755.383 163.714 755.383 178.033C755.383 187.09 760.651 193.41 768.663 193.41C776.867 193.41 787.397 184.353 794.769 170.873C803.407 155.076 809.514 137.807 809.514 127.271V126.639ZM773.711 202.254C755.183 202.254 741.903 187.936 741.903 167.503C741.903 133.165 765.286 101.997 790.986 101.997C809.94 101.997 822.993 116.11 822.993 136.961C822.993 171.719 799.831 202.254 773.711 202.254Z" fill="#231F20"/>
<path d="M902.827 45.1211L901.142 49.7563C900.509 51.235 899.664 53.5457 898.398 56.7093C896.294 62.6031 895.661 63.6553 893.55 69.1365L856.894 169.187L855.209 174.036C853.737 178.031 852.891 180.349 852.692 181.195C852.485 182.034 852.265 183.086 852.265 183.719C852.265 185.617 853.111 186.669 854.803 186.669C858.173 186.669 866.591 179.93 875.655 170.026L880.703 174.455C866.171 192.15 852.265 202.047 842.163 202.047C835.629 202.047 831.84 198.464 831.84 191.937C831.84 188.567 832.686 185.404 835.003 178.877L837.314 172.131L839.212 167.289L864.28 98.6263L866.591 92.0929C869.967 82.4028 870.807 80.2983 872.904 73.9781C874.596 68.5038 875.229 65.7667 875.229 63.449C875.229 57.9678 871.013 55.8634 854.583 53.7589L856.694 47.6519C860.057 47.8582 861.33 48.0714 863.854 48.0714C879.444 48.0714 893.137 46.1733 903.872 42.3839L902.827 45.1211Z" fill="#231F20"/>
<path d="M991.701 136.114C986.44 146.857 980.34 159.071 975.065 169.187C970.43 177.818 968.745 181.608 968.745 183.932C968.745 185.404 969.797 186.243 971.269 186.243C974.859 186.243 981.591 180.982 991.914 169.607L996.976 174.029C981.179 192.983 968.538 202.04 957.789 202.04C951.902 202.04 947.686 197.831 947.686 191.724C947.686 189.826 948.099 187.935 948.732 186.037C950.417 180.982 952.734 175.294 955.891 169.394C958.216 164.758 961.579 158.438 965.581 150.44C976.117 130.214 979.707 121.789 979.707 118.206C979.707 116.102 978.222 114.63 976.117 114.63C973.586 114.63 969.797 116.528 965.375 119.685C962.218 122.002 959.062 124.32 955.891 127.057C940.307 140.537 933.574 149.174 924.297 168.974L914.407 190.039L911.663 195.933L909.132 201.407L891.65 199.516L909.772 159.071L912.716 152.338L919.662 136.114C920.507 134.01 921.773 131.273 922.825 128.529C924.93 123.268 925.363 121.576 925.363 120.111C925.363 118.632 924.73 118 923.451 118C919.455 118 911.244 125.159 902.186 136.534L896.705 132.325L899.023 129.375C906.602 119.898 910.405 115.469 916.725 110.414C923.884 104.727 929.984 101.989 935.679 101.989C941.366 101.989 944.942 105.572 944.942 111.679C944.942 116.947 942.845 123.687 938.21 134.216C946.621 125.372 948.732 123.268 955.059 117.793C966.427 107.89 978.861 101.783 988.118 101.783C995.071 101.783 999.5 105.992 999.5 112.732C999.5 117.793 997.189 124.946 991.701 136.114Z" fill="#231F20"/>
<path d="M536.625 24.6712C536.996 27.0164 537.175 29.4234 537.175 31.8855C537.175 32.3738 537.155 33.0271 537.127 33.8524C536.708 33.9418 536.391 33.99 536.171 33.99C535.985 33.99 535.724 33.9556 535.394 33.8937C534.122 30.3313 532.024 27.5941 529.136 25.6753C526.247 23.7566 522.671 22.8006 518.414 22.8006C516.151 22.8006 514.246 23.062 512.699 23.5778C509.955 24.5199 507.555 25.8198 505.485 27.4772C503.415 29.1415 501.661 31.1153 500.23 33.4123C498.8 35.7162 497.665 38.5015 496.826 41.775C496.001 45.0418 495.575 48.3841 495.575 51.7952C495.575 58.308 496.572 63.6929 498.546 67.9362C500.519 72.1864 503.236 75.2124 506.674 77.0211C510.113 78.8367 513.579 79.7445 517.08 79.7445L519.232 79.6964C521.667 79.3938 523.324 79.0981 524.205 78.8298C526.433 78.1903 528.262 77.4338 529.706 76.5672C531.151 75.7007 532.567 74.4765 533.95 72.8879C535.339 71.3061 536.515 69.4699 537.492 67.3654L538.042 67.1866C538.2 67.1866 538.427 67.276 538.729 67.4548C538.702 68.1907 538.674 68.6583 538.633 68.8715C537.354 74.0157 536.432 77.5369 535.855 79.4213C535.36 79.5451 534.754 79.7239 534.025 79.9715C530.463 81.1887 525.69 81.7939 519.728 81.7939C514.927 81.7939 511.324 81.4707 508.937 80.8174C506.537 80.1572 503.937 79.1393 501.125 77.757C498.312 76.3678 495.829 74.5384 493.711 72.2552C491.572 69.9719 489.846 67.0834 488.553 63.5967C487.232 60.1168 486.586 56.3136 486.586 52.2079C486.586 48.3085 487.095 44.9042 488.133 42.002C489.172 39.0929 490.76 36.1494 492.927 33.1647C495.086 30.18 497.638 27.7041 500.581 25.7235C503.518 23.7428 506.778 22.3398 510.374 21.5215C512.898 20.9713 516.475 20.6962 521.096 20.6962C524.48 20.6962 527.657 21.1501 530.642 22.0441C533.627 22.9451 535.621 23.8185 536.625 24.6712Z" fill="#231F20"/>
<path d="M543.885 79.0987C544.566 78.8236 545.24 78.6585 545.948 78.5966C550.604 78.294 553.258 77.737 553.932 76.9254C554.606 76.1208 554.937 72.2145 554.937 65.2065L554.895 60.4062V55.3789L554.71 49.8496L554.799 46.6035L554.751 43.0411V38.8391L554.661 36.9616L554.751 34.5889C554.785 34.0387 554.799 33.3991 554.799 32.6701C554.799 30.7514 554.71 28.7226 554.531 26.5906C554.4 26.1642 554.242 25.7516 554.029 25.3527C552.901 24.775 551.085 24.3899 548.568 24.1904C546.051 23.991 544.628 23.7709 544.304 23.5302C544.05 23.3445 543.912 22.87 543.885 22.1135H547.736L559.847 22.3886C562.955 22.3886 567.102 22.2923 572.295 22.1135C572.295 22.6018 572.254 23.0557 572.199 23.4821C571.586 23.6334 570.575 23.7984 569.145 23.9841C566.243 24.3211 564.482 24.6375 563.843 24.9469C563.451 25.0982 563.162 25.3527 562.969 25.7172C562.667 26.2674 562.488 27.2921 562.426 28.7845L562.199 34.6783L562.378 55.0144V63.0608C562.323 65.5848 562.295 67.311 562.295 68.2257C562.295 71.6368 562.371 73.8169 562.536 74.7591C562.708 75.7013 562.997 76.3821 563.402 76.7948C563.815 77.2005 564.496 77.5306 565.445 77.7713C566.834 78.1083 567.935 78.294 568.726 78.3215C570.431 78.3834 571.518 78.6241 571.965 79.0505C572.068 79.4494 572.109 79.7864 572.109 80.0615V80.426C569.331 80.5154 567.288 80.5566 565.975 80.5566C565.218 80.5566 563.856 80.5154 561.903 80.426L555.597 80.5154L544.854 80.4672H543.981L543.885 79.0987Z" fill="#231F20"/>
<path d="M573.973 28.9627L575.843 22.0648C575.967 21.157 576.132 20.5656 576.352 20.3111C576.566 20.0498 576.806 19.9191 577.075 19.9191C577.625 19.9191 578.251 20.5793 578.959 21.886C579.475 22.8282 579.894 23.4265 580.231 23.6878C580.561 23.9492 581.05 24.1211 581.689 24.2105L582.15 24.1693L584.117 24.3481L594.887 24.4856L607.637 24.4443H611.372L618.455 24.3137C618.758 24.3137 619.136 24.3412 619.597 24.3962C621.667 24.5819 622.939 24.6713 623.427 24.6713C623.888 24.6713 624.253 24.52 624.528 24.2243C624.61 24.1074 625.126 23.0964 626.027 21.2051C626.433 20.3524 626.907 19.9191 627.492 19.9191C627.733 19.9191 628.035 19.981 628.407 20.1048C628.558 20.71 628.634 21.2533 628.634 21.7347L628.585 23.5503L628.634 27.4016C628.634 28.3369 628.558 31.356 628.407 36.459C628.407 36.7959 628.345 37.0985 628.228 37.3668C627.891 37.58 627.602 37.6831 627.354 37.6831C627.114 37.6831 626.894 37.5731 626.722 37.3461C626.536 37.1192 626.302 36.4177 626.027 35.2417C625.422 32.5252 624.658 30.5789 623.744 29.4029C623.132 28.6464 622.258 28.1031 621.124 27.773C619.982 27.4428 617.252 27.2709 612.926 27.2709H605.216C605.141 28.4951 605.113 29.6023 605.113 30.6133L605.485 58.9889C605.485 60.1168 605.423 62.2488 605.306 65.3917L605.354 71.4712L605.306 74.8479C605.306 75.9208 605.485 76.6773 605.849 77.1381C606.214 77.592 607.197 78.0321 608.813 78.4585C611.626 79.16 613.483 79.5864 614.439 79.7377C615.016 79.7996 615.477 79.9234 615.856 80.1022V81.4776L609.363 81.3126C605.808 81.2851 603.119 81.2163 601.331 81.1131L594.667 81.4295L589.784 81.7046C588.415 81.7046 587.569 81.6771 587.267 81.6152L586.634 81.3401C586.689 80.6386 586.82 80.1916 587.033 79.9921C587.253 79.7927 587.817 79.6345 588.732 79.5107C590.004 79.3319 591.517 79.0018 593.25 78.5342C594.99 78.0596 596.125 77.5782 596.675 77.0899C596.977 76.8148 597.184 76.3609 597.314 75.7214C597.589 74.3803 597.72 71.7532 597.72 67.8194V60.0618L597.541 43.1162L597.356 39.4643L597.314 27.2709H589.956C585.582 27.2709 582.913 27.5391 581.964 28.0687C580.472 28.8939 578.251 31.3216 575.293 35.338C574.33 36.8372 573.478 37.5937 572.742 37.5937L572.336 37.5043C572.212 37.3186 572.15 37.1536 572.15 37.0023C572.15 36.6378 572.398 35.5374 572.886 33.708C573.491 31.3698 573.849 29.788 573.973 28.9627Z" fill="#231F20"/>
<path d="M631.611 21.7464H633.798C634.596 21.7464 636.329 21.7877 638.998 21.8702C643.151 22.0284 646.583 22.1109 649.32 22.1109L654.671 22.0215C655.427 22.0215 656.149 22.0834 656.858 22.2003C657.064 22.4479 657.181 22.7023 657.181 22.9774V23.4795L656.033 24.0296H655.531L652.958 24.0778L651.617 24.0296C650.579 24.0296 649.74 24.2566 649.1 24.7174C648.612 25.0475 648.371 25.3982 648.371 25.7627C648.371 26.1616 648.578 26.6636 649.004 27.2688C649.155 27.5164 649.403 27.8809 649.74 28.3692C650.345 29.4008 651.157 30.6112 652.154 31.9798C653.584 33.988 655.118 36.3675 656.72 39.1047C657.36 40.205 658.034 41.2572 658.728 42.2613L665.681 52.7698C666.142 52.1921 666.761 51.3393 667.559 50.2115L674.147 40.7552L681.74 29.3733C682.414 28.3348 682.806 27.5783 682.936 27.09C682.991 26.8493 683.026 26.588 683.026 26.3129C683.026 25.6733 682.737 25.1575 682.159 24.7586C681.21 24.1191 679.175 23.6514 676.039 23.3419C675.825 23.3144 675.537 23.2663 675.172 23.2044C674.959 22.8399 674.849 22.5373 674.849 22.2966C674.849 22.1109 674.863 21.9114 674.897 21.6983L677.27 21.657L685.852 21.8839L692.75 21.7464C692.929 21.7464 693.576 21.7601 694.669 21.7945L694.525 23.3901C694.311 23.452 693.975 23.5001 693.527 23.5276L692.434 23.6652C692.241 23.6927 691.953 23.727 691.561 23.7546C690.914 24.0021 690.419 24.2566 690.048 24.5317C685.584 29.2495 681.774 33.706 678.638 37.908C675.502 42.11 672.854 45.9338 670.695 49.3724C669.987 50.5003 669.436 51.3393 669.003 51.8826C668.205 52.9211 667.745 53.6776 667.58 54.1659C667.256 55.3557 667.084 57.1575 667.084 59.5646C667.084 69.0483 667.256 74.6464 667.58 76.352C667.772 77.2117 668.02 77.7275 668.322 77.9063C669.106 78.3052 672.256 78.7797 677.779 79.3299V79.8594C677.779 80.217 677.662 80.6503 677.455 81.1523L665.743 80.6503L657.917 81.0629H651.521C650.909 81.0629 650.242 81.0492 649.506 81.0148C649.382 80.6847 649.32 80.4371 649.32 80.2858C649.32 80.1345 649.368 79.9213 649.465 79.6462C649.678 79.4674 649.884 79.3574 650.097 79.3299L656.019 78.4152C658.068 77.7412 659.217 77.2873 659.457 77.0466C659.829 76.6752 660.056 76.1182 660.138 75.3548C660.173 74.8046 660.186 70.5751 660.186 62.6593C660.186 59.709 660.097 57.9071 659.891 57.2469C659.698 56.5936 659.045 55.4451 657.951 53.8014L651.975 44.7165L641.783 29.8753C640.029 27.3032 638.489 25.5839 637.182 24.7105C636.604 24.3185 635.16 24.009 632.842 23.8027C632.602 23.8027 632.23 23.7683 631.749 23.7064L631.611 21.7464Z" fill="#231F20"/>
<path d="M753.246 79.7833C755.804 79.7833 758.466 79.4257 761.217 78.7104C763.975 77.9952 766.409 76.8054 768.548 75.148C770.673 73.4906 772.337 71.6062 773.541 69.488C774.745 67.3698 775.721 64.6533 776.436 61.3384C777.172 58.0167 777.537 54.7087 777.537 51.3801C777.537 47.24 776.925 43.148 775.721 39.0973C774.772 36.0231 773.232 33.2791 771.106 30.8583C768.968 28.4375 766.395 26.56 763.39 25.2396C760.371 23.9123 757.159 23.252 753.748 23.252C750.977 23.252 748.267 23.7059 745.626 24.6206C742.978 25.5353 740.798 26.6976 739.093 28.1143C737.387 29.531 735.805 31.5392 734.34 34.1456C732.883 36.7453 731.768 39.6131 731.012 42.7491C730.249 45.8852 729.87 48.6567 729.87 51.0638C729.87 53.5877 730.249 56.4487 731.012 59.6466C731.768 62.8445 732.814 65.6161 734.141 67.9544C735.461 70.2995 737.091 72.3765 739.031 74.1921C740.963 76.0008 743.123 77.3831 745.53 78.3459C747.937 79.3019 750.509 79.7833 753.246 79.7833ZM721.562 51.3801C721.562 48.2785 721.927 45.5138 722.677 43.093C723.419 40.6722 724.678 38.0451 726.445 35.2254C728.206 32.3851 730.338 30.0193 732.834 28.1143C735.338 26.2161 738.783 24.5312 743.198 23.0663C746.3 22.0623 750.234 21.5602 754.979 21.5602C758.184 21.5602 761.313 21.9935 764.367 22.8394C767.427 23.6922 770.206 24.8819 772.695 26.4018C775.192 27.9286 777.695 30.2669 780.184 33.4373C781.918 35.6243 783.231 37.9832 784.111 40.514C785.267 43.8289 785.844 47.2606 785.844 50.7887C785.844 54.805 785.466 58.1474 784.682 60.7882C783.905 63.436 782.612 66.0562 780.776 68.6421C779.345 70.6503 776.897 72.9679 773.431 75.5813C771.12 77.3487 768.245 78.7792 764.807 79.8521C761.361 80.9318 757.648 81.4751 753.666 81.4751C749.615 81.4751 745.997 81.0006 742.834 80.0584C739.67 79.1162 737.036 77.9608 734.911 76.6129C732.8 75.258 730.62 73.2567 728.385 70.6021C726.15 67.9544 724.444 65.0315 723.296 61.8405C722.14 58.6425 721.562 55.1557 721.562 51.3801Z" fill="#231F20"/>
<path d="M793.066 81.2501L793.108 80.136C793.775 79.8128 794.889 79.5171 796.45 79.2557C798.011 79.0013 799.084 78.7399 799.675 78.4786C800.26 78.2241 800.755 77.8803 801.147 77.4539C801.422 76.1128 801.553 73.692 801.553 70.1846V34.6291L801.697 28.7352C801.697 27.5179 801.457 26.6789 800.975 26.2181C800.508 25.7642 799.27 25.3447 797.248 24.9665C795.24 24.5813 794.064 24.2719 793.699 24.0312C793.335 23.7836 793.156 23.5291 793.156 23.254C793.156 23.1027 793.204 22.9033 793.293 22.6557C793.685 22.415 794.091 22.2912 794.531 22.2912C794.985 22.2912 795.914 22.3256 797.31 22.3875H798.589C799.015 22.3875 800.219 22.3531 802.199 22.2912H808.547L821.648 22.0643L835.527 21.5141H836.765L838.725 21.4728C839.275 21.4728 839.763 21.6241 840.19 21.9267C840.375 22.415 840.478 22.7657 840.499 22.9789L840.458 24.8083L840.87 32.9785C840.87 33.3155 840.843 33.7419 840.781 34.2577C840.293 34.4709 839.853 34.574 839.461 34.574C839.185 34.574 838.972 34.4846 838.821 34.3058C838.573 33.9688 838.422 33.3292 838.36 32.3871C838.236 31.0735 837.769 29.3886 836.95 27.3185C836.551 26.3419 835.898 25.6748 834.99 25.3103C833.168 24.6089 830.094 24.2581 825.775 24.2581C823.739 24.2581 821.841 24.3131 820.08 24.4163C818.313 24.5263 817.233 24.5745 816.841 24.5745L813.279 24.5332C811.828 24.5332 810.631 24.7464 809.689 25.1728C809.049 25.4479 808.726 26.1012 808.726 27.1328V27.8205C808.815 29.3679 808.864 31.0941 808.864 32.9785L808.726 45.3989C808.726 46.6162 808.815 47.7715 808.994 48.8719L810.322 48.9613L812.873 48.8238H821.58C825.073 48.8238 827.501 48.5831 828.87 48.0948C829.784 47.7578 830.465 47.2557 830.919 46.5886C831.077 46.3754 831.449 45.1719 832.061 42.9781L832.652 39.1887C833.023 39.003 833.292 38.9136 833.477 38.9136C833.622 38.9136 833.869 38.9892 834.199 39.1405C834.323 39.842 834.406 40.908 834.433 42.3385L834.983 59.1397C834.468 59.3598 834.069 59.4629 833.794 59.4629L833.292 59.3735C832.803 56.3269 832.047 53.9405 831.015 52.2005C830.644 51.5953 830.231 51.2446 829.777 51.1552C828.986 50.9695 825.362 50.8801 818.911 50.8801C816.903 50.8801 815.514 50.8938 814.757 50.9282C812.928 51.0176 811.835 51.0589 811.47 51.0589H811.002C810.095 51.0589 809.441 51.1827 809.049 51.4234C808.925 51.7947 808.864 52.0492 808.864 52.2005V55.3503C808.864 55.7217 808.877 57.2416 808.912 59.9237L808.815 75.0331C808.815 75.4595 808.939 75.9959 809.187 76.6355C809.826 77.1513 810.982 77.4951 812.68 77.6602C814.365 77.8253 815.961 78.231 817.446 78.8706C818.299 79.2695 818.719 79.7096 818.719 80.1979C818.719 80.4042 818.664 80.6037 818.54 80.7894C818.423 80.9682 818.21 81.1057 817.907 81.202C815.418 80.6793 811.965 80.4249 807.557 80.4249C805.219 80.4249 802.743 80.6381 800.129 81.0645C798.334 81.3327 796.285 81.4702 793.974 81.4702L793.066 81.2501Z" fill="#231F20"/>
<path d="M535.84 230.255C536.232 232.751 536.424 235.309 536.424 237.937C536.424 238.452 536.404 239.147 536.369 240.02C535.922 240.117 535.578 240.172 535.358 240.172C535.152 240.172 534.877 240.137 534.526 240.069C533.158 236.279 530.95 233.363 527.869 231.328C524.795 229.285 520.992 228.26 516.453 228.26C514.052 228.26 512.024 228.535 510.38 229.086C507.464 230.09 504.906 231.472 502.698 233.246C500.497 235.007 498.634 237.111 497.107 239.56C495.587 242.008 494.383 244.972 493.496 248.452C492.602 251.932 492.155 255.487 492.155 259.119C492.155 266.051 493.214 271.773 495.312 276.298C497.423 280.816 500.305 284.035 503.963 285.961C507.622 287.893 511.322 288.856 515.043 288.856L517.326 288.808C519.919 288.485 521.679 288.175 522.615 287.879C524.987 287.199 526.94 286.401 528.474 285.472C530.008 284.551 531.514 283.251 532.999 281.566C534.471 279.881 535.723 277.921 536.761 275.686L537.346 275.493C537.504 275.493 537.745 275.59 538.068 275.782C538.034 276.559 538.006 277.061 537.978 277.288C536.61 282.763 535.626 286.504 535.014 288.512C534.492 288.643 533.845 288.835 533.068 289.097C529.279 290.39 524.21 291.043 517.862 291.043C512.746 291.043 508.915 290.692 506.371 289.991C503.826 289.303 501.054 288.21 498.063 286.738C495.057 285.266 492.43 283.313 490.161 280.885C487.891 278.458 486.069 275.39 484.68 271.677C483.277 267.97 482.589 263.926 482.589 259.552C482.589 255.412 483.139 251.787 484.233 248.693C485.333 245.605 487.032 242.469 489.335 239.291C491.632 236.121 494.349 233.48 497.478 231.376C500.607 229.271 504.08 227.779 507.897 226.899C510.586 226.321 514.396 226.025 519.32 226.025C522.91 226.025 526.294 226.507 529.464 227.463C532.642 228.418 534.774 229.347 535.84 230.255Z" fill="#231F20"/>
<path d="M579.762 288.899C582.486 288.899 585.305 288.521 588.242 287.757C591.172 287.001 593.771 285.728 596.041 283.968C598.31 282.207 600.078 280.192 601.357 277.943C602.636 275.694 603.675 272.806 604.445 269.271C605.222 265.743 605.607 262.208 605.607 258.68C605.607 254.272 604.961 249.918 603.675 245.606C602.664 242.333 601.027 239.41 598.764 236.838C596.495 234.259 593.758 232.271 590.546 230.862C587.348 229.452 583.923 228.75 580.299 228.75C577.348 228.75 574.467 229.232 571.647 230.201C568.827 231.178 566.51 232.416 564.694 233.922C562.885 235.428 561.2 237.567 559.646 240.332C558.092 243.11 556.909 246.157 556.098 249.492C555.286 252.834 554.88 255.778 554.88 258.343C554.88 261.032 555.286 264.072 556.098 267.476C556.909 270.874 558.016 273.824 559.426 276.32C560.836 278.81 562.569 281.024 564.625 282.95C566.682 284.876 568.986 286.347 571.551 287.372C574.109 288.39 576.846 288.899 579.762 288.899ZM546.043 258.68C546.043 255.372 546.435 252.436 547.24 249.857C548.024 247.284 549.358 244.492 551.249 241.473C553.12 238.461 555.389 235.944 558.037 233.922C560.705 231.9 564.371 230.105 569.068 228.551C572.376 227.485 576.551 226.948 581.605 226.948C585.01 226.948 588.338 227.402 591.591 228.31C594.851 229.218 597.801 230.476 600.463 232.099C603.118 233.722 605.772 236.212 608.427 239.582C610.284 241.913 611.666 244.423 612.608 247.113C613.839 250.647 614.451 254.286 614.451 258.047C614.451 262.325 614.039 265.874 613.213 268.687C612.388 271.506 611.006 274.292 609.059 277.049C607.54 279.181 604.933 281.643 601.24 284.429C598.771 286.306 595.718 287.826 592.052 288.975C588.393 290.123 584.439 290.694 580.202 290.694C575.89 290.694 572.053 290.192 568.683 289.188C565.313 288.184 562.5 286.966 560.251 285.522C558.003 284.078 555.685 281.953 553.305 279.14C550.926 276.32 549.117 273.205 547.886 269.808C546.662 266.403 546.043 262.696 546.043 258.68Z" fill="#231F20"/>
<path d="M647.595 227.339C647.747 227.89 647.829 228.309 647.829 228.598C647.829 228.797 647.781 229.086 647.692 229.478C646.846 229.705 646.165 229.815 645.649 229.815C645.422 229.815 645.044 229.795 644.507 229.739C643.978 229.691 643.538 229.671 643.215 229.671C641.722 229.671 640.553 229.966 639.673 230.544C639.088 230.902 638.737 231.369 638.6 231.954L638.112 237.497L638.263 261.574C638.29 270.391 638.579 275.879 639.143 278.039C639.686 280.191 640.608 281.966 641.908 283.355C643.201 284.751 645.154 285.906 647.754 286.814C650.367 287.722 652.898 288.176 655.367 288.176C660.875 288.176 665.091 287.378 668.028 285.789C670.951 284.201 673.055 282.007 674.341 279.201C675.613 276.402 676.26 272.145 676.26 266.437C676.26 266.272 676.205 264.979 676.109 262.544V261.134C676.109 260.618 676.136 259.601 676.205 258.095C676.28 256.588 676.308 255.701 676.308 255.447L675.572 241.486C675.345 236.789 675.077 234.017 674.767 233.171C674.465 232.332 674.025 231.7 673.44 231.273C672.175 230.372 669.781 229.561 666.253 228.845C666.081 228.392 665.992 227.924 665.958 227.436C667.223 227.305 668.468 227.243 669.699 227.243C670.985 227.243 672.354 227.291 673.784 227.387C675.909 227.553 677.078 227.628 677.271 227.628L684.96 227.387L686.452 227.436L686.411 229.182C682.422 229.705 680.049 230.31 679.265 231.005C678.488 231.706 678.103 232.992 678.103 234.877C678.103 235.881 678.165 238.068 678.302 241.438L678.639 251.506L678.591 255.488L678.729 260.55C678.729 266.904 678.557 271.23 678.192 273.534C677.683 276.746 676.948 279.29 675.992 281.168C675.029 283.045 673.653 284.744 671.831 286.25C670.022 287.756 667.594 288.994 664.575 289.971C661.536 290.94 658.558 291.429 655.607 291.429C650.965 291.429 647.643 291.105 645.601 290.459C641.873 289.324 638.902 287.846 636.709 286.03C634.508 284.214 632.981 282.399 632.142 280.583C631.007 278.19 630.443 274.689 630.443 270.082V266.726L630.292 253.108L630.443 242.119V234.732C630.443 232.848 630.182 231.534 629.666 230.792C629.309 230.276 628.793 230.008 628.112 230.008L625.244 230.063C623.098 230.063 621.737 229.836 621.159 229.382C621.063 229.086 621.015 228.832 621.015 228.598C621.015 228.309 621.111 228.082 621.31 227.924C621.661 227.663 622.101 227.532 622.61 227.532H623.889L627.129 227.484H634.817L647.595 227.339Z" fill="#231F20"/>
<path d="M691.029 230.304L690.98 227.973C696.001 227.973 699.68 227.842 702.012 227.581C702.913 227.485 703.545 227.437 703.91 227.437C704.199 227.437 704.632 227.457 705.216 227.485C706.578 228.619 707.844 229.912 709.006 231.37C709.26 231.666 709.556 231.989 709.879 232.347L720.126 243.667L721.577 245.414C723.661 247.841 725.553 249.918 727.251 251.638C728.95 253.35 732.265 256.933 737.189 262.373L748.791 275.254C749.926 276.513 751.384 278.081 753.172 279.958L753.22 279.181C753.027 274.683 752.924 272.304 752.924 272.043L753.124 269.127L753.027 264.56V262.469C753.027 261.142 752.91 257.043 752.683 250.173C752.656 249.238 752.512 247.463 752.298 244.857C752.071 242.25 751.948 239.953 751.948 237.979C751.948 234.417 751.748 232.347 751.322 231.762C751.033 231.343 749.651 230.903 747.195 230.449C746.611 230.414 745.703 230.318 744.472 230.16C743.021 230.091 742.161 230.009 741.893 229.912C741.632 229.816 741.377 229.541 741.123 229.087C741.185 228.571 741.322 228.083 741.556 227.629C742.436 227.375 743.289 227.244 744.135 227.244C745.036 227.244 746.164 227.354 747.512 227.581C748.853 227.808 750.063 227.925 751.129 227.925C752.622 227.925 754.939 227.829 758.082 227.629C759.856 227.498 761.094 227.437 761.768 227.437H762.6L762.497 228.943C761.975 229.17 761.266 229.307 760.358 229.355C759.458 229.403 758.612 229.541 757.841 229.768C756.672 230.126 755.964 230.435 755.744 230.689C754.967 231.535 754.575 232.395 754.575 233.268L755.118 248.619L755.503 255.668L755.455 257.703L755.744 267.476C755.936 274.147 756.04 279.945 756.04 284.869C756.04 285.935 755.964 288.252 755.847 291.815L753.577 292.007C752.443 290.714 748.536 286.636 741.865 279.766C740.311 278.184 739.259 277.063 738.702 276.417L734.521 271.609C732.904 269.828 731.852 268.693 731.364 268.205C730.882 267.717 730.525 267.366 730.298 267.132C726.763 263.116 722.176 258.095 716.543 252.071C715.017 250.455 712.781 247.924 709.824 244.492C707.988 242.319 706.819 240.992 706.331 240.51C705.849 240.022 705.182 239.472 704.343 238.853L704.199 240.51C704.199 246.824 704.357 255.537 704.68 266.651L705.017 282.73C705.051 284.092 705.134 285.405 705.265 286.664L706.956 287.056C710.044 287.345 713.07 287.785 716.048 288.369C716.275 288.562 716.475 288.706 716.633 288.803L716.585 290.652C716.069 290.811 715.649 290.893 715.326 290.893C714.955 290.893 714.528 290.866 714.012 290.797C710.801 290.536 706.894 290.405 702.3 290.405C699.061 290.405 696.214 290.487 693.752 290.652L693.071 290.694C692.775 290.694 692.349 290.666 691.806 290.604L691.751 289.146L693.023 288.562L695.306 288.225C697.342 287.929 698.834 287.606 699.77 287.248C700.389 287.021 700.891 286.684 701.283 286.23C701.633 283.995 701.805 280.722 701.805 276.417C701.805 274.408 701.764 270.729 701.668 265.385V258.776L701.571 244.98C701.496 238.825 701.296 235.194 700.932 234.094C700.746 233.509 700.34 232.993 699.728 232.539C698.497 231.666 696.888 231.116 694.894 230.889C692.892 230.662 691.613 230.469 691.029 230.304Z" fill="#231F20"/>
<path d="M824.013 230.255C824.399 232.751 824.591 235.309 824.591 237.937C824.591 238.452 824.577 239.147 824.536 240.02C824.089 240.117 823.752 240.172 823.525 240.172C823.326 240.172 823.051 240.137 822.7 240.069C821.331 236.279 819.11 233.363 816.043 231.328C812.969 229.285 809.159 228.26 804.626 228.26C802.226 228.26 800.197 228.535 798.554 229.086C795.638 230.09 793.079 231.472 790.879 233.246C788.664 235.007 786.807 237.111 785.281 239.56C783.761 242.008 782.557 244.972 781.67 248.452C780.783 251.932 780.329 255.487 780.329 259.119C780.329 266.051 781.381 271.773 783.486 276.298C785.59 280.816 788.479 284.035 792.13 285.961C795.796 287.893 799.489 288.856 803.217 288.856L805.5 288.808C808.093 288.485 809.846 288.175 810.788 287.879C813.161 287.199 815.107 286.401 816.648 285.472C818.182 284.551 819.688 283.251 821.173 281.566C822.645 279.881 823.89 277.921 824.935 275.686L825.52 275.493C825.671 275.493 825.912 275.59 826.242 275.782C826.207 276.559 826.173 277.061 826.152 277.288C824.784 282.763 823.8 286.504 823.188 288.512C822.672 288.643 822.019 288.835 821.242 289.097C817.453 290.39 812.384 291.043 806.036 291.043C800.913 291.043 797.089 290.692 794.544 289.991C792 289.303 789.228 288.21 786.237 286.738C783.238 285.266 780.597 283.313 778.335 280.885C776.065 278.458 774.243 275.39 772.853 271.677C771.45 267.97 770.763 263.926 770.763 259.552C770.763 255.412 771.313 251.787 772.406 248.693C773.507 245.605 775.205 242.469 777.502 239.291C779.806 236.121 782.53 233.48 785.652 231.376C788.781 229.271 792.254 227.779 796.071 226.899C798.76 226.321 802.563 226.025 807.494 226.025C811.084 226.025 814.468 226.507 817.638 227.463C820.816 228.418 822.941 229.347 824.013 230.255Z" fill="#231F20"/>
<path d="M831.737 288.173C832.446 287.878 833.175 287.706 833.917 287.637C838.883 287.314 841.709 286.722 842.425 285.863C843.133 285.003 843.497 280.842 843.497 273.394L843.436 268.284V262.934L843.25 257.054L843.346 253.594L843.298 249.805V245.328L843.202 243.333L843.298 240.809C843.332 240.225 843.346 239.544 843.346 238.76C843.346 236.724 843.25 234.565 843.057 232.295C842.927 231.841 842.748 231.401 842.514 230.982C841.324 230.37 839.385 229.957 836.716 229.744C834.041 229.538 832.528 229.297 832.171 229.036C831.909 228.843 831.772 228.341 831.737 227.529H835.822L848.724 227.825C852.025 227.825 856.44 227.729 861.963 227.529C861.963 228.052 861.929 228.533 861.86 228.987C861.206 229.152 860.127 229.331 858.6 229.524C855.533 229.881 853.648 230.225 852.967 230.549C852.541 230.707 852.232 230.982 852.039 231.374C851.716 231.958 851.53 233.045 851.461 234.634L851.221 240.906L851.406 262.549V271.104C851.351 273.8 851.317 275.629 851.317 276.599C851.317 280.23 851.399 282.548 851.585 283.552C851.764 284.563 852.073 285.278 852.507 285.718C852.947 286.158 853.662 286.502 854.673 286.763C856.159 287.121 857.328 287.314 858.167 287.341C859.975 287.41 861.131 287.671 861.619 288.118C861.708 288.545 861.757 288.902 861.757 289.191V289.583C858.813 289.679 856.64 289.728 855.244 289.728C854.432 289.728 852.988 289.679 850.911 289.583L844.192 289.679L832.755 289.631H831.834L831.737 288.173Z" fill="#231F20"/>
<path d="M865.405 290.018C865.44 289.529 865.57 289.096 865.797 288.704C868.321 288.023 870.783 287.569 873.183 287.342C874.765 287.212 875.783 286.861 876.244 286.276C876.567 285.857 876.76 284.303 876.822 281.607L877.165 268.774L877.117 260.067L877.165 248.685V245.673C877.193 238.83 877.165 234.566 877.062 232.881C877.035 232.558 876.904 232.104 876.67 231.519C875.838 231.127 875.123 230.873 874.552 230.742C873.981 230.612 871.437 230.144 866.911 229.332C866.877 228.975 866.863 228.713 866.863 228.555C866.863 228.363 866.877 228.101 866.911 227.778C867.523 227.778 868.534 227.813 869.931 227.888L877.324 228.163L881.608 228.26L882.874 228.211C883.039 228.211 883.506 228.246 884.283 228.315C886.202 228.315 887.309 228.294 887.605 228.26L891.491 227.971C894.118 227.971 895.968 228.019 897.034 228.115C897.006 228.7 896.889 229.332 896.697 230.013C896.339 230.075 894.654 230.165 891.642 230.275C888.63 230.392 886.904 230.577 886.45 230.839C885.7 231.258 885.329 232.558 885.329 234.724C885.329 235.24 885.301 236.299 885.226 237.881V240.797L885.281 249.785V252.853L885.377 268.932L885.226 282.631L885.281 285.644C885.281 286.613 885.439 287.219 885.762 287.445C886.574 287.473 888.953 287.507 892.908 287.542H896.209L904.62 287.246C906.82 287.184 908.388 286.964 909.33 286.593C910.273 286.221 911.841 285.128 914.041 283.312C915.382 282.143 916.407 280.946 917.157 279.722C917.315 279.461 917.59 279.076 917.982 278.553C918.594 277.714 919.419 276.029 920.458 273.498H922.06C921.868 274.667 921.655 275.768 921.428 276.806C920.485 281.366 919.839 285.176 919.488 288.223C919.419 288.869 919.358 289.467 919.289 290.018L901.119 289.488C885.508 289.488 876.244 289.632 873.328 289.921C872.427 289.983 871.464 290.018 870.46 290.018H865.405Z" fill="#231F20"/>
<path d="M285.047 178.507H184.88V180.894H184.894V305.331C172.817 311.803 159.324 317.483 144.304 321.974C129.305 317.483 115.846 311.823 103.797 305.379V177.668H3.31968C3.02396 176.403 2.88643 175.688 2.8658 175.619V2.93709H285.742L285.763 175.406C285.742 175.495 285.515 176.595 285.047 178.507ZM187.294 304.018V180.894H284.429C279.216 200.171 257.009 265.491 187.294 304.018ZM101.403 304.066C30.4231 264.872 8.62207 197.853 3.93864 180.061H101.403V304.066ZM0.5 0.550668V2.93709L0.520621 175.832C0.726939 176.932 22.7961 288.441 144.249 324.457C144.249 324.484 144.304 324.484 144.304 324.484C144.352 324.484 144.352 324.457 144.4 324.457C265.798 288.42 287.867 176.932 288.101 175.619V0.550668H0.5Z" fill="#231F20"/>
<path d="M144.828 76.5897L144.808 76.6104V76.5691L144.828 76.5897Z" fill="#6DCFD7"/>
<path d="M132.962 173.016C132.418 173.525 132.026 173.697 131.889 173.759C132.281 173.539 132.652 173.291 132.962 173.016Z" fill="#EBED21"/>
<path d="M132.962 173.016C132.418 173.525 132.026 173.697 131.889 173.759C132.281 173.539 132.652 173.291 132.962 173.016Z" stroke="#231F20" stroke-width="2.38642" stroke-miterlimit="10"/>
<path d="M143.378 153.75C120.236 122.569 144.347 79.4552 144.347 79.4552C144.347 79.4552 168.225 115.018 146.789 153.627L143.378 153.75Z" fill="#EBED21"/>
<path d="M143.378 153.75C120.236 122.569 144.347 79.4552 144.347 79.4552C144.347 79.4552 168.225 115.018 146.789 153.627L143.378 153.75Z" stroke="#231F20" stroke-width="2.38642" stroke-miterlimit="10"/>
<path d="M145.05 156.716C155.538 170.849 144.617 190.394 144.617 190.394C144.617 190.394 133.785 174.274 143.503 156.771L145.05 156.716Z" fill="#EBED21"/>
<path d="M145.05 156.716C155.538 170.849 144.617 190.394 144.617 190.394C144.617 190.394 133.785 174.274 143.503 156.771L145.05 156.716Z" stroke="#231F20" stroke-width="2.38642" stroke-miterlimit="10"/>
<path d="M119.952 155.131C119.952 155.131 93.1577 160.248 100.338 133.089C108.377 117.98 134.69 121.274 138.954 152.813H133.961C133.961 152.813 134.325 139.299 120.192 139.299C106.06 139.299 112.393 153.79 119.952 155.131Z" fill="#EBED21"/>
<path d="M119.952 155.131C119.952 155.131 93.1577 160.248 100.338 133.089C108.377 117.98 134.69 121.274 138.954 152.813H133.961C133.961 152.813 134.325 139.299 120.192 139.299C106.06 139.299 112.393 153.79 119.952 155.131Z" stroke="#231F20" stroke-width="2.38642" stroke-miterlimit="10"/>
<path d="M169.397 155.131C169.397 155.131 196.19 160.248 189.004 133.089C180.964 117.98 154.652 121.274 150.388 152.813H155.387C155.387 152.813 155.016 139.299 169.149 139.299C183.282 139.299 176.948 153.79 169.397 155.131Z" fill="#EBED21"/>
<path d="M169.397 155.131C169.397 155.131 196.19 160.248 189.004 133.089C180.964 117.98 154.652 121.274 150.388 152.813H155.387C155.387 152.813 155.016 139.299 169.149 139.299C183.282 139.299 176.948 153.79 169.397 155.131Z" stroke="#231F20" stroke-width="2.38642" stroke-miterlimit="10"/>
<path d="M138.401 155.984C137.459 165.165 135.54 169.622 134.006 171.788C133.992 171.85 133.958 171.884 133.924 171.925C133.759 172.139 133.628 172.338 133.463 172.51C133.277 172.723 133.119 172.895 132.961 173.012C132.651 173.287 132.273 173.542 131.888 173.755C131.854 173.775 131.833 173.775 131.833 173.775C130.891 174.284 129.79 174.573 128.594 174.573C125.189 174.573 122.425 172.194 122.425 169.257C122.425 166.334 125.189 163.934 128.594 163.934C135.849 163.625 134.935 156.232 134.935 156.232C134.935 156.232 137.796 155.729 138.401 155.984Z" fill="#EBED21"/>
<path d="M138.401 155.984C137.459 165.165 135.54 169.622 134.006 171.788C133.992 171.85 133.958 171.884 133.924 171.925C133.759 172.139 133.628 172.338 133.463 172.51C133.277 172.723 133.119 172.895 132.961 173.012C132.651 173.287 132.273 173.542 131.888 173.755C131.854 173.775 131.833 173.775 131.833 173.775C130.891 174.284 129.79 174.573 128.594 174.573C125.189 174.573 122.425 172.194 122.425 169.257C122.425 166.334 125.189 163.934 128.594 163.934C135.849 163.625 134.935 156.232 134.935 156.232C134.935 156.232 137.796 155.729 138.401 155.984Z" stroke="#231F20" stroke-width="2.38642" stroke-miterlimit="10"/>
<path d="M150.859 155.984C151.795 165.165 153.727 169.622 155.247 171.788C155.261 171.85 155.302 171.884 155.343 171.925C155.502 172.139 155.632 172.338 155.79 172.51C155.983 172.723 156.148 172.895 156.299 173.012C156.609 173.287 156.98 173.542 157.365 173.755C157.407 173.775 157.427 173.775 157.427 173.775C158.362 174.284 159.47 174.573 160.66 174.573C164.071 174.573 166.835 172.194 166.835 169.257C166.835 166.334 164.071 163.934 160.66 163.934C153.411 163.625 154.326 156.232 154.326 156.232C154.326 156.232 151.465 155.729 150.859 155.984Z" fill="#EBED21"/>
<path d="M150.859 155.984C151.795 165.165 153.727 169.622 155.247 171.788C155.261 171.85 155.302 171.884 155.343 171.925C155.502 172.139 155.632 172.338 155.79 172.51C155.983 172.723 156.148 172.895 156.299 173.012C156.609 173.287 156.98 173.542 157.365 173.755C157.407 173.775 157.427 173.775 157.427 173.775C158.362 174.284 159.47 174.573 160.66 174.573C164.071 174.573 166.835 172.194 166.835 169.257C166.835 166.334 164.071 163.934 160.66 163.934C153.411 163.625 154.326 156.232 154.326 156.232C154.326 156.232 151.465 155.729 150.859 155.984Z" stroke="#231F20" stroke-width="2.38642" stroke-miterlimit="10"/>
<path d="M158.724 155.376C158.724 156.477 157.837 157.364 156.737 157.364H132.047C130.954 157.364 130.06 156.477 130.06 155.376C130.06 154.276 130.954 153.389 132.047 153.389H156.737C157.837 153.389 158.724 154.276 158.724 155.376Z" fill="#EBED21"/>
<path d="M158.724 155.376C158.724 156.477 157.837 157.364 156.737 157.364H132.047C130.954 157.364 130.06 156.477 130.06 155.376C130.06 154.276 130.954 153.389 132.047 153.389H156.737C157.837 153.389 158.724 154.276 158.724 155.376Z" stroke="#231F20" stroke-width="2.38642" stroke-miterlimit="10"/>
</g>
</g>
</g>
<defs>
<clipPath id="clip0_704_30">
<rect width="999" height="326" fill="white"/>
</clipPath>
<clipPath id="clip1_704_30">
<rect width="1000" height="326.01" fill="white"/>
</clipPath>
</defs>
</svg>
