<svg xmlns="http://www.w3.org/2000/svg" width="999" height="326" fill="none"><g clip-path="url(#a)"><path fill="#fff" d="M0 0h999v326H0z"/><g clip-path="url(#b)"><mask id="c" width="1658" height="1084" x="-75" y="-131" maskUnits="userSpaceOnUse" style="mask-type:luminance"><path fill="#fff" d="M-74.95 952.562h1657.03V-130.019H-74.95V952.562Z"/></mask><g mask="url(#c)"><path fill="#EAEAE7" d="M2.293 178.479s20.9 88.174 100.312 127.381c7.166 2.785 10.749-13.335 10.749-13.335l2.194-109.472-14.332-18.707-98.923 14.133ZM285.913 179.471S258.645 275.202 186 305.854s-19.71-121.205-19.71-121.205l39.015-17.117 80.608 11.939Z"/><path fill="#EE252B" d="M286.712 178.475H2.591v-74.439h284.121v74.439Z"/><path fill="#EE252B" d="m185.205 307.943-39.854 15.825-42.034-16.121-.309-305.413h82.197v305.709Z"/><path fill="#EAEAE7" d="M103.206 104.042H2.089V1.757h101.117v102.285Z"/></g><mask id="d" width="1591" height="733" x="-9" y="-131" maskUnits="userSpaceOnUse" style="mask-type:luminance"><path fill="#fff" d="M-8.068 601.593H1582v-731.612H-8.068v731.612Z"/></mask><g mask="url(#d)"><path stroke="#231F20" stroke-miterlimit="10" stroke-width="2.386" d="M103.207 104.042H2.09V1.757h101.117v102.285Z"/></g><mask id="e" width="1658" height="1084" x="-75" y="-131" maskUnits="userSpaceOnUse" style="mask-type:luminance"><path fill="#fff" d="M-74.95 952.562h1657.03V-130.019H-74.95V952.562Z"/></mask><g mask="url(#e)"><path fill="#EAEAE7" stroke="#231F20" stroke-miterlimit="10" stroke-width="2.386" d="M286.609 104.042H185.492V1.757h101.117v102.285Z"/><path fill="#231F20" d="M141.028 325.485c-.021 0-.048.02-.069.02v-.041c.021.021.048.021.069.021ZM141.101 325.462l-.028.048c-.02 0-.02 0-.041-.028.021 0 .041-.02.069-.02ZM439.886 198.887H326.769l1.898-6.534h1.685c9.057 0 14.318-2.104 18.321-6.107 3.59-3.37 5.907-8.844 10.955-25.7l20.646-67.61c.206-.633.846-2.318 1.472-4.842 2.324-8.005 2.53-9.69 2.53-12.854 0-7.365-3.796-9.264-20.013-9.896l-1.471-.213 1.685-6.74h68.669l-2.111 6.74c-5.261.213-5.901.213-8.844.632-4.223.846-8.638 2.737-11.582 5.474-3.369 3.164-5.694 9.058-10.742 25.495l-20.645 67.191c-2.751 9.263-4.223 14.951-4.223 17.688 0 6.114 5.068 8.005 21.072 8.005 28.431 0 38.341-6.107 49.083-29.909h8.212l-13.48 39.18ZM514.234 132.115c-2.318 4.635-5.055 10.323-8.432 17.063a2184.988 2184.988 0 0 0-9.263 18.328c-5.475 10.735-7.16 14.318-7.16 16.01 0 1.678 1.259 2.73 2.944 2.73 3.156 0 12.853-8.218 20.219-16.849l5.055 4.422c-5.475 6.533-7.16 8.218-10.323 11.375-10.735 10.742-21.058 16.643-28.644 16.643-5.894 0-10.103-4.422-10.103-10.536 0-4.209 2.105-10.103 7.579-20.852l9.057-18.108c12.428-24.648 14.952-30.129 14.952-32.86 0-1.272-.832-1.898-2.318-1.898-3.782 0-13.259 8.425-21.485 18.954l-5.474-4.209c13.906-18.96 29.07-30.755 39.813-30.755 5.9 0 9.903 4.216 9.903 10.323 0 4.635-2.118 11.162-6.32 20.219ZM633.659 136.114c-5.268 10.743-11.375 22.957-16.636 33.073-4.642 8.631-6.327 12.421-6.327 14.745 0 1.472 1.059 2.311 2.531 2.311 3.583 0 10.323-5.261 20.638-16.636l5.055 4.422c-15.797 18.954-28.43 28.011-39.173 28.011-5.9 0-10.109-4.209-10.109-10.316 0-1.898.419-3.789 1.052-5.687a107.299 107.299 0 0 1 7.159-16.643c2.318-4.636 5.688-10.956 9.697-18.954 10.522-20.226 14.105-28.651 14.105-32.234 0-2.104-1.471-3.576-3.583-3.576-2.524 0-6.313 1.898-10.735 5.055-3.164 2.317-6.32 4.635-9.484 7.372-15.584 13.48-22.324 22.117-31.594 41.917l-9.903 21.065-2.738 5.894-2.524 5.474-17.488-1.891 18.114-40.445 2.958-6.733 6.946-16.224c.839-2.104 2.111-4.841 3.163-7.585 2.105-5.261 2.524-6.953 2.524-8.418 0-1.479-.633-2.111-1.891-2.111-4.01 0-12.221 7.159-21.278 18.534l-5.475-4.209 2.318-2.95c7.586-9.477 11.368-13.906 17.688-18.961 7.166-5.687 13.273-8.425 18.954-8.425 5.694 0 9.271 3.583 9.271 9.69 0 5.268-2.105 12.008-6.733 22.537 8.424-8.844 10.529-10.948 16.849-16.423 11.368-9.903 23.802-16.01 33.066-16.01 6.953 0 11.375 4.209 11.375 10.949 0 5.061-2.318 12.214-7.792 23.382ZM728.014 128.324c-4.216 0-6.534-2.317-8.631-9.27-1.905-5.901-3.803-8.005-6.967-8.005-2.937 0-6.726 2.317-10.529 6.746-13.892 15.797-26.533 43.389-26.533 58.553 0 7.586 4.216 12.428 11.169 12.428 6.733 0 15.79-4.636 26.113-13.267l4.209 4.422c-16.43 15.378-28.85 22.118-41.071 22.118-12.214 0-20.212-9.058-20.212-22.537 0-7.799 2.317-16.643 6.946-26.753 14.531-30.755 37.281-51.187 57.501-51.187 11.368 0 19.586 6.114 19.586 14.745 0 6.107-5.694 12.007-11.581 12.007ZM809.514 126.639c0-9.477-4.842-15.584-12.641-15.584-6.732 0-14.105 4.628-20.006 12.427-11.581 15.164-21.484 40.232-21.484 54.551 0 9.057 5.268 15.377 13.28 15.377 8.204 0 18.734-9.057 26.106-22.537 8.638-15.797 14.745-33.066 14.745-43.602v-.632Zm-35.803 75.615c-18.528 0-31.808-14.318-31.808-34.751 0-34.338 23.383-65.506 49.083-65.506 18.954 0 32.007 14.113 32.007 34.964 0 34.758-23.162 65.293-49.282 65.293ZM902.827 45.121l-1.685 4.635c-.633 1.479-1.478 3.79-2.744 6.953-2.104 5.894-2.737 6.946-4.848 12.427l-36.656 100.051-1.685 4.849c-1.472 3.995-2.318 6.313-2.517 7.159-.207.839-.427 1.891-.427 2.524 0 1.898.846 2.95 2.538 2.95 3.37 0 11.788-6.739 20.852-16.643l5.048 4.429c-14.532 17.695-28.438 27.592-38.54 27.592-6.534 0-10.323-3.583-10.323-10.11 0-3.37.846-6.533 3.163-13.06l2.311-6.746 1.898-4.842 25.068-68.663 2.311-6.533c3.376-9.69 4.216-11.795 6.313-18.115 1.692-5.474 2.325-8.211 2.325-10.529 0-5.481-4.216-7.586-20.646-9.69l2.111-6.107c3.363.206 4.636.42 7.16.42 15.59 0 29.283-1.899 40.018-5.688l-1.045 2.737ZM991.701 136.114c-5.261 10.743-11.361 22.957-16.636 33.073-4.635 8.631-6.32 12.421-6.32 14.745 0 1.472 1.052 2.311 2.524 2.311 3.59 0 10.322-5.261 20.645-16.636l5.062 4.422c-15.797 18.954-28.438 28.011-39.187 28.011-5.887 0-10.103-4.209-10.103-10.316 0-1.898.413-3.789 1.046-5.687a107.299 107.299 0 0 1 7.159-16.643c2.325-4.636 5.688-10.956 9.69-18.954 10.536-20.226 14.126-28.651 14.126-32.234 0-2.104-1.485-3.576-3.59-3.576-2.531 0-6.32 1.898-10.742 5.055-3.157 2.317-6.313 4.635-9.484 7.372-15.584 13.48-22.317 22.117-31.594 41.917l-9.89 21.065-2.744 5.894-2.531 5.474-17.482-1.891 18.122-40.445 2.944-6.733 6.946-16.224c.845-2.104 2.111-4.841 3.163-7.585 2.105-5.261 2.538-6.953 2.538-8.418 0-1.479-.633-2.111-1.912-2.111-3.996 0-12.207 7.159-21.265 18.534l-5.481-4.209 2.318-2.95c7.579-9.477 11.382-13.906 17.702-18.961 7.159-5.687 13.259-8.425 18.954-8.425 5.687 0 9.263 3.583 9.263 9.69 0 5.268-2.097 12.008-6.732 22.537 8.411-8.844 10.522-10.948 16.849-16.423 11.368-9.903 23.802-16.01 33.059-16.01 6.953 0 11.382 4.209 11.382 10.949 0 5.061-2.311 12.214-7.799 23.382ZM536.625 24.671a46.13 46.13 0 0 1 .55 7.215c0 .488-.02 1.141-.048 1.966-.419.09-.736.138-.956.138-.186 0-.447-.034-.777-.096-1.272-3.563-3.37-6.3-6.258-8.219-2.889-1.918-6.465-2.874-10.722-2.874-2.263 0-4.168.261-5.715.777-2.744.942-5.144 2.242-7.214 3.9a23.498 23.498 0 0 0-5.255 5.934c-1.43 2.304-2.565 5.09-3.404 8.363a40.789 40.789 0 0 0-1.251 10.02c0 6.513.997 11.898 2.971 16.141 1.973 4.25 4.69 7.276 8.128 9.085 3.439 1.816 6.905 2.724 10.406 2.724l2.152-.049c2.435-.302 4.092-.598 4.973-.866 2.228-.64 4.057-1.396 5.501-2.263 1.445-.866 2.861-2.09 4.244-3.68 1.389-1.58 2.565-3.417 3.542-5.522l.55-.178c.158 0 .385.089.687.268-.027.736-.055 1.203-.096 1.416-1.279 5.145-2.201 8.666-2.778 10.55-.495.124-1.101.303-1.83.55-3.562 1.218-8.335 1.823-14.297 1.823-4.801 0-8.404-.323-10.791-.977-2.4-.66-5-1.678-7.812-3.06-2.813-1.39-5.296-3.219-7.414-5.502-2.139-2.283-3.865-5.172-5.158-8.658-1.321-3.48-1.967-7.283-1.967-11.39 0-3.898.509-7.303 1.547-10.205 1.039-2.91 2.627-5.853 4.794-8.837 2.159-2.985 4.711-5.46 7.654-7.441 2.937-1.981 6.197-3.384 9.793-4.203 2.524-.55 6.101-.825 10.722-.825 3.384 0 6.561.454 9.546 1.348 2.985.901 4.979 1.774 5.983 2.627ZM543.885 79.099a7.077 7.077 0 0 1 2.063-.502c4.656-.303 7.31-.86 7.984-1.672.674-.804 1.005-4.71 1.005-11.718l-.042-4.8v-5.028l-.185-5.53.089-3.245-.048-3.563V38.84l-.09-1.877.09-2.373c.034-.55.048-1.19.048-1.919 0-1.919-.089-3.947-.268-6.08a6.906 6.906 0 0 0-.502-1.237c-1.128-.578-2.944-.963-5.461-1.163-2.517-.199-3.94-.42-4.264-.66-.254-.186-.392-.66-.419-1.417h3.851l12.111.276c3.108 0 7.255-.097 12.448-.276 0 .489-.041.943-.096 1.37-.613.15-1.624.315-3.054.501-2.902.337-4.663.653-5.302.963a1.607 1.607 0 0 0-.874.77c-.302.55-.481 1.575-.543 3.068l-.227 5.893.179 20.336v8.047c-.055 2.524-.083 4.25-.083 5.165 0 3.41.076 5.59.241 6.533.172.942.461 1.623.866 2.036.413.406 1.094.736 2.043.976 1.389.337 2.49.523 3.281.55 1.705.062 2.792.303 3.239.73.103.398.144.735.144 1.01v.365c-2.778.09-4.821.13-6.134.13-.757 0-2.119-.04-4.072-.13l-6.306.09-10.743-.049h-.873l-.096-1.368Z"/><path fill="#231F20" d="m573.973 28.963 1.87-6.898c.124-.908.289-1.5.509-1.754.214-.261.454-.392.723-.392.55 0 1.176.66 1.884 1.967.516.942.935 1.54 1.272 1.802.33.261.819.433 1.458.523l.461-.042 1.967.18 10.77.137 12.75-.042h3.735l7.083-.13c.303 0 .681.027 1.142.082 2.07.186 3.342.275 3.83.275.461 0 .826-.151 1.101-.447.082-.117.598-1.128 1.499-3.019.406-.853.88-1.286 1.465-1.286.241 0 .543.062.915.186.151.605.227 1.148.227 1.63l-.049 1.815.049 3.852c0 .935-.076 3.954-.227 9.057 0 .337-.062.64-.179.908-.337.213-.626.316-.874.316-.24 0-.46-.11-.632-.337-.186-.227-.42-.928-.695-2.104-.605-2.717-1.369-4.663-2.283-5.84-.612-.756-1.486-1.299-2.62-1.629-1.142-.33-3.872-.502-8.198-.502h-7.71a54.382 54.382 0 0 0-.103 3.342l.372 28.376c0 1.128-.062 3.26-.179 6.403l.048 6.08-.048 3.376c0 1.073.179 1.83.543 2.29.365.454 1.348.894 2.964 1.32 2.813.702 4.67 1.128 5.626 1.28.577.062 1.038.185 1.417.364v1.376l-6.493-.165c-3.555-.028-6.244-.097-8.032-.2l-6.664.317-4.883.275c-1.369 0-2.215-.028-2.517-.09l-.633-.275c.055-.701.186-1.148.399-1.348.22-.2.784-.358 1.699-.481 1.272-.18 2.785-.51 4.518-.977 1.74-.474 2.875-.956 3.425-1.444.302-.275.509-.73.639-1.369.275-1.34.406-3.968.406-7.902v-7.757l-.179-16.946-.185-3.652-.042-12.193h-7.358c-4.374 0-7.043.268-7.992.798-1.492.825-3.713 3.253-6.671 7.269-.963 1.5-1.815 2.256-2.551 2.256l-.406-.09c-.124-.185-.186-.35-.186-.502 0-.364.248-1.465.736-3.294.605-2.338.963-3.92 1.087-4.745ZM631.611 21.746h2.187c.798 0 2.531.042 5.2.124 4.153.158 7.585.24 10.322.24l5.351-.088c.756 0 1.478.061 2.187.178.206.248.323.502.323.777v.503l-1.148.55h-.502l-2.573.048-1.341-.048c-1.038 0-1.877.227-2.517.687-.488.33-.729.681-.729 1.046 0 .399.207.9.633 1.506.151.247.399.612.736 1.1.605 1.032 1.417 2.242 2.414 3.61 1.43 2.009 2.964 4.389 4.566 7.126.64 1.1 1.314 2.152 2.008 3.156l6.953 10.509c.461-.578 1.08-1.43 1.878-2.559l6.588-9.456 7.593-11.382c.674-1.038 1.066-1.795 1.196-2.283.055-.24.09-.502.09-.777 0-.64-.289-1.155-.867-1.554-.949-.64-2.984-1.108-6.12-1.417a24.45 24.45 0 0 1-.867-.138c-.213-.364-.323-.667-.323-.907 0-.186.014-.386.048-.599l2.373-.041 8.582.227 6.898-.138c.179 0 .826.014 1.919.049l-.144 1.595c-.214.062-.55.11-.998.138l-1.093.137c-.193.028-.481.062-.873.09-.647.247-1.142.502-1.513.777-4.464 4.718-8.274 9.174-11.41 13.376-3.136 4.202-5.784 8.026-7.943 11.464-.708 1.128-1.259 1.967-1.692 2.51-.798 1.04-1.258 1.796-1.423 2.284-.324 1.19-.496 2.992-.496 5.399 0 9.483.172 15.081.496 16.787.192.86.44 1.376.742 1.554.784.4 3.934.874 9.457 1.424v.53c0 .357-.117.79-.324 1.292l-11.712-.502-7.826.413h-6.396c-.612 0-1.279-.014-2.015-.048-.124-.33-.186-.578-.186-.73 0-.15.048-.364.145-.639.213-.179.419-.289.632-.316l5.922-.915c2.049-.674 3.198-1.128 3.438-1.368.372-.372.599-.929.681-1.692.035-.55.048-4.78.048-12.696 0-2.95-.089-4.752-.295-5.412-.193-.653-.846-1.802-1.94-3.446l-5.976-9.084-10.192-14.842c-1.754-2.572-3.294-4.291-4.601-5.165-.578-.392-2.022-.701-4.34-.907-.24 0-.612-.035-1.093-.097l-.138-1.96ZM753.246 79.783c2.558 0 5.22-.357 7.971-1.073 2.758-.715 5.192-1.905 7.331-3.562 2.125-1.657 3.789-3.542 4.993-5.66 1.204-2.118 2.18-4.835 2.895-8.15a45.827 45.827 0 0 0 1.101-9.958c0-4.14-.612-8.232-1.816-12.283a22.334 22.334 0 0 0-4.615-8.239 21.956 21.956 0 0 0-7.716-5.618c-3.019-1.328-6.231-1.988-9.642-1.988-2.771 0-5.481.454-8.122 1.369-2.648.914-4.828 2.077-6.533 3.493-1.706 1.417-3.288 3.425-4.753 6.032-1.457 2.6-2.572 5.467-3.328 8.603-.763 3.136-1.142 5.908-1.142 8.315 0 2.524.379 5.385 1.142 8.583.756 3.197 1.802 5.97 3.129 8.307a25.858 25.858 0 0 0 4.89 6.238 20.655 20.655 0 0 0 6.499 4.154c2.407.956 4.979 1.437 7.716 1.437ZM721.562 51.38c0-3.102.365-5.866 1.115-8.287.742-2.42 2.001-5.048 3.768-7.868 1.761-2.84 3.893-5.206 6.389-7.11 2.504-1.899 5.949-3.584 10.364-5.049 3.102-1.004 7.036-1.506 11.781-1.506 3.205 0 6.334.434 9.388 1.28 3.06.852 5.839 2.042 8.328 3.562 2.497 1.527 5 3.865 7.489 7.035 1.734 2.187 3.047 4.546 3.927 7.077a31.012 31.012 0 0 1 1.733 10.275c0 4.016-.378 7.358-1.162 10-.777 2.647-2.07 5.267-3.906 7.853-1.431 2.008-3.879 4.326-7.345 6.94-2.311 1.767-5.186 3.197-8.624 4.27-3.446 1.08-7.159 1.623-11.141 1.623-4.051 0-7.669-.474-10.832-1.417-3.164-.942-5.798-2.097-7.923-3.445-2.111-1.355-4.291-3.356-6.526-6.01-2.235-2.649-3.941-5.572-5.089-8.762-1.156-3.199-1.734-6.685-1.734-10.46ZM793.066 81.25l.042-1.114c.667-.323 1.781-.619 3.342-.88 1.561-.255 2.634-.516 3.225-.777a4.31 4.31 0 0 0 1.472-1.025c.275-1.341.406-3.762.406-7.27V34.63l.144-5.894c0-1.217-.24-2.056-.722-2.517-.467-.454-1.705-.873-3.727-1.252-2.008-.385-3.184-.694-3.549-.935-.364-.247-.543-.502-.543-.777 0-.151.048-.35.137-.598.392-.241.798-.365 1.238-.365.454 0 1.383.035 2.779.096h1.279c.426 0 1.63-.034 3.61-.096h6.348l13.101-.227 13.879-.55h1.238l1.96-.041c.55 0 1.038.151 1.465.454.185.488.288.839.309 1.052l-.041 1.83.412 8.17c0 .337-.027.763-.089 1.279-.488.213-.928.316-1.32.316-.276 0-.489-.09-.64-.268-.248-.337-.399-.977-.461-1.919-.124-1.314-.591-2.998-1.41-5.069-.399-.976-1.052-1.643-1.96-2.008-1.822-.701-4.896-1.052-9.215-1.052-2.036 0-3.934.055-5.695.158-1.767.11-2.847.159-3.239.159l-3.562-.042c-1.451 0-2.648.213-3.59.64-.64.275-.963.928-.963 1.96v.688a90.38 90.38 0 0 1 .138 5.157l-.138 12.42a21.6 21.6 0 0 0 .268 3.474l1.328.09 2.551-.138h8.707c3.493 0 5.921-.24 7.29-.73.914-.336 1.595-.838 2.049-1.505.158-.214.53-1.417 1.142-3.61l.591-3.79c.371-.186.64-.275.825-.275.145 0 .392.075.722.227.124.701.207 1.767.234 3.198l.55 16.8c-.515.22-.914.324-1.189.324l-.502-.09c-.489-3.046-1.245-5.432-2.277-7.172-.371-.606-.784-.956-1.238-1.046-.791-.186-4.415-.275-10.866-.275-2.008 0-3.397.014-4.154.048-1.829.09-2.922.13-3.287.13h-.468c-.907 0-1.561.125-1.953.365-.124.372-.185.626-.185.777v3.15c0 .372.013 1.892.048 4.574l-.097 15.11c0 .425.124.962.372 1.601.639.516 1.795.86 3.493 1.025 1.685.165 3.281.571 4.766 1.21.853.4 1.273.84 1.273 1.328 0 .206-.055.406-.179.591-.117.18-.33.317-.633.413-2.489-.523-5.942-.777-10.35-.777-2.338 0-4.814.213-7.428.64-1.795.268-3.844.405-6.155.405l-.908-.22ZM535.84 230.255c.392 2.496.584 5.054.584 7.682 0 .515-.02 1.21-.055 2.083-.447.097-.791.152-1.011.152-.206 0-.481-.035-.832-.103-1.368-3.79-3.576-6.706-6.657-8.741-3.074-2.043-6.877-3.068-11.416-3.068-2.401 0-4.429.275-6.073.826-2.916 1.004-5.474 2.386-7.682 4.16a24.858 24.858 0 0 0-5.591 6.314c-1.52 2.448-2.724 5.412-3.611 8.892a42.696 42.696 0 0 0-1.341 10.667c0 6.932 1.059 12.654 3.157 17.179 2.111 4.518 4.993 7.737 8.651 9.663 3.659 1.932 7.359 2.895 11.08 2.895l2.283-.048c2.593-.323 4.353-.633 5.289-.929 2.372-.68 4.325-1.478 5.859-2.407 1.534-.921 3.04-2.221 4.525-3.906 1.472-1.685 2.724-3.645 3.762-5.88l.585-.193c.158 0 .399.097.722.289-.034.777-.062 1.279-.09 1.506-1.368 5.475-2.352 9.216-2.964 11.224-.522.131-1.169.323-1.946.585-3.789 1.293-8.858 1.946-15.206 1.946-5.116 0-8.947-.351-11.491-1.052-2.545-.688-5.317-1.781-8.308-3.253a26.934 26.934 0 0 1-7.902-5.853c-2.27-2.427-4.092-5.495-5.481-9.208-1.403-3.707-2.091-7.751-2.091-12.125 0-4.14.55-7.765 1.644-10.859 1.1-3.088 2.799-6.224 5.102-9.402 2.297-3.17 5.014-5.811 8.143-7.915 3.129-2.105 6.602-3.597 10.419-4.477 2.689-.578 6.499-.874 11.423-.874 3.59 0 6.974.482 10.144 1.438 3.178.955 5.31 1.884 6.376 2.792ZM579.762 288.899c2.724 0 5.543-.378 8.48-1.142 2.93-.756 5.529-2.029 7.799-3.789 2.269-1.761 4.037-3.776 5.316-6.025 1.279-2.249 2.318-5.137 3.088-8.672a49.135 49.135 0 0 0 1.162-10.591c0-4.408-.646-8.762-1.932-13.074a23.731 23.731 0 0 0-4.911-8.768c-2.269-2.579-5.006-4.567-8.218-5.976-3.198-1.41-6.623-2.112-10.247-2.112-2.951 0-5.832.482-8.652 1.451-2.82.977-5.137 2.215-6.953 3.721-1.809 1.506-3.494 3.645-5.048 6.41-1.554 2.778-2.737 5.825-3.548 9.16-.812 3.342-1.218 6.286-1.218 8.851 0 2.689.406 5.729 1.218 9.133.811 3.398 1.918 6.348 3.328 8.844a27.79 27.79 0 0 0 5.199 6.63 21.986 21.986 0 0 0 6.926 4.422c2.558 1.018 5.295 1.527 8.211 1.527Zm-33.719-30.219c0-3.308.392-6.244 1.197-8.823.784-2.573 2.118-5.365 4.009-8.384 1.871-3.012 4.14-5.529 6.788-7.551 2.668-2.022 6.334-3.817 11.031-5.371 3.308-1.066 7.483-1.603 12.537-1.603 3.405 0 6.733.454 9.986 1.362 3.26.908 6.21 2.166 8.872 3.789 2.655 1.623 5.309 4.113 7.964 7.483a25.566 25.566 0 0 1 4.181 7.531 32.979 32.979 0 0 1 1.843 10.934c0 4.278-.412 7.827-1.238 10.64-.825 2.819-2.207 5.605-4.154 8.362-1.519 2.132-4.126 4.594-7.819 7.38-2.469 1.877-5.522 3.397-9.188 4.546-3.659 1.148-7.613 1.719-11.85 1.719-4.312 0-8.149-.502-11.519-1.506-3.37-1.004-6.183-2.222-8.432-3.666-2.248-1.444-4.566-3.569-6.946-6.382-2.379-2.82-4.188-5.935-5.419-9.332-1.224-3.405-1.843-7.112-1.843-11.128ZM647.595 227.339c.152.551.234.97.234 1.259 0 .199-.048.488-.137.88-.846.227-1.527.337-2.043.337-.227 0-.605-.02-1.142-.076a14.825 14.825 0 0 0-1.292-.068c-1.493 0-2.662.295-3.542.873-.585.358-.936.825-1.073 1.41l-.488 5.543.151 24.077c.027 8.817.316 14.305.88 16.465.543 2.152 1.465 3.927 2.765 5.316 1.293 1.396 3.246 2.551 5.846 3.459 2.613.908 5.144 1.362 7.613 1.362 5.508 0 9.724-.798 12.661-2.387 2.923-1.588 5.027-3.782 6.313-6.588 1.272-2.799 1.919-7.056 1.919-12.764 0-.165-.055-1.458-.151-3.893v-1.41c0-.516.027-1.533.096-3.039.075-1.507.103-2.394.103-2.648l-.736-13.961c-.227-4.697-.495-7.469-.805-8.315-.302-.839-.742-1.471-1.327-1.898-1.265-.901-3.659-1.712-7.187-2.428a4.883 4.883 0 0 1-.295-1.409 36.26 36.26 0 0 1 3.741-.193c1.286 0 2.655.048 4.085.144 2.125.166 3.294.241 3.487.241l7.689-.241 1.492.049-.041 1.746c-3.989.523-6.362 1.128-7.146 1.823-.777.701-1.162 1.987-1.162 3.872 0 1.004.062 3.191.199 6.561l.337 10.068-.048 3.982.138 5.062c0 6.354-.172 10.68-.537 12.984-.509 3.212-1.244 5.756-2.2 7.634-.963 1.877-2.339 3.576-4.161 5.082-1.809 1.506-4.237 2.744-7.256 3.721-3.039.969-6.017 1.458-8.968 1.458-4.642 0-7.964-.324-10.006-.97-3.728-1.135-6.699-2.613-8.892-4.429-2.201-1.816-3.728-3.631-4.567-5.447-1.135-2.393-1.699-5.894-1.699-10.501v-3.356l-.151-13.618.151-10.989v-7.387c0-1.884-.261-3.198-.777-3.94-.357-.516-.873-.784-1.554-.784l-2.868.055c-2.146 0-3.507-.227-4.085-.681a2.547 2.547 0 0 1-.144-.784c0-.289.096-.516.295-.674.351-.261.791-.392 1.3-.392h1.279l3.24-.048h7.688l12.778-.145ZM691.029 230.304l-.049-2.331c5.021 0 8.7-.131 11.032-.392.901-.096 1.533-.144 1.898-.144.289 0 .722.02 1.306.048a26.645 26.645 0 0 1 3.79 3.885c.254.296.55.619.873.977l10.247 11.32 1.451 1.747c2.084 2.427 3.976 4.504 5.674 6.224 1.699 1.712 5.014 5.295 9.938 10.735l11.602 12.881a240.414 240.414 0 0 0 4.381 4.704l.048-.777c-.193-4.498-.296-6.877-.296-7.138l.2-2.916-.097-4.567v-2.091c0-1.327-.117-5.426-.344-12.296-.027-.935-.171-2.71-.385-5.316-.227-2.607-.35-4.904-.35-6.878 0-3.562-.2-5.632-.626-6.217-.289-.419-1.671-.859-4.127-1.313-.584-.035-1.492-.131-2.723-.289-1.451-.069-2.311-.151-2.579-.248-.261-.096-.516-.371-.77-.825a4.258 4.258 0 0 1 .433-1.458 9.248 9.248 0 0 1 2.579-.385c.901 0 2.029.11 3.377.337 1.341.227 2.551.344 3.617.344 1.493 0 3.81-.096 6.953-.296 1.774-.131 3.012-.192 3.686-.192h.832l-.103 1.506c-.522.227-1.231.364-2.139.412-.9.048-1.746.186-2.517.413-1.169.358-1.877.667-2.097.921-.777.846-1.169 1.706-1.169 2.579l.543 15.351.385 7.049-.048 2.035.289 9.773c.192 6.671.296 12.469.296 17.393 0 1.066-.076 3.383-.193 6.946l-2.27.192c-1.134-1.293-5.041-5.371-11.712-12.241-1.554-1.582-2.606-2.703-3.163-3.349l-4.181-4.808c-1.617-1.781-2.669-2.916-3.157-3.404-.482-.488-.839-.839-1.066-1.073-3.535-4.016-8.122-9.037-13.755-15.061-1.526-1.616-3.762-4.147-6.719-7.579-1.836-2.173-3.005-3.5-3.493-3.982-.482-.488-1.149-1.038-1.988-1.657l-.144 1.657c0 6.314.158 15.027.481 26.141l.337 16.079c.034 1.362.117 2.675.248 3.934l1.691.392c3.088.289 6.114.729 9.092 1.313.227.193.427.337.585.434l-.048 1.849c-.516.159-.936.241-1.259.241-.371 0-.798-.027-1.314-.096-3.211-.261-7.118-.392-11.712-.392-3.239 0-6.086.082-8.548.247l-.681.042c-.296 0-.722-.028-1.265-.09l-.055-1.458 1.272-.584 2.283-.337c2.036-.296 3.528-.619 4.464-.977.619-.227 1.121-.564 1.513-1.018.35-2.235.522-5.508.522-9.813 0-2.009-.041-5.688-.137-11.032v-6.609l-.097-13.796c-.075-6.155-.275-9.786-.639-10.886-.186-.585-.592-1.101-1.204-1.555-1.231-.873-2.84-1.423-4.834-1.65-2.002-.227-3.281-.42-3.865-.585ZM824.013 230.255c.386 2.496.578 5.054.578 7.682 0 .515-.014 1.21-.055 2.083-.447.097-.784.152-1.011.152-.199 0-.474-.035-.825-.103-1.369-3.79-3.59-6.706-6.657-8.741-3.074-2.043-6.884-3.068-11.417-3.068-2.4 0-4.429.275-6.072.826-2.916 1.004-5.475 2.386-7.675 4.16-2.215 1.761-4.072 3.865-5.598 6.314-1.52 2.448-2.724 5.412-3.611 8.892a43.023 43.023 0 0 0-1.341 10.667c0 6.932 1.052 12.654 3.157 17.179 2.104 4.518 4.993 7.737 8.644 9.663 3.666 1.932 7.359 2.895 11.087 2.895l2.283-.048c2.593-.323 4.346-.633 5.288-.929 2.373-.68 4.319-1.478 5.86-2.407 1.534-.921 3.04-2.221 4.525-3.906 1.472-1.685 2.717-3.645 3.762-5.88l.585-.193c.151 0 .392.097.722.289a37.277 37.277 0 0 1-.09 1.506c-1.368 5.475-2.352 9.216-2.964 11.224-.516.131-1.169.323-1.946.585-3.789 1.293-8.858 1.946-15.206 1.946-5.123 0-8.947-.351-11.492-1.052-2.544-.688-5.316-1.781-8.307-3.253a26.934 26.934 0 0 1-7.902-5.853c-2.27-2.427-4.092-5.495-5.482-9.208-1.403-3.707-2.09-7.751-2.09-12.125 0-4.14.55-7.765 1.643-10.859 1.101-3.088 2.799-6.224 5.096-9.402 2.304-3.17 5.028-5.811 8.15-7.915 3.129-2.105 6.602-3.597 10.419-4.477 2.689-.578 6.492-.874 11.423-.874 3.59 0 6.974.482 10.144 1.438 3.178.955 5.303 1.884 6.375 2.792ZM831.737 288.173a7.432 7.432 0 0 1 2.18-.536c4.966-.323 7.792-.915 8.508-1.774.708-.86 1.072-5.021 1.072-12.469l-.061-5.11v-5.35l-.186-5.88.096-3.46-.048-3.789v-4.477l-.096-1.995.096-2.524a36.02 36.02 0 0 0 .048-2.049c0-2.036-.096-4.195-.289-6.465a6.167 6.167 0 0 0-.543-1.313c-1.19-.612-3.129-1.025-5.798-1.238-2.675-.206-4.188-.447-4.545-.708-.262-.193-.399-.695-.434-1.507h4.085l12.902.296c3.301 0 7.716-.096 13.239-.296 0 .523-.034 1.004-.103 1.458-.654.165-1.733.344-3.26.537-3.067.357-4.952.701-5.633 1.025a1.62 1.62 0 0 0-.928.825c-.323.584-.509 1.671-.578 3.26l-.24 6.272.185 21.643v8.555c-.055 2.696-.089 4.525-.089 5.495 0 3.631.082 5.949.268 6.953.179 1.011.488 1.726.922 2.166.44.44 1.155.784 2.166 1.045 1.486.358 2.655.551 3.494.578 1.808.069 2.964.33 3.452.777.089.427.138.784.138 1.073v.392c-2.944.096-5.117.145-6.513.145-.812 0-2.256-.049-4.333-.145l-6.719.096-11.437-.048h-.921l-.097-1.458ZM865.405 290.018c.035-.489.165-.922.392-1.314a44.409 44.409 0 0 1 7.386-1.362c1.582-.13 2.6-.481 3.061-1.066.323-.419.516-1.973.578-4.669l.343-12.833-.048-8.707.048-11.382v-3.012c.028-6.843 0-11.107-.103-12.792-.027-.323-.158-.777-.392-1.362-.832-.392-1.547-.646-2.118-.777-.571-.13-3.115-.598-7.641-1.41a8.98 8.98 0 0 1-.048-.777c0-.192.014-.454.048-.777.612 0 1.623.035 3.02.11l7.393.275 4.284.097 1.266-.049c.165 0 .632.035 1.409.104 1.919 0 3.026-.021 3.322-.055l3.886-.289c2.627 0 4.477.048 5.543.144-.028.585-.145 1.217-.337 1.898-.358.062-2.043.152-5.055.262-3.012.117-4.738.302-5.192.564-.75.419-1.121 1.719-1.121 3.885 0 .516-.028 1.575-.103 3.157v2.916l.055 8.988v3.068l.096 16.079-.151 13.699.055 3.013c0 .969.158 1.575.481 1.801.812.028 3.191.062 7.146.097h3.301l8.411-.296c2.2-.062 3.768-.282 4.71-.653.943-.372 2.511-1.465 4.711-3.281 1.341-1.169 2.366-2.366 3.116-3.59.158-.261.433-.646.825-1.169.612-.839 1.437-2.524 2.476-5.055h1.602a64.086 64.086 0 0 1-.632 3.308c-.943 4.56-1.589 8.37-1.94 11.417-.069.646-.13 1.244-.199 1.795l-18.17-.53c-15.611 0-24.875.144-27.791.433-.901.062-1.864.097-2.868.097h-5.055ZM285.047 178.507H184.88v2.387h.014v124.437c-12.077 6.472-25.57 12.152-40.59 16.643-14.999-4.491-28.458-10.151-40.507-16.595V177.668H3.32c-.296-1.265-.434-1.98-.454-2.049V2.937h282.876l.021 172.469c-.021.089-.248 1.189-.716 3.101Zm-97.753 125.511V180.894h97.135c-5.213 19.277-27.42 84.597-97.135 123.124Zm-85.891.048c-70.98-39.194-92.78-106.213-97.464-124.005h97.464v124.005ZM.5.551v2.386l.02 172.895c.207 1.1 22.276 112.609 143.729 148.625 0 .027.055.027.055.027.048 0 .048-.027.096-.027 121.398-36.037 143.467-147.525 143.701-148.838V.551H.5Z"/><path fill="#6DCFD7" d="m144.828 76.59-.02.02v-.04l.02.02Z"/><path fill="#EBED21" d="M132.962 173.016c-.544.509-.936.681-1.073.743.392-.22.763-.468 1.073-.743Z"/><path stroke="#231F20" stroke-miterlimit="10" stroke-width="2.386" d="M132.962 173.016c-.544.509-.936.681-1.073.743.392-.22.763-.468 1.073-.743Z"/><path fill="#EBED21" d="M143.378 153.75c-23.142-31.181.969-74.295.969-74.295s23.878 35.563 2.442 74.172l-3.411.123Z"/><path stroke="#231F20" stroke-miterlimit="10" stroke-width="2.386" d="M143.378 153.75c-23.142-31.181.969-74.295.969-74.295s23.878 35.563 2.442 74.172l-3.411.123Z"/><path fill="#EBED21" d="M145.05 156.716c10.488 14.133-.433 33.678-.433 33.678s-10.832-16.12-1.114-33.623l1.547-.055Z"/><path stroke="#231F20" stroke-miterlimit="10" stroke-width="2.386" d="M145.05 156.716c10.488 14.133-.433 33.678-.433 33.678s-10.832-16.12-1.114-33.623l1.547-.055Z"/><path fill="#EBED21" d="M119.952 155.131s-26.794 5.117-19.614-22.042c8.039-15.109 34.352-11.815 38.616 19.724h-4.993s.364-13.514-13.769-13.514c-14.132 0-7.799 14.491-.24 15.832Z"/><path stroke="#231F20" stroke-miterlimit="10" stroke-width="2.386" d="M119.952 155.131s-26.794 5.117-19.614-22.042c8.039-15.109 34.352-11.815 38.616 19.724h-4.993s.364-13.514-13.769-13.514c-14.132 0-7.799 14.491-.24 15.832Z"/><path fill="#EBED21" d="M169.397 155.131s26.793 5.117 19.607-22.042c-8.04-15.109-34.352-11.815-38.616 19.724h4.999s-.371-13.514 13.762-13.514c14.133 0 7.799 14.491.248 15.832Z"/><path stroke="#231F20" stroke-miterlimit="10" stroke-width="2.386" d="M169.397 155.131s26.793 5.117 19.607-22.042c-8.04-15.109-34.352-11.815-38.616 19.724h4.999s-.371-13.514 13.762-13.514c14.133 0 7.799 14.491.248 15.832Z"/><path fill="#EBED21" d="M138.401 155.984c-.942 9.181-2.861 13.638-4.395 15.804-.014.062-.048.096-.082.137-.165.214-.296.413-.461.585-.186.213-.344.385-.502.502-.31.275-.688.53-1.073.743-.034.02-.055.02-.055.02a6.783 6.783 0 0 1-3.239.798c-3.405 0-6.169-2.379-6.169-5.316 0-2.923 2.764-5.323 6.169-5.323 7.255-.309 6.341-7.702 6.341-7.702s2.861-.503 3.466-.248Z"/><path stroke="#231F20" stroke-miterlimit="10" stroke-width="2.386" d="M138.401 155.984c-.942 9.181-2.861 13.638-4.395 15.804-.014.062-.048.096-.082.137-.165.214-.296.413-.461.585-.186.213-.344.385-.502.502-.31.275-.688.53-1.073.743-.034.02-.055.02-.055.02a6.783 6.783 0 0 1-3.239.798c-3.405 0-6.169-2.379-6.169-5.316 0-2.923 2.764-5.323 6.169-5.323 7.255-.309 6.341-7.702 6.341-7.702s2.861-.503 3.466-.248Z"/><path fill="#EBED21" d="M150.859 155.984c.936 9.181 2.868 13.638 4.388 15.804.014.062.055.096.096.137.159.214.289.413.447.585.193.213.358.385.509.502.31.275.681.53 1.066.743.042.02.062.02.062.02a6.756 6.756 0 0 0 3.233.798c3.411 0 6.175-2.379 6.175-5.316 0-2.923-2.764-5.323-6.175-5.323-7.249-.309-6.334-7.702-6.334-7.702s-2.861-.503-3.467-.248Z"/><path stroke="#231F20" stroke-miterlimit="10" stroke-width="2.386" d="M150.859 155.984c.936 9.181 2.868 13.638 4.388 15.804.014.062.055.096.096.137.159.214.289.413.447.585.193.213.358.385.509.502.31.275.681.53 1.066.743.042.02.062.02.062.02a6.756 6.756 0 0 0 3.233.798c3.411 0 6.175-2.379 6.175-5.316 0-2.923-2.764-5.323-6.175-5.323-7.249-.309-6.334-7.702-6.334-7.702s-2.861-.503-3.467-.248Z"/><path fill="#EBED21" d="M158.724 155.376a1.984 1.984 0 0 1-1.987 1.988h-24.69a1.988 1.988 0 0 1 0-3.975h24.69c1.1 0 1.987.887 1.987 1.987Z"/><path stroke="#231F20" stroke-miterlimit="10" stroke-width="2.386" d="M158.724 155.376a1.984 1.984 0 0 1-1.987 1.988h-24.69a1.988 1.988 0 0 1 0-3.975h24.69c1.1 0 1.987.887 1.987 1.987Z"/></g></g></g><defs><clipPath id="a"><path fill="#fff" d="M0 0h999v326H0z"/></clipPath><clipPath id="b"><path fill="#fff" d="M0 0h1000v326.01H0z"/></clipPath></defs></svg>