<svg width="354" height="100" xmlns="http://www.w3.org/2000/svg">
<path fill="purple" d="m353.432 73.107-8.122 7.695 8.317 10.906h-5.63l-7.071-9.612-.122.037v9.575h-4.568V65.132h4.568v14.265h.049l6.253-6.29zm-33.415 11.444c0 2.198.892 3.871 2.882 3.871 1.417 0 2.59-.781 3.872-2.418V73.107h4.58v18.6h-4.58V89.68c-1.282 1.564-3.041 2.382-4.922 2.382-3.517 0-6.412-2.577-6.412-7.157V73.107h4.58zm-9.55 4.775a2.716 2.716 0 0 1-2.736 2.736 2.723 2.723 0 0 1-2.736-2.736 2.723 2.723 0 0 1 2.736-2.735 2.716 2.716 0 0 1 2.736 2.735m-6.363-16.219-7.866 18.6h-3.004l-7.816-18.6h4.763l3.945 10.552c.44 1.21.55 1.76.55 1.76h.158s.159-.55.586-1.76l3.872-10.552zm-19.627 9.258c0 5.752-4.384 9.697-9.538 9.697-5.594 0-9.465-4.372-9.465-9.734 0-5.35 4.103-9.575 9.465-9.575 5.19 0 9.538 4.03 9.538 9.612m-14.228-.037c0 3.798 1.918 6.217 4.69 6.217 2.968 0 4.726-2.577 4.726-6.217 0-3.395-1.758-6.057-4.726-6.057-2.858 0-4.69 2.54-4.69 6.057m-22.594 12.506c1.563.977 3.322 1.49 4.8 1.49 3.285 0 4.616-1.722 4.616-4.14v-1.88c-1.172.976-2.625 1.758-4.262 1.758-4.885 0-8.17-4.14-8.17-9.734 0-5.35 3.407-9.575 8.45-9.575 1.479 0 2.883.623 4.019 1.441v-1.087h4.494v18.637c0 5.093-3.285 8.256-8.903 8.256-2.736 0-5.007-.903-6.815-1.99zm9.416-7.89v-9.183c-.855-.782-2.076-1.454-3.2-1.454-2.699 0-4.58 2.736-4.58 6.058 0 3.09 1.246 6.18 4.58 6.18 1.21 0 2.345-.672 3.2-1.6m-16.463 2.381a2.716 2.716 0 0 1-2.735 2.736 2.716 2.716 0 0 1-2.736-2.736 2.716 2.716 0 0 1 2.736-2.735 2.716 2.716 0 0 1 2.735 2.735m-15.437-9.074c0-2.223-.818-3.86-2.858-3.86-1.441 0-2.613.782-3.871 2.455v12.86h-4.568v-18.6h4.568l.048 2.064c1.246-1.563 3.005-2.418 4.837-2.418 3.53 0 6.412 2.577 6.412 7.108v11.847h-4.568zm-15.254 2.113c0 5.752-4.372 9.697-9.526 9.697-5.594 0-9.465-4.372-9.465-9.734 0-5.35 4.103-9.575 9.465-9.575 5.19 0 9.526 4.03 9.526 9.612m-14.228-.037c0 3.798 1.917 6.217 4.702 6.217 2.968 0 4.726-2.577 4.726-6.217 0-3.395-1.758-6.057-4.726-6.057-2.858 0-4.702 2.54-4.702 6.057m-8.708-17.196v26.576h-4.543V90.34c-1.21.94-2.65 1.722-4.263 1.722-4.921 0-8.207-4.14-8.207-9.734 0-5.35 3.444-9.575 8.452-9.575 1.44 0 2.845.586 4.018 1.368v-8.989zm-4.543 21.813V77.76c-.892-.781-2.064-1.453-3.237-1.453-2.699 0-4.58 2.736-4.58 6.058 0 3.09 1.295 6.18 4.617 6.18 1.172 0 2.345-.672 3.2-1.6m-14.033-13.838-8.952 21.459c-1.6 3.834-4.69 5.434-7.78 5.434-.305 0-.696-.036-1.05-.036v-4.3c.354.074.696.074 1.014.074 1.6 0 2.894-.818 3.676-2.662l.55-1.442-7.744-18.527h4.812s4.14 10.162 5.154 13.13h.318c1.05-2.968 5.19-13.13 5.19-13.13zm-21.74 9.258c0 5.752-4.371 9.697-9.525 9.697-5.594 0-9.465-4.372-9.465-9.734 0-5.35 4.103-9.575 9.465-9.575 5.19 0 9.526 4.03 9.526 9.612m-14.228-.037c0 3.798 1.917 6.217 4.702 6.217 2.968 0 4.726-2.577 4.726-6.217 0-3.395-1.758-6.057-4.726-6.057-2.858 0-4.702 2.54-4.702 6.057m-9.893-5.508c-2.064 0-3.395 1.527-4.054 3.359v11.529h-4.58v-18.6h4.58v3.126h.036c1.405-2.272 3.127-3.554 4.959-3.48 1.013.036 2.112.427 3.602 1.367l-1.563 3.945c-1.258-.818-2.271-1.246-2.98-1.246m-12.152 13.997c-1.685.696-3.676 1.246-5.935 1.246-5.557 0-9.624-4.067-9.624-9.612 0-5.667 4.03-9.697 9.502-9.697 2.222 0 4.103.55 5.935 1.331l-1.282 3.591c-1.527-.782-2.858-1.21-4.14-1.21-3.334 0-5.289 2.541-5.289 5.9 0 3.407 1.991 5.947 5.362 5.947 1.246 0 2.455-.317 4.14-.977zm-19.59-1.49a2.716 2.716 0 0 1-2.735 2.736 2.716 2.716 0 0 1-2.736-2.736 2.716 2.716 0 0 1 2.736-2.736 2.716 2.716 0 0 1 2.736 2.736m-6.412-16.219-6.717 18.6h-2.858l-3.713-10.087c-.39-1.173-.55-1.759-.55-1.759h-.158s-.11.586-.538 1.759l-3.676 10.088h-2.82l-6.755-18.6h4.531l3.322 10.197c.354 1.063.428 1.527.428 1.527h.195s.086-.464.428-1.563l3.566-10.162h2.845l3.554 10.162a76.34 76.34 0 0 1 .44 1.563h.195s.11-.464.391-1.527l3.359-10.198zm-28.298 0-6.729 18.6h-2.858l-3.713-10.087c-.39-1.173-.537-1.759-.537-1.759h-.159s-.122.586-.55 1.759l-3.675 10.088h-2.81l-6.765-18.6h4.53l3.323 10.197c.354 1.063.427 1.527.427 1.527h.208s.073-.464.427-1.563l3.554-10.162h2.858l3.554 10.162c.305 1.099.427 1.563.427 1.563h.196s.122-.464.39-1.527l3.359-10.198zm-28.31 0-6.717 18.6H18.21l-3.713-10.087c-.39-1.173-.55-1.759-.55-1.759h-.158s-.11.586-.55 1.759L9.575 91.709H6.754L0 73.109h4.531l3.322 10.197c.354 1.063.428 1.527.428 1.527h.195s.073-.464.427-1.563l3.554-10.162h2.858l3.554 10.162a76.34 76.34 0 0 1 .44 1.563h.183l.403-1.527 3.359-10.198zM353.029.6v51.148h-9.93L320.53 20.006h-.379c.074 2.712.306 5.496.306 8.049v23.693H308.5V.6h10.748l21.592 30.24h.452c-.073-2.785-.232-5.717-.232-8.72V.6zm-78.005 51.832c-16.39 0-26.245-12.946-26.245-26.331 0-13.007 9.624-26.1 26.245-26.1 16.403 0 26.1 13.166 26.1 26.1 0 13.385-10.076 26.33-26.1 26.33m0-41.67c-8.426 0-13.69 6.46-13.69 15.34 0 8.878 5.264 15.498 13.69 15.498 8.195 0 13.386-6.62 13.386-15.498 0-8.88-5.19-15.34-13.386-15.34M216.732.6c15.95 0 26.783 10.906 26.783 25.733 0 14.96-10.833 25.415-27.382 25.415h-18.124V.6zm-6.766 41.219h5.862c10.161 0 15.12-7.292 15.12-15.486 0-9.026-5.19-15.877-15.193-15.877h-5.79zM144.651.599h14.057l10.308 17.758L179.396.6h13.911l-18.27 29.189v21.959h-12.042v-21.96zm-23.657 51.833c-16.402 0-26.258-12.946-26.258-26.331 0-13.007 9.624-26.1 26.258-26.1 16.39 0 26.1 13.166 26.1 26.1 0 13.385-10.089 26.33-26.1 26.33m0-41.67c-8.427 0-13.69 6.46-13.69 15.34 0 8.878 5.263 15.498 13.69 15.498 8.195 0 13.386-6.62 13.386-15.498 0-8.88-5.19-15.34-13.386-15.34M81.278 51.748c-4.287-7.67-7.67-19.48-13.618-19.48h-2.931v19.48H52.772V.6h20.005c9.624 0 16.097 7.303 16.097 15.791 0 5.35-2.858 10.015-7.45 12.567 2.26 1.954 3.456 3.53 5.337 7.145.684 1.356 6.778 13.544 7.902 15.645zM70.225 10.456h-5.496v11.883h5.789c2.931 0 6.02-2.406 6.02-5.862 0-3.469-2.478-6.021-6.313-6.021m-24.524 36.48c-5.422 3.15-10.906 5.484-18.124 5.484C11.028 52.42.501 40.39.501 26.247.501 11.811 11.481.001 27.956.001c7.364 0 13.08 2.553 17.513 5.264l-3.676 10.076c-4.287-2.7-8.5-4.739-13.166-4.739-9.33 0-15.425 6.62-15.425 15.499 0 8.72 6.095 15.425 15.352 15.425 4.665 0 8.415-1.808 13.007-4.373z"/>
</svg>