<svg xmlns="http://www.w3.org/2000/svg" width="465" height="310" fill="none"><path fill="#28A197" d="M465 0H0v310h465V0Z"/><path fill="#F3F2F1" d="M54 56c0-2.21 2.07-4 4.621-4H406.38c2.552 0 4.621 1.79 4.621 4v19H54V56Z"/><path fill="#D4351C" d="M63.5 67a3.5 3.5 0 1 0 0-7 3.5 3.5 0 0 0 0 7Z"/><path fill="#FD0" d="M75.5 67a3.5 3.5 0 1 0 0-7 3.5 3.5 0 0 0 0 7Z"/><path fill="#00703C" d="M87.5 67a3.5 3.5 0 1 0 0-7 3.5 3.5 0 0 0 0 7Z"/><path fill="#1D70B8" d="M54 95h357v4H54z"/><path fill="#0B0C0C" d="M54 75h357v20H54z"/><path fill="#fff" d="M54 99h357v155a4 4 0 0 1-4 4H58a4 4 0 0 1-4-4V99Z"/><path fill="#0B0C0C" d="M153 124H79v12h74v-12Z"/><path fill="#B1B4B6" d="M190 152h-89v5h89v-5ZM155 174h-54v5h54v-5ZM190 196h-89v5h89v-5ZM104 114H79v5h25v-5Z"/><rect width="49" height="17" x="79" y="223" fill="#1F8823" rx="2"/><circle cx="86.5" cy="154.5" r="6.5" stroke="#000" stroke-width="2"/><circle cx="86.5" cy="176.5" r="6.5" stroke="#000" stroke-width="2"/><circle cx="86.5" cy="198.5" r="6.5" stroke="#000" stroke-width="2"/><circle cx="86.5" cy="154.5" r="8.5" stroke="#FD0" stroke-width="2"/><circle cx="86.5" cy="154.5" r="3.5" fill="#0B0C0C"/></svg>