<svg width="640" height="310" viewBox="0 0 640 310" fill="none" xmlns="http://www.w3.org/2000/svg">
<rect width="640" height="310" fill="#28A197"/>
<g clip-path="url(#clip0_715_30)">
<path d="M552 0H87V310H552V0Z" fill="#28A197"/>
<path d="M141 56C141 53.7909 143.069 52 145.621 52H493.379C495.931 52 498 53.7909 498 56V75H141V56Z" fill="#F3F2F1"/>
<path d="M150.5 67C152.433 67 154 65.433 154 63.5C154 61.567 152.433 60 150.5 60C148.567 60 147 61.567 147 63.5C147 65.433 148.567 67 150.5 67Z" fill="#D4351C"/>
<path d="M162.5 67C164.433 67 166 65.433 166 63.5C166 61.567 164.433 60 162.5 60C160.567 60 159 61.567 159 63.5C159 65.433 160.567 67 162.5 67Z" fill="#FFDD00"/>
<path d="M174.5 67C176.433 67 178 65.433 178 63.5C178 61.567 176.433 60 174.5 60C172.567 60 171 61.567 171 63.5C171 65.433 172.567 67 174.5 67Z" fill="#00703C"/>
<path d="M498 95H141V99H498V95Z" fill="#1D70B8"/>
<path d="M498 75H141V95H498V75Z" fill="#0B0C0C"/>
<path d="M141 99H498V254C498 256.209 496.209 258 494 258H145C142.791 258 141 256.209 141 254V99Z" fill="white"/>
<path d="M240 124H166V136H240V124Z" fill="#0B0C0C"/>
<path d="M277 152H188V157H277V152Z" fill="#B1B4B6"/>
<path d="M242 174H188V179H242V174Z" fill="#B1B4B6"/>
<path d="M277 196H188V201H277V196Z" fill="#B1B4B6"/>
<path d="M191 114H166V119H191V114Z" fill="#B1B4B6"/>
<path d="M213 223H168C166.895 223 166 223.895 166 225V238C166 239.105 166.895 240 168 240H213C214.105 240 215 239.105 215 238V225C215 223.895 214.105 223 213 223Z" fill="#1F8823"/>
<path d="M173.5 161C177.09 161 180 158.09 180 154.5C180 150.91 177.09 148 173.5 148C169.91 148 167 150.91 167 154.5C167 158.09 169.91 161 173.5 161Z" stroke="black" stroke-width="2"/>
<path d="M173.5 183C177.09 183 180 180.09 180 176.5C180 172.91 177.09 170 173.5 170C169.91 170 167 172.91 167 176.5C167 180.09 169.91 183 173.5 183Z" stroke="black" stroke-width="2"/>
<path d="M173.5 205C177.09 205 180 202.09 180 198.5C180 194.91 177.09 192 173.5 192C169.91 192 167 194.91 167 198.5C167 202.09 169.91 205 173.5 205Z" stroke="black" stroke-width="2"/>
<path d="M173.5 163C178.194 163 182 159.194 182 154.5C182 149.806 178.194 146 173.5 146C168.806 146 165 149.806 165 154.5C165 159.194 168.806 163 173.5 163Z" stroke="#FFDD00" stroke-width="2"/>
<path d="M173.5 158C175.433 158 177 156.433 177 154.5C177 152.567 175.433 151 173.5 151C171.567 151 170 152.567 170 154.5C170 156.433 171.567 158 173.5 158Z" fill="#0B0C0C"/>
</g>
<defs>
<clipPath id="clip0_715_30">
<rect width="465" height="310" fill="white" transform="translate(87)"/>
</clipPath>
</defs>
</svg>
