<svg xmlns="http://www.w3.org/2000/svg" width="350" height="151.35"><path fill="#7f3f98" d="M0 0h6.463v150.84H0z"/><g stroke-width=".653"><path d="M52.357 5.949v2.676c1.37.066 2.35.327 2.872.457-.26-1.566-1.37-2.741-2.872-3.133M50.725 4.056c0 .914-.196 1.501-.457 1.893 0 0 .457-.13 1.045-.13.391 0 .979.13 1.044.13-.261-.392-.457-.98-.457-1.893 2.024 0 2.48.914 2.48 1.697h.392V1.184h-.391c0 .783-.523 1.697-2.481 1.697 0-2.023.914-2.48 1.697-2.48V.009h-4.569V.4c.783 0 1.697.522 1.697 2.48-2.023 0-2.48-.914-2.48-1.697h-.392v4.569h.392c0-.783.457-1.697 2.48-1.697M50.268 5.949c-1.436.392-2.546 1.632-2.872 3.133.522-.13 1.501-.391 2.872-.457zM52.748 72.204c0 .914.783 1.697 1.697 1.697s1.697-.783 1.697-1.697-.783-1.697-1.697-1.697c-.979.066-1.697.783-1.697 1.697m.849 0c0-.457.391-.849.848-.849s.849.392.849.849-.392.849-.849.849c-.522 0-.848-.327-.848-.849M49.68 50.075c0-.849-.653-1.501-1.501-1.501H39.693a1.31 1.31 0 0 0-1.306 1.305c0 .522.392.914.914.914.523 0 .914-.392.914-.979.196.196.392.326.653.457-.13.522-.261 1.24-.326 2.089-.13-.196-.327-.261-.523-.261a.654.654 0 0 0-.652.652c0 .327.26.653.652.653.196 0 .392-.13.523-.261 0 .457 0 .914.065 1.436-.13-.066-.26-.13-.391-.13a.654.654 0 0 0-.653.652c0 .327.261.653.653.653.196 0 .457-.13.522-.326 0 .065 0 .13.066.196.13.391.26.783.391 1.11-.065-.066-.196-.066-.326-.066a.654.654 0 0 0-.653.652c0 .327.261.653.653.653.326 0 .587-.261.653-.522.195.392.457.783.783 1.175h-.13a.654.654 0 0 0-.653.653c0 .391.26.652.652.652a.654.654 0 0 0 .653-.652v-.066c.98.979 2.22 1.828 3.72 2.415l-.26 1.958s.587.261 1.501.523c.914.26 1.762.391 1.762.391zm-7.703.783s.066 0 .131.066l4.635 9.4c-5.745-2.612-5.157-7.312-4.765-9.466m4.895 8.747-4.243-8.55c.261.065.523.065.784.065l3.654 7.375zm.26-1.893-3.264-6.659c.261 0 .457-.065.653-.13l2.742 5.613zm.26-1.893-2.48-4.96c.196-.066.392-.131.587-.262l2.024 4.047zm.261-1.893-1.762-3.525c.196-.13.392-.26.522-.391l1.371 2.741zm.457-3.264-.196 1.437-1.11-2.285c.131-.066.262-.066.393-.066a.826.826 0 0 1 .913.914M44.067 12.281c0-.522.457-.98.98-.98s.978.458.978.98c0 .587-.457.98-.979.98-.522.065-.979-.393-.979-.98M31.077 19.2c0-.522.457-.98.98-.98.587 0 .978.458.978.98 0 .587-.457.98-.979.98s-.979-.458-.979-.98M30.554 16.654c0-.588.457-.98.98-.98s.978.458.978.98-.457.98-.979.98c-.522.065-.979-.393-.979-.98M30.75 14.108c0-.522.457-.98.98-.98.587 0 .978.458.978.98s-.457.98-.979.98-.979-.458-.979-.98M32.121 11.889c0-.522.457-.98.98-.98.587 0 .978.458.978.98s-.457.98-.979.98c-.522.065-.979-.393-.979-.98M34.21 10.388c0-.522.457-.98.98-.98s.978.458.978.98c0 .587-.457.98-.979.98-.522.065-.979-.393-.979-.98M36.756 9.931c0-.522.457-.98.98-.98.587 0 .978.458.978.98s-.457.98-.979.98c-.522.065-.979-.393-.979-.98M39.236 10.453c0-.522.457-.98.98-.98.587 0 .978.458.978.98s-.457.98-.979.98c-.522.065-.979-.393-.979-.98M41.651 11.432c0-.522.457-.98.98-.98.587 0 .978.458.978.98 0 .588-.457.98-.979.98s-.979-.458-.979-.98M58.558 12.281c0-.522-.457-.98-.98-.98s-.978.458-.978.98c0 .587.457.98.979.98.522.065.979-.393.979-.98M71.548 19.2c0-.522-.457-.98-.98-.98a.961.961 0 0 0-.978.98c0 .587.457.98.979.98s.979-.458.979-.98M72.068 16.654a.961.961 0 0 0-.98-.98c-.521 0-.978.458-.978.98s.457.98.979.98c.522.065.979-.393.979-.98M71.808 14.108c0-.522-.457-.98-.98-.98-.587 0-.978.458-.978.98s.457.98.979.98c.587 0 .979-.458.979-.98M70.508 11.889c0-.522-.457-.98-.98-.98s-.978.458-.978.98.457.98.979.98c.522.065.979-.393.979-.98M68.414 10.388c0-.522-.457-.98-.98-.98a.961.961 0 0 0-.978.98c0 .587.457.98.979.98.522.065.979-.393.979-.98M65.869 9.931c0-.522-.457-.98-.98-.98-.587 0-.978.458-.978.98s.457.98.979.98c.522.065.979-.393.979-.98M63.323 10.453c0-.522-.457-.98-.98-.98-.587 0-.978.458-.978.98s.457.98.979.98c.587.065.979-.393.979-.98M60.908 11.432c0-.522-.457-.98-.98-.98s-.978.458-.978.98c0 .588.457.98.979.98.587 0 .979-.458.979-.98M59.929 26.707c0-.588-.522-1.11-1.11-1.11-.587 0-1.11.523-1.11 1.11 0 .587.523 1.11 1.11 1.11.588 0 1.11-.523 1.11-1.11M52.683 33.365v12.664H63.91V33.365zm10.901 12.337H53.009V33.757h10.509z"/><path d="M54.119 34.148h-.653V45.245H63.127V34.148h-6.136zm8.355.326v.327h.327v9.791h-.327v.327H54.12v-.327h-.326v-9.791h.326v-.327z"/><path d="m62.017 37.347-.522.522s-.066 0-.066.066l-.979.914a.736.736 0 0 0-.13 1.044l.587.783c.066.066.066.131.066.262 0 .065-.066.196-.13.196-.067.065-.131.065-.262.065-.066 0-.196-.065-.196-.13 0 0-.588-.784-.849-1.175v-1.11l1.371-1.305v-1.11l-.457-.457.588-.588h-2.415l-.588.588v.653c.066-.066.196-.066.261-.066.261 0 .522.261.522.522s-.26.522-.522.522c-.065 0-.196 0-.261-.065v.783h-.849l-.979-1.37a.741.741 0 0 0 .196-.523.654.654 0 0 0-.653-.653c-.13 0-.26.066-.391.13v1.111h.065l.914 1.305.457.653H57.905l-.587.588h-1.175c-.066-.261-.327-.392-.588-.392-.261 0-.522.196-.587.392 0 .065-.066.13-.066.26s.066.327.13.392H57.71l.457.653H56.338l.718.98.392.521h-.914c-.066-.26-.327-.456-.653-.456-.26 0-.522.195-.653.456v.196c0 .196.066.327.196.457h3.329l-.457-.653-.391-.522h1.044l.392.522.457.653h1.566v.718h-.196c-.065-.26-.326-.457-.652-.457s-.523.196-.653.457v.196c0 .196.066.327.196.457h1.958v-2.089H60.712l-.653-.849c.13.13.261.261.457.261s.391 0 .587-.13.261-.327.327-.523c0-.195 0-.391-.13-.587l-.586-.784c-.13-.13-.066-.392.066-.457l.26-.261a.686.686 0 0 0 .85 0 .593.593 0 0 0 .195-.457z"/></g><path d="m51.312 28.208-1.501-1.501 1.501-1.501 1.502 1.501z"/><g stroke-width=".653"><path d="M42.696 26.707c0-.588.522-1.11 1.11-1.11.587 0 1.11.523 1.11 1.11 0 .587-.523 1.11-1.11 1.11-.588 0-1.11-.523-1.11-1.11M63.127 55.167v-.326a.754.754 0 0 0-.783-.784h-2.807c0-.326-.327-.652-.653-.652a.594.594 0 0 0-.457.195l-.848.85h4.765c.196 0 .326.13.326.325s-.13.327-.326.327h-5.549v-.783l.98-.98h-3.852l.98.98v1.436l-1.567-1.24a.741.741 0 0 0 .195-.523.654.654 0 0 0-.652-.653c-.13 0-.327.066-.457.13v1.176l2.415 1.958-1.11.327c-.065-.262-.326-.457-.652-.457a.654.654 0 0 0-.653.652c0 .13.066.327.13.392h1.371l6.006-1.893v.914l-.784.326c-.065-.326-.326-.522-.652-.522a.654.654 0 0 0-.653.653c0 .13.066.326.13.392h1.502l.914-.457.587-.261-.261-.588v-.13h2.22c0 .065-.066.195-.066.26-.066.131-.13.327-.196.458a.741.741 0 0 0-.522-.196.654.654 0 0 0-.653.653c0 .13.066.326.13.391h1.371c.196-.391.327-.848.392-1.11.196-.587.326-1.11.326-1.305.066.066-.587.066-.587.066m-7.246.065-.653-.652h1.306zM63.192 50.336c.066-.13.066-.196.066-.326a.754.754 0 0 0-.784-.784h-2.937c0-.326-.327-.652-.653-.652a.594.594 0 0 0-.457.195l-.849.85h4.961c.196 0 .327.13.327.325s-.131.327-.327.327h-5.744v-.784l.979-.979h-3.851l.979.98v1.436l-1.567-1.24a.705.705 0 0 0 .196-.458.654.654 0 0 0-.653-.652c-.13 0-.326.065-.457.13v1.175l2.35 1.893-1.11.326c-.065-.26-.326-.456-.652-.456a.654.654 0 0 0-.653.652c0 .13.066.327.13.457h1.371l6.006-1.893v.98l-.784.26c-.065-.26-.326-.456-.652-.456a.654.654 0 0 0-.653.652c0 .13.066.327.13.457h1.502l1.501-.457.718-.26-.587-.523-.392-.392h2.676v.718c-.13-.13-.326-.26-.522-.26a.654.654 0 0 0-.653.652c0 .13.066.326.13.457h1.698v-2.415zm-7.31.066-.654-.653h1.306zM60.712 58.822h-1.175c0-.326-.326-.653-.653-.653a.594.594 0 0 0-.457.196l-.848.849H60.777c.196 0 .327.13.327.326s-.13.326-.327.326h-3.851v-.652l.98-.98h-3.852l.979.98v1.632l-1.567-1.436c.13-.131.261-.327.261-.523a.654.654 0 0 0-.652-.652c-.13 0-.327.065-.457.13V59.475l2.48 2.284.13-.13-1.566 1.893c-.13-.13-.326-.13-.457-.13-.391.065-.652.391-.587.717 0 .131.065.261.13.392.261 0 .588-.066 1.11-.13l1.762-2.09c.262-.065.457-.195.719-.26l.718.652-.392.196c-.196-.13-.457-.196-.653-.13-.326.13-.522.522-.392.848a.91.91 0 0 0 .196.261s.261-.065.523-.196c.26-.13.522-.195.522-.195.326-.13.587-.262.848-.392v-1.763c.457-.26.849-.522 1.175-.848l.653.587c-.13.13-.261.196-.457.327a.593.593 0 0 0-.653 0c-.13.065-.26.26-.326.391v.262c0 .065.066.195.066.26.065.131.196.196.326.262.326-.196.588-.392.914-.588a4.57 4.57 0 0 0 .653-.522l.196-.196v-.849h.456a.754.754 0 0 0 .784-.783.794.794 0 0 0-.784-.783m-5.287 2.415zm.457-1.175-.653-.652h1.306zM49.223 44.005c.066-.13.066-.196.066-.326a.754.754 0 0 0-.784-.784h-2.937c0-.326-.326-.652-.653-.652a.594.594 0 0 0-.457.195l-.848.85h4.961c.196 0 .326.13.326.325s-.13.327-.326.327h-5.679v-.783l.979-.98H40.02l.979.98v1.436l-1.567-1.24a.705.705 0 0 0 .196-.458.654.654 0 0 0-.653-.652c-.196 0-.326.065-.457.13v1.175l2.35 1.893-1.11.327c-.065-.262-.326-.457-.652-.457a.654.654 0 0 0-.653.652c0 .196.066.327.13.457h1.371l6.006-1.893v.98l-.784.26c-.065-.26-.326-.456-.652-.456a.654.654 0 0 0-.653.652c0 .196.066.327.13.457h1.371l1.502-.457.718-.195-.588-.523-.392-.391h2.677v.718c-.13-.13-.327-.261-.522-.261a.654.654 0 0 0-.653.652c0 .196.066.327.13.457h1.697v-2.415zm-7.376.066-.653-.653H42.5zM49.223 39.37c.066-.13.066-.196.066-.326a.754.754 0 0 0-.784-.784h-2.937c0-.326-.326-.652-.653-.652a.594.594 0 0 0-.457.195l-.848.849h4.896c.195 0 .326.13.326.326s-.13.327-.326.327h-5.679v-.784l.979-.979h-3.852l.98.98v1.436l-1.567-1.24a.705.705 0 0 0 .196-.458.654.654 0 0 0-.653-.652c-.196 0-.326.065-.457.13v1.175l2.35 1.893-1.11.326c-.066-.26-.326-.456-.653-.456a.654.654 0 0 0-.652.652c0 .13.065.327.13.457h1.371l6.005-1.893v.98l-.783.26c-.066-.26-.326-.457-.653-.457a.654.654 0 0 0-.652.653c0 .13.065.327.13.457H45.372l1.501-.457.718-.26-.587-.523-.392-.392h2.677v.718c-.13-.13-.327-.26-.523-.26a.654.654 0 0 0-.652.652c0 .13.065.326.13.457h1.697v-2.481h-.718zm-7.376.066-.653-.653H42.5zM49.223 34.67c.066-.13.066-.196.066-.326a.754.754 0 0 0-.784-.784h-2.937c0-.326-.326-.652-.653-.652a.594.594 0 0 0-.457.195l-.848.85h4.896c.195 0 .326.13.326.325s-.13.327-.326.327h-5.679v-.783l.979-.98h-3.852l.98.98v1.436l-1.567-1.24a.705.705 0 0 0 .196-.458.654.654 0 0 0-.653-.652c-.196 0-.326.065-.457.13v1.175l2.35 1.893-1.11.327c-.066-.261-.326-.457-.653-.457a.654.654 0 0 0-.652.652c0 .196.065.327.13.457h1.371l6.005-1.893v.98l-.783.26c-.066-.26-.326-.456-.653-.456a.654.654 0 0 0-.652.652c0 .196.065.327.13.457h1.371l1.501-.457.718-.196-.587-.522-.392-.391h2.676v.718c-.13-.13-.326-.261-.522-.261a.654.654 0 0 0-.652.652c0 .196.065.327.13.457h1.697v-2.48zm-7.376.13-.653-.652H42.5zM69.658 46.616a.76.76 0 0 0 .522-.98c-.065-.195-.196-.39-.391-.456a.636.636 0 0 0-.588-.066c-.196.066-.392.196-.457.392a.636.636 0 0 0-.066.588c.13.391.588.587.98.522M67.37 48.378l.13.718 2.612-.392c.065 0 2.61 1.306 2.61 1.306l-.13-.914-1.828-.914c.13-.13 1.502-1.37 1.502-1.37l-.13-.915-.067.066s-2.023 1.893-2.088 1.958c0 .066-2.611.457-2.611.457M69.394 50.924c0 .196.066.392.261.588.13.13.326.26.588.195.195 0 .391-.065.587-.26.13-.131.196-.327.196-.588 0-.196-.066-.392-.261-.588a.827.827 0 0 0-.587-.26.916.916 0 0 0-.784.913M67.566 52.229l-.066.718s2.024.261 2.154.326c0 .066-.065.588-.065.588v.326c0 .327.065.653.26.914.197.261.523.457.98.522.914.13 1.567-.326 1.697-1.24l.196-1.436zm4.178 1.306c0 .065-.066.718-.066.718-.066.652-.588.652-.783.587-.392-.066-.653-.326-.653-.653v-.13s.066-.522.066-.653c.13-.066 1.37.066 1.436.13M67.109 55.167l-.849 2.48.718.262s.588-1.763.588-1.828c.066.066 1.24.392 1.37.457-.065.13-.587 1.697-.587 1.697l.718.261s.523-1.632.588-1.697c.066.066 1.24.392 1.306.457-.066.13-.588 1.762-.588 1.762l.718.261.849-2.48zM66.13 58.104l-.326.522s2.872 1.828 3.133 2.024c-.327 0-4.635.391-4.635.391l-.326.523 4.308 2.741.392-.587s-2.872-1.828-3.133-2.024c.326 0 4.7-.457 4.7-.457l.326-.522zM64.433 64.24c-.522.066-.98.196-1.306-.13-.13-.131-.26-.523.066-.85.327-.325.783-.39 1.306-.325h.196l-.784-.784c-.522.066-.914.196-1.24.588a1.289 1.289 0 0 0-.392.914c0 .391.13.718.457 1.044.653.653 1.371.522 2.024.392.457-.13.848-.196 1.175.066.065.13.13.195.13.326 0 .196-.065.326-.26.522-.262.261-.588.392-1.045.326h-.13l.717.719c.392-.066.718-.196.98-.457.326-.327.456-.653.456-.98 0-.326-.13-.718-.457-.979-.587-.652-1.305-.522-1.893-.391M61.299 63.979l-2.154 1.436.392.653s1.5-1.045 1.631-1.11c.066.066.719 1.11.784 1.175-.066.066-1.502 1.044-1.502 1.044l.392.653s1.436-.979 1.501-.979c.066.066.718 1.044.784 1.175-.066.066-1.567 1.044-1.567 1.044l.392.653 2.154-1.436zM42.435 67.373c-.066-.066-1.958-1.24-2.023-1.306.065-.065 1.174-1.827 1.174-1.827l-.652-.392v.066l-2.677 4.243.653.391s1.11-1.762 1.175-1.827c.066.065 1.958 1.24 2.024 1.305-.066.066-1.175 1.828-1.175 1.828l.652.392 2.742-4.309-.653-.391c-.066 0-1.175 1.697-1.24 1.827M39.824 63.587c.066-.653-.196-1.24-.588-1.697-1.11-1.24-2.61-.98-3.59-.13-.587.521-.914 1.174-.914 1.827-.065.653.196 1.24.653 1.762.914 1.045 2.48 1.11 3.59.13.457-.521.784-1.174.849-1.892m-.783 0c0 .457-.261.979-.653 1.305-.783.718-1.828.718-2.48-.065a1.376 1.376 0 0 1-.392-1.175c0-.457.26-.914.652-1.306.392-.326.914-.522 1.371-.522s.849.196 1.11.522c.26.392.392.784.392 1.24M37.147 59.345s-3.133 1.436-3.394 1.567c.13-.262 2.154-4.243 2.154-4.243l-.261-.588h-.066l-4.57 2.154.327.653s3.133-1.436 3.394-1.567c-.13.262-2.154 4.243-2.154 4.243l.261.523 4.57-2.155z"/></g><path d="m30.49 55.95.195.784 4.896-1.24-.13-.784-.066.066z"/><g stroke-width=".653"><path d="M33.1 53.078c-.196-.13-.392-.196-.587-.13-.196 0-.392.13-.523.326s-.195.392-.13.587c0 .196.13.392.326.522s.392.196.588.131c.457-.066.718-.457.653-.914-.066-.261-.196-.392-.327-.522M32.774 51.12c.326-.457.588-.849 1.044-.849.13 0 .261.066.392.196.13.13.196.327.196.522 0 .392-.261.784-.718 1.11l-.13.13h1.109c.326-.39.457-.782.457-1.305 0-.326-.13-.652-.327-.914-.26-.26-.652-.391-1.044-.391-.914 0-1.305.587-1.697 1.175-.261.391-.457.783-.849.783a.501.501 0 0 1-.326-.13.741.741 0 0 1-.196-.523c0-.326.196-.718.522-.979l.13-.066h-.978c-.261.327-.392.653-.392 1.045 0 .457.13.783.392 1.044.26.261.587.392.979.392.653-.13 1.044-.718 1.436-1.24M32.447 48.966a2.693 2.693 0 0 0 2.023-.261 2.29 2.29 0 0 0 1.045-1.501c.13-.653.066-1.306-.261-1.828-.327-.588-.98-1.044-1.697-1.175-1.436-.392-2.807.392-3.134 1.762-.065.196-.065.392-.065.588 0 .457.13.849.326 1.175.457.653 1.045 1.11 1.763 1.24m-1.175-2.807c.13-.457.391-.783.718-1.044.391-.261.914-.326 1.436-.196.522.13.979.457 1.175.849.196.391.26.783.196 1.24-.262.914-1.175 1.436-2.22 1.175-.979-.196-1.566-1.045-1.305-2.024"/><path d="M74.748 51.12c0-6.266-2.415-12.141-6.854-16.58-.522-.522-1.044-.98-1.632-1.501v-.914c.914-.066 1.697-.849 1.697-1.763 0-.979-.783-1.762-1.762-1.762h-.13l1.697-.783-.653-1.436 2.546-5.94-1.11-.457-2.611 6.07-1.371.653.914 1.958H37.15l.913-1.958-1.436-.653-2.61-6.07-1.11.457 2.546 5.94-.653 1.436 1.697.783h-.066c-.979 0-1.762.783-1.762 1.762 0 .914.718 1.698 1.632 1.763v.914c-.522.457-1.11.979-1.632 1.501-4.439 4.439-6.854 10.314-6.854 16.58 0 4.83 1.436 9.465 4.243 13.447 2.741 3.851 6.462 6.789 10.9 8.42 0 0 .262.066.654.262.065.652.456 1.24 1.044 1.436.653.26 1.37 0 1.762-.457h.066v6.658c0 2.48 2.089 4.439 4.7 4.439s4.7-2.024 4.7-4.439v-4.439l11.489-5.483c.392-.13.718-.326 1.044-.587.914-.85 1.045-2.155.457-3.852 1.045-1.175 1.958-2.415 2.676-3.786A22.718 22.718 0 0 0 74.75 51.12M62.54 29.704l3.394.718-3.394.718zM51.64 65.345V47.721h13.447v3.33c0 3.263-.588 5.483-1.436 7.114-.718 1.175-1.567 2.285-2.611 3.264l-.196.196c-2.48 2.35-5.81 3.655-9.204 3.72m4.047.588a8.6 8.6 0 0 0-.587 1.959 254.873 254.873 0 0 1-3.786-1.372c1.501.065 3.002-.196 4.373-.588M51.64 47.133V32.185H65.087v14.949zm4.7-17.429 3.394.718-3.394.718zm-6.267 0 3.395.718-3.395.718zm-6.331 0 3.394.718-3.394.718zm-6.136 0 3.394.718-3.394.718zm0 14.23v-11.75H51.053v14.948H37.606zm0 3.786h13.447v17.624a14.213 14.213 0 0 1-7.702-2.48c-.066-.066-.196-.13-.262-.196l-.066-.066c-.066-.065-.13-.065-.196-.13-.065-.066-.13-.13-.196-.13l-.065-.066a13.87 13.87 0 0 1-3.59-4.178c-.849-1.632-1.371-3.851-1.371-7.05zm6.397 24.413c-.196-.066-.392-.13-.522-.196a21.983 21.983 0 0 1-10.314-8.029 22.226 22.226 0 0 1-4.047-12.794c0-5.94 2.284-11.489 6.527-15.73.261-.262.522-.523.784-.719v6.071c-.914-.653-1.959-1.306-2.024-1.37.066-.067.849-1.306.849-1.306l-.653-.392v.066l-2.089 3.133.653.392s.783-1.175.848-1.306c.066.066 1.436.914 2.415 1.632v2.154l-4.308-1.958v.066l-.326.652 4.635 2.154v2.611a15.332 15.332 0 0 0-.523 3.917c0 2.807.784 5.418 2.09 7.702.848 1.632 1.957 2.742 3.002 3.721.457.392.914.783 1.436 1.175.066 0 .066.066.13.066.066.065.13.065.196.13.066.066.13.066.196.13l.066.067c.392.26.783.522 1.24.718.588.26 1.37.652 2.285 1.044l-.98 2.415-.456-.196c-.261-.13-.588 0-.718.261-.13.262 0 .588.26.719l.458.195zm10.836 8.812c0 .457-.13.914-.327 1.306-.195.326-.522.522-.848.522-.457 0-.849-.261-.98-.718 0-.066-.065-.261-.13-.587.13.065.261.065.392.065.588 0 1.044-.457 1.044-.979 0-.587-.457-.979-1.044-.979-.326 0-.587.13-.783.327-.327-1.306-.653-2.742-.653-2.742h-.457s-.326 1.436-.653 2.742c-.196-.196-.457-.327-.718-.327a.961.961 0 0 0-.979.98c0 .587.457.978.98.978.13 0 .26 0 .39-.065-.065.26-.13.522-.13.587-.13.392-.522.718-.979.718-.391 0-.718-.196-.914-.522-.196-.392-.26-.849-.26-1.306V74.68c2.088.653 4.7 1.436 7.114 1.958zm.522-5.483c-3.655-.783-7.898-2.154-10.379-3.003.261-.587.653-1.632 1.11-2.741l.652.26v.131c0 .914.784 1.697 1.698 1.697.914 0 1.697-.783 1.697-1.697s-.783-1.697-1.697-1.697c-.523 0-.914.196-1.24.587l-.719-.326c.392-.979.718-1.893.98-2.415 2.48 1.044 5.678 2.285 8.746 3.264 3.264.979 5.875 1.566 7.833 1.762-3.46 1.697-8.42 4.047-8.681 4.178m12.337-6.006c-.327.327-1.11.653-2.742.653a19.16 19.16 0 0 0 3.003-2.61c.26.913.196 1.566-.261 1.957m-4.635.523c-1.566-.196-3.72-.718-6.527-1.567-.13-.066-.261-.066-.392-.13.261-1.632.783-2.677 1.697-3.199 1.436-.653 2.742-1.567 3.917-2.676 1.044-.914 2.088-2.024 2.872-3.59 1.305-2.285 2.089-4.962 2.089-7.768 0-1.306-.196-2.677-.523-3.917v-2.48l.718 1.827.718-.26s-.718-1.763-.718-1.828c.13-.066 4.047-1.632 4.047-1.632l-.26-.718h-.066l-4.374 1.762v-.326l2.938-4.178-.262-.457h-.065l-2.611.588v-4.896c.26.26.522.457.783.718a22.176 22.176 0 0 1 6.528 15.73c0 3.852-.98 7.703-2.938 11.033-1.827 3.329-4.439 6.005-7.572 7.963m3.46-28.003-.261.392v-.783l.26.392m-.195-1.698c.13 0 1.436-.326 1.632-.391-.13.196-.914 1.305-.98 1.37a12.681 12.681 0 0 1-.652-.979"/><path d="M68.806 13.521c-.914-1.37-2.415-1.958-3.525-1.958-1.567 0-3.198.652-4.765 1.305-1.762.718-3.59 1.436-5.418 1.306.196-.653.457-1.306.783-1.828l-1.11-.522c.197-.392.392-.849.458-1.371-.13-.066-1.632-.588-4.047-.588s-3.786.523-3.917.588c.066.522.196.98.457 1.37l-1.11.523c.327.522.588 1.175.784 1.828-1.828.196-3.656-.588-5.418-1.306-1.567-.653-3.199-1.305-4.765-1.305-1.11 0-2.611.587-3.525 1.958-.718 1.11-1.306 3.199.26 6.528v-.066l2.285-.98.131.392c-.718.327-1.436 1.175-.588 3.134 1.959-.849 2.024-1.959 1.698-2.677l.391-.13.98 2.22.979 2.219-.392.13c-.327-.718-1.175-1.436-3.133-.587.848 1.958 2.35 2.741 3.525 2.741 2.023 0 3.46-1.24 3.263-2.48-.13-.914-.979-1.24-1.305-1.175-.392.066-.653.522-.588.783 0 .066.066.13.066.196l-.066.066a1.326 1.326 0 0 1-1.11-.98c-.13-.652.327-1.305.98-1.436.391-.065.783.066 1.11.327l.13-.196c-.392-.196-.653-.522-.718-.98-.196-1.044.979-2.088 1.044-2.088 0 0 1.502.522 1.697 1.567.066.457-.065.848-.326 1.175l.196.13c.13-.326.457-.653.914-.718.653-.13 1.305.326 1.436.98.13.521-.196 1.109-.653 1.305l-.065-.066v-.196c-.066-.326-.457-.587-.85-.522-.325.066-.978.653-.782 1.566.326 1.567 1.632 2.677 3.198 2.677s3.264-1.306 3.264-3.264c-2.285 0-2.807 1.044-2.807 1.958h-.457V19.852h.457c0 .849.588 1.959 2.807 1.959 0-2.285-1.044-2.807-1.958-2.807v-.457h5.157v.457c-.849 0-1.959.587-1.959 2.807 2.285 0 2.807-1.045 2.807-1.959h.457v5.222h-.326c0-.848-.588-1.958-2.807-1.958 0 1.958 1.632 3.264 3.264 3.264 1.566 0 2.937-1.11 3.198-2.677.196-.913-.457-1.566-.783-1.566-.392-.066-.783.196-.849.522v.196l-.065.066c-.457-.261-.784-.784-.653-1.306.13-.653.783-1.11 1.436-.979.392.066.718.326.914.718l.196-.13a1.483 1.483 0 0 1-.327-1.175c.196-1.045 1.698-1.567 1.698-1.567s1.24 1.044 1.044 2.089c-.066.457-.392.783-.718.979l.13.196c.262-.261.653-.392 1.11-.327.653.131 1.11.784.98 1.437-.131.587-.588.979-1.11.979l-.066-.066c.066-.066.066-.13.066-.196.065-.326-.196-.718-.588-.783-.326-.066-1.175.26-1.306 1.175-.195 1.24 1.306 2.48 3.264 2.48 1.175 0 2.677-.783 3.525-2.741-1.958-.849-2.807-.13-3.133.587l-.392-.13.98-2.22.978-2.22.392.131c-.326.718-.261 1.828 1.697 2.677.849-1.959.13-2.807-.587-3.134l.13-.391 2.285.979v.066c1.37-3.395.783-5.418.066-6.528m-20.954 2.872c-1.11 0-2.024.588-2.546 1.501-.588-1.044-1.893-1.697-3.133-1.436-.914.196-1.697.849-2.024 1.632a2.876 2.876 0 0 0-2.48-1.37 2.962 2.962 0 0 0-2.807 2.023c-.718-1.893-.718-3.46 0-4.57.718-1.109 1.958-1.435 2.48-1.435 1.371 0 2.807.587 4.309 1.175 1.958.783 3.981 1.631 6.2 1.305.066.392.131.718.197 1.11-.066.065-.13.065-.196.065m3.46-6.07c.587 0 1.109.456 1.174 1.044-.326-.261-.718-.457-1.175-.457-.457 0-.848.196-1.175.457a1.196 1.196 0 0 1 1.175-1.044m0 1.11c.588 0 1.11.456 1.175 1.044-.326-.261-.718-.457-1.175-.457-.457 0-.848.196-1.175.457a1.196 1.196 0 0 1 1.175-1.045m0 6.593a1.17 1.17 0 0 1-1.175-1.175 1.17 1.17 0 0 1 1.175-1.175 1.17 1.17 0 0 1 1.175 1.175 1.17 1.17 0 0 1-1.175 1.175m1.11-2.546a1.773 1.773 0 0 0-1.11-.391c-.457 0-.783.13-1.11.391-.065-.13-.065-.26-.065-.391a1.17 1.17 0 0 1 1.175-1.175 1.17 1.17 0 0 1 1.175 1.175c0 .13 0 .26-.066.391m.066-1.632c-.327-.26-.718-.456-1.175-.456-.457 0-.849.195-1.175.456v-.065a1.17 1.17 0 0 1 1.175-1.175 1.17 1.17 0 0 1 1.175 1.175v.065m15.275 4.896a2.962 2.962 0 0 0-2.807-2.023 2.876 2.876 0 0 0-2.48 1.37c-.392-.783-1.11-1.436-2.024-1.632-1.306-.26-2.546.327-3.133 1.437-.523-.85-1.437-1.502-2.546-1.502h-.196c.066-.326.13-.718.196-1.11 2.22.327 4.243-.522 6.201-1.305 1.501-.587 2.937-1.175 4.308-1.175.522 0 1.763.327 2.48 1.436.719 1.045.719 2.611 0 4.504"/></g><path d="M58.362 33.626h.065l.066-.065.26-.522h-.913l.26.522h.262l-.065.196zM52.879 33.496l-.065.065v.196l-.457-.065v-.327l-.327-.587.065-.066.588.327h.326v.457l-.13-.066"/><path d="M53.205 33.365c-.066 0-.13-.066-.13-.13 0-.066.065-.131.13-.131.066 0 .066 0 .13.066h.066v-.13c0-.197-.13-.327-.326-.327s-.327.13-.327.326.131.327.327.327h.13M52.683 33.887c0-.066-.066-.13-.13-.13-.066 0-.131.065-.131.13 0 .066 0 .066.066.13v.066h-.13c-.197 0-.327-.13-.327-.326s.13-.327.326-.327.327.131.327.327v.13M52.879 45.963l-.065-.065v-.196l-.457.066v.26l-.327.588.065.13.588-.39h.326v-.458l-.13.065"/><path d="M53.205 46.028c-.066 0-.13.066-.13.13 0 .066.065.131.13.131.066 0 .066 0 .13-.066h.066v.13c0 .197-.13.327-.326.327s-.327-.13-.327-.326.131-.327.327-.327h.13M52.683 45.571c0 .066-.066.13-.13.13-.066 0-.131-.065-.131-.13 0-.066 0-.066.066-.13v-.066h-.13c-.197 0-.327.13-.327.326s.13.327.326.327.327-.131.327-.327v-.13M63.715 45.963l.065-.065v-.196l.457.066v.26l.326.588-.065.13-.588-.39h-.326v-.458l.13.065"/><path d="M63.388 46.028c.066 0 .13.066.13.13 0 .066-.065.131-.13.131-.066 0-.066 0-.13-.066h-.066v.13c0 .197.13.327.326.327s.327-.13.327-.326-.131-.327-.327-.327h-.13M63.91 45.571c0 .066.066.13.13.13.066 0 .131-.065.131-.13 0-.066 0-.066-.066-.13v-.066h.13c.197 0 .327.13.327.326s-.13.327-.326.327-.327-.131-.327-.327v-.13M63.715 33.496l.065.065v.196l.457-.065v-.327l.326-.587-.065-.066-.588.327h-.326v.457l.13-.066"/><g stroke-width=".653"><path d="M63.388 33.365c.066 0 .13-.066.13-.13 0-.066-.065-.131-.13-.131-.066 0-.066 0-.13.066h-.066v-.13c0-.197.13-.327.326-.327s.327.13.327.326-.131.327-.327.327h-.13M63.91 33.887c0-.066.066-.13.13-.13.066 0 .131.065.131.13 0 .066 0 .066-.066.13v.066h.13c.197 0 .327-.13.327-.326s-.13-.327-.326-.327-.327.131-.327.327zM57.774 34.279h.979v.392h-.979z"/></g><path d="m58.558 34.736-.196.392h-.13l-.196-.392zM58.884 34.475"/><g stroke-width=".653"><path d="m59.015 34.67-.066.066c-.065 0-.13-.066-.13-.13 0-.067.065-.131.13-.131h-.13c-.13 0-.261.13-.261.26s.13.262.26.262.262-.13.262-.261c-.066 0-.066 0-.066-.066zM57.709 34.474zM57.579 34.67l.066.066c.065 0 .13-.066.13-.13 0-.067-.065-.131-.13-.131h.13c.13 0 .261.13.261.26s-.13.262-.26.262-.262-.13-.262-.261c.066 0 .066 0 .066-.066z"/></g><path d="M58.231 45.833h-.065l-.065.065-.261.522h.914l-.261-.522-.196-.065h-.066l.131-.13zM57.84 44.657h.979v.392h-.979z"/><path d="m58.036 44.723.195-.457h.131l.196.457z"/><g stroke-width=".653"><path d="M57.709 44.919zM57.579 44.788l.066-.066c.065 0 .13.066.13.13 0 .067-.065.131-.13.131h.13a.28.28 0 0 0 .261-.26c0-.131-.13-.262-.26-.262s-.262.13-.262.261c.066 0 .066 0 .066.066zM58.884 44.919zM59.015 44.788l-.066-.066c-.065 0-.13.066-.13.13 0 .067.065.131.13.131h-.13a.28.28 0 0 1-.261-.26c0-.131.13-.262.26-.262s.262.13.262.261c-.066 0-.066 0-.066.066z"/></g><path d="M63.715 39.827h-.066l.066.066.522.26v-.913l-.522.261v.261l-.13-.065zM62.54 39.24h.392v.979h-.392zM62.54 39.958l-.392-.196v-.13l.392-.196zM62.8 40.35v-.066.066"/><g stroke-width=".653"><path d="m62.67 40.415-.066-.066c0-.065.066-.13.13-.13.067 0 .131.065.131.13v-.13a.28.28 0 0 0-.26-.261c-.131 0-.262.13-.262.26s.13.262.261.262l.066-.066zM62.67 39.044l-.066.066c0 .065.066.13.13.13.067 0 .131-.065.131-.13v.13a.28.28 0 0 1-.26.261.28.28 0 0 1-.262-.26c0-.131.13-.262.261-.262l.066.066z"/></g><path d="M52.879 39.827h.065l-.065.066-.522.26v-.913l.522.261v.261l.13-.065zM53.597 39.24h.392v.979h-.392zM54.054 39.958l.391-.196v-.13l-.391-.196zM53.793 40.35v-.066.066"/><g stroke-width=".653"><path d="m53.988 40.415.066-.066c0-.065-.066-.13-.13-.13-.067 0-.131.065-.131.13v-.13c0-.13.13-.261.26-.261s.262.13.262.26-.13.262-.261.262c0 0-.066 0-.066-.066zM53.988 39.044l.066.066c0 .065-.066.13-.13.13-.067 0-.131-.065-.131-.13v.13c0 .13.13.261.26.261s.262-.13.262-.26a.28.28 0 0 0-.261-.262s-.066 0-.066.066z"/></g><g stroke-width=".733"><path d="M33.42 107.571v18.406h22.585v-18.406h5.72v42.824h-5.72v-19.579H33.42v19.579H27.7v-42.824zM68.765 128.391c.66-1.98 1.613-3.666 2.86-5.133 1.246-1.467 2.86-2.64 4.766-3.446 1.907-.807 4.033-1.247 6.453-1.247 2.493 0 4.62.44 6.527 1.247 1.833.806 3.446 1.98 4.693 3.446 1.246 1.467 2.273 3.153 2.86 5.133.66 1.98.953 4.106.953 6.38s-.294 4.4-.954 6.38c-.66 1.98-1.613 3.666-2.86 5.132-1.246 1.467-2.86 2.567-4.692 3.447-1.834.806-4.034 1.246-6.527 1.246-2.42 0-4.62-.44-6.453-1.246-1.906-.807-3.446-1.98-4.766-3.447-1.247-1.466-2.273-3.153-2.86-5.133-.66-1.98-.953-4.106-.953-6.38s.293-4.4.953-6.379zm5.206 11.366c.514 1.467 1.174 2.713 2.054 3.666.88.954 1.906 1.76 3.08 2.274 1.173.513 2.42.806 3.74.806s2.566-.293 3.739-.806a8.424 8.424 0 0 0 3.08-2.274c.88-.953 1.54-2.2 2.053-3.666.513-1.467.733-3.153.733-4.986 0-1.907-.22-3.52-.733-4.987-.513-1.466-1.173-2.713-2.053-3.666a8.427 8.427 0 0 0-3.08-2.273c-1.173-.514-2.42-.807-3.74-.807s-2.566.293-3.74.806a8.427 8.427 0 0 0-3.08 2.274c-.88 1.026-1.54 2.2-2.053 3.666-.513 1.467-.733 3.153-.733 4.987s.22 3.52.733 4.986zM107.998 119.381v4.546h.147c2.346-3.52 5.646-5.28 10.046-5.28 1.906 0 3.666.367 5.206 1.174 1.54.807 2.64 2.127 3.3 4.106 1.027-1.686 2.42-3.006 4.106-3.886 1.687-.953 3.593-1.393 5.573-1.393 1.54 0 2.933.146 4.253.513 1.247.367 2.347.88 3.227 1.613.88.733 1.613 1.613 2.126 2.787.514 1.173.734 2.493.734 4.106V150.4h-5.133v-20.312c0-.953-.074-1.833-.22-2.713a5.788 5.788 0 0 0-.88-2.2 4.65 4.65 0 0 0-1.834-1.467c-.806-.366-1.76-.513-3.006-.513-2.493 0-4.473.733-5.94 2.127s-2.126 3.373-2.126 5.793V150.4h-5.133v-20.312c0-1.027-.074-1.907-.293-2.787-.147-.806-.514-1.54-.954-2.2a4.968 4.968 0 0 0-1.76-1.466c-.733-.367-1.686-.514-2.86-.514-1.466 0-2.713.294-3.813.88-1.026.587-1.906 1.32-2.566 2.127-.66.807-1.173 1.687-1.467 2.64-.293.88-.44 1.613-.44 2.273v19.286h-5.133v-30.945zM175.608 148.421c-2.346 1.76-5.206 2.64-8.726 2.64-2.493 0-4.62-.367-6.453-1.173-1.833-.807-3.373-1.907-4.62-3.374a13.937 13.937 0 0 1-2.786-5.133 25.878 25.878 0 0 1-1.027-6.526c0-2.346.367-4.546 1.1-6.453a16.916 16.916 0 0 1 3.006-5.133c1.32-1.466 2.86-2.566 4.62-3.373 1.76-.807 3.74-1.173 5.866-1.173 2.787 0 5.06.586 6.893 1.686 1.833 1.174 3.3 2.567 4.4 4.327 1.1 1.76 1.833 3.666 2.273 5.793a23.83 23.83 0 0 1 .513 5.94h-23.245c-.073 1.393.147 2.64.514 3.886.366 1.247.953 2.273 1.76 3.226.806.954 1.833 1.687 3.08 2.274 1.246.586 2.713.806 4.4.806 2.126 0 3.959-.513 5.279-1.466 1.393-1.027 2.273-2.494 2.713-4.547h5.06c-.807 3.373-2.347 6.013-4.62 7.773zm-1.247-19.946c-.44-1.1-1.1-1.98-1.833-2.787a8.018 8.018 0 0 0-2.786-1.833c-1.027-.44-2.2-.66-3.52-.66s-2.493.22-3.593.66a7.908 7.908 0 0 0-2.713 1.907c-.734.807-1.394 1.76-1.834 2.786-.44 1.027-.733 2.2-.806 3.373h17.819c0-1.173-.294-2.346-.734-3.446zM200.828 120.551c.88-2.713 2.127-5.06 3.886-7.186 1.687-2.053 3.887-3.74 6.453-4.987 2.567-1.246 5.573-1.833 8.947-1.833 3.373 0 6.38.587 8.946 1.833a19.804 19.804 0 0 1 6.453 4.987c1.686 2.053 3.006 4.473 3.886 7.186.88 2.713 1.32 5.5 1.32 8.433s-.44 5.72-1.32 8.433c-.88 2.713-2.126 5.06-3.886 7.186-1.687 2.053-3.887 3.74-6.453 4.913-2.567 1.247-5.573 1.833-8.946 1.833-3.373 0-6.38-.587-8.947-1.833-2.566-1.247-4.693-2.86-6.453-4.913-1.686-2.053-3.006-4.473-3.886-7.186-.88-2.714-1.32-5.5-1.32-8.433s.44-5.72 1.32-8.433zm5.206 14.812a18.17 18.17 0 0 0 2.64 5.646c1.174 1.687 2.714 3.007 4.62 4.033 1.907 1.027 4.106 1.54 6.746 1.54 2.567 0 4.84-.513 6.747-1.54 1.906-1.026 3.446-2.346 4.62-4.033 1.173-1.686 2.052-3.593 2.64-5.646.586-2.127.806-4.253.806-6.38 0-2.126-.294-4.253-.807-6.38a18.172 18.172 0 0 0-2.64-5.646c-1.173-1.686-2.713-3.006-4.62-4.033-1.906-1.026-4.106-1.54-6.746-1.54-2.566 0-4.84.514-6.746 1.54-1.907 1.027-3.446 2.347-4.62 4.033-1.173 1.687-2.053 3.594-2.64 5.647-.586 2.126-.806 4.253-.806 6.38s.293 4.252.806 6.379zM242.848 123.851v-4.473h5.206v-4.62c0-2.493.734-4.4 2.2-5.72s3.593-1.98 6.38-1.98c.513 0 1.027.074 1.613.147.587.074 1.173.22 1.613.367v4.473c-.44-.147-.953-.293-1.466-.293-.514-.074-1.027-.074-1.467-.074-1.247 0-2.2.22-2.86.733-.66.513-1.026 1.393-1.026 2.787v4.326h6.013v4.473h-6.013v26.545h-5.133v-26.545h-5.06z"/><path d="M258.758 123.851v-4.473h5.206v-4.62c0-2.493.734-4.4 2.2-5.72s3.593-1.98 6.38-1.98c.513 0 1.027.074 1.613.147.587.074 1.173.22 1.613.367v4.473c-.44-.147-.953-.293-1.466-.293-.514-.074-1.027-.074-1.467-.074-1.247 0-2.2.22-2.86.733-.66.513-1.026 1.393-1.026 2.787v4.326h6.013v4.473h-5.867v26.545h-5.133v-26.545h-5.206zM279.218 113.801v-6.233h5.133v6.233zm5.133 5.573v31.018h-5.133v-31.018zM310.018 124.801c-1.247-1.1-3.006-1.613-5.133-1.613-1.833 0-3.373.366-4.62 1.026-1.246.66-2.2 1.614-2.933 2.714-.733 1.1-1.247 2.42-1.613 3.886-.293 1.467-.513 2.933-.513 4.547 0 1.466.146 2.86.513 4.18.367 1.393.88 2.566 1.613 3.592a9.329 9.329 0 0 0 2.787 2.567c1.173.66 2.566.953 4.106.953 2.493 0 4.473-.66 5.94-1.98 1.393-1.32 2.273-3.153 2.64-5.573h5.206c-.587 3.813-1.98 6.82-4.253 8.873s-5.427 3.153-9.386 3.153c-2.347 0-4.473-.366-6.233-1.173-1.834-.733-3.373-1.833-4.547-3.227-1.246-1.393-2.126-3.08-2.786-4.986-.587-1.907-.953-4.033-.953-6.38s.293-4.473.88-6.526a15.003 15.003 0 0 1 2.713-5.28c1.246-1.466 2.713-2.713 4.62-3.52 1.833-.88 3.96-1.32 6.452-1.32 1.76 0 3.373.22 4.913.66 1.54.44 2.934 1.1 4.107 1.98 1.173.88 2.126 1.98 2.933 3.3.733 1.32 1.247 2.934 1.467 4.767h-5.28c-.513-2.053-1.32-3.593-2.64-4.62zM344.918 148.421c-2.346 1.76-5.206 2.64-8.726 2.64-2.493 0-4.62-.367-6.453-1.173-1.833-.807-3.373-1.907-4.62-3.374a13.934 13.934 0 0 1-2.786-5.133 25.878 25.878 0 0 1-1.027-6.526c0-2.346.367-4.546 1.1-6.453a16.916 16.916 0 0 1 3.006-5.133c1.32-1.466 2.86-2.566 4.62-3.373 1.76-.807 3.74-1.173 5.866-1.173 2.787 0 5.06.586 6.893 1.686 1.833 1.174 3.3 2.567 4.4 4.327 1.1 1.76 1.833 3.666 2.273 5.793a23.83 23.83 0 0 1 .513 5.94h-23.245c-.073 1.393.147 2.64.514 3.886.366 1.247.953 2.273 1.76 3.226.806.954 1.833 1.687 3.08 2.274 1.246.586 2.713.806 4.4.806 2.126 0 3.959-.513 5.279-1.466 1.393-1.027 2.273-2.494 2.713-4.547h5.06c-.807 3.373-2.273 6.013-4.62 7.773zm-1.173-19.946c-.44-1.1-1.1-1.98-1.833-2.787a8.018 8.018 0 0 0-2.787-1.833c-1.027-.44-2.2-.66-3.52-.66s-2.493.22-3.593.66a7.909 7.909 0 0 0-2.713 1.907c-.733.807-1.393 1.76-1.833 2.786-.44 1.027-.734 2.2-.807 3.373h17.82c0-1.173-.294-2.346-.734-3.446z"/></g></svg>