<?xml version="1.0" encoding="UTF-8" standalone="no"?>
<!-- Created with Inkscape (http://www.inkscape.org/) -->
<svg xmlns:rdf="http://www.w3.org/1999/02/22-rdf-syntax-ns#" xmlns="http://www.w3.org/2000/svg" height="151.35" width="350" version="1.1" xmlns:cc="http://creativecommons.org/ns#" xmlns:dc="http://purl.org/dc/elements/1.1/" viewBox="0 0 349.99997 151.34988">
 <metadata>
  <rdf:RDF>
   <cc:Work rdf:about="">
    <dc:format>image/svg+xml</dc:format>
    <dc:type rdf:resource="http://purl.org/dc/dcmitype/StillImage"/>
    <dc:title/>
   </cc:Work>
  </rdf:RDF>
 </metadata>
 <g transform="translate(-30.462 -20.479)">
  <path d="m30.462 20.479h6.4633v150.84h-6.4633z" stroke-width=".93671" fill="#7f3f98"/>
  <g stroke-width=".65276">
   <path d="m82.819 26.428v2.6763c1.3708 0.06571 2.3499 0.32637 2.8721 0.45689-0.26104-1.5666-1.3708-2.7416-2.8721-3.1332"/>
   <path d="m81.187 24.535c0 0.91391-0.19585 1.5013-0.45689 1.893 0 0 0.45689-0.13052 1.0444-0.13052 0.39169 0 0.9791 0.13052 1.0444 0.13052-0.26117-0.39169-0.45689-0.9791-0.45689-1.893 2.0236 0 2.4805 0.91391 2.4805 1.6972h0.39169v-2.2847-2.2846h-0.39169c0 0.78326-0.52221 1.6972-2.4805 1.6972 0-2.0236 0.91391-2.4805 1.6972-2.4805v-0.39169h-2.2846-2.2847v0.39169c0.78338 0 1.6972 0.52221 1.6972 2.4805-2.0236 0-2.4805-0.91391-2.4805-1.6972h-0.39169v2.2846 2.2847h0.39169c0-0.78326 0.45689-1.6972 2.4805-1.6972"/>
   <path d="m80.73 26.428c-1.4361 0.39169-2.5458 1.6319-2.8721 3.1332 0.52221-0.13052 1.5013-0.39169 2.8721-0.45689z"/>
   <path d="m83.21 92.683c0 0.91391 0.78326 1.6972 1.6972 1.6972 0.91391 0 1.6972-0.78326 1.6972-1.6972 0-0.91391-0.78326-1.6972-1.6972-1.6972-0.9791 0.06571-1.6972 0.78326-1.6972 1.6972m0.84858 0c0-0.45689 0.39169-0.84858 0.84858-0.84858s0.84858 0.39169 0.84858 0.84858-0.39169 0.84858-0.84858 0.84858c-0.52221 0-0.84858-0.32637-0.84858-0.84858"/>
   <path d="m80.142 70.554c0-0.84858-0.65274-1.5013-1.5013-1.5013h-0.26104-8.2247c-0.71806 0-1.3055 0.58754-1.3055 1.3055 0 0.52221 0.39169 0.91391 0.91391 0.91391 0.52221 0 0.91391-0.39169 0.91391-0.9791 0.19585 0.19585 0.39169 0.32637 0.65273 0.45689-0.13052 0.52221-0.26117 1.2403-0.32637 2.0888-0.13052-0.19585-0.32637-0.26104-0.52221-0.26104-0.32637 0-0.65274 0.26104-0.65274 0.65274 0 0.32637 0.26104 0.65274 0.65274 0.65274 0.19585 0 0.39169-0.13052 0.52221-0.26117 0 0.45689 0 0.91391 0.06571 1.4361-0.13052-0.06571-0.26104-0.13052-0.39169-0.13052-0.32637 0-0.65274 0.26117-0.65274 0.65274 0 0.32637 0.26117 0.65274 0.65274 0.65274 0.19585 0 0.45689-0.13052 0.52221-0.32637 0 0.06571 0 0.13052 0.06571 0.19585 0.13052 0.39169 0.26104 0.78326 0.39169 1.1098-0.06571-0.06571-0.19585-0.06571-0.32637-0.06571-0.32637 0-0.65273 0.26104-0.65273 0.65274 0 0.32637 0.26117 0.65274 0.65273 0.65274 0.32637 0 0.58741-0.26117 0.65274-0.52221 0.19585 0.39169 0.45689 0.78326 0.78326 1.1749h-0.13052c-0.32637 0-0.65274 0.26104-0.65274 0.65274 0 0.39169 0.26104 0.65274 0.65274 0.65274 0.32637 0 0.65274-0.26104 0.65274-0.65274v-0.06571c0.9791 0.9791 2.2194 1.8277 3.7207 2.4152l-0.26104 1.9583s0.58741 0.26117 1.5013 0.52221c0.91391 0.26104 1.7624 0.39169 1.7624 0.39169zm-7.7025 0.78326s0.06571 0 0.13052 0.06571l4.6346 9.3997c-5.7442-2.6114-5.1568-7.3113-4.7651-9.4654m4.8957 8.747-4.2429-8.5511c0.26104 0.06571 0.52221 0.06571 0.78326 0.06571l3.654 7.375zm0.259-1.893-3.263-6.659c0.26104 0 0.45689-0.06571 0.65274-0.13052l2.7416 5.6137zm0.26117-1.893-2.4805-4.961c0.19585-0.06571 0.39169-0.13052 0.58754-0.26117l2.0235 4.0471zm0.26104-1.893-1.7624-3.5249c0.19585-0.13052 0.39169-0.26117 0.52221-0.39169l1.3708 2.7416zm0.45689-3.2638-0.19585 1.4361-1.1096-2.2847c0.13052-0.06571 0.26104-0.06571 0.39169-0.06571 0.52221-0.06571 0.9791 0.39169 0.91391 0.91391"/>
   <path d="m74.529 32.76c0-0.52221 0.45689-0.9791 0.9791-0.9791s0.9791 0.45689 0.9791 0.9791c0 0.58741-0.45689 0.9791-0.9791 0.9791-0.52221 0.06571-0.9791-0.39169-0.9791-0.9791"/>
   <path d="m61.539 39.679c0-0.52221 0.45689-0.9791 0.9791-0.9791 0.58741 0 0.9791 0.45689 0.9791 0.9791 0 0.58741-0.45689 0.9791-0.9791 0.9791s-0.9791-0.45689-0.9791-0.9791"/>
   <path d="m61.016 37.133c0-0.58754 0.45689-0.9791 0.9791-0.9791s0.9791 0.45689 0.9791 0.9791-0.45689 0.9791-0.9791 0.9791c-0.52221 0.06571-0.9791-0.39169-0.9791-0.9791"/>
   <path d="m61.212 34.587c0-0.52221 0.45689-0.9791 0.9791-0.9791 0.58754 0 0.9791 0.45689 0.9791 0.9791s-0.45689 0.9791-0.9791 0.9791-0.9791-0.45689-0.9791-0.9791"/>
   <path d="m62.583 32.368c0-0.52221 0.45689-0.9791 0.9791-0.9791 0.58754 0 0.9791 0.45689 0.9791 0.9791s-0.45689 0.9791-0.9791 0.9791c-0.52221 0.06571-0.9791-0.39169-0.9791-0.9791"/>
   <path d="m64.672 30.867c0-0.52221 0.45689-0.9791 0.9791-0.9791s0.9791 0.45689 0.9791 0.9791c0 0.58741-0.45689 0.9791-0.9791 0.9791-0.52221 0.06571-0.9791-0.39169-0.9791-0.9791"/>
   <path d="m67.218 30.41c0-0.52221 0.45689-0.9791 0.9791-0.9791 0.58754 0 0.9791 0.45689 0.9791 0.9791s-0.45689 0.9791-0.9791 0.9791c-0.52221 0.06571-0.9791-0.39169-0.9791-0.9791"/>
   <path d="m69.698 30.932c0-0.52221 0.45689-0.9791 0.9791-0.9791 0.58754 0 0.9791 0.45689 0.9791 0.9791s-0.45689 0.9791-0.9791 0.9791c-0.52221 0.06571-0.9791-0.39169-0.9791-0.9791"/>
   <path d="m72.113 31.911c0-0.52221 0.45689-0.9791 0.9791-0.9791 0.58754 0 0.9791 0.45689 0.9791 0.9791 0 0.58754-0.45689 0.9791-0.9791 0.9791s-0.9791-0.45689-0.9791-0.9791"/>
   <path d="m89.02 32.76c0-0.52221-0.45689-0.9791-0.9791-0.9791s-0.9791 0.45689-0.9791 0.9791c0 0.58741 0.45689 0.9791 0.9791 0.9791 0.52221 0.06571 0.9791-0.39169 0.9791-0.9791"/>
   <path d="m102.01 39.679c0-0.52221-0.45689-0.9791-0.9791-0.9791-0.58754 0-0.9791 0.45689-0.9791 0.9791 0 0.58741 0.45689 0.9791 0.9791 0.9791s0.9791-0.45689 0.9791-0.9791"/>
   <path d="m102.53 37.133c0-0.58754-0.45689-0.9791-0.97911-0.9791-0.52221 0-0.9791 0.45689-0.9791 0.9791s0.45689 0.9791 0.9791 0.9791c0.52222 0.06571 0.97911-0.39169 0.97911-0.9791"/>
   <path d="m102.27 34.587c0-0.52221-0.45689-0.9791-0.9791-0.9791-0.58741 0-0.9791 0.45689-0.9791 0.9791s0.45688 0.9791 0.9791 0.9791c0.58754 0 0.9791-0.45689 0.9791-0.9791"/>
   <path d="m100.97 32.368c0-0.52221-0.45689-0.9791-0.9791-0.9791s-0.9791 0.45689-0.9791 0.9791 0.45689 0.9791 0.9791 0.9791c0.52221 0.06571 0.9791-0.39169 0.9791-0.9791"/>
   <path d="m98.876 30.867c0-0.52221-0.45689-0.9791-0.9791-0.9791-0.58741 0-0.9791 0.45689-0.9791 0.9791 0 0.58741 0.45689 0.9791 0.9791 0.9791 0.52221 0.06571 0.9791-0.39169 0.9791-0.9791"/>
   <path d="m96.331 30.41c0-0.52221-0.45689-0.9791-0.9791-0.9791-0.58741 0-0.9791 0.45689-0.9791 0.9791s0.45689 0.9791 0.9791 0.9791c0.52221 0.06571 0.9791-0.39169 0.9791-0.9791"/>
   <path d="m93.785 30.932c0-0.52221-0.45689-0.9791-0.9791-0.9791-0.58754 0-0.9791 0.45689-0.9791 0.9791s0.45689 0.9791 0.9791 0.9791c0.58754 0.06571 0.9791-0.39169 0.9791-0.9791"/>
   <path d="m91.37 31.911c0-0.52221-0.45689-0.9791-0.9791-0.9791s-0.9791 0.45689-0.9791 0.9791c0 0.58754 0.45689 0.9791 0.9791 0.9791 0.58754 0 0.9791-0.45689 0.9791-0.9791"/>
   <path d="m90.391 47.186c0-0.58754-0.52221-1.1096-1.1096-1.1096-0.58741 0-1.1096 0.52221-1.1096 1.1096 0 0.58741 0.52221 1.1096 1.1096 1.1096 0.58754 0 1.1096-0.52221 1.1096-1.1096"/>
   <path d="m83.145 53.844v12.664h11.227v-12.664zm10.901 12.337h-10.575v-11.945h4.1124 1.5666 4.8304z"/>
   <path d="m84.581 54.627h-0.65274v10.444 0.65274h0.65274 8.3553 0.65274v-0.65274-9.7914-0.65274h-0.65274-3.5902-1.893zm8.3553 0.32637v0.32637h0.32637v9.7914h-0.32637v0.32637h-8.3553v-0.32637h-0.32637v-9.7914h0.32637v-0.32637z"/>
   <path d="m92.479 57.826-0.52221 0.52221s-0.06571 0-0.06571 0.06571l-0.9791 0.91391c-0.32637 0.26117-0.39169 0.71806-0.13052 1.0444l0.58741 0.78326c0.06571 0.06571 0.06571 0.13052 0.06571 0.26117 0 0.06571-0.06571 0.19585-0.13052 0.19585-0.06571 0.06571-0.13052 0.06571-0.26117 0.06571-0.06571 0-0.19585-0.06571-0.19585-0.13052 0 0-0.58754-0.78326-0.84858-1.1749v-1.1098l1.3708-1.3055v-1.1096l-0.45689-0.45689 0.58741-0.58754h-2.4152l-0.58754 0.58754v0.65274c0.06571-0.06571 0.19585-0.06571 0.26117-0.06571 0.26104 0 0.52221 0.26104 0.52221 0.52221 0 0.26104-0.26104 0.52221-0.52221 0.52221-0.06571 0-0.19585 0-0.26117-0.06571v0.78326h-0.84858l-0.9791-1.3708c0.13052-0.13052 0.19585-0.32637 0.19585-0.52221 0-0.39169-0.32637-0.65274-0.65274-0.65274-0.13052 0-0.26117 0.06571-0.39169 0.13052v0.39169 0.65274 0.06571h0.06571l0.91391 1.3055 0.45689 0.65274h0.84858 0.26117l-0.58754 0.58754h-1.1749c-0.06571-0.26117-0.32637-0.39169-0.58754-0.39169-0.26104 0-0.52221 0.19585-0.58741 0.39169 0 0.06571-0.06571 0.13052-0.06571 0.26104s0.06571 0.32637 0.13052 0.39169h1.0444 1.6319l0.45689 0.65274h-1.0444-0.78326l0.71806 0.9791 0.39169 0.52221h-0.91391c-0.06571-0.26104-0.32637-0.45689-0.65274-0.45689-0.26104 0-0.52221 0.19585-0.65274 0.45689v0.19585c0 0.19585 0.06571 0.32637 0.19585 0.45689h0.9791 1.5666 0.78326l-0.45689-0.65274-0.39169-0.52221h1.0444l0.39169 0.52221 0.45689 0.65274h1.3708 0.19585v0.71806h-0.19585c-0.06571-0.26104-0.32637-0.45689-0.65274-0.45689s-0.52221 0.19585-0.65274 0.45689v0.19585c0 0.19585 0.06571 0.32637 0.19585 0.45689h1.9583v-1.4361-0.65273h-0.65274-0.65274l-0.65274-0.8491c0.13052 0.13052 0.26117 0.26104 0.45689 0.26104 0.19585 0 0.39169 0 0.58754-0.13052s0.26104-0.32637 0.32637-0.52221c0-0.19585 0-0.39169-0.13052-0.58754l-0.585-0.784c-0.13052-0.13052-0.06571-0.39169 0.06571-0.45689l0.26104-0.26104c0.26117 0.19585 0.58754 0.19585 0.84858 0 0.13052-0.13052 0.19585-0.26104 0.19585-0.45689z"/>
  </g>
  <polygon points="77.6 171.5 75.3 169.2 77.6 166.9 79.9 169.2" transform="matrix(.65276 0 0 .65276 31.12 -63.261)"/>
  <g stroke-width=".65276">
   <path d="m73.158 47.186c0-0.58754 0.52221-1.1096 1.1098-1.1096 0.58754 0 1.1096 0.52221 1.1096 1.1096 0 0.58741-0.52221 1.1096-1.1096 1.1096-0.58754 0-1.1098-0.52221-1.1098-1.1096"/>
   <path d="m93.589 75.646v-0.32637c0-0.45689-0.32637-0.78326-0.78326-0.78326h-2.8069c0-0.32637-0.32637-0.65274-0.65274-0.65274-0.19585 0-0.32637 0.06571-0.45689 0.19585l-0.84858 0.84858h0.84858 0.9791 2.9374c0.19585 0 0.32637 0.13052 0.32637 0.32637s-0.13052 0.32637-0.32637 0.32637h-1.893-3.6554v-0.78326l0.9791-0.9791h-3.8513l0.9791 0.9791v1.4361l-1.5666-1.2403c0.13052-0.13052 0.19585-0.32637 0.19585-0.52221 0-0.39169-0.32637-0.65274-0.65274-0.65274-0.13052 0-0.32637 0.06571-0.45689 0.13052v0.9791 0.19585l2.4152 1.9583-1.1096 0.32637c-0.06571-0.26104-0.32637-0.45689-0.65274-0.45689-0.39169 0-0.65274 0.32637-0.65274 0.65274 0 0.13052 0.06571 0.32637 0.13052 0.39169h0.78326 0.58754l6.0054-1.893v0.91391l-0.78326 0.32637c-0.06571-0.32637-0.32637-0.52221-0.65274-0.52221-0.39169 0-0.65274 0.32637-0.65274 0.65274 0 0.13052 0.06571 0.32637 0.13052 0.39169h0.71806 0.78326l0.91391-0.45689 0.58741-0.26104-0.26104-0.58754v-0.13052h2.2194c0 0.06571-0.06571 0.19585-0.06571 0.26117-0.06571 0.13052-0.13052 0.32637-0.19585 0.45689-0.13052-0.13052-0.32637-0.19585-0.52221-0.19585-0.39169 0-0.65274 0.32637-0.65274 0.65273 0 0.13052 0.06571 0.32637 0.13052 0.39169h1.0444 0.32637c0.19585-0.39169 0.32637-0.84858 0.39169-1.1098 0.19585-0.58741 0.32637-1.1098 0.32637-1.3055 0.06571 0.06571-0.58754 0.06571-0.58754 0.06571m-7.2456 0.06571-0.65274-0.65274h1.3055z"/>
   <path d="m93.654 70.815c0.06571-0.13052 0.06571-0.19585 0.06571-0.32637 0-0.45689-0.32637-0.78326-0.78338-0.78326h-2.9378c0-0.32637-0.32637-0.65274-0.65274-0.65274-0.19585 0-0.32637 0.06571-0.45689 0.19585l-0.84858 0.84858h0.84858 0.9791 3.1332c0.19585 0 0.32637 0.13052 0.32637 0.32637s-0.13052 0.32637-0.32637 0.32637h-2.0236-3.7207v-0.78338l0.9791-0.9791h-3.8513l0.9791 0.9791v1.4361l-1.5666-1.2403c0.13052-0.13052 0.19585-0.32637 0.19585-0.45689 0-0.39169-0.32637-0.65274-0.65274-0.65274-0.13052 0-0.32637 0.06571-0.45689 0.13052v0.9791 0.19585l2.3499 1.893-1.1098 0.32637c-0.06571-0.26117-0.32637-0.45689-0.65274-0.45689-0.39169 0-0.65274 0.32637-0.65274 0.65273 0 0.13052 0.06571 0.32637 0.13052 0.45689h1.0444 0.32637l6.0054-1.893v0.9791l-0.78326 0.26117c-0.06571-0.26117-0.32637-0.45689-0.65274-0.45689-0.39169 0-0.65274 0.32637-0.65274 0.65274 0 0.13052 0.06571 0.32637 0.13052 0.45689h1.0444 0.45689l1.5013-0.45689 0.71806-0.26104-0.58754-0.52221-0.39169-0.39169h2.6763v0.71806c-0.13052-0.13052-0.32637-0.26104-0.52221-0.26104-0.39169 0-0.65274 0.32637-0.65274 0.65274 0 0.13052 0.06571 0.32637 0.13052 0.45689h1.0444 0.65274v-1.6319-0.32637-0.45689zm-7.3109 0.06571-0.65274-0.65274h1.3055z"/>
   <path d="m91.174 79.301h-1.1749c0-0.32637-0.32637-0.65273-0.65274-0.65273-0.19585 0-0.32637 0.06571-0.45689 0.19585l-0.84858 0.84858h0.84858 1.0444 1.3055c0.19585 0 0.32637 0.13052 0.32637 0.32637s-0.13052 0.32637-0.32637 0.32637h-1.893-1.9583v-0.65274l0.9791-0.9791h-3.8513l0.9791 0.9791v1.6319l-1.5666-1.4361c0.13052-0.13052 0.26104-0.32637 0.26104-0.52221 0-0.39169-0.32637-0.65274-0.65274-0.65274-0.13052 0-0.32637 0.06571-0.45689 0.13052v0.71806 0.39169l2.4805 2.2846 0.13052-0.13052-1.5666 1.893c-0.13052-0.13052-0.32637-0.13052-0.45689-0.13052-0.39169 0.06571-0.65274 0.39169-0.58754 0.71806 0 0.13052 0.06571 0.26104 0.13052 0.39169 0.26104 0 0.58741-0.06571 1.1096-0.13052l1.7626-2.0891c0.26104-0.06571 0.45689-0.19585 0.71806-0.26104l0.71806 0.65274c-0.13052 0.06571-0.26104 0.13052-0.39169 0.19585-0.19585-0.13052-0.45689-0.19585-0.65274-0.13052-0.32637 0.13052-0.52221 0.52221-0.39169 0.84858 0.06571 0.13052 0.13052 0.19585 0.19585 0.26117 0 0 0.26104-0.06571 0.52221-0.19585 0.26104-0.13052 0.52221-0.19585 0.52221-0.19585 0.32637-0.13052 0.58754-0.26117 0.84858-0.39169v-0.78326-0.9791c0.45689-0.26117 0.84858-0.52221 1.1749-0.84858l0.65274 0.58741c-0.13052 0.13052-0.26104 0.19585-0.45689 0.32637-0.19585-0.13052-0.45689-0.13052-0.65274 0-0.13052 0.06571-0.26104 0.26117-0.32637 0.39169v0.26117c0 0.06571 0.06571 0.19585 0.06571 0.26104 0.06571 0.13052 0.19585 0.19585 0.32637 0.26104 0.32637-0.19585 0.58754-0.39169 0.91391-0.58754 0.19585-0.13052 0.45689-0.32637 0.65274-0.52221l0.19585-0.19585v-0.65274-0.19585h0.45689c0.45689 0 0.78326-0.32637 0.78326-0.78326 0-0.39169-0.32637-0.78326-0.78326-0.78326m-5.2873 2.4152zm0.45689-1.1749-0.65274-0.65274h1.3055z"/>
   <path d="m79.685 64.484c0.06571-0.13052 0.06571-0.19585 0.06571-0.32637 0-0.45689-0.32637-0.78326-0.78326-0.78326h-2.9374c0-0.32637-0.32637-0.65274-0.65274-0.65274-0.19585 0-0.32637 0.06571-0.45689 0.19585l-0.84858 0.84858h0.78338 1.0444 3.1332c0.19585 0 0.32637 0.13052 0.32637 0.32637s-0.13052 0.32637-0.32637 0.32637h-2.0235-3.6555v-0.78326l0.9791-0.9791h-3.8513l0.9791 0.9791v1.4361l-1.5666-1.2403c0.13052-0.13052 0.19585-0.32637 0.19585-0.45689 0-0.39169-0.32637-0.65274-0.65274-0.65274-0.19585 0-0.32637 0.06571-0.45689 0.13052v0.9791 0.19585l2.3499 1.893-1.1098 0.32637c-0.06571-0.26117-0.32637-0.45689-0.65274-0.45689-0.39169 0-0.65274 0.32637-0.65274 0.65274 0 0.19585 0.06571 0.32637 0.13052 0.45689h1.0444 0.32637l6.0054-1.893v0.9791l-0.78326 0.26117c-0.06571-0.26117-0.32637-0.45689-0.65274-0.45689-0.39169 0-0.65273 0.32637-0.65273 0.65274 0 0.19585 0.06571 0.32637 0.13052 0.45689h1.0444 0.32637l1.5013-0.45689 0.71806-0.19585-0.58741-0.52221-0.39169-0.39169h2.6763v0.71806c-0.13052-0.13052-0.32637-0.26104-0.52221-0.26104-0.39169 0-0.65274 0.32637-0.65274 0.65274 0 0.19585 0.06571 0.32637 0.13052 0.45689h1.0444 0.65274v-1.5666-0.84858zm-7.3762 0.06571-0.65274-0.65274h1.3055z"/>
   <path d="m79.685 59.849c0.06571-0.13052 0.06571-0.19585 0.06571-0.32637 0-0.45689-0.32637-0.78338-0.78326-0.78338h-2.9374c0-0.32637-0.32637-0.65274-0.65274-0.65274-0.19585 0-0.32637 0.06571-0.45689 0.19585l-0.84858 0.84858h0.78338 0.9791 3.1332c0.19585 0 0.32637 0.13052 0.32637 0.32637s-0.13052 0.32637-0.32637 0.32637h-2.0236-3.6554v-0.78326l0.9791-0.9791h-3.8513l0.9791 0.9791v1.4361l-1.5666-1.2403c0.13052-0.13052 0.19585-0.32637 0.19585-0.45689 0-0.39169-0.32637-0.65274-0.65274-0.65274-0.19585 0-0.32637 0.06571-0.45689 0.13052v0.9791 0.19585l2.3499 1.893-1.1098 0.32637c-0.06571-0.26104-0.32637-0.45689-0.65274-0.45689-0.39169 0-0.65274 0.32637-0.65274 0.65274 0 0.13052 0.06571 0.32637 0.13052 0.45689h1.0444 0.32637l6.0054-1.893v0.9791l-0.78326 0.26104c-0.06571-0.26104-0.32637-0.45689-0.65273-0.45689-0.39169 0-0.65274 0.32637-0.65274 0.65274 0 0.13052 0.06571 0.32637 0.13052 0.45689h1.1096 0.32637l1.5013-0.45689 0.71806-0.26104-0.58741-0.52221-0.39169-0.39169h2.6763v0.71806c-0.13052-0.13052-0.32637-0.26104-0.52221-0.26104-0.39169 0-0.65274 0.32637-0.65274 0.65274 0 0.13052 0.06571 0.32637 0.13052 0.45689h1.0444 0.65273v-1.6319-0.84858h-0.71806zm-7.3762 0.06571-0.65274-0.65274h1.3055z"/>
   <path d="m79.685 55.149c0.06571-0.13052 0.06571-0.19585 0.06571-0.32637 0-0.45689-0.32637-0.78326-0.78326-0.78326h-2.9374c0-0.32637-0.32637-0.65274-0.65274-0.65274-0.19585 0-0.32637 0.06571-0.45689 0.19585l-0.84858 0.84858h0.78338 0.9791 3.1332c0.19585 0 0.32637 0.13052 0.32637 0.32637s-0.13052 0.32637-0.32637 0.32637h-2.0236-3.6554v-0.78326l0.9791-0.9791h-3.8513l0.9791 0.9791v1.4361l-1.5666-1.2403c0.13052-0.13052 0.19585-0.32637 0.19585-0.45689 0-0.39169-0.32637-0.65274-0.65274-0.65274-0.19585 0-0.32637 0.06571-0.45689 0.13052v0.9791 0.19585l2.3499 1.893-1.1098 0.32637c-0.06571-0.26104-0.32637-0.45689-0.65274-0.45689-0.39169 0-0.65274 0.32637-0.65274 0.65274 0 0.19585 0.06571 0.32637 0.13052 0.45689h1.0444 0.32637l6.0054-1.893v0.9791l-0.78326 0.26104c-0.06571-0.26104-0.32637-0.45689-0.65273-0.45689-0.39169 0-0.65274 0.32637-0.65274 0.65274 0 0.19585 0.06571 0.32637 0.13052 0.45689h1.0444 0.32637l1.5013-0.45689 0.71806-0.19585-0.58741-0.52221-0.39169-0.39169h2.6763v0.71806c-0.13052-0.13052-0.32637-0.26104-0.52221-0.26104-0.39169 0-0.65274 0.32637-0.65274 0.65274 0 0.19585 0.06571 0.32637 0.13052 0.45689h1.0444 0.65274v-1.6319-0.84858zm-7.3762 0.13052-0.65274-0.65274h1.3055z"/>
   <path d="m100.12 67.095c0.45689-0.13052 0.65273-0.58754 0.52221-0.9791-0.0657-0.19585-0.19584-0.39169-0.39169-0.45689-0.19585-0.13052-0.39169-0.13052-0.58754-0.06571-0.19585 0.06571-0.39169 0.19585-0.45689 0.39169-0.13052 0.19585-0.13052 0.39169-0.06571 0.58754 0.13052 0.39169 0.58754 0.58754 0.9791 0.52221"/>
   <path d="m97.832 68.857 0.13052 0.71806 2.611-0.39169c0.0657 0 2.611 1.3055 2.611 1.3055l-0.13052-0.91391s-1.6972-0.84858-1.8277-0.91391c0.13052-0.13052 1.5013-1.3708 1.5013-1.3708l-0.13052-0.91391-0.0657 0.06571s-2.0236 1.893-2.0888 1.9583c0 0.06571-2.611 0.45689-2.611 0.45689"/>
   <path d="m99.856 71.403c0 0.19585 0.06571 0.39169 0.26105 0.58754 0.13052 0.13052 0.32636 0.26117 0.58753 0.19585 0.19585 0 0.3917-0.06571 0.58754-0.26104 0.13052-0.13052 0.19585-0.32637 0.19585-0.58754 0-0.19585-0.0657-0.39169-0.26104-0.58741-0.13052-0.13052-0.32637-0.26117-0.58741-0.26117-0.45689 0.06571-0.78326 0.45689-0.78326 0.91391"/>
   <path d="m98.028 72.708-0.06571 0.71806s2.0236 0.26117 2.1541 0.32637c0 0.06571-0.0657 0.58741-0.0657 0.58741v0.32637c0 0.32637 0.0657 0.65274 0.26117 0.91391 0.19585 0.26117 0.52221 0.45689 0.9791 0.52221 0.91391 0.13052 1.5666-0.32637 1.6972-1.2403l0.19585-1.4361zm4.1777 1.3055c0 0.06571-0.0657 0.71806-0.0657 0.71806-0.0657 0.65274-0.58754 0.65274-0.78326 0.58741-0.39169-0.06571-0.65274-0.32637-0.65274-0.65274v-0.13052s0.0657-0.52221 0.0657-0.65274c0.13052-0.06571 1.3708 0.06571 1.4361 0.13052"/>
   <path d="m97.571 75.646-0.84858 2.4805 0.71806 0.26117s0.58754-1.7624 0.58754-1.8277c0.06571 0.06571 1.2403 0.39169 1.3708 0.45689-0.06571 0.13052-0.58741 1.6972-0.58741 1.6972l0.71806 0.26117s0.52222-1.6319 0.58754-1.6972c0.0657 0.06571 1.2403 0.39169 1.3055 0.45689-0.0657 0.13052-0.58753 1.7624-0.58753 1.7624l0.71805 0.26104 0.84859-2.4805z"/>
   <path d="m96.592 78.583-0.32637 0.52221s2.8721 1.8277 3.1332 2.0235c-0.32637 0-4.6346 0.39169-4.6346 0.39169l-0.32637 0.52221 4.3082 2.7416 0.39169-0.58741s-2.8721-1.8277-3.1332-2.0236c0.32637 0 4.6999-0.45689 4.6999-0.45689l0.32636-0.52221z"/>
   <path d="m94.895 84.719c-0.52221 0.06571-0.9791 0.19585-1.3055-0.13052-0.13052-0.13052-0.26104-0.52221 0.06571-0.84858 0.32637-0.32637 0.78326-0.39169 1.3055-0.32637h0.19585l-0.78326-0.78326c-0.52221 0.06571-0.91391 0.19585-1.2403 0.58754-0.26117 0.26117-0.39169 0.58754-0.39169 0.91391 0 0.39169 0.13052 0.71806 0.45689 1.0444 0.65274 0.65274 1.3708 0.52221 2.0236 0.39169 0.45689-0.13052 0.84858-0.19585 1.1749 0.06571 0.06571 0.13052 0.13052 0.19585 0.13052 0.32637 0 0.19585-0.06571 0.32637-0.26104 0.52221-0.26117 0.26117-0.58754 0.39169-1.0444 0.32637h-0.13052l0.71806 0.71806c0.39169-0.06571 0.71806-0.19585 0.9791-0.45689 0.32637-0.32637 0.45689-0.65274 0.45689-0.9791 0-0.32637-0.13052-0.71806-0.45689-0.9791-0.58754-0.65274-1.3055-0.52221-1.893-0.39169"/>
   <path d="m91.761 84.458-2.1541 1.4361 0.39169 0.65274s1.5013-1.0444 1.6319-1.1098c0.06571 0.06571 0.71806 1.1098 0.78326 1.1749-0.06571 0.06571-1.5013 1.0444-1.5013 1.0444l0.39169 0.65274s1.4361-0.9791 1.5013-0.9791c0.06571 0.06571 0.71806 1.0444 0.78326 1.1749-0.06571 0.06571-1.5666 1.0444-1.5666 1.0444l0.39169 0.65274 2.1541-1.4361z"/>
   <path d="m72.897 87.852c-0.06571-0.06571-1.9583-1.2403-2.0235-1.3055 0.06571-0.06571 1.1749-1.8277 1.1749-1.8277l-0.65274-0.39169v0.06571l-2.6763 4.2429 0.65274 0.39169s1.1098-1.7624 1.1749-1.8277c0.06571 0.06571 1.9583 1.2403 2.0235 1.3055-0.06571 0.06571-1.1749 1.8277-1.1749 1.8277l0.65274 0.39169 2.7416-4.3082-0.65274-0.39169c-0.06571 0-1.1749 1.6972-1.2403 1.8277"/>
   <path d="m70.286 84.066c0.06571-0.65274-0.19585-1.2403-0.58754-1.6972-1.1098-1.2403-2.611-0.9791-3.5902-0.13052-0.58741 0.52221-0.91391 1.1749-0.91391 1.8277-0.06571 0.65274 0.19585 1.2403 0.65274 1.7624 0.91391 1.0444 2.4805 1.1098 3.5902 0.13052 0.45689-0.52221 0.78326-1.1749 0.84858-1.893m-0.78326 0c0 0.45689-0.26104 0.9791-0.65274 1.3055-0.78326 0.71806-1.8277 0.71806-2.4805-0.06571-0.32637-0.32637-0.45689-0.78326-0.39169-1.1749 0-0.45689 0.26104-0.91391 0.65274-1.3055 0.39169-0.32637 0.91391-0.52221 1.3708-0.52221s0.84858 0.19585 1.1096 0.52221c0.26104 0.39169 0.39169 0.78326 0.39169 1.2403"/>
   <path d="m67.609 79.824s-3.1332 1.4361-3.3944 1.5666c0.13052-0.26117 2.1541-4.2429 2.1541-4.2429l-0.26117-0.58754h-0.06571l-4.5693 2.1541 0.32637 0.65274s3.1332-1.4361 3.3943-1.5666c-0.13052 0.26117-2.1541 4.2429-2.1541 4.2429l0.26117 0.52221 4.5693-2.1541z"/>
  </g>
  <polygon points="45.7 214 46 215.2 53.5 213.3 53.3 212.1 53.2 212.2" transform="matrix(.65276 0 0 .65276 31.12 -63.261)"/>
  <g stroke-width=".65276">
   <path d="m63.562 73.557c-0.19585-0.13052-0.39169-0.19585-0.58741-0.13052-0.19585 0-0.39169 0.13052-0.52221 0.32637s-0.19585 0.39169-0.13052 0.58741c0 0.19585 0.13052 0.39169 0.32637 0.52221s0.39169 0.19585 0.58754 0.13052c0.45689-0.06571 0.71806-0.45689 0.65274-0.91391-0.06571-0.26117-0.19585-0.39169-0.32637-0.52221"/>
   <path d="m63.236 71.599c0.32637-0.45689 0.58754-0.84858 1.0444-0.84858 0.13052 0 0.26104 0.06571 0.39169 0.19585 0.13052 0.13052 0.19585 0.32637 0.19585 0.52221 0 0.39169-0.26117 0.78326-0.71806 1.1098l-0.13052 0.13052h1.1096c0.32637-0.39169 0.45689-0.78326 0.45689-1.3055 0-0.32637-0.13052-0.65274-0.32637-0.91391-0.26117-0.26117-0.65274-0.39169-1.0444-0.39169-0.91391 0-1.3055 0.58741-1.6972 1.1749-0.26117 0.39169-0.45689 0.78326-0.84858 0.78326-0.13052 0-0.26104-0.06571-0.32637-0.13052-0.13052-0.13052-0.19585-0.32637-0.19585-0.52221 0-0.32637 0.19585-0.71806 0.52221-0.9791l0.13052-0.06571h-0.9791c-0.26117 0.32637-0.39169 0.65274-0.39169 1.0444 0 0.45689 0.13052 0.78326 0.39169 1.0444 0.26104 0.26117 0.58754 0.39169 0.9791 0.39169 0.65273-0.13052 1.0444-0.71806 1.4361-1.2403"/>
   <path d="m62.909 69.445c0.71806 0.19585 1.4361 0.06571 2.0235-0.26104 0.52221-0.32637 0.91391-0.84858 1.0444-1.5013 0.13052-0.65274 0.06571-1.3055-0.26104-1.8277-0.32637-0.58754-0.9791-1.0444-1.6972-1.1749-1.4361-0.39169-2.8069 0.39169-3.1332 1.7624-0.06571 0.19585-0.06571 0.39169-0.06571 0.58754 0 0.45689 0.13052 0.84858 0.32637 1.1749 0.45689 0.65273 1.0444 1.1096 1.7624 1.2403m-1.1749-2.8069c0.13052-0.45689 0.39169-0.78326 0.71806-1.0444 0.39169-0.26104 0.91391-0.32637 1.4361-0.19585 0.52221 0.13052 0.9791 0.45689 1.1749 0.84858 0.19585 0.39169 0.26104 0.78326 0.19585 1.2403-0.26117 0.91391-1.1749 1.4361-2.2194 1.1749-0.9791-0.19585-1.5666-1.0444-1.3055-2.0236"/>
   <path d="m105.21 71.599c0-6.2665-2.4152-12.141-6.854-16.58-0.52221-0.52221-1.0444-0.9791-1.6319-1.5013v-0.91391c0.91391-0.06571 1.6972-0.84858 1.6972-1.7624 0-0.9791-0.78326-1.7624-1.7624-1.7624h-0.13052l1.6972-0.78326-0.65274-1.4361 2.5458-5.9401-1.1098-0.45689-2.611 6.0707-1.3708 0.65274 0.91391 1.9583h-7.5067-13.316-7.5067l0.91391-1.9583-1.4361-0.65274-2.611-6.0707-1.1096 0.45689 2.5458 5.9401-0.65274 1.4361 1.6972 0.78326h-0.06571c-0.9791 0-1.7624 0.78326-1.7624 1.7624 0 0.91391 0.71806 1.6972 1.6319 1.7624v0.91391c-0.52221 0.45689-1.1098 0.9791-1.6319 1.5013-4.4388 4.4388-6.854 10.314-6.854 16.58 0 4.8304 1.4361 9.465 4.2429 13.447 2.7416 3.8513 6.4623 6.7887 10.901 8.4206 0 0 0.26104 0.06571 0.65274 0.26104 0.06571 0.65274 0.45689 1.2403 1.0444 1.4361 0.65274 0.26104 1.3708 0 1.7624-0.45689h0.06571v6.6581c0 2.4805 2.0888 4.4388 4.6999 4.4388 2.611 0 4.6999-2.0236 4.6999-4.4388v-4.4387l11.489-5.4832c0.39169-0.13052 0.71806-0.32637 1.0444-0.58754 0.91391-0.84858 1.0444-2.1541 0.45689-3.8513 1.0444-1.1749 1.9583-2.4152 2.6763-3.786 2.0888-3.5249 3.1985-7.5067 3.1985-11.619m-12.208-21.416l3.3943 0.71806-3.3943 0.71806zm-10.901 35.641v-17.624h13.447v3.3291c0 3.2638-0.58754 5.4832-1.4361 7.1151-0.71806 1.1749-1.5666 2.2847-2.611 3.2638l-0.19585 0.19585c-2.4805 2.3499-5.8095 3.6554-9.2039 3.7207m4.0471 0.58754c-0.26104 0.58741-0.45689 1.2403-0.58754 1.9583-1.305-0.458-2.546-0.915-3.786-1.372 1.5013 0.06571 3.0027-0.19585 4.3735-0.58741m-4.0471-18.799v-14.948h11.358 2.0888v11.75 3.1985zm4.6999-17.429 3.3943 0.71806-3.3943 0.71806zm-6.2665 0 3.3944 0.71806-3.3944 0.71806zm-6.3317 0 3.3943 0.71806-3.3943 0.71806zm-6.1359 0 3.3943 0.71806-3.3943 0.71806zm0 14.23v-11.75h2.0888 11.358v14.948h-13.447zm0 3.786h13.447v17.624c-2.741-0.066-5.418-0.914-7.702-2.48-0.066-0.066-0.196-0.131-0.262-0.196l-0.06571-0.06571c-0.06571-0.06571-0.13052-0.06571-0.19585-0.13052-0.06571-0.06571-0.13052-0.13052-0.19585-0.13052l-0.06571-0.06571c-1.4361-1.1096-2.6763-2.5458-3.5902-4.1777-0.84858-1.6319-1.3708-3.8513-1.3708-7.0498zm6.397 24.413c-0.19585-0.06571-0.39169-0.13052-0.52221-0.19585-4.1776-1.5666-7.7678-4.3735-10.314-8.0289-2.611-3.7207-4.0471-8.1595-4.0471-12.794 0-5.9401 2.2847-11.489 6.5276-15.731 0.26117-0.26104 0.52221-0.52221 0.78338-0.71806v6.0706c-0.91391-0.65274-1.9583-1.3055-2.0236-1.3708 0.06571-0.06571 0.84858-1.3055 0.84858-1.3055l-0.65274-0.39169v0.06571l-2.0888 3.1332 0.65274 0.39169s0.78326-1.1749 0.84858-1.3055c0.06571 0.06571 1.4361 0.91391 2.4152 1.6319v2.1541l-4.3082-1.9583v0.06571l-0.32637 0.65274 4.6346 2.1541v2.611c-0.32637 1.2403-0.52221 2.5458-0.52221 3.9166 0 2.8069 0.78326 5.4179 2.0888 7.7025 0.84858 1.6319 1.9583 2.7416 3.0027 3.7207 0.45689 0.39169 0.91391 0.78326 1.4361 1.1749 0.06571 0 0.06571 0.06571 0.13052 0.06571 0.06571 0.06571 0.13052 0.06571 0.19585 0.13052 0.06571 0.06571 0.13052 0.06571 0.19585 0.13052l0.06571 0.06571c0.39169 0.26104 0.78326 0.52221 1.2403 0.71806 0.58754 0.26117 1.3708 0.65274 2.2847 1.0444l-0.9791 2.4152-0.45689-0.19585c-0.26104-0.13052-0.58754 0-0.71806 0.26117-0.13052 0.26104 0 0.58741 0.26104 0.71806l0.45689 0.19585zm10.836 8.8122c0 0.45689-0.13052 0.91391-0.32637 1.3055-0.19585 0.32637-0.52221 0.52222-0.84858 0.52222-0.45689 0-0.84858-0.26117-0.9791-0.71806 0-0.0657-0.06571-0.26117-0.13052-0.58741 0.13052 0.0657 0.26117 0.0657 0.39169 0.0657 0.58754 0 1.0444-0.45689 1.0444-0.9791 0-0.58754-0.45689-0.97911-1.0444-0.97911-0.32637 0-0.58741 0.13053-0.78326 0.32637-0.32637-1.3055-0.65274-2.7416-0.65274-2.7416h-0.19585-0.26117s-0.32637 1.4361-0.65274 2.7416c-0.19585-0.19584-0.45689-0.32637-0.71806-0.32637-0.58741 0-0.9791 0.45689-0.9791 0.97911 0 0.58754 0.45689 0.9791 0.9791 0.9791 0.13052 0 0.26117 0 0.39169-0.0657-0.06571 0.26104-0.13052 0.52221-0.13052 0.58741-0.13052 0.39169-0.52221 0.71806-0.9791 0.71806-0.39169 0-0.71806-0.19585-0.91391-0.52222-0.19585-0.39169-0.26104-0.84858-0.26104-1.3055v-6.2665c2.0888 0.65274 4.6999 1.4361 7.1151 1.9583zm0.52221-5.4832c-3.655-0.783-7.898-2.154-10.379-3.003 0.26104-0.58754 0.65273-1.6319 1.1096-2.7416l0.65274 0.26117v0.13052c0 0.91391 0.78326 1.6972 1.6972 1.6972 0.91391 0 1.6972-0.78326 1.6972-1.6972 0-0.91391-0.78326-1.6972-1.6972-1.6972-0.52221 0-0.91391 0.19585-1.2403 0.58741l-0.71806-0.32637c0.39169-0.9791 0.71806-1.893 0.9791-2.4152 2.4805 1.0444 5.679 2.2846 8.747 3.2638 3.2638 0.9791 5.8748 1.5666 7.8331 1.7624-3.4596 1.6972-8.4206 4.0471-8.6817 4.1776m12.337-6.0054c-0.32637 0.32637-1.1098 0.65274-2.7416 0.65274 1.1096-0.78326 2.0888-1.6319 3.0027-2.611 0.26104 0.91391 0.19585 1.5666-0.26104 1.9583m-4.6346 0.52221c-1.5666-0.19585-3.7207-0.71806-6.5276-1.5666-0.13052-0.06571-0.26104-0.06571-0.39169-0.13052 0.26117-1.6319 0.78326-2.6763 1.6972-3.1985 1.4361-0.65274 2.7416-1.5666 3.9165-2.6763 1.0444-0.91391 2.0888-2.0236 2.8721-3.5902 1.3055-2.2846 2.0888-4.961 2.0888-7.7678 0-1.3055-0.19585-2.6763-0.52221-3.9166v-2.4805l0.71806 1.8277 0.71806-0.26104s-0.71806-1.7624-0.71806-1.8277c0.13052-0.06571 4.0471-1.6319 4.0471-1.6319l-0.26104-0.71806h-0.0657l-4.3735 1.7624v-0.32637l2.9374-4.1777-0.26117-0.45689h-0.06571l-2.611 0.58754v-4.8957c0.26104 0.26104 0.52221 0.45689 0.78326 0.71806 4.1777 4.1777 6.5276 9.7914 6.5276 15.731 0 3.8513-0.97911 7.7025-2.9374 11.032-1.8277 3.3291-4.4388 6.0054-7.572 7.9636m3.4596-28.003l-0.26104 0.39169v-0.78326l0.26104 0.39169m-0.19585-1.6972c0.13052 0 1.4361-0.32637 1.6319-0.39169-0.13052 0.19585-0.91391 1.3055-0.9791 1.3708-0.06571-0.06571-0.58754-0.84858-0.65274-0.9791"/>
   <path d="m99.268 34c-0.91391-1.3708-2.4152-1.9583-3.5249-1.9583-1.5666 0-3.1985 0.65274-4.7651 1.3055-1.7624 0.71806-3.5902 1.4361-5.4179 1.3055 0.19585-0.65273 0.45689-1.3055 0.78326-1.8277l-1.1096-0.52221c0.19585-0.39169 0.39169-0.84858 0.45689-1.3708-0.13052-0.06571-1.6319-0.58754-4.0471-0.58754s-3.786 0.52221-3.9165 0.58754c0.06571 0.52221 0.19585 0.9791 0.45689 1.3708l-1.1096 0.52221c0.32637 0.52221 0.58754 1.1749 0.78326 1.8277-1.8277 0.19585-3.6554-0.58754-5.4179-1.3055-1.5666-0.65274-3.1985-1.3055-4.7651-1.3055-1.1096 0-2.611 0.58741-3.5249 1.9583-0.71806 1.1096-1.3055 3.1985 0.26117 6.5276v-0.06571l2.2846-0.9791 0.13052 0.39169c-0.71806 0.32637-1.4361 1.1749-0.58754 3.1332 1.9583-0.84858 2.0235-1.9583 1.6972-2.6763l0.39169-0.13052 0.9791 2.2194 0.9791 2.2194-0.39169 0.13052c-0.32637-0.71806-1.1749-1.4361-3.1332-0.58754 0.84858 1.9583 2.3499 2.7416 3.5249 2.7416 2.0236 0 3.4596-1.2403 3.2638-2.4805-0.13052-0.91391-0.9791-1.2403-1.3055-1.1749-0.39169 0.06571-0.65274 0.52221-0.58754 0.78326 0 0.06571 0.06571 0.13052 0.06571 0.19585l-0.06571 0.06571c-0.52221-0.06571-0.9791-0.45689-1.1096-0.9791-0.13052-0.65273 0.32637-1.3055 0.9791-1.4361 0.39169-0.06571 0.78338 0.06571 1.1096 0.32637l0.13052-0.19585c-0.39169-0.19585-0.65274-0.52221-0.71806-0.9791-0.19585-1.0444 0.9791-2.0888 1.0444-2.0888 0 0 1.5013 0.52221 1.6972 1.5666 0.06571 0.45689-0.06571 0.84858-0.32637 1.1749l0.19585 0.13052c0.13052-0.32637 0.45689-0.65274 0.91391-0.71806 0.65274-0.13052 1.3055 0.32637 1.4361 0.9791 0.13052 0.52221-0.19585 1.1096-0.65274 1.3055l-0.06571-0.06571v-0.19585c-0.06571-0.32637-0.45689-0.58741-0.84858-0.52221-0.32637 0.06571-0.9791 0.65274-0.78326 1.5666 0.32637 1.5666 1.6319 2.6763 3.1985 2.6763s3.2638-1.3055 3.2638-3.2638c-2.2846 0-2.8069 1.0444-2.8069 1.9583h-0.45689v-2.611-2.611h0.45689c0 0.84858 0.58754 1.9583 2.8069 1.9583 0-2.2846-1.0444-2.8069-1.9583-2.8069v-0.45689h2.2194 0.71806 2.2194v0.45689c-0.84858 0-1.9583 0.58754-1.9583 2.8069 2.2847 0 2.8069-1.0444 2.8069-1.9583h0.45689v2.611 2.611h-0.32637c0-0.84858-0.58741-1.9583-2.8068-1.9583 0 1.9583 1.6319 3.2638 3.2638 3.2638 1.5666 0 2.9374-1.1096 3.1985-2.6763 0.19585-0.91391-0.45689-1.5666-0.78326-1.5666-0.39169-0.06571-0.78326 0.19585-0.84858 0.52221v0.19585l-0.06571 0.06571c-0.45689-0.26104-0.78326-0.78326-0.65274-1.3055 0.13052-0.65274 0.78326-1.1098 1.4361-0.9791 0.39169 0.06571 0.71806 0.32637 0.91391 0.71806l0.19585-0.13052c-0.26117-0.32637-0.39169-0.71806-0.32637-1.1749 0.19585-1.0444 1.6972-1.5666 1.6972-1.5666s1.2403 1.0444 1.0444 2.0888c-0.06571 0.45689-0.39169 0.78326-0.71806 0.9791l0.13052 0.19585c0.26117-0.26104 0.65274-0.39169 1.1096-0.32637 0.65274 0.13052 1.1098 0.78326 0.9791 1.4361-0.13052 0.58754-0.58754 0.9791-1.1096 0.9791l-0.06571-0.06571c0.06571-0.06571 0.06571-0.13052 0.06571-0.19585 0.06571-0.32637-0.19585-0.71806-0.58754-0.78326-0.32637-0.06571-1.1749 0.26104-1.3055 1.1749-0.19585 1.2403 1.3055 2.4805 3.2638 2.4805 1.1749 0 2.6763-0.78326 3.5249-2.7416-1.9583-0.84858-2.8068-0.13052-3.1332 0.58754l-0.39169-0.13052 0.9791-2.2194 0.9791-2.2194 0.39169 0.13052c-0.32637 0.71806-0.26117 1.8277 1.6972 2.6763 0.84858-1.9583 0.13052-2.8069-0.58754-3.1332l0.13052-0.39169 2.2847 0.9791v0.06571c1.3708-3.3943 0.78326-5.4179 0.06571-6.5276m-20.954 2.8721c-1.1096 0-2.0235 0.58754-2.5458 1.5013-0.58754-1.0444-1.893-1.6972-3.1332-1.4361-0.91391 0.19585-1.6972 0.84858-2.0235 1.6319-0.52221-0.84858-1.4361-1.3708-2.4805-1.3708-1.3055 0-2.4152 0.84858-2.8069 2.0236-0.71806-1.893-0.71806-3.4596 0-4.5693 0.71806-1.1096 1.9583-1.4361 2.4805-1.4361 1.3708 0 2.8069 0.58754 4.3082 1.1749 1.9583 0.78326 3.9818 1.6319 6.2012 1.3055 0.06571 0.39169 0.13052 0.71806 0.19585 1.1096-0.06571 0.06571-0.13052 0.06571-0.19585 0.06571m3.4596-6.0707c0.58741 0 1.1096 0.45689 1.1749 1.0444-0.32637-0.26104-0.71806-0.45689-1.1749-0.45689-0.45689 0-0.84858 0.19585-1.1749 0.45689 0.06571-0.58741 0.58754-1.0444 1.1749-1.0444m0 1.1096c0.58741 0 1.1096 0.45689 1.1749 1.0444-0.32637-0.26104-0.71806-0.45689-1.1749-0.45689-0.45689 0-0.84858 0.19585-1.1749 0.45689 0.06571-0.58754 0.58754-1.0444 1.1749-1.0444m0 6.5929c-0.65274 0-1.1749-0.52221-1.1749-1.1749 0-0.65274 0.52221-1.1749 1.1749-1.1749 0.65274 0 1.1749 0.52221 1.1749 1.1749 0 0.65274-0.52221 1.1749-1.1749 1.1749m1.1096-2.5458c-0.32637-0.26104-0.71806-0.39169-1.1096-0.39169-0.45689 0-0.78326 0.13052-1.1098 0.39169-0.06571-0.13052-0.06571-0.26104-0.06571-0.39169 0-0.65274 0.52221-1.1749 1.1749-1.1749 0.65274 0 1.1749 0.52221 1.1749 1.1749 0 0.13052 0 0.26104-0.06571 0.39169m0.06571-1.6319c-0.32637-0.26104-0.71806-0.45689-1.1749-0.45689-0.45689 0-0.84858 0.19585-1.1749 0.45689v-0.06571c0-0.65274 0.52221-1.1749 1.1749-1.1749 0.65274 0 1.1749 0.52221 1.1749 1.1749v0.06571m15.275 4.8957c-0.39169-1.1749-1.5013-2.0236-2.8069-2.0236-1.0444 0-1.9583 0.52221-2.4805 1.3708-0.39169-0.78326-1.1096-1.4361-2.0235-1.6319-1.3055-0.26104-2.5458 0.32637-3.1332 1.4361-0.52221-0.84858-1.4361-1.5013-2.5458-1.5013h-0.19585c0.06571-0.32637 0.13052-0.71806 0.19585-1.1096 2.2194 0.32637 4.2429-0.52221 6.2012-1.3055 1.5013-0.58754 2.9374-1.1749 4.3082-1.1749 0.52221 0 1.7624 0.32637 2.4805 1.4361 0.71806 1.0444 0.71806 2.611 0 4.504"/>
  </g>
  <polygon points="88.4 179.8 88.5 179.8 88.6 179.7 89 178.9 88.3 178.9 87.6 178.9 88 179.7 88.3 179.7 88.4 179.7 88.3 180" transform="matrix(.65276 0 0 .65276 31.12 -63.261)"/>
  <polyline points="80 179.6 79.9 179.7 79.9 180 79.2 179.9 79.2 179.4 78.7 178.5 78.8 178.4 79.7 178.9 80.2 178.9 80.2 179.6 80 179.5" transform="matrix(.65276 0 0 .65276 31.12 -63.261)"/>
  <path stroke-width=".65276" d="m83.667 53.844c-0.06571 0-0.13052-0.06571-0.13052-0.13052 0-0.06571 0.06571-0.13052 0.13052-0.13052 0.06571 0 0.06571 0 0.13052 0.06571h0.06571v-0.13052c0-0.19585-0.13052-0.32637-0.32637-0.32637s-0.32637 0.13052-0.32637 0.32637 0.13052 0.32637 0.32637 0.32637h0.13052"/>
  <path stroke-width=".65276" d="m83.145 54.366c0-0.06571-0.06571-0.13052-0.13052-0.13052-0.06571 0-0.13052 0.06571-0.13052 0.13052 0 0.06571 0 0.06571 0.06571 0.13052v0.06571h-0.13052c-0.19585 0-0.32637-0.13052-0.32637-0.32637s0.13052-0.32637 0.32637-0.32637 0.32637 0.13052 0.32637 0.32637v0.13052"/>
  <polyline points="80 198.7 79.9 198.6 79.9 198.3 79.2 198.4 79.2 198.8 78.7 199.7 78.8 199.9 79.7 199.3 80.2 199.3 80.2 198.6 80 198.7" transform="matrix(.65276 0 0 .65276 31.12 -63.261)"/>
  <path stroke-width=".65276" d="m83.667 66.507c-0.06571 0-0.13052 0.06571-0.13052 0.13052 0 0.06571 0.06571 0.13052 0.13052 0.13052 0.06571 0 0.06571 0 0.13052-0.06571h0.06571v0.13052c0 0.19585-0.13052 0.32637-0.32637 0.32637s-0.32637-0.13052-0.32637-0.32637 0.13052-0.32637 0.32637-0.32637h0.13052"/>
  <path stroke-width=".65276" d="m83.145 66.05c0 0.06571-0.06571 0.13052-0.13052 0.13052-0.06571 0-0.13052-0.06571-0.13052-0.13052 0-0.06571 0-0.06571 0.06571-0.13052v-0.06571h-0.13052c-0.19585 0-0.32637 0.13052-0.32637 0.32637s0.13052 0.32637 0.32637 0.32637 0.32637-0.13052 0.32637-0.32637v-0.13052"/>
  <polyline points="96.6 198.7 96.7 198.6 96.7 198.3 97.4 198.4 97.4 198.8 97.9 199.7 97.8 199.9 96.9 199.3 96.4 199.3 96.4 198.6 96.6 198.7" transform="matrix(.65276 0 0 .65276 31.12 -63.261)"/>
  <path stroke-width=".65276" d="m93.85 66.507c0.06571 0 0.13052 0.06571 0.13052 0.13052 0 0.06571-0.06571 0.13052-0.13052 0.13052-0.06571 0-0.06571 0-0.13052-0.06571h-0.06571v0.13052c0 0.19585 0.13052 0.32637 0.32637 0.32637s0.32637-0.13052 0.32637-0.32637-0.13052-0.32637-0.32637-0.32637h-0.13052"/>
  <path stroke-width=".65276" d="m94.372 66.05c0 0.06571 0.06571 0.13052 0.13052 0.13052 0.06571 0 0.13052-0.06571 0.13052-0.13052 0-0.06571 0-0.06571-0.06571-0.13052v-0.06571h0.13052c0.19585 0 0.32637 0.13052 0.32637 0.32637s-0.13052 0.32637-0.32637 0.32637-0.32637-0.13052-0.32637-0.32637v-0.13052"/>
  <polyline points="96.6 179.6 96.7 179.7 96.7 180 97.4 179.9 97.4 179.4 97.9 178.5 97.8 178.4 96.9 178.9 96.4 178.9 96.4 179.6 96.6 179.5" transform="matrix(.65276 0 0 .65276 31.12 -63.261)"/>
  <g stroke-width=".65276">
   <path d="m93.85 53.844c0.06571 0 0.13052-0.06571 0.13052-0.13052 0-0.06571-0.06571-0.13052-0.13052-0.13052-0.06571 0-0.06571 0-0.13052 0.06571h-0.06571v-0.13052c0-0.19585 0.13052-0.32637 0.32637-0.32637s0.32637 0.13052 0.32637 0.32637-0.13052 0.32637-0.32637 0.32637h-0.13052"/>
   <path d="m94.372 54.366c0-0.06571 0.06571-0.13052 0.13052-0.13052 0.06571 0 0.13052 0.06571 0.13052 0.13052 0 0.06571 0 0.06571-0.06571 0.13052v0.06571h0.13052c0.19585 0 0.32637-0.13052 0.32637-0.32637s-0.13052-0.32637-0.32637-0.32637-0.32637 0.13052-0.32637 0.32637z"/>
   <rect height=".39165" width=".97914" y="54.758" x="88.236"/>
  </g>
  <polygon points="88.7 181.5 88.4 182.1 88.2 182.1 87.9 181.5" transform="matrix(.65276 0 0 .65276 31.12 -63.261)"/>
  <polyline points="89.2 181.1 89.2 181.1 89.2 181.1 89.2 181.1" transform="matrix(.65276 0 0 .65276 31.12 -63.261)"/>
  <g stroke-width=".65276">
   <path d="m89.477 55.149-0.06571 0.06571c-0.06571 0-0.13052-0.06571-0.13052-0.13052 0-0.06571 0.06571-0.13052 0.13052-0.13052h-0.13052c-0.13052 0-0.26104 0.13052-0.26104 0.26104s0.13052 0.26104 0.26104 0.26104 0.26104-0.13052 0.26104-0.26104c-0.06571 0-0.06571 0-0.06571-0.06571z"/>
   <path d="m88.171 54.953z"/>
   <path d="m88.041 55.149 0.06571 0.06571c0.06571 0 0.13052-0.06571 0.13052-0.13052 0-0.06571-0.06571-0.13052-0.13052-0.13052h0.13052c0.13052 0 0.26104 0.13052 0.26104 0.26104s-0.13052 0.26104-0.26104 0.26104-0.26104-0.13052-0.26104-0.26104c0.06571 0 0.06571 0 0.06571-0.06571z"/>
  </g>
  <polygon points="88.2 198.5 88.1 198.5 88 198.6 87.6 199.4 88.3 199.4 89 199.4 88.6 198.6 88.3 198.5 88.2 198.5 88.4 198.3" transform="matrix(.65276 0 0 .65276 31.12 -63.261)"/>
  <rect height=".39165" width=".97914" y="65.136" x="88.302" stroke-width=".65276"/>
  <polygon points="87.9 196.8 88.2 196.1 88.4 196.1 88.7 196.8" transform="matrix(.65276 0 0 .65276 31.12 -63.261)"/>
  <g stroke-width=".65276">
   <path d="m88.171 65.398z"/>
   <path d="m88.041 65.267 0.06571-0.06571c0.06571 0 0.13052 0.06571 0.13052 0.13052 0 0.06571-0.06571 0.13052-0.13052 0.13052h0.13052c0.13052 0 0.26104-0.13052 0.26104-0.26117 0-0.13052-0.13052-0.26104-0.26104-0.26104s-0.26104 0.13052-0.26104 0.26104c0.06571 0 0.06571 0 0.06571 0.06571z"/>
   <path d="m89.346 65.398z"/>
   <path d="m89.477 65.267-0.06571-0.06571c-0.06571 0-0.13052 0.06571-0.13052 0.13052 0 0.06571 0.06571 0.13052 0.13052 0.13052h-0.13052c-0.13052 0-0.26104-0.13052-0.26104-0.26117 0-0.13052 0.13052-0.26104 0.26104-0.26104s0.26104 0.13052 0.26104 0.26104c-0.06571 0-0.06571 0-0.06571 0.06571z"/>
  </g>
  <polygon points="96.6 189.3 96.5 189.3 96.6 189.4 97.4 189.8 97.4 189.1 97.4 188.4 96.6 188.8 96.6 189.1 96.6 189.2 96.4 189.1" transform="matrix(.65276 0 0 .65276 31.12 -63.261)"/>
  <rect height=".97914" width=".39165" y="59.719" x="93.002" stroke-width=".65276"/>
  <polygon points="94.8 189.5 94.2 189.2 94.2 189 94.8 188.7" transform="matrix(.65276 0 0 .65276 31.12 -63.261)"/>
  <polyline points="95.2 190.1 95.2 190 95.2 190.1 95.2 190.1" transform="matrix(.65276 0 0 .65276 31.12 -63.261)"/>
  <g stroke-width=".65276">
   <path d="m93.132 60.894-0.06571-0.06571c0-0.06571 0.06571-0.13052 0.13052-0.13052 0.06571 0 0.13052 0.06571 0.13052 0.13052v-0.13052c0-0.13052-0.13052-0.26104-0.26117-0.26104-0.13052 0-0.26104 0.13052-0.26104 0.26104s0.13052 0.26117 0.26104 0.26117l0.06571-0.06571z"/>
   <path d="m93.263 59.588"/>
   <path d="m93.132 59.523-0.06571 0.06571c0 0.06571 0.06571 0.13052 0.13052 0.13052 0.06571 0 0.13052-0.06571 0.13052-0.13052v0.13052c0 0.13052-0.13052 0.26117-0.26117 0.26117-0.13052 0-0.26104-0.13052-0.26104-0.26117 0-0.13052 0.13052-0.26104 0.26104-0.26104l0.06571 0.06571z"/>
  </g>
  <polygon points="80 189.3 80.1 189.3 80 189.4 79.2 189.8 79.2 189.1 79.2 188.4 80 188.8 80 189.1 80 189.2 80.2 189.1" transform="matrix(.65276 0 0 .65276 31.12 -63.261)"/>
  <rect height=".97914" width=".39165" y="59.719" x="84.059" stroke-width=".65276"/>
  <polygon points="81.8 189.5 82.4 189.2 82.4 189 81.8 188.7" transform="matrix(.65276 0 0 .65276 31.12 -63.261)"/>
  <polyline points="81.4 190.1 81.4 190 81.4 190.1 81.4 190.1" transform="matrix(.65276 0 0 .65276 31.12 -63.261)"/>
  <g stroke-width=".65276">
   <path d="m84.45 60.894 0.06571-0.06571c0-0.06571-0.06571-0.13052-0.13052-0.13052-0.06571 0-0.13052 0.06571-0.13052 0.13052v-0.13052c0-0.13052 0.13052-0.26104 0.26104-0.26104s0.26117 0.13052 0.26117 0.26104-0.13052 0.26117-0.26117 0.26117c0 0-0.06571 0-0.06571-0.06571z"/>
   <path d="m84.255 59.588"/>
   <path d="m84.45 59.523 0.06571 0.06571c0 0.06571-0.06571 0.13052-0.13052 0.13052-0.06571 0-0.13052-0.06571-0.13052-0.13052v0.13052c0 0.13052 0.13052 0.26117 0.26104 0.26117s0.26117-0.13052 0.26117-0.26117c0-0.13052-0.13052-0.26104-0.26117-0.26104 0 0-0.06571 0-0.06571 0.06571z"/>
  </g>
  <g stroke-width=".73329">
   <path d="m63.882 128.05v18.406h22.585v-18.406h5.7197v42.824h-5.7197v-19.579h-22.585v19.579h-5.7197v-42.824z"/>
   <path d="m99.227 148.87c0.66002-1.9799 1.6132-3.6665 2.8598-5.133 1.2467-1.4666 2.8598-2.6399 4.7664-3.4465 1.9066-0.80665 4.0331-1.2465 6.453-1.2465 2.4932 0 4.6197 0.44002 6.5263 1.2465 1.8332 0.80665 3.4465 1.9799 4.6931 3.4465 1.2467 1.4666 2.2732 3.1532 2.8598 5.133 0.66002 1.9799 0.95327 4.1064 0.95327 6.3796s-0.29325 4.3998-0.95327 6.3796c-0.66003 1.9799-1.6132 3.6664-2.8598 5.133-1.2467 1.4666-2.8598 2.5665-4.6931 3.4465-1.8332 0.80665-4.0331 1.2467-6.5263 1.2467-2.4199 0-4.6197-0.44001-6.453-1.2467-1.9066-0.80665-3.4465-1.9799-4.7664-3.4465-1.2465-1.4666-2.2732-3.1531-2.8598-5.133-0.65988-1.9799-0.95327-4.1064-0.95327-6.3796s0.29339-4.3998 0.95327-6.3796zm5.2064 11.366c0.51326 1.4666 1.1733 2.7132 2.0532 3.6664 0.87988 0.95328 1.9066 1.7599 3.0798 2.2732 1.1733 0.51326 2.4199 0.80665 3.7398 0.80665s2.5665-0.29339 3.7398-0.80665c1.1733-0.51325 2.1999-1.2465 3.0798-2.2732 0.87989-0.95327 1.5399-2.1999 2.0532-3.6664 0.51325-1.4666 0.73326-3.1532 0.73326-4.9864 0-1.9066-0.22001-3.5198-0.73326-4.9864-0.51326-1.4666-1.1733-2.7132-2.0532-3.6665-0.87989-1.0266-1.9066-1.7599-3.0798-2.2732-1.1733-0.51326-2.4199-0.80665-3.7398-0.80665s-2.5665 0.29339-3.7398 0.80665c-1.1733 0.51325-2.1999 1.2467-3.0798 2.2732-0.87989 1.0267-1.5399 2.1999-2.0532 3.6665-0.51326 1.4666-0.73327 3.1532-0.73327 4.9864s0.22001 3.5198 0.73327 4.9864z"/>
   <path d="m138.46 139.86v4.5464h0.14663c2.3465-3.5198 5.6463-5.2797 10.046-5.2797 1.9066 0 3.6665 0.36663 5.2064 1.1733 1.5399 0.80665 2.6398 2.1265 3.2998 4.1064 1.0267-1.6866 2.4199-3.0065 4.1064-3.8864 1.6866-0.95327 3.5931-1.3933 5.573-1.3933 1.5399 0 2.9332 0.14663 4.2531 0.51326 1.2465 0.36663 2.3465 0.87989 3.2265 1.6132 0.87989 0.73326 1.6132 1.6132 2.1265 2.7865 0.51326 1.1733 0.73327 2.4932 0.73327 4.1064v22.732h-5.133v-20.312c0-0.95327-0.0738-1.8332-0.22001-2.7132-0.14662-0.80665-0.44001-1.5399-0.87989-2.1999-0.44001-0.58664-1.0266-1.0999-1.8332-1.4666-0.80665-0.36664-1.7599-0.51326-3.0065-0.51326-2.4932 0-4.4731 0.73326-5.9397 2.1266s-2.1265 3.3731-2.1265 5.793v19.286h-5.133v-20.312c0-1.0267-0.0738-1.9066-0.29325-2.7865-0.14662-0.80665-0.51325-1.5399-0.95327-2.1999-0.44002-0.58664-1.0267-1.0999-1.7599-1.4666-0.73326-0.36663-1.6866-0.51325-2.8598-0.51325-1.4666 0-2.7132 0.29339-3.8131 0.87989-1.0266 0.58664-1.9065 1.3199-2.5665 2.1266-0.65988 0.80665-1.1733 1.6866-1.4666 2.6398-0.2934 0.87989-0.44002 1.6132-0.44002 2.2732v19.286h-5.133v-30.945z"/>
   <path d="m206.07 168.9c-2.3465 1.7599-5.2064 2.6399-8.7262 2.6399-2.4932 0-4.6197-0.36663-6.453-1.1733-1.8332-0.80665-3.3731-1.9066-4.6197-3.3731-1.2465-1.4666-2.1999-3.1532-2.7865-5.133-0.58664-1.9799-0.95327-4.1798-1.0267-6.5263 0-2.3465 0.36664-4.5464 1.0999-6.453 0.73327-1.9799 1.7599-3.6665 3.0065-5.133 1.3199-1.4666 2.8598-2.5665 4.6197-3.3732 1.7599-0.80665 3.7398-1.1733 5.8663-1.1733 2.7865 0 5.0597 0.58664 6.8929 1.6866 1.8332 1.1733 3.2998 2.5665 4.3998 4.3264 1.0999 1.7599 1.8332 3.6664 2.2732 5.793 0.44002 2.0532 0.58664 4.0331 0.51326 5.9397h-23.245c-0.0738 1.3933 0.14663 2.6398 0.51326 3.8864 0.36663 1.2467 0.95327 2.2732 1.7599 3.2265 0.80665 0.95327 1.8332 1.6866 3.0798 2.2732 1.2467 0.58664 2.7132 0.80665 4.3998 0.80665 2.1266 0 3.9598-0.51326 5.2797-1.4666 1.3933-1.0267 2.2732-2.4932 2.7132-4.5464h5.0597c-0.80665 3.3731-2.3465 6.013-4.6197 7.7729zm-1.2467-19.946c-0.44002-1.0999-1.0999-1.9799-1.8332-2.7865-0.80665-0.80665-1.6866-1.3933-2.7865-1.8332-1.0267-0.44002-2.1999-0.66003-3.5198-0.66003s-2.4932 0.22001-3.5931 0.66003c-1.0267 0.44001-1.9799 1.0999-2.7132 1.9066-0.73327 0.80665-1.3933 1.7599-1.8332 2.7865-0.44002 1.0267-0.73327 2.1999-0.80665 3.3731h17.819c0-1.1733-0.29325-2.3465-0.73325-3.4465z"/>
   <path d="m231.29 141.03c0.87989-2.7132 2.1266-5.0597 3.8864-7.1863 1.6866-2.0532 3.8864-3.7398 6.453-4.9864 2.5665-1.2467 5.573-1.8332 8.9462-1.8332 3.3731 0 6.3796 0.58665 8.9462 1.8332 2.5665 1.2467 4.693 2.9332 6.453 4.9864 1.6866 2.0532 3.0065 4.4731 3.8864 7.1863 0.87989 2.7132 1.3199 5.4997 1.3199 8.4328 0 2.9332-0.44001 5.7197-1.3199 8.4328-0.87989 2.7132-2.1265 5.0597-3.8864 7.1863-1.6866 2.0532-3.8864 3.7398-6.453 4.913-2.5665 1.2467-5.573 1.8332-8.9462 1.8332-3.3731 0-6.3796-0.58664-8.9462-1.8332-2.5665-1.2465-4.6931-2.8598-6.453-4.913-1.6866-2.0532-3.0065-4.4731-3.8864-7.1863-0.87988-2.7132-1.3199-5.4997-1.3199-8.4328 0-2.9332 0.44002-5.7197 1.3199-8.4328zm5.2064 14.812c0.58664 2.1265 1.4666 3.9598 2.6399 5.6463 1.1733 1.6866 2.7132 3.0065 4.6197 4.0331 1.9066 1.0266 4.1064 1.5399 6.7463 1.5399 2.5665 0 4.8397-0.51326 6.7463-1.5399 1.9066-1.0267 3.4465-2.3465 4.6197-4.0331 1.1733-1.6866 2.0532-3.5931 2.6398-5.6463 0.58664-2.1265 0.80665-4.2531 0.80665-6.3796 0-2.1266-0.29339-4.2531-0.80665-6.3796-0.58664-2.1265-1.4666-3.9598-2.6398-5.6463-1.1733-1.6866-2.7132-3.0065-4.6197-4.0331-1.9066-1.0266-4.1064-1.5399-6.7463-1.5399-2.5665 0-4.8397 0.51326-6.7463 1.5399-1.9066 1.0267-3.4465 2.3465-4.6197 4.0331-1.1733 1.6866-2.0532 3.5931-2.6399 5.6463-0.58664 2.1265-0.80665 4.2531-0.80665 6.3796s0.29339 4.2531 0.80665 6.3796z"/>
   <path d="m273.31 144.33v-4.4731h5.2064v-4.6197c0-2.4932 0.73326-4.3998 2.1999-5.7197s3.5931-1.9799 6.3796-1.9799c0.51326 0 1.0267 0.0738 1.6132 0.14662 0.58665 0.0738 1.1733 0.22001 1.6132 0.36664v4.4731c-0.44002-0.14662-0.95328-0.29339-1.4666-0.29339-0.51326-0.0738-1.0267-0.0738-1.4666-0.0738-1.2467 0-2.1999 0.22001-2.8598 0.73327-0.65988 0.51325-1.0266 1.3933-1.0266 2.7865v4.3264h6.013v4.4731h-6.013v26.545h-5.133v-26.545h-5.0597z"/>
   <path d="m289.22 144.33v-4.4731h5.2064v-4.6197c0-2.4932 0.73326-4.3998 2.1999-5.7197s3.5931-1.9799 6.3796-1.9799c0.51326 0 1.0267 0.0738 1.6132 0.14662 0.58664 0.0738 1.1733 0.22001 1.6132 0.36664v4.4731c-0.44002-0.14662-0.95328-0.29339-1.4666-0.29339-0.51326-0.0738-1.0267-0.0738-1.4666-0.0738-1.2467 0-2.1999 0.22001-2.8598 0.73327-0.66002 0.51325-1.0266 1.3933-1.0266 2.7865v4.3264h6.013v4.4731h-5.8663v26.545h-5.133v-26.545h-5.2064z"/>
   <path d="m309.68 134.28v-6.233h5.133v6.233zm5.133 5.573v31.018h-5.133v-31.018z"/>
   <path d="m340.48 145.28c-1.2467-1.0999-3.0065-1.6132-5.133-1.6132-1.8332 0-3.3731 0.36663-4.6197 1.0267-1.2465 0.65988-2.1999 1.6132-2.9332 2.7132-0.73327 1.0999-1.2467 2.4198-1.6132 3.8864-0.29339 1.4666-0.51326 2.9332-0.51326 4.5464 0 1.4666 0.14663 2.8598 0.51326 4.1798 0.36663 1.3933 0.87989 2.5665 1.6132 3.5931 0.73326 1.0267 1.6866 1.9066 2.7865 2.5665 1.1733 0.65988 2.5665 0.95327 4.1064 0.95327 2.4932 0 4.4731-0.66002 5.9397-1.9799 1.3933-1.3199 2.2732-3.1532 2.6398-5.573h5.2064c-0.58665 3.8131-1.9799 6.8196-4.2531 8.8728s-5.4264 3.1532-9.3861 3.1532c-2.3465 0-4.4731-0.36663-6.233-1.1733-1.8332-0.73327-3.3731-1.8332-4.5464-3.2265-1.2467-1.3933-2.1265-3.0798-2.7865-4.9864-0.58665-1.9066-0.95328-4.0331-0.95328-6.3796s0.29339-4.4731 0.87989-6.5263c0.58664-2.0532 1.5399-3.8131 2.7132-5.2797 1.2465-1.4666 2.7132-2.7132 4.6197-3.5198 1.8332-0.87989 3.9598-1.3199 6.453-1.3199 1.7599 0 3.3731 0.22001 4.913 0.66003 1.5399 0.44001 2.9332 1.0999 4.1064 1.9799 1.1733 0.87989 2.1266 1.9799 2.9332 3.2998 0.73327 1.3199 1.2467 2.9332 1.4666 4.7664h-5.2796c-0.51326-2.0532-1.3199-3.5931-2.6398-4.6197z"/>
   <path d="m375.38 168.9c-2.3465 1.7599-5.2064 2.6399-8.7262 2.6399-2.4932 0-4.6197-0.36663-6.453-1.1733-1.8332-0.80665-3.3731-1.9066-4.6197-3.3731-1.2467-1.4666-2.1999-3.1532-2.7865-5.133-0.58664-1.9799-0.95327-4.1798-1.0267-6.5263 0-2.3465 0.36663-4.5464 1.0999-6.453 0.73327-1.9799 1.7599-3.6665 3.0065-5.133 1.3199-1.4666 2.8598-2.5665 4.6197-3.3732 1.7599-0.80665 3.7398-1.1733 5.8663-1.1733 2.7865 0 5.0597 0.58664 6.8929 1.6866 1.8332 1.1733 3.2998 2.5665 4.3998 4.3264 1.0999 1.7599 1.8332 3.6664 2.2732 5.793 0.44002 2.0532 0.58664 4.0331 0.51326 5.9397h-23.245c-0.0738 1.3933 0.14662 2.6398 0.51325 3.8864 0.36664 1.2467 0.95328 2.2732 1.7599 3.2265 0.80665 0.95327 1.8332 1.6866 3.0798 2.2732 1.2465 0.58664 2.7132 0.80665 4.3998 0.80665 2.1265 0 3.9598-0.51326 5.2797-1.4666 1.3933-1.0267 2.2732-2.4932 2.7132-4.5464h5.0597c-0.80665 3.3731-2.2732 6.013-4.6197 7.7729zm-1.1733-19.946c-0.44001-1.0999-1.0999-1.9799-1.8332-2.7865-0.80665-0.80665-1.6866-1.3933-2.7865-1.8332-1.0266-0.44002-2.1999-0.66003-3.5198-0.66003s-2.4932 0.22001-3.5931 0.66003c-1.0266 0.44001-1.9799 1.0999-2.7132 1.9066-0.73326 0.80665-1.3933 1.7599-1.8332 2.7865-0.44002 1.0267-0.73327 2.1999-0.80665 3.3731h17.819c0-1.1733-0.29325-2.3465-0.73327-3.4465z"/>
  </g>
 </g>
</svg>
