<svg xmlns="http://www.w3.org/2000/svg" width="544" height="180" fill="none"><g clip-path="url(#a)"><path fill="#fff" d="M0 0h544v180H0z"/><g clip-path="url(#b)"><path fill="#6C288D" d="M42.004 25.307c.02 1.129-1.084 2.06-2.447 2.07-.264 0-.509-.041-.753-.102.626-.082 1.104-.55 1.094-1.11-.015-.614-.595-1.113-1.307-1.108-.717.006-1.287.514-1.282 1.13 0 .02.01.035.01.05a1.682 1.682 0 0 1-.274-.89 1.782 1.782 0 0 1 .335-1.043c-1.475.885-2.034 2.096-2.034 2.096s.335-3.448 3.678-4.05c3.514-.62 5.325 1.62 5.325 1.62-1.546-.485-2.844-.622-3.942-.55.92.295 1.582 1.027 1.597 1.887Zm36.057 66.388c-3.082 2.41-6.77 4.14-10.721 5.177l-1.348-4.69a29.197 29.197 0 0 0 6.175-3.478l5.894 2.99ZM62.3 93.465l1.205 4.196c-11.337 1.683-23.916-1.847-30.625-10.397a27.768 27.768 0 0 1-1.404-1.968c7.97 8.657 20.26 11.098 30.824 8.17Zm-21.373 85.1C22.752 178.921 16.2 180 16.2 180c3.327-3.719 8.302-8.321 13.77-10.615 3.21-1.344 4.684-1.841 8.138-2.69.173-.25 7.96-10.067 13.154-21.379.935-2.04 1.535-3.993 1.52-5.728-.005-1.957-.58-3.703-2.594-5.696 0 0-.204-.204-.748-.703-.539-.508-1.409-1.281-2.685-2.385-2.554-2.217-6.73-5.727-13.215-10.889-16.688-13.282-18.621-27.844-18.545-33.786.02-1.418.137-2.35.188-2.68.076-1.25 1.12-12.461 11.943-22.065-.066-.045-.107-.081-.178-.132a15.928 15.928 0 0 1-3.617-3.622c-1.81 3.28-5.335 6.16-5.432 6.257 0 .005-.117.086-.325.265a8.597 8.597 0 0 0-.758.707c-.957.986-1.175 1.668-.91 2.38.274.707 1.464 2.193 1.464 2.193s-1.592-.417-2.914-1.308c-.168-.076-2.554-1.684-2.508-5.595.02-1.76.148-3.646 1.338-6.012a14.743 14.743 0 0 1-6.017 1.24h-.087C3.342 57.717 0 55.941 0 55.941s2.538-.645 3.652-1.439c1.455-1.032 3.103-4.049 5.336-6.49 1.292-1.424 2.96-1.959 4.48-1.932 2.127.05 4.065.945 5.346 1.703a7.612 7.612 0 0 0 1.39-2.849c-5.55.51-6.67-.335-6.67-.335a121.942 121.942 0 0 0 6.15-3.434 8.071 8.071 0 0 0-.33-.712 4.925 4.925 0 0 0-.142-.25 24.03 24.03 0 0 1-1.608-2.444c-4.1 1.418-7.502 3.31-7.797 3.666l-.031.04s-.804-5.757 5.677-10.797c-.143-.91-.229-1.785-.224-2.57.03-3.447 1.23-5.518 1.317-5.645l3.495 1.73c.005.004 0 0-.015.03-.02.036-.057.107-.097.188-.061.137-1.262 1.912-1.628 4.406.855-.475 1.76-.942 2.782-1.39 3.846-1.525 7.035-2.156 9.09-2.273.534-3.693 3.133-6.384 6.505-7.777 3.82-1.66 8.75-2.178 14.207-2.137.615.005 1.225.015 1.836.035.244.01.488.01.717.016 7.777.076 12.624-2.858 13.606-3.51.138-.086.169-.116.169-.116l4.99-3.73-2.274 5.8c-1.806 4.608-3.846 8.264-5.891 11.175 0 0-1.586 2.156-2.573 3.29-.326 12.025-3.266 19.954-7.681 26.45 2.645-1.745 6.15-4.384 10.26-8.327 8.036-7.736 18.204-20.421 27.934-40.92L94.532.001l.803 5.91c.01.066.779 5.682.707 14.212-.066 7.208-.743 16.505-2.99 26.302 31.998-11.078 52.904-24.792 58.936-29.033a48.93 48.93 0 0 0 1.805-1.303l5.322-4.064-2.606 6.166c-.101.132-17.669 41.993-57.766 57.06 1.15.09 2.421.152 3.8.162a57.64 57.64 0 0 0 9.44-.697l4.74-.727-3.128 3.641c-5.106 5.942-13.987 14.146-24.48 20.92a102.389 102.389 0 0 1-6.11 3.649c27.93 17.884 34.411 46.982 34.472 47.176l1.21 5.432-4.125-3.728c-11.622-10.458-19.145-16.108-24.715-19.588-.799 1.297-1.709 2.965-2.68 5.081-2.819 6.175-6.542 16.908-8.047 31.724 10.422 4.14 15.173 10.183 16.795 11.861 0 0-12.63-1.2-32.35-1.373-5.625-.051-10.315-.457-22.64-.219ZM57.913 56.089a281.842 281.842 0 0 0 31.155-8.316c2.584-10.233 3.356-20.137 3.423-27.68.025-2.844-.05-5.356-.158-7.421-9.018 17.537-18.276 28.921-25.84 36.19-3.203 3.098-6.118 5.458-8.58 7.227Zm-36.54-17.43.03.036.025.034c.02.042.265.418.55 1.038a106.054 106.054 0 0 0 5.28-3.52c-2.117-.29-4.614.066-7.035.712.34.549.722 1.109 1.15 1.7Zm-3.108 11.236c-.275-.18-.61-.372-.977-.57-1.088-.59-2.533-1.145-3.835-1.155-1.084.005-1.887.091-2.879 1.231 0 0-1.643 2.044-2.264 2.935 0 0-1.19 1.581-1.271 1.708-.997 1.19-1.8 1.521-1.8 1.521s1.062.174 1.963.103c3.189.004 7.334-.992 11.063-5.773Zm3.774 5.569c-.977-2.02-1.354-3.896-1.47-5.173a19.704 19.704 0 0 1-3.332 3.729c-2.462 3.885-3.194 6.668-3.205 8.53a6.251 6.251 0 0 0 .321 2.08c.285-.458.63-.86.946-1.2a10.43 10.43 0 0 1 1.322-1.18c.02-.031 1.064-.906 2.264-2.173 1.21-1.281 2.558-2.99 3.088-4.405.03-.076.04-.137.066-.208Zm1.648-8.215c2.095-.01 5.086 1.206 7.283 5.55.855 1.657 1.42 3.2 1.765 4.608 7.813-7.187 9.13-12.36 9.166-15.076a7.438 7.438 0 0 0-.096-1.312c-7.87 2.268-13.352 3.025-18.836 3.632a6.998 6.998 0 0 1-.864 2.802 6.249 6.249 0 0 1 1.581-.204Zm4.364 12.223c1.44.895 2.452 1.765 3.153 2.548 0-.081.005-.168.005-.25.015-1.926-.38-4.683-2.1-8.01-2.02-3.83-4.064-4.37-5.438-4.41a4.083 4.083 0 0 0-1.063.122c.026 1.856.565 6.968 5.443 10Zm16.363-21.674c.122.194 1.053 2 1.032 4.563-.03 4.19-2.299 10.895-12.095 19.243.096 2.67.325 9.69-.127 8.294-.534-1.657-1.373-3.305-2.106-4.582-.315-.432-.509-.737-.799-1.027-.188-.193-.335-.361-.483-.53-9.303 8.037-10.814 17.412-11.043 19.528-.03.31-.03.422-.03.422l-.016.121-.015.118s-.025.143-.066.519c-.03.371-.071.956-.081 1.698-.02 5.194 1.46 18.378 17.192 30.946 13.026 10.386 16.856 14.161 16.922 14.217 2.605 2.517 3.719 5.457 3.668 8.296-.071 3.643-1.663 7.04-3.316 10.264-5.687 11.847-12.61 19.624-12.65 19.685l-.438.615-.758.107c0 .01-1.571.305-2.935.626-1.378.3-3.224.982-4.913 1.618-3.072 1.154-4.491 2.009-6.653 3.473 13.184-1.2 30.88-.477 31.24-.473-4.292-4.16-8.188-5.951-8.188-5.951l.386-1.007a92.617 92.617 0 0 1 16.877-28.102c3.25-3.851 9.898-10.982 15.336-11.99l-6.374 7.239c.916 1.516 2.416 5.188 2.218 11.037-.086 2.514-.32 5.376-1.079 8.49-2.085 8.458-3.656 13.774-4.45 15.686-.183.062-5.468.27-11.14 2.971.153.112.468.457.59.615.753.992.677.88.952 1.342 10.971.372 15.488.19 27.803 1.191-5.89-4.389-13.174-7.105-13.174-7.105l.096-.788c2.335-24.503 8.25-35.85 10.809-39.355-9.41-4.995-23.8-11.525-23.8-11.525 20.682 3.916 31.73 12.192 33.276 13.417 4.293 2.884 9.501 6.821 16.063 12.497a80.65 80.65 0 0 0-4.903-10.706c-5.163-9.44-13.836-20.956-27.884-29.39-7.905 3.912-16.307 6.542-24.496 6.48a39.174 39.174 0 0 1-3.48-.218c-12.584-.936-23.047-10.783-24.292-23.769a28.847 28.847 0 0 1-.117-2.197c2.12 11.993 12.466 20.539 23.61 22.268.408.062.81.127 1.216.172.468.052.946.078 1.42.108.33.02.666.04 1.007.051.742.009 1.49.004 2.243-.051l-.01.055c10.096-.36 21.077-5.193 30.732-11.439 8.22-5.3 15.488-11.586 20.539-16.78a60.682 60.682 0 0 1-5.219.178c-7.182-.06-11.643-1.404-11.765-1.444l-5.87-1.78 5.906-1.628c33.281-9.095 52.508-38.428 59.456-51.251-12.85 8.413-46.75 28.067-95.163 37.415 0 0-3.733.708-5.05.932-10.566 2.96-15.993 12.817-15.993 12.817 1.837-7.217 9.314-13.474 12.376-15.788 6.271-7.066 10.534-14.11 11.394-27.803-2.462 1.42-5.667 2.676-9.685 3.074 0 0 10.325-5.942 15.376-14.422.392-.701.778-1.418 1.16-2.192-2.696 1.023-6.506 1.974-11.246 1.934-.265 0-.53-.006-.789-.016-.595-.02-1.185-.026-1.765-.036-5.198-.055-9.75.514-12.762 1.84-3.016 1.4-4.384 3.038-4.476 6.06 0 .056 0 .091.005.126l.076 1.928-1.927-.086s-.005-.006-.071-.006c-.713-.01-5.687-.401-10.23 1.426-2.868 1.174-6.922 3.386-9.195 7.629 3.412-1.953 10.142-5.072 16.607-5.015 1.129.01 2.304.076 3.515.203l3.61.341-3.351 2.742c-3.418 2.446-4.349 3.189-9.929 5.914.026.123.051.25.071.372l2.93-.585c5.209-1.027 13.494-2.558 16.964-4.43l1.047-.504c.143.153.677 1.069.677 1.069Zm23.921 130.27c.087-.184.209-.433.341-.779.565-1.42 2.045-6.765 3.403-12.289.692-2.868.895-6.216.916-8.316.03-3.871-.789-6.48-1.46-7.981a105.2 105.2 0 0 0-2 2.07l-3.244 3.683a89.328 89.328 0 0 0-14.293 23.977c.549.331 3.158 1.771 5.05 3.414 3.312-1.623 4.614-2.274 11.287-3.779Z"/><path fill="#100F0D" d="M177.572 180.137h3.56V.235h-3.56v179.902ZM218.39 40.424l-4.933-2.066v-1.606h17.447v1.606l-4.939 2.066v32.425h9.185l3.618-7.232h2.41l-.804 10.163h-26.917v-1.608l4.933-2.066V40.424ZM249.092 51.79l-4.994-1.491v-1.551l12.284-2.183v25.539l4.877 2.07v1.603h-17.161v-1.602l4.994-2.071V51.789Zm7.808-13.262c0 2.356-1.21 3.444-4.42 3.444-3.214 0-4.248-1.088-4.248-3.444 0-2.35 1.034-3.443 4.248-3.443 3.21 0 4.42 1.094 4.42 3.443ZM263.602 50.468l-3.616-1.55v-1.665h15.442v1.664l-4.135 1.55 4.476 12.34c.692 1.837 1.205 3.618 1.435 4.706l6.429-16.642-3.845-1.954v-1.664h11.362v1.664l-3.388 1.954-11.017 25.482h-3.213l-9.93-25.885ZM298.096 60.913v.519c0 6.888 4.532 11.135 10.503 11.135 2.004 0 4.013-.23 6.83-.866l.398 2.183c-4.65 1.55-8.779 2.467-11.592 2.467-8.266 0-13.546-5.564-13.546-14.115 0-8.84 5.799-15.27 13.947-15.27 7.519 0 11.653 3.963 11.653 12.915v1.032h-18.193Zm10.559-3.041v-.575c0-5.91-2.122-8.036-4.878-8.036-3.5 0-5.626 3.275-5.626 8.494v1.149l10.504-1.032ZM332.073 72.105l6.083 2.066v1.606h-18.367v-1.606l4.939-2.066V51.791l-4.939-1.496v-1.546l12.284-2.126v3.617l3.041-1.781c1.78-1.088 4.13-1.719 5.682-1.719 1.093 0 2.121.228 3.444.916v7.176h-5.911l-1.552-3.677a8.786 8.786 0 0 0-1.261-.112c-.916 0-1.836.112-3.443.748v20.314ZM358.181 85.305l6.084 1.898v1.662h-18.312v-1.662l4.939-1.898V51.847l-4.704-1.495v-1.547l11.993-2.126v3.56c3.901-2.064 7.345-3.27 9.583-3.27 5.972 0 10.504 5.682 10.504 13.255 0 9.187-6.832 16.13-16.012 16.13-1.552 0-2.64-.174-4.075-.631v9.582Zm0-12.11c.916.173 1.379.228 2.349.228 6.486 0 10.164-4.303 10.164-12.05 0-7.06-2.528-10.218-8.037-10.218-1.317 0-2.009.056-4.476.518v21.522ZM411.495 61.373c0 9.068-6.139 15.325-15.096 15.325-8.724 0-14.579-5.742-14.579-14.293 0-8.952 6.084-15.437 15.327-15.437 8.549 0 14.348 5.793 14.348 14.405Zm-22.096-.173c0 7.862 2.696 12.568 7.345 12.568 4.594 0 7.234-4.19 7.234-11.475 0-7.98-2.758-12.685-7.519-12.685-4.536 0-7.06 4.247-7.06 11.592ZM444.719 61.373c0 9.068-6.139 15.325-15.096 15.325-8.724 0-14.579-5.742-14.579-14.293 0-8.952 6.084-15.437 15.327-15.437 8.549 0 14.348 5.793 14.348 14.405Zm-22.095-.173c0 7.862 2.695 12.568 7.344 12.568 4.593 0 7.233-4.19 7.233-11.475 0-7.98-2.757-12.685-7.517-12.685-4.537 0-7.06 4.247-7.06 11.592ZM452.692 39.793l-5.224-1.434v-1.607l12.513-2.3v37.656l4.877 2.065v1.607h-17.161v-1.607l4.995-2.065V39.793ZM244.104 129.517h2.64l-.748 9.644c-6.368 1.547-9.355 2.004-13.083 2.004-12.111 0-19.46-7.401-19.46-19.338 0-12.686 8.327-20.834 21.408-20.834 3.677 0 6.888.402 11.48 1.724v9.639h-2.584l-2.924-7.976c-.748-.172-1.836-.233-3.215-.233-10.961 0-16.302 7.232-16.302 17.452 0 10.157 5.854 16.357 15.269 16.357 1.837 0 2.813-.117 4.248-.401l3.271-8.038ZM255.632 116.602l-4.996-1.49v-1.551l12.284-2.183v25.544l4.878 2.066v1.606h-17.162v-1.606l4.996-2.066v-20.32Zm7.806-13.256c0 2.351-1.209 3.444-4.42 3.444-3.214 0-4.246-1.093-4.246-3.444 0-2.354 1.032-3.448 4.246-3.448 3.211 0 4.42 1.094 4.42 3.448ZM267.274 114.995v-2.008c3.214-.972 4.648-1.664 5.854-2.758 1.145-1.088 2.065-2.461 3.5-5.392h2.238v7.234h9.068v2.924h-9.068v18.194c0 3.618 2.294 4.304 5.223 4.304.631 0 2.813-.168 3.845-.341l.575 2.293c-6.484 1.552-7.517 1.72-9.471 1.72-4.302 0-7.405-1.378-7.405-6.368v-19.802h-4.359ZM292.991 115.227l-3.388-1.491v-1.668h15.153v1.668l-4.075 1.491 4.594 12.284c.858 2.064 1.378 4.012 1.601 5.106l6.201-16.989-3.962-1.892v-1.668h11.653v1.668l-3.617 2.065-12.686 31.332c-1.892 4.767-4.761 6.547-9.812 6.547-1.724 0-3.214-.173-4.476-.519v-5.565h4.706l1.149 3.5c2.467-.401 4.131-2.065 5.681-5.971l1.664-4.304-10.386-25.594ZM368.339 129.517h2.64l-.748 9.644c-6.368 1.547-9.354 2.004-13.082 2.004-12.112 0-19.456-7.401-19.456-19.338 0-12.686 8.316-20.834 21.404-20.834 3.672 0 6.887.402 11.48 1.724v9.639h-2.584l-2.925-7.976c-.747-.172-1.836-.233-3.215-.233-10.961 0-16.301 7.232-16.301 17.452 0 10.157 5.855 16.357 15.269 16.357 1.836 0 2.814-.117 4.247-.401l3.271-8.038ZM404.492 126.187c0 9.069-6.14 15.325-15.097 15.325-8.723 0-14.578-5.737-14.578-14.292 0-8.952 6.083-15.437 15.326-15.437 8.55 0 14.349 5.798 14.349 14.404Zm-22.096-.174c0 7.864 2.696 12.57 7.345 12.57 4.592 0 7.232-4.187 7.232-11.475 0-7.98-2.756-12.685-7.517-12.685-4.537 0-7.06 4.246-7.06 11.59ZM428.436 138.068c-6.429 2.584-8.149 3.097-10.33 3.097-3.5 0-7.402-2.293-7.402-8.549v-16.068l-4.938-1.435v-1.552l12.228-2.125v18.768c0 4.996 1.662 6.603 5.965 6.603 1.552 0 2.239-.062 4.477-.519v-19.74l-4.934-1.435v-1.552l12.222-2.125v24.796l4.706 1.317v1.668l-11.994 2.295v-3.444ZM456.02 136.921l4.36 2.064v1.608h-16.643v-1.608l4.995-2.064V116.6l-4.995-1.372v-1.552l12.283-2.183v3.276c6.832-2.757 7.631-2.929 10.215-2.929 4.821 0 7.461 3.215 7.461 8.493v16.588l4.995 2.064v1.608h-16.012v-1.608l3.789-2.064v-15.036c0-3.845-1.897-5.737-5.625-5.737-1.898 0-3.043.056-4.823.452v20.321ZM504.317 119.644h-4.935l-2.7-5.396h-.458c-5.107 0-8.779 4.877-8.779 11.597 0 7.4 3.901 11.536 11.017 11.536 1.724 0 2.868-.117 5.626-.748l.401 2.294c-5.28 1.552-8.437 2.238-11.251 2.238-7.864 0-13.372-5.737-13.372-13.946 0-9.182 6.43-15.438 16.012-15.438 2.584 0 4.995.402 8.439 1.266v6.597ZM513.289 116.602l-4.996-1.49v-1.551l12.284-2.183v25.544l4.879 2.066v1.606h-17.163v-1.606l4.996-2.066v-20.32Zm7.807-13.256c0 2.351-1.211 3.444-4.42 3.444-3.215 0-4.247-1.093-4.247-3.444 0-2.354 1.032-3.448 4.247-3.448 3.209 0 4.42 1.094 4.42 3.448ZM531.824 104.609l-5.224-1.44v-1.601l12.513-2.3v37.655l4.877 2.065v1.608h-17.161v-1.608l4.995-2.065v-32.314Z"/></g></g><defs><clipPath id="a"><path fill="#fff" d="M0 0h544v180H0z"/></clipPath><clipPath id="b"><path fill="#fff" d="M0 0h543.987v468.747H0z"/></clipPath></defs></svg>