<svg width="544" height="180" viewBox="0 0 544 180" fill="none" xmlns="http://www.w3.org/2000/svg">
<g clip-path="url(#clip0_704_138)">
<rect width="544" height="180" fill="white"/>
<g clip-path="url(#clip1_704_138)">
<path d="M42.0041 25.3066C42.0245 26.4359 40.9203 27.3666 39.5573 27.3772C39.2927 27.3772 39.0484 27.3359 38.8041 27.2746C39.4303 27.1932 39.9084 26.7252 39.8979 26.1652C39.8828 25.5505 39.3031 25.0519 38.5907 25.0572C37.874 25.0626 37.3041 25.5706 37.3088 26.1866C37.3088 26.2066 37.3193 26.2225 37.3193 26.2372C37.1516 25.9679 37.0448 25.6679 37.0448 25.3466C37.0396 24.9652 37.1667 24.6145 37.3803 24.3039C35.9052 25.1892 35.3459 26.3999 35.3459 26.3999C35.3459 26.3999 35.6812 22.9519 39.0235 22.3506C42.538 21.7306 44.3489 23.9692 44.3489 23.9692C42.8027 23.4852 41.5052 23.3479 40.4068 23.4199C41.3271 23.7146 41.9885 24.4466 42.0041 25.3066ZM78.0615 91.6946C74.9792 94.1052 71.2917 95.8345 67.3396 96.8719L65.9917 92.1826C68.1839 91.2732 70.2693 90.1079 72.1667 88.7039L78.0615 91.6946ZM62.2989 93.4652L63.5041 97.6612C52.1667 99.3439 39.588 95.8145 32.8787 87.2639C32.3755 86.6185 31.9073 85.9626 31.4751 85.2959C39.4453 93.9532 51.7344 96.3945 62.2989 93.4652ZM40.9255 178.565C22.7516 178.921 16.2005 180 16.2005 180C19.5271 176.281 24.5016 171.679 29.9693 169.385C33.1792 168.041 34.6541 167.544 38.1079 166.695C38.2807 166.445 46.0677 156.628 51.2615 145.316C52.1973 143.276 52.7973 141.323 52.7817 139.588C52.7771 137.631 52.2021 135.885 50.188 133.892C50.188 133.892 49.9844 133.688 49.4401 133.189C48.9011 132.681 48.0312 131.908 46.7547 130.804C44.2011 128.587 40.0255 125.077 33.5401 119.915C16.8516 106.633 14.9188 92.0706 14.9948 86.1292C15.0151 84.7106 15.1323 83.7799 15.1828 83.4492C15.2593 82.1986 16.3021 70.9879 27.126 61.3839C27.0599 61.3386 27.0193 61.3026 26.9479 61.2519C25.4016 60.1332 24.2369 58.8865 23.3312 57.6305C21.5208 60.9105 17.9959 63.7906 17.8989 63.8866C17.8989 63.8919 17.7823 63.9732 17.574 64.1519C17.3651 64.3239 17.0855 64.5732 16.8156 64.8586C15.8593 65.8452 15.6407 66.5265 15.9052 67.2385C16.1803 67.9465 17.3703 69.4319 17.3703 69.4319C17.3703 69.4319 15.7781 69.0146 14.4557 68.1239C14.288 68.0479 11.9021 66.4399 11.9479 62.5292C11.9682 60.7692 12.0958 58.8826 13.2859 56.5172C11.1443 57.4519 9.05364 57.7732 7.26875 57.7572H7.18229C3.34167 57.7172 0 55.9412 0 55.9412C0 55.9412 2.53803 55.2959 3.65208 54.5025C5.10677 53.4705 6.75469 50.4532 8.98751 48.0119C10.2797 46.5879 11.9479 46.0532 13.4688 46.0799C15.5953 46.1306 17.5328 47.0252 18.8145 47.7826C19.5068 46.9132 19.9901 45.8345 20.2036 44.9345C14.6541 45.4439 13.5349 44.5985 13.5349 44.5985C15.788 43.4239 17.8432 42.2652 19.6849 41.1652C19.5625 40.8705 19.4453 40.6212 19.3541 40.4532C19.2828 40.3212 19.2369 40.2452 19.2115 40.2039C18.586 39.3705 18.0672 38.5612 17.6041 37.7586C13.5047 39.1772 10.1016 41.0692 9.80677 41.4252L9.77604 41.4652C9.77604 41.4652 8.9724 35.7079 15.4527 30.6679C15.3104 29.7572 15.224 28.8825 15.2292 28.0985C15.2593 24.6505 16.4599 22.5799 16.5464 22.4532L20.0407 24.1826C20.0459 24.1866 20.0407 24.1826 20.0255 24.2132C20.0052 24.2492 19.9693 24.3199 19.9287 24.4012C19.8677 24.5385 18.6672 26.3132 18.3011 28.8066C19.1557 28.3319 20.0609 27.8652 21.0833 27.4172C24.9287 25.8919 28.1177 25.2612 30.1729 25.1439C30.7068 21.4506 33.3063 18.7599 36.6781 17.3665C40.4984 15.7079 45.4271 15.1892 50.8849 15.2305C51.5 15.2345 52.1104 15.2452 52.7208 15.2652C52.9651 15.2759 53.2093 15.2759 53.438 15.2812C61.2151 15.3572 66.0625 12.4226 67.0443 11.7719C67.1817 11.6852 67.2125 11.6546 67.2125 11.6546L72.2021 7.92524L69.9287 13.7252C68.1229 18.3332 66.0828 21.9892 64.038 24.8999C64.038 24.8999 62.4516 27.0559 61.4645 28.1906C61.1391 40.2146 58.1989 48.1439 53.7839 54.6399C56.4292 52.8946 59.9339 50.2559 64.0432 46.3132C72.0803 38.5772 82.2479 25.8919 91.9781 5.39324L94.5317 0.00121517L95.3355 5.91189C95.3453 5.97723 96.1136 11.5932 96.0421 20.1226C95.976 27.3306 95.2995 36.6279 93.0516 46.4252C125.05 35.3466 145.956 21.6332 151.988 17.3919C153.208 16.5426 153.793 16.0892 153.793 16.0892L159.115 12.0252L156.509 18.1906C156.408 18.3226 138.84 60.1839 98.7432 75.2506C99.8927 75.3412 101.164 75.4026 102.543 75.4132C105.29 75.4386 108.473 75.2652 111.983 74.7159L116.723 73.9892L113.595 77.6305C108.489 83.5719 99.6079 91.7759 89.1145 98.5506C87.1307 99.8279 85.0912 101.053 83.0057 102.199C110.935 120.083 117.416 149.181 117.477 149.375L118.687 154.807L114.562 151.079C102.94 140.621 95.4167 134.971 89.8469 131.491C89.0484 132.788 88.138 134.456 87.1667 136.572C84.3484 142.747 80.6251 153.48 79.1197 168.296C89.5417 172.436 94.2927 178.479 95.9151 180.157C95.9151 180.157 83.2855 178.957 63.5651 178.784C57.9396 178.733 53.25 178.327 40.9255 178.565ZM57.914 56.0892C69.1552 53.7706 79.562 50.9012 89.0688 47.7732C91.6527 37.5399 92.4255 27.6359 92.4917 20.0932C92.5172 17.2492 92.4412 14.7372 92.3344 12.6719C83.3156 30.2092 74.0584 41.5932 66.4948 48.8612C63.2907 51.9599 60.376 54.3199 57.914 56.0892ZM21.3735 38.6586L21.4036 38.6946L21.4292 38.7292C21.4495 38.7706 21.6937 39.1465 21.9787 39.7665C24.0995 38.4399 25.8797 37.2292 27.2584 36.2466C25.1421 35.9572 22.6448 36.3132 20.224 36.9586C20.5645 37.5079 20.9459 38.0679 21.3735 38.6586ZM18.2656 49.8946C17.9907 49.7159 17.6552 49.5226 17.2891 49.3252C16.2005 48.7346 14.7557 48.1799 13.4536 48.1705C12.3703 48.1745 11.5667 48.2612 10.575 49.4012C10.575 49.4012 8.93177 51.4452 8.31145 52.3359C8.31145 52.3359 7.12136 53.9172 7.03959 54.0439C6.04271 55.2346 5.23907 55.5652 5.23907 55.5652C5.23907 55.5652 6.30208 55.7385 7.2026 55.6679C10.3917 55.6719 14.5369 54.6759 18.2656 49.8946ZM22.0396 55.4639C21.0631 53.4439 20.6864 51.5679 20.5697 50.2906C19.5167 51.8066 18.3875 53.0319 17.238 54.0199C14.776 57.9052 14.0437 60.6879 14.0333 62.5492C14.0287 63.4132 14.1708 64.0906 14.3541 64.6292C14.6391 64.1719 14.9849 63.7706 15.3 63.4292C15.9713 62.7226 16.6172 62.2492 16.6224 62.2492C16.6427 62.2186 17.6855 61.3439 18.886 60.0772C20.0969 58.7959 21.4443 57.0865 21.9735 55.6719C22.0041 55.5959 22.014 55.5345 22.0396 55.4639ZM23.6875 47.2492C25.7833 47.2386 28.774 48.4545 30.9713 52.7985C31.826 54.4559 32.3907 55.9986 32.7364 57.4066C40.5489 50.2199 41.8667 45.0465 41.9021 42.3305C41.9073 41.8172 41.8667 41.3799 41.8057 41.0186C33.9364 43.2866 28.4536 44.0439 22.9703 44.6506C22.8943 45.5612 22.6193 46.5279 22.1057 47.4532C22.5281 47.3452 23.0469 47.2492 23.6875 47.2492ZM28.0516 59.4719C29.4912 60.3665 30.5036 61.2372 31.2052 62.0199C31.2052 61.9386 31.2104 61.8519 31.2104 61.7705C31.2255 59.8439 30.8292 57.0866 29.1099 53.7599C27.0907 49.9292 25.0459 49.3906 23.6724 49.3506C23.2552 49.3439 22.8839 49.4012 22.6093 49.4719C22.6349 51.3279 23.174 56.4399 28.0516 59.4719ZM44.4151 37.7985C44.5369 37.9919 45.4677 39.7972 45.4473 42.3612C45.4172 46.5519 43.1484 53.2559 33.3521 61.6039C33.4484 64.2732 33.6771 71.2932 33.2245 69.8985C32.6907 68.2412 31.8516 66.5932 31.1188 65.3159C30.8036 64.8839 30.6104 64.5786 30.3203 64.2892C30.1323 64.0959 29.9849 63.9279 29.8369 63.7599C20.5339 71.7959 19.0235 81.1706 18.7943 83.2866C18.764 83.5972 18.764 83.7092 18.764 83.7092L18.7484 83.8305L18.7333 83.9479C18.7333 83.9479 18.7079 84.0905 18.6672 84.4665C18.6364 84.8385 18.5959 85.4225 18.586 86.1652C18.5656 91.3585 20.0459 104.543 35.7781 117.111C48.8041 127.497 52.6344 131.272 52.7005 131.328C55.3047 133.845 56.4188 136.785 56.3677 139.624C56.2969 143.267 54.7047 146.664 53.0516 149.888C47.3651 161.735 40.4421 169.512 40.4016 169.573L39.964 170.188L39.2063 170.295C39.2063 170.305 37.6349 170.6 36.2713 170.921C34.8932 171.221 33.0469 171.903 31.3579 172.539C28.286 173.693 26.8667 174.548 24.7047 176.012C37.8891 174.812 55.5849 175.535 55.9459 175.539C51.6527 171.379 47.7568 169.588 47.7568 169.588L48.1432 168.581C52.7667 156.424 59.1912 147.137 65.0197 140.479C68.2703 136.628 74.9183 129.497 80.3557 128.489L73.9823 135.728C74.8979 137.244 76.3984 140.916 76.2 146.765C76.1136 149.279 75.8797 152.141 75.1213 155.255C73.0364 163.713 71.4645 169.029 70.6708 170.941C70.488 171.003 65.2031 171.211 59.5317 173.912C59.6844 174.024 59.9995 174.369 60.1219 174.527C60.8745 175.519 60.7984 175.407 61.0729 175.869C72.0443 176.241 76.5609 176.059 88.8755 177.06C82.9855 172.671 75.7016 169.955 75.7016 169.955L75.7979 169.167C78.1328 144.664 84.0484 133.317 86.6068 129.812C77.1969 124.817 62.8073 118.287 62.8073 118.287C83.4891 122.203 94.5364 130.479 96.0828 131.704C100.376 134.588 105.584 138.525 112.146 144.201C111.083 141.333 109.501 137.609 107.243 133.495C102.08 124.055 93.4073 112.539 79.3588 104.105C71.4541 108.017 63.0516 110.647 54.8625 110.585C53.6973 110.571 52.538 110.484 51.3833 110.367C38.7995 109.431 28.3364 99.5839 27.0907 86.5985C27.0193 85.8652 26.9885 85.1279 26.9735 84.4012C29.0943 96.3945 39.4401 104.94 50.5849 106.669C50.9917 106.731 51.3932 106.796 51.8005 106.841C52.2683 106.893 52.7464 106.919 53.2193 106.949C53.55 106.969 53.886 106.989 54.2265 107C54.9693 107.009 55.7172 107.004 56.4697 106.949L56.4593 107.004C66.5563 106.644 77.5375 101.811 87.1917 95.5652C95.4115 90.2652 102.68 83.9786 107.731 78.7852C105.864 78.9279 104.115 78.9786 102.512 78.9626C95.3303 78.9026 90.8693 77.5586 90.7473 77.5186L84.8776 75.7385L90.7828 74.1106C124.064 65.0159 143.291 35.6826 150.239 22.8599C137.389 31.2732 103.489 50.9266 55.076 60.2746C55.076 60.2746 51.3427 60.9826 50.0251 61.2066C39.4604 64.1665 34.0333 74.0239 34.0333 74.0239C35.8697 66.8066 43.3469 60.5505 46.4088 58.2359C52.6803 51.1705 56.9427 44.1265 57.8027 30.4332C55.3407 31.8532 52.136 33.1092 48.1177 33.5066C48.1177 33.5066 58.4432 27.5652 63.4937 19.0852C63.8855 18.3839 64.2724 17.6666 64.6536 16.8932C61.9579 17.9159 58.1479 18.8666 53.4079 18.8266C53.1432 18.8266 52.8787 18.8212 52.6193 18.8106C52.024 18.7906 51.4339 18.7852 50.8541 18.7746C45.6557 18.7199 41.1036 19.2892 38.0921 20.6159C35.076 22.0159 33.7079 23.6532 33.6161 26.6746C33.6161 26.7306 33.6161 26.7665 33.6213 26.8012L33.6973 28.7292L31.7697 28.6426C31.7697 28.6426 31.7651 28.6372 31.6989 28.6372C30.9864 28.6279 26.012 28.2359 21.4697 30.0626C18.6011 31.2372 14.5473 33.4492 12.274 37.6919C15.6864 35.7386 22.4161 32.6199 28.8807 32.6772C30.0099 32.6866 31.1849 32.7532 32.3959 32.8799L36.0068 33.2212L32.6547 35.9626C29.2369 38.4092 28.3063 39.1519 22.726 41.8772C22.7516 41.9999 22.7771 42.1266 22.7973 42.2492L25.7271 41.6639C30.936 40.6372 39.2213 39.1065 42.6907 37.2345L43.738 36.7305C43.8807 36.8825 44.4151 37.7985 44.4151 37.7985ZM68.3364 168.068C68.4229 167.884 68.5448 167.635 68.6771 167.289C69.2417 165.869 70.7219 160.524 72.0803 155C72.7719 152.132 72.9751 148.784 72.9959 146.684C73.026 142.813 72.2073 140.204 71.536 138.703C70.8896 139.355 70.2183 140.047 69.5369 140.773L66.2917 144.456C61.312 150.437 56.0271 158.372 51.9989 168.433C52.5479 168.764 55.1573 170.204 57.0495 171.847C60.3609 170.224 61.6631 169.573 68.3364 168.068Z" fill="#6C288D"/>
<path d="M177.572 180.137H181.132V0.234548H177.572V180.137Z" fill="#100F0D"/>
<path d="M218.39 40.4238L213.457 38.3585V36.7518H230.904V38.3585L225.965 40.4238V72.8491H235.15L238.768 65.6171H241.178L240.374 75.7798H213.457V74.1718L218.39 72.1064V40.4238Z" fill="#100F0D"/>
<path d="M249.092 51.7894L244.098 50.2987V48.748L256.382 46.5653V72.104L261.259 74.1747V75.7773H244.098V74.1747L249.092 72.104V51.7894ZM256.9 38.528C256.9 40.884 255.69 41.972 252.48 41.972C249.266 41.972 248.232 40.884 248.232 38.528C248.232 36.1787 249.266 35.0854 252.48 35.0854C255.69 35.0854 256.9 36.1787 256.9 38.528Z" fill="#100F0D"/>
<path d="M263.602 50.4679L259.986 48.9173V47.2533H275.428V48.9173L271.293 50.4679L275.769 62.8079C276.461 64.6439 276.974 66.4253 277.204 67.5133L283.633 50.8706L279.788 48.9173V47.2533H291.15V48.9173L287.762 50.8706L276.745 76.3533H273.532L263.602 50.4679Z" fill="#100F0D"/>
<path d="M298.096 60.9132V61.4319C298.096 68.3199 302.628 72.5666 308.599 72.5666C310.603 72.5666 312.612 72.3372 315.429 71.7012L315.827 73.8839C311.177 75.4346 307.048 76.3506 304.235 76.3506C295.969 76.3506 290.689 70.7866 290.689 62.2359C290.689 53.3959 296.488 46.9666 304.636 46.9666C312.155 46.9666 316.289 50.9292 316.289 59.8812V60.9132H298.096ZM308.655 57.8719V57.2972C308.655 51.3866 306.533 49.2613 303.777 49.2613C300.277 49.2613 298.151 52.5359 298.151 57.7546V58.9039L308.655 57.8719Z" fill="#100F0D"/>
<path d="M332.073 72.1053L338.156 74.1707V75.7773H319.789V74.1707L324.728 72.1053V51.7907L319.789 50.2947V48.7493L332.073 46.6227V50.24L335.114 48.4587C336.894 47.3707 339.244 46.74 340.796 46.74C341.889 46.74 342.917 46.968 344.24 47.656V54.832H338.329L336.777 51.1547C336.376 51.0987 335.974 51.0427 335.516 51.0427C334.6 51.0427 333.68 51.1547 332.073 51.7907V72.1053Z" fill="#100F0D"/>
<path d="M358.181 85.3052L364.265 87.2026V88.8652H345.953V87.2026L350.892 85.3052V51.8466L346.188 50.3519V48.8052L358.181 46.6786V50.2399C362.082 48.1746 365.526 46.9692 367.764 46.9692C373.736 46.9692 378.268 52.6506 378.268 60.2239C378.268 69.4106 371.436 76.3533 362.256 76.3533C360.704 76.3533 359.616 76.1799 358.181 75.7226V85.3052ZM358.181 73.1946C359.097 73.3679 359.56 73.4226 360.53 73.4226C367.016 73.4226 370.694 69.1199 370.694 61.3732C370.694 54.3132 368.166 51.1546 362.657 51.1546C361.34 51.1546 360.648 51.2106 358.181 51.6732V73.1946Z" fill="#100F0D"/>
<path d="M411.495 61.3732C411.495 70.4412 405.356 76.6985 396.399 76.6985C387.675 76.6985 381.82 70.9558 381.82 62.4052C381.82 53.4532 387.904 46.9678 397.147 46.9678C405.696 46.9678 411.495 52.7612 411.495 61.3732ZM389.399 61.1998C389.399 69.0625 392.095 73.7678 396.744 73.7678C401.338 73.7678 403.978 69.5772 403.978 62.2932C403.978 54.3132 401.22 49.6078 396.459 49.6078C391.923 49.6078 389.399 53.8545 389.399 61.1998Z" fill="#100F0D"/>
<path d="M444.719 61.3732C444.719 70.4412 438.58 76.6985 429.623 76.6985C420.899 76.6985 415.044 70.9558 415.044 62.4052C415.044 53.4532 421.128 46.9678 430.371 46.9678C438.92 46.9678 444.719 52.7612 444.719 61.3732ZM422.624 61.1998C422.624 69.0625 425.319 73.7678 429.968 73.7678C434.561 73.7678 437.201 69.5772 437.201 62.2932C437.201 54.3132 434.444 49.6078 429.684 49.6078C425.147 49.6078 422.624 53.8545 422.624 61.1998Z" fill="#100F0D"/>
<path d="M452.692 39.7931L447.468 38.3585V36.7518L459.981 34.4518V72.1078L464.858 74.1731V75.7798H447.697V74.1731L452.692 72.1078V39.7931Z" fill="#100F0D"/>
<path d="M244.104 129.517H246.744L245.996 139.161C239.628 140.708 236.641 141.165 232.913 141.165C220.802 141.165 213.453 133.764 213.453 121.827C213.453 109.141 221.78 100.993 234.861 100.993C238.538 100.993 241.749 101.395 246.341 102.717V112.356H243.757L240.833 104.38C240.085 104.208 238.997 104.147 237.618 104.147C226.657 104.147 221.316 111.379 221.316 121.599C221.316 131.756 227.17 137.956 236.585 137.956C238.422 137.956 239.398 137.839 240.833 137.555L244.104 129.517Z" fill="#100F0D"/>
<path d="M255.632 116.602L250.636 115.112V113.561L262.92 111.378V136.922L267.798 138.988V140.594H250.636V138.988L255.632 136.922V116.602ZM263.438 103.346C263.438 105.697 262.229 106.79 259.018 106.79C255.804 106.79 254.772 105.697 254.772 103.346C254.772 100.992 255.804 99.8985 259.018 99.8985C262.229 99.8985 263.438 100.992 263.438 103.346Z" fill="#100F0D"/>
<path d="M267.274 114.995V112.987C270.488 112.015 271.922 111.323 273.128 110.229C274.273 109.141 275.193 107.768 276.628 104.837H278.866V112.071H287.934V114.995H278.866V133.189C278.866 136.807 281.16 137.493 284.089 137.493C284.72 137.493 286.902 137.325 287.934 137.152L288.509 139.445C282.025 140.997 280.992 141.165 279.038 141.165C274.736 141.165 271.633 139.787 271.633 134.797V114.995H267.274Z" fill="#100F0D"/>
<path d="M292.991 115.227L289.603 113.736V112.068H304.756V113.736L300.681 115.227L305.275 127.511C306.133 129.575 306.653 131.523 306.876 132.617L313.077 115.628L309.115 113.736V112.068H320.768V113.736L317.151 115.801L304.465 147.133C302.573 151.9 299.704 153.68 294.653 153.68C292.929 153.68 291.439 153.507 290.177 153.161V147.596H294.883L296.032 151.096C298.499 150.695 300.163 149.031 301.713 145.125L303.377 140.821L292.991 115.227Z" fill="#100F0D"/>
<path d="M368.339 129.517H370.979L370.231 139.161C363.863 140.708 360.877 141.165 357.149 141.165C345.037 141.165 337.693 133.764 337.693 121.827C337.693 109.141 346.009 100.993 359.097 100.993C362.769 100.993 365.984 101.395 370.577 102.717V112.356H367.993L365.068 104.38C364.321 104.208 363.232 104.147 361.853 104.147C350.892 104.147 345.552 111.379 345.552 121.599C345.552 131.756 351.407 137.956 360.821 137.956C362.657 137.956 363.635 137.839 365.068 137.555L368.339 129.517Z" fill="#100F0D"/>
<path d="M404.492 126.187C404.492 135.256 398.352 141.512 389.395 141.512C380.672 141.512 374.817 135.775 374.817 127.22C374.817 118.268 380.9 111.783 390.143 111.783C398.693 111.783 404.492 117.581 404.492 126.187ZM382.396 126.013C382.396 133.877 385.092 138.583 389.741 138.583C394.333 138.583 396.973 134.396 396.973 127.108C396.973 119.128 394.217 114.423 389.456 114.423C384.919 114.423 382.396 118.669 382.396 126.013Z" fill="#100F0D"/>
<path d="M428.436 138.068C422.007 140.652 420.287 141.165 418.106 141.165C414.606 141.165 410.704 138.872 410.704 132.616V116.548L405.766 115.113V113.561L417.994 111.436V130.204C417.994 135.2 419.656 136.807 423.959 136.807C425.511 136.807 426.198 136.745 428.436 136.288V116.548L423.502 115.113V113.561L435.724 111.436V136.232L440.43 137.549V139.217L428.436 141.512V138.068Z" fill="#100F0D"/>
<path d="M456.02 136.921L460.38 138.985V140.593H443.737V138.985L448.732 136.921V116.6L443.737 115.228V113.676L456.02 111.493V114.769C462.852 112.012 463.651 111.84 466.235 111.84C471.056 111.84 473.696 115.055 473.696 120.333V136.921L478.691 138.985V140.593H462.679V138.985L466.468 136.921V121.885C466.468 118.04 464.571 116.148 460.843 116.148C458.945 116.148 457.8 116.204 456.02 116.6V136.921Z" fill="#100F0D"/>
<path d="M504.317 119.644H499.382L496.682 114.248H496.224C491.117 114.248 487.445 119.125 487.445 125.845C487.445 133.245 491.346 137.381 498.462 137.381C500.186 137.381 501.33 137.264 504.088 136.633L504.489 138.927C499.209 140.479 496.052 141.165 493.238 141.165C485.374 141.165 479.866 135.428 479.866 127.219C479.866 118.037 486.296 111.781 495.878 111.781C498.462 111.781 500.873 112.183 504.317 113.047V119.644Z" fill="#100F0D"/>
<path d="M513.289 116.602L508.293 115.112V113.561L520.577 111.378V136.922L525.456 138.988V140.594H508.293V138.988L513.289 136.922V116.602ZM521.096 103.346C521.096 105.697 519.885 106.79 516.676 106.79C513.461 106.79 512.429 105.697 512.429 103.346C512.429 100.992 513.461 99.8985 516.676 99.8985C519.885 99.8985 521.096 100.992 521.096 103.346Z" fill="#100F0D"/>
<path d="M531.824 104.609L526.6 103.169V101.568L539.113 99.2679V136.923L543.99 138.988V140.596H526.829V138.988L531.824 136.923V104.609Z" fill="#100F0D"/>
</g>
</g>
<defs>
<clipPath id="clip0_704_138">
<rect width="544" height="180" fill="white"/>
</clipPath>
<clipPath id="clip1_704_138">
<rect width="543.987" height="468.747" fill="white"/>
</clipPath>
</defs>
</svg>
