<svg xmlns="http://www.w3.org/2000/svg" viewBox="0 0 141.111 110.778"><path fill="#231f20" d="M0 0h3.314v110.58H0z"/><g stroke-width="1.429"><path d="M35.029 77.909V59.412h-.062L28.03 77.909h-2.518l-6.936-18.497h-.062v18.497h-2.8V55.676h4.044l6.997 18.684 7.029-18.684h4.043v22.233zM41.589 61.809h2.643v16.099H41.59zm0-6.134h2.643v3.238H41.59zM47.468 61.81h2.488v2.553h.062c1.12-1.993 2.924-2.927 5.225-2.927 4.23 0 5.536 2.43 5.536 5.886v10.587h-2.644v-10.9c0-1.96-1.244-3.237-3.265-3.237-3.203 0-4.759 2.148-4.759 5.044v9.093h-2.643zM64.043 61.81h2.643v16.099h-2.643zm2.643-2.896h-2.643v-3.238h2.643zM71.645 72.833c.094 2.367 2.146 3.114 4.323 3.114 1.648 0 3.887-.374 3.887-2.397 0-2.055-2.612-2.398-5.256-2.99-2.612-.592-5.256-1.464-5.256-4.547 0-3.237 3.203-4.577 6.002-4.577 3.546 0 6.376 1.121 6.594 5.045h-2.643c-.187-2.055-1.99-2.709-3.732-2.709-1.586 0-3.421.436-3.421 2.055 0 1.899 2.799 2.21 5.255 2.802 2.644.592 5.256 1.463 5.256 4.578 0 3.83-3.577 5.076-6.842 5.076-3.607 0-6.655-1.464-6.81-5.45zM88.565 61.81h3.204v2.336h-3.204v9.995c0 1.215.342 1.432 1.99 1.432h1.214v2.336h-2.022c-2.737 0-3.825-.56-3.825-3.519V64.146h-2.737V61.81h2.737v-4.826h2.643zM93.693 61.81h2.488v3.394h.063c1.275-2.584 3.047-3.86 5.908-3.768v2.803c-4.26 0-5.815 2.43-5.815 6.508v7.162h-2.644zM110.85 80.056c-1.213 3.145-2.301 4.298-4.665 4.298-.622 0-1.244-.063-1.835-.28v-2.43c.498.156 1.026.374 1.555.374 1.089 0 1.68-.53 2.177-1.463l1.089-2.74-6.376-16.006h2.986l4.696 13.17h.062l4.51-13.17h2.798zM22.153 108.29c2.768 0 5.007-2.18 5.007-6.072 0-3.923-2.24-6.103-5.007-6.103-2.768 0-5.007 2.18-5.007 6.103 0 3.892 2.239 6.072 5.007 6.072m0-14.51c5.1 0 7.806 3.706 7.806 8.438 0 4.702-2.706 8.408-7.806 8.408s-7.806-3.706-7.806-8.408c0-4.732 2.706-8.438 7.806-8.438M33.149 96.484h-2.705v-2.336h2.705v-2.397c0-2.616 1.555-3.985 4.448-3.985.497 0 1.212.093 1.71.248v2.305c-.466-.156-1.027-.22-1.493-.22-1.275 0-2.021.406-2.021 1.807v2.242h3.11v2.336h-3.11v13.763h-2.644zM61.015 104.71c0 3.02-1.586 6.072-6.562 6.072-4.136 0-6.468-2.305-6.468-6.477v-1.37h2.954v.933c0 2.586.684 4.423 3.577 4.423 2.706 0 3.545-1.557 3.545-4.017V88.02h2.954zM77.895 110.25h-2.488v-2.553h-.062c-1.12 1.993-2.924 2.927-5.224 2.927-4.23 0-5.536-2.43-5.536-5.886V94.151h2.643v10.898c0 1.962 1.244 3.24 3.266 3.24 3.203 0 4.758-2.15 4.758-5.046v-9.091h2.643zM82.843 105.17c.094 2.367 2.146 3.114 4.323 3.114 1.648 0 3.888-.374 3.888-2.397 0-2.056-2.612-2.398-5.256-2.99-2.613-.592-5.256-1.464-5.256-4.547 0-3.237 3.203-4.577 6.002-4.577 3.546 0 6.375 1.12 6.593 5.045h-2.643c-.187-2.055-1.99-2.709-3.732-2.709-1.586 0-3.421.436-3.421 2.055 0 1.899 2.799 2.21 5.256 2.802 2.644.592 5.256 1.463 5.256 4.578 0 3.83-3.577 5.076-6.842 5.076-3.608 0-6.656-1.464-6.81-5.45zM99.765 94.149h3.204v2.336h-3.204v9.995c0 1.215.342 1.432 1.99 1.432h1.214v2.336h-2.022c-2.737 0-3.825-.56-3.825-3.519V96.485h-2.737v-2.336h2.737v-4.826h2.643zM105.06 94.15h2.643v16.099h-2.643zm2.643-2.896h-2.643v-3.239h2.643zM121.98 99.319c-.405-2.024-1.804-3.207-3.98-3.207-3.826 0-5.008 3.02-5.008 6.29 0 2.958 1.337 5.885 4.696 5.885 2.55 0 4.074-1.494 4.416-3.924h2.706c-.59 3.924-3.048 6.26-7.09 6.26-4.914 0-7.526-3.426-7.526-8.222 0-4.826 2.488-8.625 7.587-8.625 3.64 0 6.563 1.713 6.936 5.543zM138.3 100.66c-.124-2.523-2.022-4.546-4.634-4.546-2.768 0-4.416 2.086-4.603 4.546zm2.55 4.483c-.715 3.55-3.265 5.481-6.873 5.481-5.131 0-7.557-3.55-7.712-8.47 0-4.826 3.171-8.376 7.557-8.376 5.69 0 7.432 5.325 7.276 9.218h-12.035c-.093 2.802 1.493 5.293 5.008 5.293 2.177 0 3.7-1.06 4.167-3.146z"/></g><g fill="#231f20" stroke-width=".4"><path d="M13.577 20.79c-.006-.004-.006-.006.002-.006-.002.002-.002.004-.002.006M42.773 19.131a7.211 7.211 0 0 1 1.497 3.863h-4.66v-5.915c1.183.23 2.304.957 3.163 2.052m1.605 3.425a7.381 7.381 0 0 0-1.208-3.142.433.433 0 0 0 .18-.294.418.418 0 0 0-.326.088c-.042-.056-.085-.117-.13-.172-.785-1-1.783-1.7-2.85-2.014-.014-.168-.166-.25-.256-.215a.166.166 0 0 0-.11.126.237.237 0 0 0-.052-.011.45.45 0 0 0-.247-.108.437.437 0 0 0 .078.289v.02a.173.173 0 0 0-.155.086c-.047.081.002.242.155.289v2.305a.437.437 0 0 0-.277.127c.09.085.186.12.277.126v2.492c-.147.04-.204.19-.166.27.028.055.077.099.166.102v.055a.457.457 0 0 0-.069.234.42.42 0 0 0 .223-.06h.065c.006.084.047.132.1.156.08.043.224-.013.267-.157h1.652c.002.097.04.197.126.29a.432.432 0 0 0 .125-.29h1.88c.04.165.197.225.281.18.056-.029.098-.083.098-.18h.037a.45.45 0 0 0 .25.072.461.461 0 0 0-.067-.223l-.005-.066c.088-.005.135-.049.16-.103.038-.09-.033-.25-.201-.272"/><path d="M42.515 19.209a.173.173 0 0 0-.032.149c.02.064.075.12.189.127a.421.421 0 0 0-.148.271.42.42 0 0 0 .3-.068c-.027.114.013.184.07.22a.154.154 0 0 0 .126.016c.483.791.808 1.696.945 2.621a.418.418 0 0 0-.21-.047.432.432 0 0 0 .086.25H42.27c-.005-.086-.052-.152-.106-.17-.068-.025-.142-.012-.217.077a.443.443 0 0 0-.126-.285.445.445 0 0 0-.127.285c-.073-.09-.15-.102-.215-.078-.056.019-.103.085-.109.17h-1.341a.46.46 0 0 0 .073-.244.423.423 0 0 0-.245.078v-2.198c.09.002.168-.047.192-.11.021-.065.01-.143-.078-.217a.427.427 0 0 0 .28-.126.429.429 0 0 0-.28-.127c.088-.075.099-.154.078-.22-.024-.059-.103-.11-.192-.11V17.61a.47.47 0 0 0 .204.076.432.432 0 0 0-.045-.242c.928.293 1.806.909 2.5 1.766m1.64 3.606a7.124 7.124 0 0 0-1.455-3.623 5.925 5.925 0 0 0-1.344-1.267 4.88 4.88 0 0 0-1.558-.707l-.098-.022V22.9h4.465z"/><path d="M43.275 21.914v-.006a.376.376 0 0 0 .185-.175c-.099.033-.168-.01-.192-.023.069-.041.15.003.07-.121-.076-.128-.132-.132-.215-.042-.078.085-.615-.023-.615-.428a.385.385 0 0 0 .178.155c.26.158.512.058.533-.156.02-.226-.19-.328-.421-.523a3.433 3.433 0 0 1-.234-.215c-.073-.158-.004-.3-.212-.587a1.123 1.123 0 0 0-.065-.253.742.742 0 0 0 .125.86c.223.244.7.482.683.694-.005.052-.052.108-.134.113-.107-.005-.214-.07-.318-.16a.563.563 0 0 1-.047-.043h-.002c-.2-.19-.378-.463-.496-.614-.223-.287-.122-.563-.086-.802.157-.22-.095-.663-.243-.77 0 0 .032-.105-.01-.235-.032.028-.099.023-.136.02-.042-.082-.058-.1-.112-.109-.096-.017-.094-.073-.103-.107-.059.05-.077.1-.133.104-.08.001-.11-.002-.144.026-.054.045-.084.062-.167.059-.088-.002-.088.05-.08.117.005.043.01.105.065.132.008.004.017.006.026.011l.071.083.051-.09c-.002 0-.002 0 0 0 .038-.034.155-.045.178.04.015.058.024.075-.049.083-.077.011-.12.011-.193.013-.05.002-.048.07-.048.114.002.052.061.077.168.052.105-.028.296-.047.296.043 0 .244-.287.223-.345.514a.483.483 0 0 1-.157-.151 1.008 1.008 0 0 0-.206-.257 1.026 1.026 0 0 0-.202-.168c-.097-.055-.099-.102-.099-.2 0-.085.04-.164.034-.242a.32.32 0 0 0-.023-.075c-.015-.053-.088-.093-.13-.084.021.015.048.036.052.085a.17.17 0 0 0-.036.046c-.019.024-.028.058.002.085.006.007.007.01.007.014 0 .012-.003.025-.007.042-.002.015-.01.008-.01-.002-.02-.06-.05-.147-.102-.149-.007 0-.03-.006-.042-.004 0-.001.004-.007.004-.01 0-.063-.07-.114-.142-.039.013.004.045.01.056.027a.512.512 0 0 0-.013.064c-.006.064.041.087.108.088.014-.001.019.004.02.014.005.007.006.017.008.024.004.015-.002.014-.01.01-.11-.05-.156.003-.158.05 0 .004-.002.032.002.047-.038.027-.05.083.024.13 0-.018-.006-.061.022-.07.006 0 .012-.003.017-.009a.104.104 0 0 0 .03.03c.008.004.026.003.062-.02.009-.01.014-.01.026-.002.01.006.02.013.032.023.01.004.007.011 0 .019-.071.071-.06.14.033.16-.041.08-.174.042-.166-.075-.094.149.061.266.189.21.005.056.002.156.022.158 0-.01.008-.03.029-.03.009 0 .011.007.011.013.002.038.015.085.067.089-.009-.025-.005-.047.01-.053.024.04.048.078.069.115.06.108.185.399.473.521-.148.087-.247.216-.338.327-.08.077-.197.16-.27.115-.032-.02-.04-.05-.084-.083-.032-.022-.07-.032-.09-.024-.004.002-.028.007-.049.019-.048-.023-.127.007-.146.049.026-.008.058-.017.101.013l-.003.053c-.004.036.022.074.172.062.01-.002.026.004.016.015-.016.017-.041.033-.078.024-.066-.019-.097-.072-.142-.01l-.032.038c-.008-.002-.012-.002-.017 0-.058.021-.114.133-.047.182a.112.112 0 0 1 .045-.093.186.186 0 0 0 .03.034c.043.066.092.102.189-.047.01-.017.015-.002.013.005-.007.068-.073.166.017.18.004 0 .023.007.042.009l.001.017c.02.081.126.102.169.08a.16.16 0 0 1-.094-.099c.021 0 .042-.002.043-.007.054-.052-.01-.12.015-.159.009-.013.016-.01.022 0 .02.03.066.098.14.055a.122.122 0 0 0 .064-.098c.1-.038.187-.072.258-.046-.013-.05.047-.126.154-.156.106-.029.153.003.187.037a.48.48 0 0 1 .109-.186c-.012.424.551.415.686.664-.17-.07-.36-.106-.466-.085-.136.027-.38.153-.411.317-.024.129.106.361.245.455-.167.03-.22-.026-.373.017-.005-.003-.011-.003-.013-.003-.13.013-.15-.217-.301-.159a.37.37 0 0 0-.045.034c-.058-.002-.144.07-.127.132a.175.175 0 0 1 .095-.055v.034c-.002.024.008.05.058.05.03 0 .038-.016.06-.016.012 0 .017.008.017.02 0 .056-.19-.035-.157.128.002.002.02.033.032.047-.01.051.034.098.118.072-.017-.012-.049-.033-.041-.061a.171.171 0 0 0 .037.004c.007 0 .017-.006.023-.027 0-.003 0-.005.007-.005.01.002.015.007.015.014 0 .01-.01.017-.01.034 0 .004.008.045.015.053-.007.058.077.119.161.06-.023-.004-.077-.015-.082-.043.016-.008.037-.015.04-.017.013-.012.018-.034.018-.059 0-.015.01-.015.014-.015.012-.002.027-.002.042-.003.02 0 .024.007.026.013a.101.101 0 0 0 .12.051c.032-.011.044-.028.052-.045.023.015.045.028.065.045-.018-.062.028-.11.161-.02l.094-.076s.127.051.174-.004c.078-.074.037-.077.037-.143-.058-.129-.088-.116-.114-.238-.043-.212.247-.33.417-.3.036.137.223.492.534.596.194.068.275-.147.335-.117.013.004.026.023.032.047-.014.104.007.193-.017.242-.02.047-.127.007-.197.004-.041-.004-.072.024-.074.03-.06.013-.128.066-.126.132.023-.013.06-.047.109-.054l.002.028a.09.09 0 0 0 .155.055c.006-.01.032 0 .017.011-.047.036-.133.115-.06.145a.294.294 0 0 0 .042.023c-.003.052.034.102.077.108-.017-.024-.02-.04.004-.096h.042c.055.003.029-.102.088-.136.006-.004.014-.002.01.005-.019.059-.03.134.024.15l.043.009c.016.045.074.08.147.041-.018-.007-.058-.024-.065-.047a.347.347 0 0 0 .037-.057c.038-.124-.07-.128-.07-.181 0-.06.125-.021.125-.145 0-.006 0-.012-.002-.02.06-.035.12-.075.123-.122a.379.379 0 0 1-.159-.026M41.096 18.829s.004-.004 0 0M37.417 25.146l-.088-.007c-.107-.008-.238.043-.247.183-.011.141.088.219.217.226l.064.004-.154 1.012-.99-1.435c.462-.187.839-.387 1.037-.387.16 0 .196.076.16.404m-1.94.226c.173-.04.341-.092.5-.15l1.177 1.7-.112.716zm1.402 3.288-2.217-3.218a2.651 2.651 0 0 0 .545-.02l1.779 2.577-.107.661m-2.507-3.195 2.434 3.531c-1.3-.48-2.597-1.692-2.434-3.531m3.622-.278-.112-.007.002-.108c.017-.392-.217-.685-.636-.685-.376 0-1.097.49-2.11.49-.43 0-.942-.21-1.264-.4l-.127.305c.003-.012.003-.021.003-.03a.252.252 0 0 0-.248-.256.252.252 0 0 0-.251.255c0 .14.112.253.25.253.08 0 .15-.038.195-.098l-.125.308c.041.017.084.038.13.052-.147 1.545.951 3.507 2.953 4.11.296-.082.637-.03.637.3 0 .2-.101.29-.281.29-.118 0-.195-.07-.195-.15 0-.139.234-.056.26-.148.028-.125-.05-.18-.189-.18-.138 0-.348.093-.348.327 0 .278.217.44.455.44.223 0 .692-.125.627-.676.106.004.228-.012.252-.12l.025-.314-.105-.014.08-3.542.079.008c.129.011.24-.052.25-.191.01-.14-.102-.21-.207-.22M37.189 17.637c.002 0 .004 0 0 0M36.612 18.109c-.047 0-.067-.064-.058-.106.019.014.114.051.165.064-.077.015-.059.044-.107.042m-.071.097c-.014.002-.012-.044-.036-.046-.02-.005-.02.015-.007.048-.033-.012-.063-.029-.077.003-.014.025-.009.044.012.066.01.012 0 .038-.01.066-.011.03-.048.076-.095.048-.047-.025-.04-.076-.024-.104.013-.029.024-.053.04-.053.027.002.042-.003.054-.032.009-.033-.021-.047-.047-.068.028-.008.045-.023.028-.034-.017-.019-.047.012-.052-.004-.006-.014.014-.024.024-.033.013-.014.026-.01.041 0l.131.062c.017.01.028.017.028.035-.003.014.004.038-.01.046m-.085-.255c-.02.035-.066.066-.103.032-.033-.034.004-.045-.037-.113.039.028.117.077.14.081m1.252.697c.49.002.735-.16.735-.316 0-.553-1.353-.213-1.353-.545 0-.055.04-.104.1-.15 0 0-.003 0 0 0 .682-.049.71-.541 1.197-.634-.59-.083-.672.382-.923.404.137-.064.186-.224.174-.287-.121.164-.385.178-.53.365-.022.028-.032.066-.023.096-.088.057-.144.12-.144.2 0 .523 1.375.164 1.375.544 0 .13-.238.22-.614.22-.282 0-.486-.205-1.014-.067 0-.089.178-.257.11-.336.051-.023.085-.064.087-.11a.177.177 0 0 0-.101-.043c.016-.026-.006-.053-.027-.074-.003-.007-.014-.064-.028-.075a.576.576 0 0 0-.12-.082c-.06-.03-.1-.03-.123-.035-.016-.006-.07.013-.078.011-.03-.004-.064-.004-.068.032a.177.177 0 0 0-.097-.043.205.205 0 0 0-.011.151c-.051.006-.103.13-.148.117.016.034.032.05.045.051-.042.076-.057.164-.103.168a.069.069 0 0 0 .035.042c-.043.11-.063.25-.073.313h-.002a.578.578 0 0 0-.106-.087c-.079-.045-.075-.084-.064-.164.011-.07.058-.13.064-.196a.339.339 0 0 0-.014-.059c-.007-.045-.065-.079-.105-.071.019.014.038.03.036.071l-.042.034c-.016.019-.03.045-.007.07.006.003.006.007.004.013 0 .008-.006.019-.012.033-.005.011-.007.005-.009 0-.011-.052-.026-.121-.073-.127h-.035a.026.026 0 0 0 .003-.011c.01-.052-.046-.09-.123-.033.013.002.041.006.049.023a.246.246 0 0 0-.023.051c-.012.052.028.072.086.076.013 0 .019.004.02.01 0 .005 0 .014.003.02.001.01-.002.008-.01.006-.091-.04-.142 0-.15.04 0 .002-.005.026-.005.037-.037.021-.052.069.006.108.001-.017.003-.051.032-.056.003-.004.007-.004.013-.006.006.01.023.02.024.023.007.005.024.002.06-.015.008-.006.015-.007.024 0 .006.004.015.01.026.015.006.007.004.011-.002.017-.076.056-.076.115.012.132.011.003.011.009.011.016-.026.112-.185.09-.16-.022-.107.124.037.224.164.162.01-.006.012-.002.014.004.005.019.013.037.035.04 0-.004.01-.023.03-.021.007-.002.007.005.007.009-.003.032.004.068.047.074-.004-.023.007-.043.023-.043.019.001.054.092.125.171-.108.05-.292.093-.305.093-.026 0-.187-.02-.24.01-.078.042-.267.113-.325.033-.017-.026-.011-.055-.035-.096-.02-.029-.043-.048-.064-.052-.002 0-.024-.002-.045 0-.03-.035-.1-.037-.129-.015.024.006.049.008.073.05-.01.013-.017.033-.02.04-.017.024-.006.064.114.105.005.004.016.015.005.021-.016.006-.043.012-.065-.01-.049-.035-.054-.088-.11-.056-.004.002-.021.012-.038.019a.034.034 0 0 0-.015-.004c-.052-.003-.134.061-.097.123.007-.015.026-.047.065-.055.006.015.01.034.012.038.013.062.037.11.166.027.012-.01.012.001.01.009-.03.053-.114.106-.051.147l.03.023c-.002.004-.006.007-.006.011-.013.072.064.125.107.121a.12.12 0 0 1-.04-.107l.034.01c.061-.024.035-.1.067-.124.012-.007.017-.002.017.01.004.028.019.098.094.09.067-.007.099-.064.093-.104-.004-.003 0-.003.006-.003a.07.07 0 0 1 .033.08.133.133 0 0 0 .054-.053c.015.033.017.08-.03.124a.169.169 0 0 0 .118-.12.091.091 0 0 1 .026.037c.002-.002.004-.004.006-.004a.254.254 0 0 0 .144-.005c.01-.002.011.003.01.007-.007.03-.007.06.006.076 0-.012.02-.038.03-.038.02 0-.001.072.042.115.017-.185.116-.111.232-.185.011-.011.013-.004.01.006a.115.115 0 0 1-.05.06c.045 0 .143-.041.143-.107 0-.014.033-.038.074-.062.04.01.103-.014.128-.059.007.017.026.072-.004.087.122.007.247-.132.294-.144.26-.052-.161-.24.368-.211.04.006.12-.023.152-.055-.04.077-.043.24.04.253.035.006.108.03.136.059.007.007.002.013-.006.013a.364.364 0 0 0-.11.029c-.125.082-.127-.19-.26-.136a.867.867 0 0 0-.035.026c-.055-.002-.124.06-.11.117.014-.015.042-.043.085-.05-.002.014-.002.027-.002.029-.003.02.004.043.047.043.026 0 .033-.015.052-.015.01 0 .015.008.015.017 0 .05-.163-.03-.133.11 0 .005.015.032.024.043-.004.042.028.081.101.06-.013-.011-.04-.03-.033-.05.011.001.028.001.032.003.007 0 .013-.006.018-.023 0-.006.002-.006.008-.006.007 0 .013.006.013.014 0 .005-.011.015-.011.026 0 .004.01.04.015.043-.008.053.065.104.136.055-.017-.002-.065-.012-.07-.038.014-.006.033-.013.033-.015.013-.007.015-.026.015-.049.002-.011.009-.011.014-.011.01-.002.024-.002.036-.002.014-.004.02.002.022.009a.084.084 0 0 0 .103.042c.088-.033.014-.11.085-.125.014-.002.035-.006.052 0 .069.017.172.015.19-.02.017-.031.01-.16-.067-.203-.043-.019.006-.073-.037-.138a.632.632 0 0 0 .26.065c.189 0 .007-.03.093-.08.092-.062.199-.03.229-.024.024.002.042.013.037.05-.023.097.012.105-.011.15-.02.04-.101.008-.158.004-.03-.002-.056.02-.058.026-.046.01-.1.053-.099.11.017-.012.045-.042.084-.045a.095.095 0 0 1 .004.02c.007.065.08.091.124.046.003-.008.022 0 .013.007-.037.03-.107.096-.049.119.002 0 .017.011.034.019-.004.042.026.083.06.09-.012-.02-.015-.037.005-.083l.034.002c.04.004.02-.085.067-.11.006-.005.012-.003.01.005-.017.049-.027.105.018.12l.034.008c.011.04.058.064.116.036-.014-.006-.043-.023-.051-.044a.212.212 0 0 0 .03-.043c.028-.104-.058-.104-.058-.147 0-.051.1-.017.1-.12 0-.018-.009-.05-.042-.061-.006-.004-.006-.006-.004-.008h.002c.026 0 .056.01.071-.032-.075.005-.052-.059-.061-.1-.002-.006-.004-.012.004-.017.024-.02.042-.047.032-.11-.023.034-.105.074-.116.002-.002-.002-.006-.05-.08-.037-.124.011-.188-.055-.424-.076-.013-.002-.026-.013 0-.015M35.556 21.001l.004-.006c0 .004 0 .004-.004.006m-.376-.808c.017-.032.03-.059.047-.059.03 0 .048-.007.058-.036.014-.035-.02-.05-.051-.073.032-.01.05-.024.032-.04-.02-.02-.054.012-.06-.005-.007-.015.019-.027.028-.036.015-.015.026-.01.047 0l.144.068c.02.01.03.019.03.04-.002.014.005.043-.01.047-.014.004-.013-.043-.04-.047-.024-.004-.024.018-.008.05-.036-.01-.068-.026-.084.006-.015.026-.01.047.011.074.012.013.002.041-.011.073-.012.034-.052.08-.103.053-.054-.028-.047-.085-.03-.115m.17-.374c-.023.042-.073.073-.114.035-.038-.037.005-.049-.043-.124a.682.682 0 0 0 .157.089m.11.058c.021.015.128.059.18.07-.082.017-.063.05-.116.05-.05-.004-.07-.074-.063-.12m-.72.418c-.051-.043-.113-.12-.199-.176-.09-.051-.09-.096-.084-.19.004-.08.045-.155.045-.231 0-.006-.014-.047-.02-.068-.01-.051-.078-.09-.117-.081.019.015.043.034.045.081l-.04.043c-.016.023-.028.053 0 .08.006.007.008.011.006.016 0 .012-.004.021-.01.038-.003.014-.007.008-.01-.002-.015-.056-.038-.138-.089-.141-.005 0-.028-.006-.037-.002.002-.004.002-.01.002-.012.004-.06-.058-.107-.133-.035.015 0 .045.005.054.024a.656.656 0 0 0-.019.059c-.005.064.036.085.1.085.013 0 .018.005.02.013l.006.024c.004.014-.004.012-.01.008-.102-.046-.15.003-.155.049 0 .006-.002.03 0 .043-.037.024-.05.081.017.125 0-.021-.002-.057.026-.066.006 0 .01-.004.015-.006a.082.082 0 0 0 .028.024c.007.006.024.002.06-.019.01-.005.015-.007.024-.002l.03.021c.007.006.006.012 0 .02-.075.069-.065.137.024.152.014.002.015.01.015.02-.015.13-.184.107-.169-.023-.1.149.06.26.19.189.007-.008.01-.004.014.003.006.023.015.045.04.047-.002-.007.009-.028.028-.028.009 0 .009.006.009.015 0 .032.01.077.058.081-.006-.024.004-.05.019-.05.024 0 .078.098.181.16.088.038.146.13.202.072-.009.088.075.192.055.192-.027 0-.264-.016-.324.015-.084.047-.298.125-.358.034-.022-.03-.014-.06-.042-.104-.02-.034-.05-.056-.07-.058l-.048-.002c-.036-.034-.113-.042-.146-.014.026.006.058.01.082.053-.011.015-.02.04-.024.043-.017.028-.007.073.13.12.005.003.018.014.005.022a.064.064 0 0 1-.073-.012c-.052-.038-.06-.1-.124-.06-.003.001-.024.009-.041.018l-.015-.003c-.058-.006-.15.066-.108.138.007-.017.028-.055.073-.063l.011.044c.015.07.043.122.185.028.014-.01.014.002.01.01-.033.058-.126.115-.053.162 0 .002.015.017.033.028-.006.002-.006.004-.008.012-.013.079.073.137.118.133-.02-.02-.054-.06-.043-.12.015.007.036.013.038.011.067-.026.037-.11.075-.134.011-.007.018-.002.018.008.006.033.019.111.101.104.075-.01.113-.072.105-.116-.002-.005 0-.007.007-.005.026.017.05.045.04.087a.154.154 0 0 0 .058-.06.12.12 0 0 1-.032.14c.03-.009.11-.049.129-.135.011.011.024.03.028.043a.014.014 0 0 0 .007-.008c.028.012.08.02.161-.003.008 0 .01.003.01.011-.008.033-.008.064.009.081 0-.011.02-.045.032-.045.023 0-.002.081.047.13.014-.206.127-.122.256-.207.013-.008.013-.002.011.007a.109.109 0 0 1-.056.068c.142.032.361-.183.393-.274.06-.007.109-.015.137-.011.402.035.121-.365.769-.253.041.007.12-.038.157-.072-.049.087-.05.262.04.281a.342.342 0 0 1 .151.062c.01.01.004.015-.004.015a.52.52 0 0 0-.125.03c-.135.095-.14-.205-.286-.149a.18.18 0 0 0-.042.03c-.058 0-.136.069-.123.13.019-.018.05-.048.095-.055-.002.014-.002.03-.002.033-.003.021.006.047.056.047.028 0 .034-.014.055-.014.009 0 .018.005.018.016 0 .055-.181-.032-.15.12.002.005.021.04.029.05-.006.044.032.093.112.063-.015-.008-.045-.029-.038-.05l.034.001c.01 0 .017-.006.023-.024 0-.006.001-.008.007-.008.01.002.013.008.013.014 0 .01-.007.019-.007.032 0 .004.007.043.013.05-.007.056.073.115.154.058-.023-.004-.073-.015-.08-.04l.039-.015c.011-.011.019-.033.019-.056 0-.012.007-.015.013-.015.011 0 .024 0 .037-.002.02-.002.024.006.028.01.017.035.059.067.113.047.099-.032.014-.12.093-.136a.121.121 0 0 1 .058 0c.077.019.191.017.21-.019.023-.04.013-.178-.071-.229-.049-.023.004-.083-.045-.152.088.035.174.07.29.07.212 0 .264-.029.357-.09.103-.063.221-.032.253-.024.028.004.049.014.041.052-.022.109.012.12-.013.171-.019.042-.11.006-.172.004-.036-.004-.062.021-.064.028-.054.01-.114.061-.112.12.019-.014.054-.044.097-.052l.002.026c.008.076.088.1.137.05.006-.008.026 0 .015.011-.042.032-.12.106-.056.13.003.002.022.014.039.021-.004.045.03.093.067.099-.013-.023-.016-.038.006-.091h.035c.045.006.024-.09.077-.119.007-.006.011-.002.007.004-.014.054-.026.119.021.134a.633.633 0 0 0 .04.01c.014.039.065.069.129.039-.014-.008-.051-.024-.059-.047a.29.29 0 0 0 .036-.05c.032-.113-.064-.115-.064-.164 0-.057.109-.017.109-.134a.073.073 0 0 0-.047-.068c-.004-.002-.004-.006-.004-.006h.002c.032 0 .064.008.079-.037-.08.007-.056-.065-.067-.11-.002-.007-.002-.013.003-.019.026-.019.047-.055.038-.12-.026.035-.12.08-.13.003 0-.004-.005-.06-.09-.043-.136.013-.235-.017-.499-.04.301 0 .745-.08.745-.25 0-.145-.155-.233-.614-.233-.46 0-1.493.172-1.493-.087 0-.13.2-.12.445-.106.017.023.047.043.1.055.589.173 1.287-.14 1.644-.038-.42-.323-.772.011-1.221-.087.261 0 .351-.077.366-.147-.206.134-.591-.068-.832.08a.162.162 0 0 0-.038.033c-.327-.011-.591-.011-.591.21 0 .463 1.231.192 1.615.192.385 0 .468.038.468.112 0 .11-.384.138-.6.138-.334 0-1.339-.176-1.949-.051.049-.102.157-.23.097-.304.057-.025.094-.07.098-.118a.222.222 0 0 0-.113-.052c.017-.026-.005-.059-.028-.083-.005-.004-.018-.068-.032-.08-.022-.018-.067-.058-.134-.09-.066-.034-.11-.034-.137-.042-.017-.002-.077.014-.084.014-.032-.004-.071-.004-.077.033a.194.194 0 0 0-.107-.045.224.224 0 0 0-.014.166c-.054.004-.113.147-.161.129.019.04.035.054.05.058-.044.081-.065.181-.115.183.032.043.056.066.073.068-.008.064-.008.127-.012.18l-.097-.036-.082-.028zM34.963 21.931c-.054-.002-.075-.072-.063-.119a.755.755 0 0 0 .177.072c-.08.017-.061.051-.114.047m-.082.104c-.014.004-.012-.043-.038-.05-.022-.003-.022.02-.007.053-.035-.011-.07-.028-.086.004-.015.03-.01.05.011.075.012.012.002.04-.009.072-.013.033-.054.083-.103.055-.054-.03-.046-.087-.032-.12.017-.03.03-.054.045-.054.032.002.05-.006.06-.036.014-.037-.02-.052-.052-.073.035-.01.052-.027.035-.043-.02-.02-.056.013-.061-.002-.006-.017.019-.027.028-.038.013-.015.028-.01.047 0l.144.07c.019.011.03.017.03.038-.002.016.006.043-.012.049m-.093-.28c-.024.04-.073.074-.112.034-.04-.038.003-.047-.045-.125.049.03.133.087.157.09m.249 1.232a.926.926 0 0 1 .071-.015c-.002 0-.006.024-.01.024.135.01.119-.12.173-.11.75.1.318-.328 1.205-.24.041.003.058-.022.095-.053-.044.087-.046.228.042.247.041.008.123.033.153.066.007.01.002.014-.005.014a.365.365 0 0 0-.124.032c-.136.09-.14-.208-.286-.149-.008.002-.03.019-.042.026-.058 0-.136.072-.121.13a.14.14 0 0 1 .093-.05c-.002.01-.002.023-.002.027-.003.025.006.05.052.05.03 0 .038-.017.059-.017.009 0 .016.007.016.017 0 .056-.18-.033-.148.124l.029.046c-.006.047.03.09.112.066-.015-.01-.045-.03-.038-.057a.145.145 0 0 0 .036.004c.007.002.015-.006.019-.025 0-.003.003-.007.007-.007.01.004.017.007.017.015 0 .007-.012.017-.012.032 0 .006.01.043.014.05-.008.056.074.113.155.058-.02-.002-.073-.013-.079-.042a.385.385 0 0 1 .036-.015c.014-.009.018-.03.018-.056.002-.014.01-.014.015-.014.011-.002.024-.002.04-.002.014-.003.02.004.024.012.016.036.06.068.114.047.097-.034.013-.12.093-.138a.103.103 0 0 1 .058 0c.079.02.191.015.212-.02.02-.04.01-.178-.075-.227-.045-.023.004-.081-.043-.155.088.036.174.074.29.074.212 0 .262-.03.356-.091.105-.062.223-.032.254-.026.028.003.051.019.042.054-.023.112.011.121-.012.17-.02.043-.112.01-.174.002-.037 0-.063.023-.063.03-.054.014-.114.057-.112.121.018-.013.054-.047.093-.051 0 .01.004.02.006.023.005.076.09.1.134.05.008-.007.029 0 .015.009-.04.033-.118.107-.054.134l.037.02c-.003.044.033.093.068.1-.012-.024-.017-.041.004-.09.016 0 .035 0 .039.002.045.002.024-.093.075-.125.007-.003.011-.002.011.004-.016.055-.028.12.02.136a.155.155 0 0 0 .038.01c.014.04.066.073.13.037-.015-.007-.05-.024-.057-.045a.234.234 0 0 0 .032-.05c.032-.113-.063-.116-.063-.162 0-.054.11-.019.11-.134 0-.019-.007-.056-.046-.07-.004-.002-.004-.005-.004-.007v.002c.032-.002.065.007.08-.036-.082.006-.056-.066-.067-.113-.002-.006-.004-.012.004-.02.026-.018.046-.054.035-.12-.024.04-.116.085-.127.006-.002-.006-.008-.059-.09-.043-.138.013-.236-.015-.5-.04.266-.021.745-.076.745-.251 0-.142-.155-.23-.614-.23-.46 0-1.873.17-1.873-.091 0-.165.48-.1.827-.09.017.025.05.05.103.067.593.168 1.213-.232 1.638-.089-.337-.304-.771.034-1.219-.06.26-.002.536-.053.553-.127-.204.134-.78-.093-1.02.062a.251.251 0 0 0-.042.032c-.432-.005-.967-.06-.967.204 0 .463 1.61.193 1.995.193.387 0 .467.038.467.113 0 .112-.383.136-.6.136-.358 0-1.86-.2-2.46-.017.035-.104.179-.257.111-.334.055-.024.096-.07.098-.119a.192.192 0 0 0-.113-.053c.017-.026-.005-.058-.028-.083-.005-.003-.016-.067-.032-.079-.022-.017-.067-.06-.134-.092-.068-.033-.113-.033-.137-.038-.017-.006-.077.015-.084.013-.034-.005-.073-.005-.079.034a.16.16 0 0 0-.105-.045.211.211 0 0 0-.014.164c-.054.004-.113.143-.163.127.02.04.035.058.05.06-.042.081-.063.182-.115.183a.32.32 0 0 0 .05.057.905.905 0 0 0-.016.142l-.049-.02a2.234 2.234 0 0 0-.073-.003.58.58 0 0 0-.075-.013c-.07-.004-.125-.125-.25-.199-.088-.05-.092-.098-.092-.19 0-.082.037-.153.033-.23-.003-.008-.014-.048-.022-.069-.017-.052-.085-.09-.124-.083a.106.106 0 0 1 .049.083c-.015.017-.034.038-.036.043-.016.021-.024.053.002.08.008.006.01.011.01.017 0 .011-.002.02-.01.035-.002.017-.007.008-.009 0-.019-.058-.047-.14-.097-.143-.006 0-.028-.004-.036-.002v-.011c0-.059-.063-.106-.134-.036.016.002.044.007.054.024a.641.641 0 0 0-.015.06c-.004.062.041.086.107.086.009 0 .014.006.018.011l.008.027c.003.009-.002.009-.01.007-.104-.047-.15.002-.151.05a.109.109 0 0 0 .002.041c-.038.028-.047.083.022.125 0-.017-.003-.057.023-.064.006 0 .01-.004.015-.008.01.014.026.025.028.029.01.003.026.001.06-.021.01-.008.015-.008.024 0a.3.3 0 0 1 .032.019c.007.005.006.009.002.016-.071.07-.06.138.034.153.01.004.013.01.013.021-.007.132-.178.106-.17-.024-.092.15.075.26.2.189.007-.008.011-.002.013.003.006.025.021.046.043.048-.002-.008.007-.027.028-.027.007-.002.007.004.01.014.001.033.014.077.06.085-.006-.029 0-.055.016-.055.026 0 .12.18.305.283.033-.011.086-.011.104-.054.004.015.02.032.04.043.007.087.065.194.045.194-.026 0-.32-.014-.38.02-.086.045-.296.124-.36.035-.02-.032-.013-.06-.041-.106-.023-.032-.049-.054-.07-.054-.003-.002-.03-.002-.048-.002-.037-.042-.116-.043-.146-.02a.114.114 0 0 1 .082.055c-.009.017-.02.038-.024.042-.016.03-.007.076.128.123.007.002.018.015.009.019a.075.075 0 0 1-.077-.006c-.05-.045-.06-.102-.121-.066-.004.002-.025.014-.042.021-.005-.004-.011-.004-.017-.004-.058-.005-.147.066-.108.138a.108.108 0 0 1 .075-.062c.003.019.011.034.013.041.01.072.042.125.184.028.013-.007.013.006.007.012-.03.054-.126.117-.052.162a.15.15 0 0 0 .032.025l-.006.013c-.013.08.07.14.116.138-.019-.023-.052-.064-.041-.125.014.01.033.017.037.014.068-.027.038-.11.075-.136.011-.006.019 0 .019.011.003.033.018.11.103.1.07-.005.11-.07.1-.113 0-.004.003-.01.01-.004a.078.078 0 0 1 .04.083.14.14 0 0 0 .057-.058c.015.04.02.09-.033.141a.19.19 0 0 0 .131-.138.153.153 0 0 1 .028.044c.004 0 .006-.002.007-.004.026.01.079.013.16-.004.007-.002.01.002.009.008-.006.03-.006.066.009.08.002-.007.02-.039.033-.039.023 0-.001.08.045.127.019-.204.258-.1.386-.184.013-.011.014-.007.011.006a.117.117 0 0 1-.054.066.295.295 0 0 0 .144-.051c.084-.034.236-.1.225-.153M40.552 24.914c.015-.032.028-.057.047-.057.03 0 .049-.007.058-.04.015-.033-.02-.049-.05-.07.031-.01.05-.026.031-.041-.02-.019-.052.013-.061-.002-.004-.017.018-.028.032-.038.013-.015.024-.011.043-.002l.145.07c.02.01.03.02.03.04-.001.015.006.04-.01.047-.016.006-.014-.043-.04-.051-.023-.002-.023.02-.006.055-.037-.012-.07-.027-.088.005-.011.029-.01.05.014.074.011.013.002.041-.01.073-.013.034-.056.08-.104.052-.055-.029-.045-.085-.03-.115m.17-.372c-.024.041-.071.075-.114.035-.038-.04.003-.049-.043-.126a.7.7 0 0 0 .157.09m.11.06c.021.016.13.056.18.069-.082.017-.061.05-.116.05-.052-.007-.073-.076-.063-.12m3.313.863c0-.007 0-.015.006-.02.028-.018.05-.055.049-.121-.03.04-.127.084-.13.005 0-.003-.001-.06-.087-.043-.137.011-.272-.017-.533-.042-.017-.002-.03-.011 0-.015.318-.02.744-.06.744-.232 0-.145-.157-.234-.615-.234-.459 0-1.87.168-1.87-.09 0-.165.476-.099.826-.088.016.027.05.048.104.062.592.17 1.265-.275 1.623-.171-.464-.165-.758.12-1.205.024.262 0 .537-.055.552-.123-.206.132-.779-.092-1.022.057a.15.15 0 0 0-.038.04c-.437-.008-.969-.062-.969.198 0 .462 1.61.193 1.997.193.383 0 .466.041.466.115 0 .11-.384.137-.599.137-.36 0-1.864-.201-2.46-.018.033-.102.179-.257.11-.336.056-.025.093-.07.097-.12a.202.202 0 0 0-.114-.05c.019-.029-.004-.06-.026-.084-.007-.007-.019-.068-.032-.079-.023-.019-.068-.059-.137-.093-.065-.032-.11-.032-.135-.04-.018-.003-.076.014-.084.014-.033-.004-.073-.004-.076.036a.199.199 0 0 0-.107-.05.23.23 0 0 0-.015.169c-.054.003-.112.143-.163.128.021.038.036.055.05.059-.044.083-.062.181-.115.183.032.045.056.066.075.07-.006.045-.007.092-.01.136l-.08-.027c-.03-.002-.063-.002-.073-.002a.337.337 0 0 0-.075-.014c-.073-.006-.125-.125-.25-.195-.088-.054-.092-.1-.092-.196 0-.08.037-.153.033-.225-.003-.01-.014-.052-.026-.075-.013-.048-.082-.09-.12-.08.02.015.045.036.05.081a.22.22 0 0 0-.036.044c-.017.024-.024.052.002.079.007.007.007.011.007.017 0 .011-.004.024-.007.038-.002.013-.006.007-.01 0-.018-.06-.046-.14-.095-.144a.25.25 0 0 0-.04-.004c.003-.002.003-.007.003-.009 0-.059-.064-.108-.135-.036.017.002.045.004.054.024-.006.02-.013.057-.015.061-.003.06.042.085.105.085.011 0 .019.006.02.014l.008.023c.004.011-.002.009-.01.009-.104-.047-.149 0-.15.05v.042c-.036.023-.046.082.023.123-.002-.017-.003-.057.023-.066.006 0 .01-.002.015-.006a.105.105 0 0 0 .028.027c.009.005.024.002.061-.023.008-.004.014-.004.023 0l.032.02c.007.008.006.015.002.02-.073.067-.06.137.032.152.013.002.015.01.015.021-.008.132-.18.106-.17-.024-.096.151.074.264.196.187.01-.006.015-.002.017.006.005.023.02.045.042.047-.002-.008.008-.026.026-.026.01 0 .01.005.01.013.003.036.014.077.063.083-.007-.026 0-.051.015-.051.024 0 .108.19.295.296-.005-.019.073-.049.115-.07.007.034.026.07.061.085l.034-.017c-.014.09.091.178.072.178-.028 0-.205-.023-.263.011-.088.048-.296.125-.36.036-.02-.032-.016-.06-.042-.106-.02-.035-.047-.056-.07-.058h-.046c-.038-.036-.116-.043-.148-.015.028.004.058.01.082.053-.01.016-.02.04-.023.043-.018.028-.007.073.126.12.007.002.02.014.009.02a.066.066 0 0 1-.075-.01c-.052-.038-.06-.1-.123-.06l-.04.016a.054.054 0 0 1-.016-.003c-.059-.004-.148.068-.109.137a.102.102 0 0 1 .073-.06.304.304 0 0 1 .013.042c.014.072.043.123.182.03.017-.011.015.002.011.01-.033.056-.127.117-.052.16.002.002.017.017.03.025-.002.005-.005.01-.005.017-.012.077.073.137.118.136-.02-.025-.051-.065-.043-.123.015.007.035.013.04.011.067-.026.035-.11.074-.136.012-.007.017 0 .017.01.007.035.02.111.1.102.078-.008.113-.07.106-.114-.004-.007.002-.01.007-.007.028.019.049.047.04.087a.145.145 0 0 0 .058-.059c.016.04.02.09-.033.142.033-.01.11-.05.131-.138a.158.158 0 0 1 .028.045c.004-.002.004-.004.006-.007.026.009.08.014.16-.002.008-.002.01.002.01.007-.007.03-.007.066.01.083 0-.011.02-.045.033-.045.023 0-.003.081.045.13.019-.205.127-.122.254-.207.015-.01.017-.004.014.007a.112.112 0 0 1-.056.068c.047.038.234-.081.234-.157 0-.02.07-.026.13-.037.132.007.115-.1.169-.09.75.099.32-.328 1.203-.243.043.004.062-.047.1-.083-.047.085-.05.263.04.28a.353.353 0 0 1 .154.064c.006.01 0 .013-.007.015a.319.319 0 0 0-.124.033c-.136.091-.142-.21-.286-.154a.283.283 0 0 0-.041.032c-.059 0-.137.068-.122.126a.15.15 0 0 1 .092-.05v.03c-.004.022.007.047.054.047.028 0 .035-.015.056-.015.01 0 .015.008.015.017 0 .059-.18-.03-.146.123 0 .006.018.034.028.047-.008.045.032.091.112.068-.017-.013-.045-.032-.04-.058.015.003.033.003.038.003.006 0 .013-.005.019-.026 0-.004.002-.006.009-.006.007.002.015.008.015.015 0 .01-.014.017-.012.033 0 .003.008.043.015.049-.01.054.073.115.155.058-.022-.003-.075-.014-.082-.041.017-.008.037-.014.037-.015.015-.01.02-.03.02-.055 0-.015.006-.017.014-.017l.037-.002c.019 0 .024.008.026.012.019.036.06.068.116.047.096-.034.012-.119.092-.138a.202.202 0 0 1 .058 0c.077.019.19.019.21-.019.022-.037.011-.177-.073-.224-.047-.025.003-.085-.042-.155a.7.7 0 0 0 .288.07c.21 0 .276-.03.377-.09.108-.065.224-.032.256-.025.024.003.045.016.035.052-.032.11 0 .121-.026.172-.024.042-.11.006-.176.004a.078.078 0 0 0-.065.028c-.052.012-.118.059-.12.119a.225.225 0 0 1 .098-.05v.024c.003.075.082.1.132.049.008-.008.028 0 .017.013-.049.03-.129.102-.067.13.002 0 .018.012.035.021-.01.044.023.091.058.097-.011-.023-.011-.038.014-.087h.037c.047.002.032-.093.086-.123.007-.004.014-.002.01.006-.023.051-.038.119.009.134l.037.01c.01.04.06.071.126.037-.015-.006-.05-.024-.053-.045a.344.344 0 0 0 .038-.05c.041-.115-.054-.116-.049-.164.004-.054.11-.017.12-.134a.067.067 0 0 0-.042-.068l-.002-.005c.034 0 .064.007.083-.038-.083.006-.049-.062-.058-.11M40.526 26.75c.015-.03.028-.055.045-.055.028.002.045-.003.054-.032.013-.036-.019-.05-.049-.072.032-.01.049-.023.032-.038-.02-.018-.05.014-.056-.003-.007-.015.015-.025.024-.036.014-.013.026-.011.045 0l.14.066c.015.01.026.015.024.038 0 .011.008.042-.009.045-.013.006-.011-.042-.035-.045-.025-.006-.023.019-.01.051-.033-.011-.065-.03-.08.002-.014.026-.007.047.013.07.01.013 0 .04-.011.07-.012.032-.051.075-.1.052-.05-.03-.044-.083-.027-.113m.162-.355c-.022.04-.07.072-.108.036-.036-.038.004-.05-.042-.12.043.031.126.08.15.084m.105.055a.873.873 0 0 0 .17.07c-.08.014-.06.047-.108.045-.051-.002-.072-.07-.062-.116m1.321-.022c.012.028.045.054.103.071.565.165 1.207-.262 1.55-.162-.446-.159-.725.113-1.151.023.249-.002.512-.05.527-.12-.194.127-.743-.086-.973.057a.117.117 0 0 0-.033.029c-.236-.006-.565-.012-.565.2 0 .44 1.173.181 1.538.181.28 0 .325.038.325.108 0 .106-.42.13-.626.13-.319 0-1.277-.164-1.859-.049.047-.096.15-.22.094-.287.054-.023.09-.066.094-.113a.205.205 0 0 0-.109-.05c.017-.026-.006-.056-.024-.079-.007-.006-.019-.066-.032-.075-.02-.017-.064-.055-.13-.085-.063-.033-.102-.033-.128-.04-.017-.002-.073.013-.08.011-.033-.002-.07-.002-.074.034a.182.182 0 0 0-.1-.043.2.2 0 0 0-.014.156c-.054.006-.109.138-.157.123.018.036.035.053.048.055-.042.08-.06.173-.11.177a.306.306 0 0 0 .045.05.917.917 0 0 0-.028.168l-.049-.017c-.01 0-.015-.002-.024-.004-.07-.004-.11.004-.228-.066-.086-.05-.09-.093-.09-.183 0-.078.035-.146.03-.217a.408.408 0 0 0-.019-.068c-.017-.052-.08-.087-.118-.078.021.015.043.034.047.08a.308.308 0 0 0-.033.037c-.015.023-.024.053 0 .08.007.003.009.009.009.014 0 .008-.002.021-.007.038-.002.014-.006.006-.01 0-.016-.056-.042-.136-.093-.14-.004 0-.024-.003-.034-.001 0-.004.002-.006.002-.014 0-.055-.061-.1-.127-.028.014 0 .04.005.05.02a.383.383 0 0 0-.014.06c-.004.056.042.079.101.08a.02.02 0 0 1 .019.01c.002.01.004.017.01.026 0 .01-.006.008-.012.006-.1-.043-.142.002-.144.045 0 .004-.002.03.002.042-.036.024-.043.076.02.119 0-.019-.002-.055.023-.064.004-.002.01-.002.013-.004.01.01.026.021.026.023.01.006.027.002.059-.02a.051.051 0 0 1 .024 0c.007.007.018.013.028.02.009.006.007.012.002.017-.07.066-.056.13.033.145.01.004.013.012.013.023-.007.121-.172.098-.162-.024-.09.142.069.25.19.177.008-.005.01 0 .012.004.007.024.019.045.041.047 0-.007.01-.028.026-.028.01 0 .012.01.012.015 0 .03.011.074.058.077-.006-.023 0-.049.017-.049.02 0 .018-.052.168.03a.11.11 0 0 0 .054.061l.112-.019c-.013.085.012.215-.007.215-.024 0-.194-.022-.25.01-.083.045-.283.117-.341.034-.024-.03-.017-.057-.043-.102a.105.105 0 0 0-.063-.053h-.047c-.036-.036-.109-.042-.139-.015.024.004.052.01.077.05-.01.016-.019.037-.023.041-.014.029-.007.07.122.115.006.002.017.015.006.021a.065.065 0 0 1-.07-.01c-.048-.039-.058-.093-.118-.061-.003.003-.022.011-.039.02-.004-.001-.01-.005-.015-.005-.054-.004-.142.066-.104.132.009-.015.032-.052.073-.056.003.013.01.032.013.04.011.065.037.118.172.028.015-.012.015.002.01.007-.03.055-.119.112-.053.157.004 0 .017.013.032.023a.062.062 0 0 0-.005.015c-.012.071.067.13.112.126a.134.134 0 0 1-.043-.113c.017.004.036.013.042.01.06-.025.032-.106.069-.129.011-.006.015-.002.019.007.002.033.016.104.095.099.071-.008.107-.068.097-.11-.002-.004.002-.01.01-.004a.08.08 0 0 1 .037.082c.013-.008.043-.027.052-.057a.116.116 0 0 1-.03.136c.03-.012.109-.047.124-.13.013.009.022.028.028.04l.007-.008c.026.011.075.019.151-.004.008 0 .012.002.012.008-.01.032-.01.064.007.08 0-.007.019-.04.03-.04.023 0-.002.077.045.122.017-.192.172-.147.292-.226.015-.01.015-.008.011.005a.102.102 0 0 1-.05.064c.13.082.265-.1.303-.198a.1.1 0 0 0 .035-.038c.01.02.012.04-.02.055.127.011.11-.089.162-.087.382.038.086-.319.704-.213.041.007.116-.036.15-.068-.045.083-.05.25.039.266a.38.38 0 0 1 .146.059c.007.009 0 .013-.007.014a.415.415 0 0 0-.118.03c-.13.09-.133-.195-.273-.143a.21.21 0 0 0-.038.03c-.056-.001-.13.067-.118.123a.162.162 0 0 1 .09-.052c-.002.013-.002.028-.002.032-.002.021.006.045.052.045.028 0 .034-.013.054-.013.01 0 .017.006.017.015 0 .052-.172-.029-.144.115.004.006.019.032.028.043-.005.043.03.089.107.064-.014-.01-.042-.03-.036-.052.012.003.03.003.034.003.007 0 .014-.005.018-.023 0-.005.002-.007.01-.007.005.002.013.007.013.013 0 .01-.01.017-.01.033 0 .002.008.04.014.045-.007.053.071.108.148.057-.023-.004-.073-.014-.077-.04.015-.008.034-.017.038-.017.011-.008.015-.028.015-.05 0-.014.007-.016.014-.016l.036-.001c.016-.002.022.003.024.011.016.034.056.064.108.045.094-.031.015-.115.088-.128a.119.119 0 0 1 .058-.004c.071.02.18.017.2-.017.021-.037.01-.17-.07-.215-.045-.026.005-.08-.042-.147.082.034.165.068.275.068.2 0 .294-.03.397-.085.114-.062.217-.032.249-.024.022.003.041.015.022.047-.046.104-.016.115-.05.164-.032.038-.11.007-.167.004-.033-.002-.065.02-.07.028-.051.007-.123.055-.136.113.023-.014.064-.041.105-.047-.004.008-.004.021-.004.021-.011.074.062.096.118.05.006-.01.026 0 .012.007-.047.033-.137.1-.086.128.005.002.018.012.033.017-.015.043.006.09.041.096-.007-.024-.007-.04.025-.087l.035.002c.041.002.047-.088.103-.117.007-.002.013-.002.007.006-.03.051-.056.113-.013.128.002 0 .02.004.033.004.002.043.045.072.112.04-.009-.006-.041-.023-.042-.042a.194.194 0 0 0 .042-.047c.06-.11-.028-.11-.014-.157.011-.051.106-.017.134-.125.004-.019.004-.054-.028-.072-.003 0-.003-.001-.002-.003h.002c.03 0 .058.007.085-.034-.08.007-.04-.064-.04-.104 0-.007 0-.013.01-.019.03-.017.056-.054.063-.115-.032.036-.131.077-.122.002 0-.002.01-.055-.075-.04-.134.01-.325-.015-.574-.038-.017-.002-.03-.014 0-.016.25-.021.769-.042.769-.244 0-.094-.061-.223-.47-.2-.437.02-1.422.166-1.422-.083 0-.127.27-.108.421-.098M40.677 28.417c-.047-.002-.067-.066-.056-.108a.636.636 0 0 0 .16.064c-.074.015-.055.048-.104.044m-.071.092c-.014.004-.012-.038-.036-.043-.02-.004-.02.017-.007.047-.032-.011-.061-.026-.077.004-.013.028-.009.043.012.066.011.013.002.038-.01.068-.01.028-.048.072-.095.047-.045-.028-.04-.08-.028-.108.017-.026.028-.049.043-.049.03.002.043-.005.054-.033.011-.033-.02-.046-.047-.065.032-.009.047-.02.028-.037-.016-.02-.046.013-.05-.002-.01-.015.013-.026.022-.034.015-.015.026-.01.043 0l.13.06c.016.012.027.02.027.037 0 .013.004.04-.01.043m-.085-.252c-.02.036-.066.068-.101.03-.036-.035.002-.044-.04-.112.042.03.118.077.14.083m1.157 0c.013.028.045.058.107.075.56.16 1.203-.266 1.545-.168-.443-.153-.722.117-1.149.027.25-.002.513-.053.526-.121-.193.126-.743-.085-.971.058a.158.158 0 0 0-.045.042c-.174.04-.322.134-.322.26 0 .169.212.214.61.199.391-.017.831-.064.831.007 0 .1-.28.195-.658.195-.289 0-.786-.195-1.41-.034v-.007c.043-.108.178-.268.12-.338.05-.021.083-.062.084-.106a.167.167 0 0 0-.1-.045c.018-.027-.002-.055-.025-.074-.003-.004-.014-.064-.028-.075a.562.562 0 0 0-.12-.083c-.063-.029-.1-.027-.127-.036-.014 0-.069.013-.074.013-.029-.002-.064-.002-.072.033a.156.156 0 0 0-.093-.044.205.205 0 0 0-.014.152c-.05.001-.1.13-.146.117.015.033.03.049.045.05-.04.076-.056.165-.105.169a.17.17 0 0 0 .053.052c-.03.112-.038.253-.026.353-.087-.092-.22-.304-.31-.354-.08-.046-.082-.087-.082-.17 0-.074.034-.142.028-.21-.001-.006-.01-.045-.02-.064-.014-.045-.075-.081-.109-.072.017.014.04.033.045.076a.15.15 0 0 0-.033.037c-.015.021-.021.048.002.072.003.006.003.01.003.017 0 .006 0 .019-.002.032-.003.014-.007.006-.009 0-.019-.052-.045-.126-.09-.13-.003 0-.024-.004-.033-.002.002-.003.002-.007.002-.011 0-.051-.058-.095-.122-.03.015.001.042.007.05.02a.532.532 0 0 0-.013.055c-.005.055.036.077.094.077.01 0 .017.004.019.012 0 .007.003.013.005.023.002.011-.002.01-.007.003-.095-.04-.137.006-.137.046 0 .003-.003.028 0 .04-.032.024-.039.071.023.113-.002-.02-.004-.053.019-.059.004-.004.01-.006.013-.007l.024.024c.01.006.026 0 .058-.021.006-.002.01-.004.021 0 .008.006.017.01.028.019.006.004.004.011 0 .015-.063.064-.052.122.032.14.012.001.015.009.015.018-.01.12-.165.095-.157-.023-.084.134.067.238.18.168.007-.003.011-.002.011.006.01.023.02.04.041.043-.001-.007.006-.026.024-.026.008 0 .01.006.01.011.002.033.013.072.056.078-.007-.024 0-.047.013-.047.023 0-.002.18.167.277.028.104.11.155.2.147.028.07.07.136.058.136-.024 0-.222-.02-.279.006a.496.496 0 0 1-.15.057c0-.002-.033.011-.033.01-.06.01-.112.007-.138-.033-.017-.026-.014-.055-.038-.094-.018-.033-.042-.052-.061-.053l-.047-.002c-.03-.03-.1-.036-.129-.011.024.002.05.009.073.047a.225.225 0 0 1-.02.04c-.015.024-.004.066.115.11.006.003.015.012.006.016a.068.068 0 0 1-.07-.008c-.044-.037-.051-.092-.108-.058-.004.002-.023.009-.037.019-.004-.002-.01-.006-.014-.006-.054-.004-.134.062-.099.128a.09.09 0 0 1 .068-.058c.003.014.009.032.009.037.013.066.04.114.166.029.014-.008.014.003.01.007-.03.053-.116.108-.05.147l.029.023a.027.027 0 0 0-.004.014c-.013.071.064.122.105.12-.017-.018-.049-.056-.04-.107.015.006.033.01.038.01.058-.025.03-.099.063-.123.012-.006.017-.002.02.009.003.028.016.098.09.09.066-.005.1-.063.096-.103-.003-.004 0-.008.004-.004.024.015.045.04.037.078a.168.168 0 0 0 .052-.053c.014.034.017.081-.032.127a.168.168 0 0 0 .118-.123.073.073 0 0 1 .026.04c.002-.002.002-.004.008-.006.022.01.07.015.14-.004.01-.002.011.002.011.008-.005.028-.005.06.008.075.002-.007.02-.04.032-.04.02 0-.002.07.04.115.016-.183.117-.109.23-.185.014-.007.014-.005.013.006a.115.115 0 0 1-.049.06c.043.003.17-.058.17-.124 0-.024.084-.1.109-.317a.191.191 0 0 0 .046 0c.154-.013.223-.127.377-.134-.036.045-.053.151-.05.22.006.09.111.18.141.207.006.009.002.011-.005.013a.414.414 0 0 0-.115.028c-.121.084-.125-.183-.256-.134a.108.108 0 0 0-.035.027c-.054-.002-.126.062-.113.117a.124.124 0 0 1 .085-.05l-.002.029c-.002.02.005.043.05.043.027 0 .033-.015.051-.015.008 0 .017.008.017.017 0 .05-.165-.03-.133.11 0 .003.014.03.023.04-.006.042.03.086.1.063-.013-.012-.04-.03-.033-.053.014.002.028.002.033.002.005 0 .013-.004.018-.02 0-.005.002-.008.008-.008.007.003.013.007.013.013 0 .008-.011.015-.01.033 0 .001.008.037.014.041-.007.05.066.104.139.052-.02-.002-.068-.01-.072-.034.015-.008.032-.014.034-.015.011-.007.015-.028.017-.05 0-.013.007-.013.011-.013.011-.002.023-.002.035-.003.015-.002.02.005.024.011.015.032.053.06.101.043.09-.03.015-.107.085-.122a.071.071 0 0 1 .052 0c.069.015.125.026.144-.008.019-.033.01-.16-.067-.202-.043-.023.065-.302-.146-.432.1.024.419.07.473-.008.095.021.204.087.217.11.015.017.02.04-.01.057-.085.052-.07.083-.117.096l-.006.002c-.03-.026-.058-.07-.086-.085-.03-.015-.061-.004-.063 0-.049-.012-.116.005-.137.056.02-.005.06-.016.098-.005-.006.01-.006.019-.008.023-.003.014.002.03.019.045h-.002.004c.002 0 .003.002.003.004.006.003.006.011-.003.011-.047-.007-.142-.013-.12.047l.01.034c-.033.028-.043.08-.023.11.009-.025.014-.036.063-.053.006.01.017.02.023.023.024.032.073-.04.125-.023.004.002.01.007.002.01-.047.02-.094.054-.075.096a.194.194 0 0 1 .019.03c-.019.034-.007.087.054.108-.004-.014-.015-.046-.007-.066.02 0 .048-.004.056-.008.093-.05.033-.113.065-.145.036-.03.079.064.154-.006a.066.066 0 0 0 .016-.076c-.001-.005 0-.007.004-.007v.002c.019.019.034.047.071.028-.054-.049.008-.073.03-.111.004-.008.008-.012.015-.008.03.004.065-.003.101-.052-.04.007-.148-.057-.08-.083.095-.038.112-.09.07-.142-.074-.098-.233-.104-.239-.217.068 0 .13-.002.142-.004.489.006.8-.138.79-.289-.006-.128-.139-.175-.487-.15-.428.03-.987.082-.987-.063 0-.073.095-.132.205-.17M26.12 8.09c-.44.347-1.024.03-1.287-.423.602-.251 1.302-.534 1.775-.83-.436.675-.138.977-.488 1.253m-.1 4.61c-.564.248-1.004-.254-1.114-.594-.109-.345-.2-.627-.068-.759.245-.242.322-.43.174-.736-.17-.351-.539-.184-.934-.087.184-.336.199-.574-.054-.542-.3.034-.305.525-.471.466-.169-.058-.073-.341-.073-.49.002-.21.135-.284.342-.376l1.64-.627c.21-.078.357-.117.503.03.105.108.368.245.286.404-.08.16-.421-.19-.662-.004-.202.155-.024.316.338.427-.353.208-.731.346-.61.72.103.319.285.402.63.405.186 0 .319.27.472.591.16.323.206.91-.398 1.173m-3.118-3.334c-.441.04-.43-.387-1.205-.576.547-.112 1.245-.39 1.855-.623.114.511-.094 1.148-.65 1.199m8.475 13.48c-.071-.488-.013-.951-.565-1.602-.54-.637-2.341-2.64-2.908-3.288.142-.014.312.015.662.35.217.207.758.74 1.146 1.12a11.245 11.245 0 0 1 2.063-3.44c.16-.177.32-.347.485-.51-.39.096-.797.264-1.15.504-.023-.56-.152-1.084-.53-1.437.144-.78.018-1.724-1.716-2.884.887.216 1.413 1.028 2.088.406-.608-.019-.621-1.361-2.818-2.471.838-.02 1.495 1.348 2.466.574-.916-.112-1.22-1.752-2.87-2.26.57.066 1.162.349 1.654-.323-.572.136-.911-.399-1.525-.446.232-.72.176-1.16-.07-1.7-.43.031-.871.165-1.187.428-.051-.395-.46-.42-.826-.39.02.173.1.42-.086.454-.295.056-1.276.324-2.034.62-.76.297-1.624.841-1.875 1.015-.151.106-.284-.143-.378-.26-.267.228-.53.526-.333.824-.42.04-.887.15-1.281.465 0 .493.406.974 1.01 1.24-1.018 1.022-.097 1.968-.994 2.86 1.262.046 1.043-1.727 1.679-1.972-.066 1.246-.754 1.467-.754 2.811 0 .718.423 1.498.042 1.97 1.058-.293.779-2.648 1.435-3.358.115.405.05.8-.086 1.201-.368 1.1.04 2.602-.535 3.091.943-.094 1.159-1.442 1.793-2.209-.67 1.782-1.402 4.858-2.382 6.303-1.834 2.498-2.914 5.545-4.6 5.545-.74 0-1.3-.457-1.3-1.405 0-2.843 4.828-4.797 4.828-7.822 0-1.346-1.088-1.864-1.769-1.864-.46 0-1.014.23-1.48.618a1.567 1.567 0 0 0-.57-.127c-1.707 0-1.252 3.095-2.74 3.065.59.334 1.61-.314 2.204-1.182-.248 2.009-3.111 1.474-2.892 3.884.4-1.889 4.964-1.611 4.964-4.475 0-.323-.163-.593-.391-.807.342-.22.666-.304.963-.304.547 0 1.046.412 1.046 1.222 0 2.536-4.8 4.677-4.8 7.792 0 .523.152.963.398 1.309-.337.143-.685.075-.975-.265-.026.801 1.107 1.307 1.824.907.16.052.326.087.498.098-.217.598-.95.776-1.334.75 1.177.936 3.227-.293 3.115-1.352.934-.76 1.527-2.062 2.203-2.917-.042.2-.077.396-.107.59-.687 1.264-1.332 2.395-1.512 4.06-.151 1.391-.85 2.647-1.819 2.647-.211 0-.561-.28-.726-.142-.303.261-.015.537-.015.797 0 .397-.757.791-.757 2.013 0 .551.316 1.21.196 1.575.309-.16.722-.682.89-1.356.334 1.61-.682 1.543.05 2.977.091-.473.56-.672.847-.473.288.198.152.336-.06.549-.213.215-.41 1.284.562 1.223-.182-.122-.195-.405.286-.506.668-.135.862.174 1.575.174.438 0 .56-.581.908-.581s.348.273.228.474c.56-.151.664-.46.664-.778 0-.321-.256-.52-.06-.642.197-.123.848.013.592.55.335-.06.514-.305.514-.718 0-.414-.468-.657-.91-.58-.072-.26-.452-.4-.8-.4-.788 0-.666.627-1.207.627-.864 0-1.703-1.133-1.703-3.044 0-1.024 1.093-1.284 1.864-1.62.773-.336 2.127-1.175 2.937-2.547.637-1.077.655-2.255.573-3.65 1.089.629 1.216 1.537 1.216 2.196 0 .855-.44 1.2-.784 1.36-.292.136-.39.079-.423.254-.037.22.109.344.234.41.393.204.313.586.423.993.11.412.472 1.061 1.082 1.535.063-.254.046-.662.011-1.193.837.415.167 2.111 1.79 2.111-.299-.172-.22-.62-.046-.681.172-.065.391.11.704.553.314.441.23.406.999.406.767 0 .42-.268.827-.268.41 0 .376.474.159.823.687-.21.894-.735.662-1.277.603-.328.923.138 1.01.47.598-.6 0-1.327-.465-1.374.014-.223-.19-.46-.44-.476-.25-.015-.496-.03-.767-.015-.283.017-.44.429-.77.429-1.015 0-3.032-1.862-3.032-2.668s1.927-1.295 1.927-2.545c0-1.634-1.59-2.19-2.928-3.24.477-.537 1.869-.665 2.659-.276.09-.455.38-.343.484-1.127.283.69-.093 1.256.197 1.548.224-.33.8-.283.765-1.138.176.536-.223 1.353.176 1.71.07-.44.33-.52.494-.52.166 0 .309.116.309.377 0 .653-.779.476-.779 1.212 0 .31.39.416.39.618 0 .2-.32.51-.706.249.127.285.384.534.717.534.351 0 .73-.287.877-.651.184.466.043.985-.288 1.053.35.18 1.186.012 1.09-1.07.47.081.72.404.439.978.387-.096.74-.287.74-.703 0-.32-.312-.54-.26-.981.045-.361-.445-.705-.516-1.19M20.626 5.483a.313.313 0 1 0-.627 0 .313.313 0 1 0 .627 0M20.516 4.637a.32.32 0 0 0-.316-.319.316.316 0 0 0-.31.32.313.313 0 1 0 .626 0M20.695 4.263a.318.318 0 0 0 0-.636.319.319 0 0 0 0 .636M21.532 4.207a.315.315 0 0 0 .314-.317.315.315 0 0 0-.314-.317.315.315 0 0 0-.313.317c0 .176.14.317.313.317M25.106 3.62a.314.314 0 0 0 .445-.002.324.324 0 0 0 0-.447.312.312 0 0 0-.445 0 .319.319 0 0 0 0 .449M25.035 2.944a.315.315 0 0 0 0-.45.311.311 0 0 0-.443 0 .32.32 0 0 0 0 .45.31.31 0 0 0 .443 0M24.202 2.806a.32.32 0 0 0 0-.448.316.316 0 0 0-.447-.002.32.32 0 0 0 .002.45.315.315 0 0 0 .445 0M23.49 3.34a.318.318 0 0 0 0-.446.312.312 0 0 0-.447-.002.32.32 0 0 0 .002.45.314.314 0 0 0 .445-.002M21.485 2.903l.25.553.32-.383c.014.005.027.01.038.011.028.187.042.512.042.691 0 .225.177.406.398.406.22 0 .4-.181.4-.406a.4.4 0 0 0-.21-.355 3.266 3.266 0 0 1-.444-.417c.007-.017.014-.032.018-.051l.534.047-.212-.57-.396.341c-.008-.003-.015-.007-.021-.011l-.03-.591-.55.213.366.438a.133.133 0 0 0-.02.046zM25.126 3.89c.122.193.165.283.174.438-.094-.04-.204-.136-.327-.302l.065.74c.088-.132.157-.22.262-.266-.026.481-.217.68-.38.714a.308.308 0 0 1-.374-.248c-.04-.213.144-.347.331-.155.033-.445-.32-.438-.475-.249.183-.428.11-.712-.268-.942-.236.4-.135.663.163.969-.292-.15-.552.102-.292.426.054-.285.3-.219.357.008.051.194-.136.445-.449.54-.45.138-.597-.155-.707-.4.097-.065.33-.042.588.124l-.218-.723a.74.74 0 0 1-.432.44c-.013-.212.139-.635.139-.635l-.865.355s.4.195.537.357a.726.726 0 0 1-.613-.013l.346.672c.067-.3.219-.48.335-.504.09.255.187.566-.229.787-.292.151-.595.102-.696-.072-.118-.2.015-.42.25-.254-.04-.418-.4-.414-.504-.1.002-.431-.107-.69-.556-.812-.11.43.035.687.462.866-.241-.028-.5.215-.168.512 0-.27.223-.304.346-.12a.313.313 0 0 1-.101.439c-.138.09-.414.083-.763-.246.104-.04.219-.024.37.008l-.462-.576c.026.206.013.353-.028.446-.1-.114-.133-.214-.176-.437l-.354.32c.335.205.72.528 1.187 1.18.492-.31 1.375-.739 1.921-.963.549-.227 1.477-.54 2.042-.665-.116-.797-.064-1.297.035-1.68zM62.993 31.813c0-.56.455-1.016 1.012-1.016.556 0 1.009.455 1.009 1.016 0 .563-.453 1.02-1.009 1.02a1.017 1.017 0 0 1-1.012-1.02m-.346 0c0 .755.61 1.373 1.358 1.373.749 0 1.357-.618 1.357-1.373 0-.754-.608-1.367-1.357-1.367-.748 0-1.358.613-1.358 1.367M58.196 34.294c-.385-.072-.659-.363-.61-.648a.45.45 0 0 1 .195-.283.795.795 0 0 1 .6-.111c.352.064.616.32.616.581a.275.275 0 0 1-.007.066c-.051.288-.406.463-.794.395m-.614-1.218a.791.791 0 0 0-.336.506.818.818 0 0 0 .207.686c.169.189.41.32.681.372.274.047.545.01.766-.11a.798.798 0 0 0 .432-.568c.086-.476-.312-.948-.889-1.056a1.15 1.15 0 0 0-.86.17M50.035 14.661c0-.176.103-.38.284-.521a.702.702 0 0 1 .517-.16c.075.009.18.04.253.135a.379.379 0 0 1 .067.285.741.741 0 0 1-.283.463c-.265.208-.615.22-.767.023a.36.36 0 0 1-.071-.225m.071-.8c-.42.332-.546.887-.275 1.24.271.35.836.368 1.256.04.23-.181.38-.436.413-.697a.738.738 0 0 0-.136-.544.718.718 0 0 0-.483-.268 1.052 1.052 0 0 0-.775.229M56.509 32.706zm.006-.351a.433.433 0 0 1-.305-.145.84.84 0 0 1-.204-.586.823.823 0 0 1 .224-.572.443.443 0 0 1 .315-.134c.286.006.514.332.507.729-.004.228-.088.444-.227.574a.425.425 0 0 1-.31.134M55.99 30.8a1.162 1.162 0 0 0-.331.818v.028c0 .312.109.605.3.808a.78.78 0 0 0 .55.251.767.767 0 0 0 .555-.23c.208-.2.33-.498.333-.821a1.177 1.177 0 0 0-.224-.744.784.784 0 0 0-.623-.342.777.777 0 0 0-.56.232M49.62 21.073c-.354-.17-.54-.523-.415-.787a.437.437 0 0 1 .258-.22.806.806 0 0 1 .61.057.807.807 0 0 1 .423.446.44.44 0 0 1-.006.341.438.438 0 0 1-.256.218.795.795 0 0 1-.614-.055m-.271-1.337a.79.79 0 0 0-.457.399c-.208.438.05 1 .576 1.255.289.14.61.165.88.068a.787.787 0 0 0 .455-.396.803.803 0 0 0 .022-.608 1.17 1.17 0 0 0-.602-.648 1.148 1.148 0 0 0-.874-.07"/><path d="M59.183 25.971c-.223.317-.603.427-.85.251-.247-.177-.263-.576-.042-.891.222-.316.602-.429.85-.251.246.175.263.578.042.891m-1.598 2.547c-.223.317-.603.43-.85.253-.247-.174-.267-.574-.044-.891.219-.316.597-.43.847-.253.247.173.268.574.047.891M52.048 14.57l.012-.03c.189-.588.544-1.758.546-1.771l.013-.042.758.295-.099.037c-.14.057-.325.187-.526.37.137.036.33.027.457-.06l.11-.074-.327.829-.043-.078c-.047-.085-.193-.271-.335-.33a.696.696 0 0 0-.02.164c0 .306.21.446.419.553.363.187.583.21.673.067a.21.21 0 0 0 .023-.095.244.244 0 0 0-.066-.162c-.067-.074-.192-.132-.353-.062l-.051.02-.006-.054c-.022-.22.05-.35.11-.42a.383.383 0 0 1 .293-.128c.123 0 .24.078.314.204.043-.462.3-.794.724-.929l.04-.011.013.036c.052.149.077.287.077.417 0 .264-.109.502-.332.751.182-.033.345.014.423.13.064.099.083.21.057.316-.023.093-.092.223-.283.325l-.05.028-.01-.055c-.026-.141-.118-.234-.243-.254-.107-.014-.206.032-.25.115-.091.18.042.372.39.566.42.238.69.034.85-.198-.124-.023-.307.011-.487.126l-.131.084.539-1.018.02.117a.769.769 0 0 0 .203.387 1.25 1.25 0 0 0 .063-.368.688.688 0 0 0-.06-.293l-.054-.119 1.108.648-.13.011c-.194.02-.377.13-.559.336.204.053.378 0 .432-.019l.11-.041-.602.98.004-.157v-.032c0-.2-.06-.363-.135-.455a.77.77 0 0 0-.08.323c0 .179.082.366.335.519.342.207.57.226.679.054.05-.08.04-.187-.026-.272-.075-.1-.204-.134-.337-.086l-.054.016v-.054c-.01-.217.067-.342.135-.408a.388.388 0 0 1 .3-.112c.156.012.269.148.325.307.151-.48.411-.72.872-.807l.041-.007.01.038c.016.084.025.168.025.249 0 .336-.159.63-.46.848.146.003.268.062.331.173a.402.402 0 0 1 .056.202c0 .04-.007.08-.018.117-.03.09-.105.216-.305.306l-.052.023-.006-.054c-.02-.174-.133-.255-.23-.278-.101-.02-.197.015-.242.094-.08.148.05.329.391.552.23.147.498.28.816-.006-.118-.1-.35-.132-.453-.132h-.084l.547-.699-.01.134-.002.025c0 .149.085.31.18.404.043-.191.063-.359.063-.497a.848.848 0 0 0-.01-.147l-.016-.106.633.514-.03.032c-.008.01-.837.906-1.246 1.363l-.023.024-5.683-3.31zm6.697 7.605a.43.43 0 0 1 .127-.31l.002-.001a.426.426 0 0 1 .317-.11.812.812 0 0 1 .554.27.838.838 0 0 1 .233.574.441.441 0 0 1-.127.312h-.002a.423.423 0 0 1-.316.111.803.803 0 0 1-.552-.271.824.824 0 0 1-.236-.575m2.431 11.28a.834.834 0 0 1 .363-.502.801.801 0 0 1 .597-.136.439.439 0 0 1 .284.185h.002a.45.45 0 0 1 .054.332.84.84 0 0 1-.363.503c-.329.217-.726.196-.883-.045a.444.444 0 0 1-.054-.336M49.61 16.462a.715.715 0 0 1-.211.483.365.365 0 0 1-.259.1c-.226-.013-.404-.277-.404-.585v-.048a.703.703 0 0 1 .208-.48.362.362 0 0 1 .264-.103.353.353 0 0 1 .247.132c.108.121.164.308.155.5m3.576-7.416c.19-.364 0-.923.662-.923.328 0 .618.328 1.01.457-.637.054-1.214.2-1.672.466m10.423 9.28c.441 1.224 1.32 1.664 1.989 1.35-1.497-.175-.283-2.76-2.21-2.76-.108 0-.215.01-.312.032-.326-.347-.7-.493-1.254-.493-.818 0-2.221.795-2.221 2.436 0 3.533 4.066 3.844 4.066 6.97 0 .911-.681 1.476-1.447 1.476-.683 0-1.235-.776-1.809-1.985-.275-.577-.863-1.369-1.491-2.192.185.132.396.21.602.213a.776.776 0 0 0 .565-.205.78.78 0 0 0 .238-.555c.002-.012.002-.023.002-.033 0-.28-.12-.566-.33-.795a1.18 1.18 0 0 0-.797-.383.79.79 0 0 0-.565.21.784.784 0 0 0-.237.555c-.002.01-.002.02-.002.03 0 .123.022.242.065.36-.874-1.151-1.688-2.286-1.688-2.905 0-.55.375-1.027.837-1.609.018.015.157.09.157.09l.123-.135c.165-.181.504-.555 1.205-1.314l.042-.047-.002.001.17-.179-.436-.355c.114-.264.215-.553.292-.869.137.569.423.931.822.818-.264-.587.27-1.373-.08-2.811.332.555.811.85 1.154.747-.9-.81.267-1.933-.906-3.674.387.13.638.057.808-.136-1.07-.15-.582-1.531-2.458-2.022.467-.085.739-.362.67-.61-.496.363-.932-.672-2.558-.644-.101-.615-.665-1.26-1.305-1.574.12.475.01.904-.114 1.261L49.89 1.336c-.153-.147-.241-.181-.282-.128-.043.052-.04.15.06.258l4.554 5.763c-.344.117-.679.262-1.034.395a.62.62 0 0 0-.393.596c-.844.425-1.587.948-1.958 1.288-.278.259-.503.317-.256.899.094.217-.198.762.462.364.432-.262 1.413-.806 1.559-.464.077.18-.408.413-.743.54-.331.13-.69.387-.638.517.052.129.314-.007.333.129.017.154.125.288.256.288.133 0 .305-.28.412-.189.105.095-.054.724-.16.882.516-.064.847-.56.86-.946.011-.389.12-.481.198-.536.08-.052.174.416.066.695.273-.059.557-.421.516-1.091.14-.11.279-.191.384-.191.172 0 .516.48 1.008.48.898 0 1.4-.737 1.454-1.082.043-.28.023-.552-.127-.757.322.26.427.672.427.98 0 1.287-2.257 1.893-3.185 2.784-.036.033-.068.064-.103.099l-1.057-.416-.071.236c-.006.014-.017.055-.062.202a98.412 98.412 0 0 1-.543 1.747l.096.052c-.627.844-1.136 1.788-1.25 2.757a9.061 9.061 0 0 0-.77-.71c.029-.092.05-.193.055-.296.017-.287-.07-.561-.241-.754a.7.7 0 0 0-.487-.247.694.694 0 0 0-.514.19.805.805 0 0 0-.096.1c-.037-.03-.077-.058-.114-.088-.348-.272-.782-.595-1.044-.884-.112-.126-.225-.192-.462-.192-.09 0-.315-.01-.472-.01-.155 0-.247.121-.425.282-.1.086-.436.35-.776.611.163.159.318.325.47.499l.129.147c.15-.119.265-.206.346-.272.11-.09.256-.113.393-.113.134 0 .323.102.458.306.1.145.956 1.282 1.665 2.073-.08.024-.155.052-.224.081-.305.13-.992.102-1.295.08-.305-.027-.363-.103-.57.226-.08.124-.18.272-.281.396-.101.125-.182.269.033.635.314.532 1.09 1.939 1.35 2.573.256.637.559.739 1.053.943.497.204 1.34.69 1.44.804l.033-.487c-.146-.15-.618-.327-.797-.391-.178-.066-.227-.142-.01-.142.212 0 .807.215 1.224.384-.125-.474-.574-.997-.844-1.292-.36-.102-.72-.102-.866.011a.198.198 0 0 1-.202.227c-.137 0-.232-.119-.19-.25.045-.143.259-.192.212-.464-.045-.27-.38-.315-.595-.34-.301-.441-.651-1.087-.806-1.35-.16-.26-.064-.407.044-.496.259-.215.797.113 1.873.181.375.023.854.045 1.336.07.143 1.263.644 2.462 2.388 2.902.851.213 1.727.842 2.029 1.67-3.48-.065-4.025 1.306-4.025 2.595 0 1.471 1.225 1.388 1.225 2.489 0 .961-2.926 1.358-3.81 1.49-.75.111-1.177.28-1.538.642-.357.364-.724.713-1.377 1.372 0 0 .279.064.556.05l.496-.646c.146-.215.245-.397.344-.38.097.017.032.182-.084.414l-.406.69c1.716.118 1.828-.524 1.828-.79 0-.265-.421-.444-.176-.61.243-.166.455-.05.653.181.197.233.26.429.736.25 0 0 3.744-1.568 4.215-1.785.427-.193.305-.381.051-.593-.279-.232-.326-.612-.326-1.006 0-1.142.682-1.495 1.9-1.473a4.876 4.876 0 0 0-.038.55c0 1.784 2.674 3.528 3.397 3.528.321 0 .756-.241.784.833.018.791.176 1.35.035 2.262-.14.914-.4 1.053-.945 1.439-.54.387-1.055 1.593-1.285 1.848.241.16.501.18.703-.408.167-.485.36-.832.57-.95-.214.539-.37 1.324-.469 1.56.681.121 1.79-.508 1.79-.993 0-.487-.384-.447-.384-.77 0-.144.174-.304.383-.304.273 0 .481.219.502.32.303-.16.492-.464.482-1.176a27.804 27.804 0 0 0-.028-.862c.017.04.038.079.06.117a.795.795 0 0 0 .618.349c.25.02.516-.05.745-.202.27-.18.456-.446.512-.727a.915.915 0 0 0 .02-.174c0-.155-.044-.3-.124-.423a.767.767 0 0 0-.502-.332c-.28-.059-.595.01-.863.185a1.2 1.2 0 0 0-.495.663c-.056-.969-.126-1.885-.1-2.255.042-.545.062-.79-.12-.87-.18-.081-.381.223-.641.223-.262 0-1.048-.731-1.048-1.5 0-.772.825-1.767.786-2.822-.015-.329.19-.499.32-.2.16.362.395.85.747 1.248-.216 1.327 1.23 2.62 2.419 1.658-.588.09-.992-.44-1.252-.965a2.171 2.171 0 0 0 .496.018c.417.521 1.748.48 2.088-.817-.232.274-.71.477-1.055.432.5-.389.76-1.03.76-1.718 0-3.367-4.048-3.76-4.048-6.824 0-1.135.988-1.865 1.671-1.865.26 0 .464.08.627.202-.26.268-.402.676-.38 1.17.109 2.417 4.023 2.298 4.074 3.463.44-1.754-2.48-1.212-2.586-3.576M40.749 38.325c-.1-.187-.243-.293-.369-.293-.563 0-.344 1.498-1.014 1.498-.292 0-.447-.191-.447-.403 0-.21.144-.272.144-.441 0-.169-.13-.23-.275-.23-.146 0-.279.061-.279.23 0 .17.148.232.148.441 0 .212-.157.403-.45.403-.67 0-.448-1.498-1.012-1.498-.125 0-.27.106-.368.293-.11-.212-.176-.427-.176-.587 0-.274.211-.654.647-.654.753 0 .577 1.033.934 1.033.161 0 .277-.094.277-.253 0-.294-.522-.572-.522-.993 0-.421.382-.776.8-1.114.416.338.8.693.8 1.114s-.524.699-.524.993c0 .159.118.253.277.253.361 0 .183-1.033.936-1.033.44 0 .647.38.647.654 0 .16-.066.375-.174.587m-1.961 2.096a.369.369 0 0 1-.367-.37.37.37 0 0 1 .367-.37c.2 0 .365.166.365.37s-.165.37-.365.37m1.488-3.627c-.1 0-.191.013-.277.037V35.22c-.719-.026-1.565-.168-2.409-.389v2.007a.958.958 0 0 0-.292-.043c-.578 0-.935.489-.935.944 0 .429.249.825.466 1.07.108-.256.207-.468.35-.468.286 0 .157 1.443.993 1.48a.664.664 0 0 0 .615.895.663.663 0 0 0 .613-.894c.84-.038.698-1.48.986-1.48.142 0 .234.198.36.468.218-.246.465-.642.465-1.07 0-.456-.355-.945-.935-.945M35.543 7.341c-.25.488-.47.77-.436 1.146.033.376.425.642.61 1.02.167-.438.447-.77.414-1.116-.034-.343-.504-.798-.588-1.05M42.013 7.341c.253.488.47.77.436 1.146-.032.376-.423.642-.61 1.02-.168-.438-.447-.77-.415-1.116.035-.343.505-.798.589-1.05M31.817 7.06a.437.437 0 0 0 .436-.44c0-.245-.195-.443-.436-.443s-.438.198-.438.443c0 .244.197.44.438.44M32.109 7.69a.437.437 0 1 0-.874 0 .44.44 0 0 0 .438.442.44.44 0 0 0 .436-.442M32.323 8.761a.44.44 0 0 0-.438-.441.439.439 0 0 0-.436.441c0 .244.197.44.436.44a.439.439 0 0 0 .438-.44M34.239 4.957a.438.438 0 0 0 .438-.442.44.44 0 0 0-.438-.441.44.44 0 0 0-.438.441c0 .246.195.442.438.442M33.152 5.294a.439.439 0 0 0 .438-.44c0-.245-.197-.441-.438-.441s-.438.196-.438.441c0 .244.197.44.438.44M32.299 6.051a.44.44 0 0 0 0-.884.44.44 0 0 0-.438.443.44.44 0 0 0 .438.441M35.382 5.063a.44.44 0 0 0 0-.882.442.442 0 0 0 0 .882M36.465 5.38a.44.44 0 0 0 .436-.444.438.438 0 0 0-.436-.44.442.442 0 0 0 0 .884M37.485 5.863a.44.44 0 0 0 .438-.442.442.442 0 0 0-.438-.443.44.44 0 0 0-.436.443c0 .244.195.442.436.442M45.288 6.619a.437.437 0 1 0 .874 0 .438.438 0 1 0-.874 0M45.87 7.25a.439.439 0 0 0-.438.44.44.44 0 1 0 .878 0 .44.44 0 0 0-.44-.44M45.656 8.319a.44.44 0 0 0-.438.441.438.438 0 1 0 .876 0 .44.44 0 0 0-.438-.441M43.303 4.957a.442.442 0 0 0 0-.884c-.24 0-.436.2-.436.442 0 .246.196.442.436.442M44.393 5.294a.44.44 0 0 0 0-.881.438.438 0 0 0-.438.441c0 .244.195.44.438.44M45.246 6.051c.243 0 .438-.198.438-.441s-.195-.442-.438-.442a.439.439 0 0 0-.436.442c0 .243.195.441.436.441M42.162 5.063a.44.44 0 0 0 .438-.442.439.439 0 0 0-.438-.44.441.441 0 0 0 0 .882M41.079 5.38a.44.44 0 0 0 .438-.444.439.439 0 0 0-.438-.44.441.441 0 0 0 0 .884M39.622 5.421a.44.44 0 0 0 .438.442.439.439 0 0 0 .436-.442.44.44 0 0 0-.436-.443.44.44 0 0 0-.438.443M38.026 7.807h.488v-1.89a1.679 1.679 0 0 1-.488-.153zM39.52 5.766a1.752 1.752 0 0 1-.49.153v1.89h.49zM38.489 3.679v-1.12a1.385 1.385 0 0 0-1.074 1.12zM39.057 3.679h1.069a1.383 1.383 0 0 0-1.069-1.12zM37.43 4.221c.137.62.685 1.084 1.342 1.084.656 0 1.205-.464 1.341-1.084zM39.525 2.383c-.313-.248-.552-.604-.597-.978.358.064.756.324.996.638V.521c-.24.316-.642.576-.996.636.042-.366.266-.702.573-1.087h-1.456c.305.385.53.721.572 1.087-.357-.06-.757-.32-.995-.636v1.522c.238-.314.638-.574.993-.638-.044.374-.284.73-.596.978zM39.565 34.049a.54.54 0 0 1-.537-.542.54.54 0 0 1 .537-.542.54.54 0 0 1 .537.542.54.54 0 0 1-.537.542m-2.582-.802a.59.59 0 0 1-.586-.595.59.59 0 0 1 .586-.591.59.59 0 0 1 .59.59.59.59 0 0 1-.59.596m-.887-2.642-.144-.111c-.268-.204-.492-.2-.736.01-.112.095-.215.218-.316.335l-.15.174.101.081c.283.227.326.476.245.623a.221.221 0 0 1-.144.112c-.14.037-.338-.012-.542-.133l-.107-.066-.065.106a.802.802 0 0 1-.051.078c-.024.035-.049.071-.075.115-.12.213-.178.375-.178.508 0 .037.006.071.014.105.042.155.166.227.277.29l.067.039c.125.081.305.187.436.264a.758.758 0 0 1-.748.03c-.378-.182-.62-.617-.62-.834 0-.328.148-.744.416-1.172l.041-.066-.04-.067a2.953 2.953 0 0 1-.194-.381c.144.019.284.045.425.08l.07.016.05-.053c.166-.183.746-.772 1.281-.772.246 0 .494.125.682.342.136.159.224.348.248.532-.072-.054-.159-.119-.243-.184m-3.716.084-.34-.487.59-.419c-.039-.054-.293-.42-.332-.476-.06.04-.592.42-.592.42l-.34-.488 1.645-1.168.338.485-.59.423c.04.054.295.419.332.475l.593-.42.339.49zm-1.653-2.908c-.11-.289-.11-.58.002-.838.107-.247.31-.44.57-.542a.991.991 0 0 1 .78.015c.258.115.454.33.566.62.053.139.079.279.079.416a1.02 1.02 0 0 1-.653.955.989.989 0 0 1-.777-.01 1.09 1.09 0 0 1-.566-.616m10.408 4.91c-1.378-.348-3.017-.943-4.547-1.643l.001-.021c.043-.312-.073-.661-.31-.937-.238-.272-.552-.43-.87-.43-.14 0-.283.032-.418.08a6.727 6.727 0 0 1-.632-.652 7.631 7.631 0 0 1-1.35-2.368 8.45 8.45 0 0 1-.396-1.573c-.075.45-.604.974-1.465.986.015-.093-.01-.23-.088-.253-.228.255-.526.51-1.302.23.118.615.286 1.218.503 1.803a10.773 10.773 0 0 0 1.978 3.35c.279.319.574.615.881.887-.007.06-.011.12-.011.18 0 .326.312.841.76 1.06.366.182.765.134 1.122-.126.668.36 1.523.697 2.438.954 1.031.29 2.027.449 2.805.449.672 0 1.559-.32 2.433-.874.35-.223.68-.472.92-.7.036-.033.068-.065.096-.095-.681.098-1.707-.095-2.549-.308"/><path d="M32.147 27.44v-.006a.588.588 0 0 0-.037-.196c-.1-.255-.35-.372-.597-.276-.25.1-.356.35-.255.612a.484.484 0 0 0 .247.272c.107.047.23.047.348.002.18-.07.29-.221.294-.408M32.439 18.596c-.225-.115-.466-.036-.586.196a.451.451 0 0 0-.041.348.425.425 0 0 0 .215.249.41.41 0 0 0 .324.036.43.43 0 0 0 .262-.225.513.513 0 0 0 .05-.219.435.435 0 0 0-.224-.385M44.475 17.511l-.217.062.11.147zM47.076 21.621l-.185-.374-.004.004a1.62 1.62 0 0 0-.11.155c-.021.028-.04.06-.06.088.035.014.078.027.121.046.079.026.163.056.238.08M46.905 24.227c.037 0 .075.002.079-.096l.001-.115a4.65 4.65 0 0 0-.164-.004v.096c0 .05.011.085.024.1.01.008.023.02.06.02M36.753 14.681a.458.458 0 0 0-.354-.01c-.14.053-.237.133-.286.242a.5.5 0 0 0-.011.363c.037.1.189.419.617.26a.456.456 0 0 0 .302-.426.444.444 0 0 0-.03-.16.47.47 0 0 0-.238-.269"/><path d="M47.549 24.133c-.006.225-.071.4-.202.525a.641.641 0 0 1-.464.174.605.605 0 0 1-.438-.185c-.122-.129-.187-.316-.187-.544v-.102c-.073 0-.717-.011-.717-.011l.01-.597 2.011.038-.013.702zm-.313 2.432-.555-.104.127-.695-.148-.028-.121.674-.558-.104.123-.672-.162-.033-.13.72-.557-.102.236-1.305 1.98.365zm-.316.972-1.248.44.923.376-.216.538-1.865-.763.174-.428 1.233-.429-.913-.372.213-.536 1.866.759zm-1.195 2.438c-.092.14-.317.289-.47.35l.002-.003-.562-.383c.588-.187.625-.355.595-.383-.022-.025-.117.028-.233.085-.208.107-.528.266-.86.042a.619.619 0 0 1-.263-.399.646.646 0 0 1 .105-.49c.112-.169.333-.322.557-.401l.562.383-.092.02c-.271.065-.49.224-.545.295-.024.03-.037.063-.035.082 0 .003.002.01.011.015.05.033.197-.034.311-.087.225-.104.505-.232.786-.042a.603.603 0 0 1 .272.498c0 .14-.047.282-.14.418m-1.633 1.845-.402-.4.492-.507-.105-.106-.475.488-.406-.399.477-.489-.12-.119-.518.502-.402-.4.934-.921 1.431 1.422zm-5.052-8.176v-7.273a5.431 5.431 0 0 1 2.18.574c.747.374 1.417.91 1.993 1.591a7.612 7.612 0 0 1 1.351 2.37c.313.869.477 1.79.492 2.738zm-.252-7.71c-.429.01-.87-.24-.884-.815l-.002-1.214.59-.015v1.169c.005.168.028.188.052.217.065.06.138.087.236.083.118-.002.211-.034.264-.089.028-.028.052-.075.05-.243l-.003-1.15.59.007v1.2a.844.844 0 0 1-.212.59c-.154.165-.382.253-.682.26m-6.27 7.71c.015-.948.182-1.87.492-2.738a7.649 7.649 0 0 1 1.351-2.37 6.317 6.317 0 0 1 1.993-1.591 5.4 5.4 0 0 1 2.326-.576v7.275zm-.017-3.665a.956.956 0 0 1-.742-.073.973.973 0 0 1-.48-.578 1.048 1.048 0 0 1 .087-.797c.132-.259.348-.444.6-.527a.966.966 0 0 1 .743.078.973.973 0 0 1 .526.866c0 .172-.045.344-.135.512-.131.255-.343.44-.599.52m.03-3.182 1.516 1.199-.354.456-1.515-1.202zm1.478-1.443.373.408-.402.374.933 1.021-.42.391-.934-1.02-.4.374-.373-.406zm3.887.274-.255.553c-.43.102-.907-.01-1.012-.038a1.01 1.01 0 0 1-1.087-.662c-.097-.27-.092-.54.02-.78.117-.259.349-.46.65-.574.561-.206 1.136.057 1.34.616a.971.971 0 0 1 .061.343c0 .198-.06.395-.17.563.095-.002.271.032.453-.021m2.962-1.562-.397 2.047-.578-.117.399-2.045zm-7.043-.46c0-1.178 3.297-1.28 4.97-1.28h.003c1.673 0 4.968.102 4.968 1.28 0 .33-.205.606-.683.891-.823-.553-2.234-1.161-4.287-1.163-2.052.002-3.465.61-4.286 1.163-.48-.285-.685-.56-.685-.891m9.923 1.807.351.277-1.212 1.658-.488-.342.619-.815-.597.155-.097-.64-.571.828-.518-.28 1.17-1.704.394.211.133.854zm1.38 1.321.246.312L44.3 19.13l-.387-.535.194-.364-.387-.504-.34.11-.476-.45zm2.895 6.31a1.902 1.902 0 0 1-.576-.681c-.22-.076-.808-.287-1.063-.378 0 0-.118-.043-.136-.051l-.826.225-.153-.574.827-.225a18.963 18.963 0 0 1 .522-.672c-.208-.382-.404-.73-.537-.958a1.177 1.177 0 0 1-.187-.583l-.76.4.331.68-.509.253-.587-1.216 1.802-.89.078.152c.047-.062.096-.13.139-.202.058-.095.114-.168.172-.229a10.35 10.35 0 0 0-1.216-1.692 9.446 9.446 0 0 0-1.868-1.633c.367-.238.738-.587.738-1.165 0-.338-.137-.61-.382-.827.385-1.248 1.076-2.75 1.665-3.406l-1.238-.527c.321.493.342 1.069.273 1.409-.326-.227-.599-.537-.693-.944a5.512 5.512 0 0 1-.454 1.357c.355-.17.647-.247 1.008-.094a1.47 1.47 0 0 1-1.557.525c-.441-.106-.881-.342-.86-.688.013-.204.16-.453.436-.423.27.029.284.44.202.625.351-.202.72-1.25.168-1.404-.436-.123-.836.48-.979.944-.082-.56-.314-1.096-.752-1.063-.569.041-.385 1.102-.185 1.372.035-.372.236-.572.404-.559.152.01.354.121.32.46-.037.337-.514.547-1.063.547-.524 0-1.442-.165-1.528-1.182.338.06.872.319 1.1.664a6.678 6.678 0 0 1 0-1.695c-.28.402-.756.612-1.085.663.095-.437.466-.9.9-1.171h-2.25c.433.272.805.733.9 1.169-.327-.057-.79-.267-1.066-.661.071.64.071 1.078 0 1.695.223-.338.743-.596 1.083-.662-.087 1.015-1.006 1.18-1.528 1.18-.55 0-1.028-.21-1.063-.548-.033-.338.168-.45.32-.459.166-.013.369.187.402.56.202-.27.386-1.332-.183-1.373-.44-.033-.67.504-.75 1.063-.147-.465-.545-1.067-.981-.944-.552.154-.183 1.202.168 1.404-.082-.185-.067-.596.202-.625.276-.03.425.22.436.423.021.346-.419.582-.86.687-.809.193-1.34-.235-1.553-.52.368-.157.658-.082 1.021.09a5.607 5.607 0 0 1-.456-1.357c-.094.413-.376.727-.704.953a1.981 1.981 0 0 1 .268-1.418l-1.237.527c.591.659 1.284 2.166 1.669 3.416-.236.219-.37.483-.37.817 0 .578.37.927.735 1.165a9.544 9.544 0 0 0-1.868 1.633c-.845.96-1.511 2.081-1.977 3.325-.023.061-.043.123-.066.182.139.145.275.292.41.442a.294.294 0 0 1 .019-.057c.061-.157.247-.347.383-.44l.621.25c-.258.184-.567.437-.503.502.026.026.163-.086.223-.133.185-.145.458-.374.829-.226a.618.618 0 0 1 .346.334c.067.153.067.33.002.498a1.165 1.165 0 0 1-.46.514l-.566-.225c.232-.137.457-.398.49-.472.021-.049.021-.09 0-.1-.048-.03-.168.064-.282.153-.122.095-.262.199-.425.236.264.38.44.737.451 1.025.019.565.137.79.436 1.17.45.571-.011.526.378 1.234a9.624 9.624 0 0 1-.03-.604h6.162v6.784c-.25.004-.526.034-.737.293.714.29 1.43.55 2.11.764.062-.443.182-.664.403-.936 0 0-.928-.093-1.415-.117v-6.788h6.016a8.496 8.496 0 0 1-.492 2.707 7.556 7.556 0 0 1-1.351 2.368 6.453 6.453 0 0 1-1.993 1.59c-.176.09-.303.376-.42.629a2.338 2.338 0 0 0-.188.672c.284.083.34.142.608.21 2.113.534 2.666.428 2.784.334.475-.37.919-.79 1.329-1.26a10.59 10.59 0 0 0 1.978-3.35c.48-1.296.724-2.675.724-4.095 0-.258-.007-.515-.023-.772M22.832 38.259l-.12.066c.043.072.45.76.51.855.035-.018.126-.071.126-.071.444-.24.392-.546.274-.73-.232-.364-.517-.258-.79-.12M50.298 35.629c.032-.01.06-.03.073-.059a.144.144 0 0 0 .019-.064c0-.043-.03-.085-.086-.126-.01-.006-.167-.1-.169-.1-.002.003-.091.158-.136.232l.146.087c.05.033.106.045.153.03M47.653 35.329c.397.102.65.036.8-.35.115-.286.027-.511-.433-.64l-.152-.035-.35.993.135.032M51.652 37.557c.139.081.28.104.427.07a.522.522 0 0 0 .338-.253.477.477 0 0 0 .06-.391.526.526 0 0 0-.256-.325.592.592 0 0 0-.434-.075.52.52 0 0 0-.335.255.488.488 0 0 0-.063.394.524.524 0 0 0 .263.325M41.686 42.179a.538.538 0 0 0-.41-.143.608.608 0 0 0-.428.171.538.538 0 0 0-.161.404c0 .159.05.28.159.382.112.1.247.147.415.14a.6.6 0 0 0 .423-.172.546.546 0 0 0 .165-.404.484.484 0 0 0-.163-.378"/><path d="M47.573 38.223c0 .538-.483 1.06-1.336 1.505.241-1.139-2.451-1.49-2.451-2.328 0-.723 1.074-1.103 1.882-1.243.532.686 1.905 1.188 1.905 2.066m-2.767 4.8-.478.17s-.776-.79-.946-.967c-.015.243-.071 1.24-.071 1.24l-.63.123.141-2.377.453-.083.967.985c.012-.24.07-1.21.07-1.21l.63-.173zm-2.66.385a1.35 1.35 0 0 1-.898.359 1.207 1.207 0 0 1-.872-.31 1.082 1.082 0 0 1-.355-.83c0-.34.12-.635.355-.866.234-.23.53-.355.882-.366.352-.011.651.093.892.31.242.219.363.502.363.84s-.123.63-.366.863m-2.315.41-.64.011v-1.231l-.535.64-.533-.64v1.23l-.637-.02v-2.313l.534.017.641.786c.088-.112.623-.78.623-.78l.547-.014zm-3.583-1.794c-.184-.024-.487-.06-.66-.083v1.73l-.639-.093v-1.731c-.18-.027-.457-.074-.646-.104v-.616c.564.097 1.325.206 1.945.28zm-3.518.978-.118-2.283c.35.102 1.104.302 1.497.374l.015.621a15.248 15.248 0 0 1-.84-.188l.01.201.78.197.02.629-.767-.193.013.242c.215.071.545.155.82.213l.03.633a7.394 7.394 0 0 1-1.46-.446m-1.398-3.274C30.48 39.282 30 38.76 30 38.223c0-.878 1.368-1.38 1.903-2.064.807.14 1.883.52 1.883 1.24 0 .84-2.69 1.192-2.452 2.329m-2.242-3.376c-.657.287-1.057.002-1.272-.47l-.526-1.195.563-.297s.53 1.207.532 1.207c.116.253.24.332.475.217.277-.132.275-.253.17-.486l-.546-1.26.621-.214.515 1.231c.202.493.157.963-.532 1.267m-2.526 1.442-1.168-1.892 1.228-.806.31.506-.701.474c.033.057.073.121.107.178l.679-.461.312.506-.679.463c.04.058.086.136.124.192l.726-.489.316.508zm-1.231.822-1.175-1.883.516-.345 1.172 1.892zm-1.7 1.021-.647.355-1.119-1.89.685-.376c.24-.132.451-.198.642-.202.193-.001.382.046.558.148.172.102.325.236.419.417.25.476.277 1.114-.537 1.548m23.824-6.057.853.212c.537.14 1.033.636.741 1.368-.339.84-.971.892-1.594.745l-.749-.186zm3.158 1.314a.973.973 0 0 1 .335.33c.113.197.107.418-.02.633a.568.568 0 0 1-.34.282c-.055.013-.111.016-.171.013.019.094.032.202.04.325.027.47.09.982.09.991-.098-.066-.632-.408-.678-.436l-.052-.654c-.02-.234-.032-.328-.103-.377l-.405.697-.553-.293 1.11-1.949c.17.097.583.334.748.438m1.01 1.097c.303-.073.604-.024.89.142a1.158 1.158 0 0 1 .604.995c0 .196-.059.39-.17.572a1.087 1.087 0 0 1-.723.518 1.245 1.245 0 0 1-.898-.157 1.125 1.125 0 0 1-.548-.69 1.04 1.04 0 0 1 .127-.855c.174-.277.413-.455.718-.525m2.708 1.316-1.164 1.924-.544-.337 1.167-1.915zm1.998 1.109-.286.52c-.16-.07-.457-.207-.675-.318-.188.304-.728 1.165-.83 1.33l-.572-.256c.007-.011.644-1.02.855-1.363a19.98 19.98 0 0 1-.574-.336l.288-.523c.466.287 1.4.768 1.794.946m-.488 2.135c1.149 0 2.172-1.465 3.608-2.11-3.63 1.066-8.64-5.14-12.05-5.14-.956 0-2.066.368-2.61 1.697-.577 1.415-1.217 1.877-1.217 2.504 0 .548.492.967 1.317 1.41.537.287 1.093.442 1.063.954-1.557.72-4.124 1.214-7.172 1.214-3.044 0-5.612-.495-7.17-1.214-.029-.512.527-.667 1.059-.954.83-.443 1.32-.86 1.32-1.41 0-.625-.637-1.09-1.214-2.504-.544-1.329-1.654-1.695-2.612-1.695-3.407 0-8.42 6.206-12.049 5.14 1.437.643 2.459 2.11 3.608 2.11 2.943 0 6.347-4.458 9.541-4.458.043 0 .088.002.14.004-.744.93-1.783 1.125-1.783 2.066 0 .66.565 1.055.956 1.939.244.551.29.942.496 1.722.184.687.659 2.441 7.708 2.441 7.052 0 7.526-1.754 7.707-2.441.208-.78.254-1.17.5-1.722.39-.884.954-1.279.954-1.94 0-.942-1.04-1.134-1.783-2.065.05-.004.099-.006.138-.006 3.196 0 6.602 4.458 9.545 4.458"/></g></svg>