<svg xmlns="http://www.w3.org/2000/svg" width="502" height="203.348" viewBox="0 0 132.821 53.803"><path d="M-127.945 34.884H4.347v53.273h-132.292z" style="fill:#fff;fill-opacity:1;stroke-width:.26458332" transform="translate(128.21 -34.62)"/><path d="M4.347 88.158V34.884h-132.292v53.274ZM-74.76 40.023-83.892 82.9h-14.33l-9.007-29.672h-.125l-5.99 29.672h-10.872l9.206-42.878h14.38l8.832 29.738h.125l6.049-29.738zm40.992 0L-42.724 82.9h-11.54l3.832-18.367h-13.654l-3.824 18.367h-11.54l8.956-42.878h11.54l-3.392 16.407h13.64l3.398-16.407zm33.16 1.167-2.783 8.538c-2.224-1.036-5.248-1.96-9.506-1.96-4.566 0-8.273.668-8.273 4.118 0 6.078 16.73 3.81 16.73 16.833 0 11.848-11.056 14.924-21.054 14.924-4.442 0-9.573-1.05-13.332-2.217l2.717-8.721c2.275 1.475 6.856 2.459 10.615 2.459 3.582 0 9.198-.675 9.198-5.102 0-6.878-16.73-4.302-16.73-16.392 0-11.063 9.756-14.381 19.204-14.381 5.315 0 10.307.558 13.214 1.901" style="fill:#005eb8;fill-opacity:1;fill-rule:nonzero;stroke:none;stroke-width:1.87928891" transform="translate(128.21 -34.62)"/></svg>