<svg xmlns="http://www.w3.org/2000/svg" width="465" height="310" fill="none"><path fill="#386EB3" d="M465 0H0v310h465V0Z"/><path fill="#F3F2F1" d="M54 56c0-2.21 2.07-4 4.621-4H406.38c2.552 0 4.621 1.79 4.621 4v19H54V56Z"/><path fill="#D4351C" d="M63.5 67a3.5 3.5 0 1 0 0-7 3.5 3.5 0 0 0 0 7Z"/><path fill="#FD0" d="M75.5 67a3.5 3.5 0 1 0 0-7 3.5 3.5 0 0 0 0 7Z"/><path fill="#00703C" d="M87.5 67a3.5 3.5 0 1 0 0-7 3.5 3.5 0 0 0 0 7Z"/><path fill="#1D70B8" d="M54 95h357v4H54z"/><path fill="#0B0C0C" d="M54 75h357v20H54z"/><path fill="#fff" d="M54 99h357v155a4 4 0 0 1-4 4H58a4 4 0 0 1-4-4V99Z"/><path fill="#0B0C0C" d="M153 119H79v12h74v-12Z"/><path stroke="#FD0" stroke-width="2" d="M80 140h170v72H80v-72Z"/><path stroke="#000" stroke-width="2" d="M82 142h166v68H82v-68Z"/><path fill="#B1B4B6" d="M133 150H91v5h42v-5Z"/><path fill="#FD0" d="M150 150h-17v5h17v-5Z"/><path fill="#B1B4B6" d="M237 162H91v5h146v-5ZM237 173H91v5h146v-5ZM124 184H91v5h33v-5Z"/><path fill="#FD0" d="M180 173h-17v5h17v-5ZM116 184H99v5h17v-5Z"/><rect width="49" height="17" x="79" y="221" fill="#1F8823" rx="2"/></svg>