<svg width="640" height="320" viewBox="0 0 640 320" fill="none" xmlns="http://www.w3.org/2000/svg">
<rect width="640" height="320" fill="#386EB3"/>
<g clip-path="url(#clip0_715_96)">
<path d="M552 5H87V315H552V5Z" fill="#386EB3"/>
<path d="M141 61C141 58.79 143.07 57 145.621 57H493.38C495.932 57 498.001 58.79 498.001 61V80H141V61Z" fill="#F3F2F1"/>
<path d="M150.5 72C151.428 72 152.318 71.6313 152.975 70.9749C153.631 70.3185 154 69.4283 154 68.5C154 67.5717 153.631 66.6815 152.975 66.0251C152.318 65.3688 151.428 65 150.5 65C149.572 65 148.682 65.3688 148.025 66.0251C147.369 66.6815 147 67.5717 147 68.5C147 69.4283 147.369 70.3185 148.025 70.9749C148.682 71.6313 149.572 72 150.5 72Z" fill="#D4351C"/>
<path d="M162.5 72C163.428 72 164.318 71.6313 164.975 70.9749C165.631 70.3185 166 69.4283 166 68.5C166 67.5717 165.631 66.6815 164.975 66.0251C164.318 65.3688 163.428 65 162.5 65C161.572 65 160.682 65.3688 160.025 66.0251C159.369 66.6815 159 67.5717 159 68.5C159 69.4283 159.369 70.3185 160.025 70.9749C160.682 71.6313 161.572 72 162.5 72Z" fill="#FFDD00"/>
<path d="M174.5 72C175.428 72 176.318 71.6313 176.975 70.9749C177.631 70.3185 178 69.4283 178 68.5C178 67.5717 177.631 66.6815 176.975 66.0251C176.318 65.3688 175.428 65 174.5 65C173.572 65 172.682 65.3688 172.025 66.0251C171.369 66.6815 171 67.5717 171 68.5C171 69.4283 171.369 70.3185 172.025 70.9749C172.682 71.6313 173.572 72 174.5 72Z" fill="#00703C"/>
<path d="M141 100H498V104H141V100Z" fill="#1D70B8"/>
<path d="M141 80H498V100H141V80Z" fill="#0B0C0C"/>
<path d="M141 104H498V259C498 260.061 497.579 261.078 496.828 261.828C496.078 262.579 495.061 263 494 263H145C143.939 263 142.922 262.579 142.172 261.828C141.421 261.078 141 260.061 141 259V104Z" fill="white"/>
<path d="M240 124H166V136H240V124Z" fill="#0B0C0C"/>
<path d="M167 145H337V217H167V145Z" stroke="#FFDD00" stroke-width="2"/>
<path d="M169 147H335V215H169V147Z" stroke="black" stroke-width="2"/>
<path d="M220 155H178V160H220V155Z" fill="#B1B4B6"/>
<path d="M237 155H220V160H237V155Z" fill="#FFDD00"/>
<path d="M324 167H178V172H324V167ZM324 178H178V183H324V178ZM211 189H178V194H211V189Z" fill="#B1B4B6"/>
<path d="M267 178H250V183H267V178ZM203 189H186V194H203V189Z" fill="#FFDD00"/>
<path d="M213 226H168C166.895 226 166 226.895 166 228V241C166 242.105 166.895 243 168 243H213C214.105 243 215 242.105 215 241V228C215 226.895 214.105 226 213 226Z" fill="#1F8823"/>
</g>
<defs>
<clipPath id="clip0_715_96">
<rect width="465" height="310" fill="white" transform="translate(87 5)"/>
</clipPath>
</defs>
</svg>
