<svg width="640" height="320" viewBox="0 0 640 320" fill="none" xmlns="http://www.w3.org/2000/svg">
<rect width="640" height="320" fill="#912B88"/>
<g clip-path="url(#clip0_715_51)">
<path d="M552 5H87V315H552V5Z" fill="#912B88"/>
<path d="M141 61C141 58.79 143.07 57 145.621 57H493.38C495.932 57 498.001 58.79 498.001 61V80H141V61Z" fill="#F3F2F1"/>
<path d="M150.5 72C151.428 72 152.318 71.6313 152.975 70.9749C153.631 70.3185 154 69.4283 154 68.5C154 67.5717 153.631 66.6815 152.975 66.0251C152.318 65.3688 151.428 65 150.5 65C149.572 65 148.682 65.3688 148.025 66.0251C147.369 66.6815 147 67.5717 147 68.5C147 69.4283 147.369 70.3185 148.025 70.9749C148.682 71.6313 149.572 72 150.5 72Z" fill="#D4351C"/>
<path d="M162.5 72C163.428 72 164.318 71.6313 164.975 70.9749C165.631 70.3185 166 69.4283 166 68.5C166 67.5717 165.631 66.6815 164.975 66.0251C164.318 65.3688 163.428 65 162.5 65C161.572 65 160.682 65.3688 160.025 66.0251C159.369 66.6815 159 67.5717 159 68.5C159 69.4283 159.369 70.3185 160.025 70.9749C160.682 71.6313 161.572 72 162.5 72Z" fill="#FFDD00"/>
<path d="M174.5 72C175.428 72 176.318 71.6313 176.975 70.9749C177.631 70.3185 178 69.4283 178 68.5C178 67.5717 177.631 66.6815 176.975 66.0251C176.318 65.3688 175.428 65 174.5 65C173.572 65 172.682 65.3688 172.025 66.0251C171.369 66.6815 171 67.5717 171 68.5C171 69.4283 171.369 70.3185 172.025 70.9749C172.682 71.6313 173.572 72 174.5 72Z" fill="#00703C"/>
<path d="M141 100H498V104H141V100Z" fill="#1D70B8"/>
<path d="M141 80H498V100H141V80Z" fill="#0B0C0C"/>
<path d="M141 104H498V259C498 260.061 497.579 261.078 496.828 261.828C496.078 262.579 495.061 263 494 263H145C143.939 263 142.922 262.579 142.172 261.828C141.421 261.078 141 260.061 141 259V104Z" fill="white"/>
<path d="M362 124H478V220H362V124Z" fill="#D9D9D9"/>
<path d="M364 126H476V218H364V126Z" fill="#F8F8F8"/>
<path d="M240 124H166V136H240V124ZM444 138H370V150H444V138ZM444 194H370V206H444V194ZM428 156H370V162H428V156ZM240 200H166V212H240V200Z" fill="#0B0C0C"/>
<path d="M188 164H166V176H188V164ZM214 164H192V176H214V164Z" fill="#F8F8F8"/>
<path d="M240 164H218V176H240V164Z" fill="#1D70B8"/>
<path d="M266 164H244V176H266V164Z" fill="#F8F8F8"/>
<path d="M167 145H293V155H167V145ZM167 221H187V231H167V221Z" stroke="#0B0C0C" stroke-width="2"/>
<path d="M206 174C208.209 174 210 172.209 210 170C210 167.791 208.209 166 206 166C203.791 166 202 167.791 202 170C202 172.209 203.791 174 206 174Z" fill="#F47738"/>
<path d="M204 221H224V231H204V221Z" stroke="#0B0C0C" stroke-width="2"/>
<path d="M169 167H185V173H169V167Z" fill="#1D70B8"/>
<path d="M200 174C202.209 174 204 172.209 204 170C204 167.791 202.209 166 200 166C197.791 166 196 167.791 196 170C196 172.209 197.791 174 200 174Z" fill="#DD1A1A"/>
<path d="M253 166H250V174H253V166Z" fill="#1D70B8"/>
<path d="M257 166H254V174H257V166Z" fill="#DD1A1A"/>
<path d="M261 166H258V174H261V166Z" fill="#1F8823"/>
<path d="M196.949 221.316L193.949 230.316" stroke="#0B0C0C" stroke-width="2"/>
</g>
<defs>
<clipPath id="clip0_715_51">
<rect width="465" height="310" fill="white" transform="translate(87 5)"/>
</clipPath>
</defs>
</svg>
