<svg xmlns="http://www.w3.org/2000/svg" width="465" height="310" fill="none"><path fill="#912B88" d="M465 0H0v310h465V0Z"/><path fill="#F3F2F1" d="M54 56c0-2.21 2.07-4 4.621-4H406.38c2.552 0 4.621 1.79 4.621 4v19H54V56Z"/><path fill="#D4351C" d="M63.5 67a3.5 3.5 0 1 0 0-7 3.5 3.5 0 0 0 0 7Z"/><path fill="#FD0" d="M75.5 67a3.5 3.5 0 1 0 0-7 3.5 3.5 0 0 0 0 7Z"/><path fill="#00703C" d="M87.5 67a3.5 3.5 0 1 0 0-7 3.5 3.5 0 0 0 0 7Z"/><path fill="#1D70B8" d="M54 95h357v4H54z"/><path fill="#0B0C0C" d="M54 75h357v20H54z"/><path fill="#fff" d="M54 99h357v155a4 4 0 0 1-4 4H58a4 4 0 0 1-4-4V99Z"/><path fill="#D9D9D9" d="M275 119h116v96H275z"/><path fill="#F8F8F8" d="M277 121h112v92H277z"/><path fill="#0B0C0C" d="M153 119H79v12h74v-12ZM357 133h-74v12h74v-12ZM357 189h-74v12h74v-12ZM341 151h-58v6h58v-6ZM153 195H79v12h74v-12Z"/><path fill="#F8F8F8" d="M101 159H79v12h22v-12ZM127 159h-22v12h22v-12Z"/><path fill="#1D70B8" d="M153 159h-22v12h22v-12Z"/><path fill="#F8F8F8" d="M179 159h-22v12h22v-12Z"/><path stroke="#0B0C0C" stroke-width="2" d="M80 140h126v10H80v-10ZM80 216h20v10H80v-10Z"/><circle cx="119" cy="165" r="4" fill="#F47738"/><path stroke="#0B0C0C" stroke-width="2" d="M117 216h20v10h-20v-10Z"/><path fill="#1D70B8" d="M82 162h16v6H82z"/><circle cx="113" cy="165" r="4" fill="#DD1A1A"/><path fill="#1D70B8" d="M166 161h-3v8h3v-8Z"/><path fill="#DD1A1A" d="M170 161h-3v8h3v-8Z"/><path fill="#1F8823" d="M174 161h-3v8h3v-8Z"/><path stroke="#0B0C0C" stroke-width="2" d="m109.949 216.316-3 9"/></svg>