<svg width="640" height="320" viewBox="0 0 640 320" fill="none" xmlns="http://www.w3.org/2000/svg">
<rect width="640" height="320" fill="#6F72AF"/>
<g clip-path="url(#clip0_715_138)">
<path d="M552 5H87V315H552V5Z" fill="#6F72AF"/>
<path d="M141 61C141 58.7909 143.069 57 145.621 57H367.5H493.379C495.931 57 498 58.7909 498 61V80H367.5H141V61Z" fill="#F3F2F1"/>
<path d="M498 61C498 58.7909 495.931 57 493.379 57H367.5V80H498V61Z" fill="black"/>
<path d="M150.5 72C152.433 72 154 70.433 154 68.5C154 66.567 152.433 65 150.5 65C148.567 65 147 66.567 147 68.5C147 70.433 148.567 72 150.5 72Z" fill="#D4351C"/>
<path d="M381.5 72C383.433 72 385 70.433 385 68.5C385 66.567 383.433 65 381.5 65C379.567 65 378 66.567 378 68.5C378 70.433 379.567 72 381.5 72Z" fill="#D4351C"/>
<path d="M162.5 72C164.433 72 166 70.433 166 68.5C166 66.567 164.433 65 162.5 65C160.567 65 159 66.567 159 68.5C159 70.433 160.567 72 162.5 72Z" fill="#FFDD00"/>
<path d="M393.5 72C395.433 72 397 70.433 397 68.5C397 66.567 395.433 65 393.5 65C391.567 65 390 66.567 390 68.5C390 70.433 391.567 72 393.5 72Z" fill="#FFDD00"/>
<path d="M174.5 72C176.433 72 178 70.433 178 68.5C178 66.567 176.433 65 174.5 65C172.567 65 171 66.567 171 68.5C171 70.433 172.567 72 174.5 72Z" fill="#00703C"/>
<path d="M405.5 72C407.433 72 409 70.433 409 68.5C409 66.567 407.433 65 405.5 65C403.567 65 402 66.567 402 68.5C402 70.433 403.567 72 405.5 72Z" fill="#00703C"/>
<path d="M368 100H141V104H368V100Z" fill="#1D70B8"/>
<path d="M368 80H141V100H368V80Z" fill="#0B0C0C"/>
<path d="M498 80H368V100H498V80Z" fill="#0B0C0C"/>
<path d="M141 104H368V263H145C142.791 263 141 261.209 141 259V104Z" fill="white"/>
<path d="M368 98H498V259C498 261.209 496.209 263 494 263H368V98Z" fill="black"/>
<path d="M240 124H166V136H240V124Z" fill="#0B0C0C"/>
<path d="M213 226H168C166.895 226 166 226.895 166 228V241C166 242.105 166.895 243 168 243H213C214.105 243 215 242.105 215 241V228C215 226.895 214.105 226 213 226Z" fill="#1F8823"/>
<path d="M440 112H378V117H440V112Z" fill="#9D9D9C"/>
<path d="M463 129H401V134H463V129Z" fill="#9D9D9C"/>
<path d="M463 163H401V168H463V163Z" fill="#9D9D9C"/>
<path d="M463 180H401V185H463V180Z" fill="#9D9D9C"/>
<path d="M486 146H424V151H486V146Z" fill="#9D9D9C"/>
<path d="M208 148H166V153H208V148Z" fill="#B1B4B6"/>
<path d="M225 148H208V153H225V148Z" fill="#B1B4B6"/>
<path d="M312 160H166V165H312V160Z" fill="#B1B4B6"/>
<path d="M312 171H166V176H312V171Z" fill="#B1B4B6"/>
<path d="M199 182H166V187H199V182Z" fill="#B1B4B6"/>
<path d="M255 171H238V176H255V171Z" fill="#B1B4B6"/>
<path d="M191 182H174V187H191V182Z" fill="#B1B4B6"/>
</g>
<defs>
<clipPath id="clip0_715_138">
<rect width="465" height="310" fill="white" transform="translate(87 5)"/>
</clipPath>
</defs>
</svg>
