<svg width="465" height="310" viewBox="0 0 465 310" fill="none" xmlns="http://www.w3.org/2000/svg">
<path d="M465 0H0V310H465V0Z" fill="#6F72AF"/>
<path d="M54 56C54 53.7909 56.0691 52 58.6214 52H280.5H406.379C408.931 52 411 53.7909 411 56V75H280.5H54V56Z" fill="#F3F2F1"/>
<path d="M411 56C411 53.7909 408.931 52 406.379 52H280.5V75H411V56Z" fill="black"/>
<path d="M63.5 67C65.433 67 67 65.433 67 63.5C67 61.567 65.433 60 63.5 60C61.567 60 60 61.567 60 63.5C60 65.433 61.567 67 63.5 67Z" fill="#D4351C"/>
<path d="M294.5 67C296.433 67 298 65.433 298 63.5C298 61.567 296.433 60 294.5 60C292.567 60 291 61.567 291 63.5C291 65.433 292.567 67 294.5 67Z" fill="#D4351C"/>
<path d="M75.5 67C77.433 67 79 65.433 79 63.5C79 61.567 77.433 60 75.5 60C73.567 60 72 61.567 72 63.5C72 65.433 73.567 67 75.5 67Z" fill="#FFDD00"/>
<path d="M306.5 67C308.433 67 310 65.433 310 63.5C310 61.567 308.433 60 306.5 60C304.567 60 303 61.567 303 63.5C303 65.433 304.567 67 306.5 67Z" fill="#FFDD00"/>
<path d="M87.5 67C89.433 67 91 65.433 91 63.5C91 61.567 89.433 60 87.5 60C85.567 60 84 61.567 84 63.5C84 65.433 85.567 67 87.5 67Z" fill="#00703C"/>
<path d="M318.5 67C320.433 67 322 65.433 322 63.5C322 61.567 320.433 60 318.5 60C316.567 60 315 61.567 315 63.5C315 65.433 316.567 67 318.5 67Z" fill="#00703C"/>
<rect x="54" y="95" width="227" height="4" fill="#1D70B8"/>
<rect x="54" y="75" width="227" height="20" fill="#0B0C0C"/>
<rect x="281" y="75" width="130" height="20" fill="#0B0C0C"/>
<path d="M54 99H281V258H58C55.7909 258 54 256.209 54 254V99Z" fill="white"/>
<path d="M281 93H411V254C411 256.209 409.209 258 407 258H281V93Z" fill="black"/>
<path d="M153 119H79V131H153V119Z" fill="#0B0C0C"/>
<rect x="79" y="221" width="49" height="17" rx="2" fill="#1F8823"/>
<path d="M353 107H291V112H353V107Z" fill="#9D9D9C"/>
<path d="M376 124H314V129H376V124Z" fill="#9D9D9C"/>
<path d="M376 158H314V163H376V158Z" fill="#9D9D9C"/>
<path d="M376 175H314V180H376V175Z" fill="#9D9D9C"/>
<path d="M399 141H337V146H399V141Z" fill="#9D9D9C"/>
<path d="M121 143H79V148H121V143Z" fill="#B1B4B6"/>
<path d="M138 143H121V148H138V143Z" fill="#B1B4B6"/>
<path d="M225 155H79V160H225V155Z" fill="#B1B4B6"/>
<path d="M225 166H79V171H225V166Z" fill="#B1B4B6"/>
<path d="M112 177H79V182H112V177Z" fill="#B1B4B6"/>
<path d="M168 166H151V171H168V166Z" fill="#B1B4B6"/>
<path d="M104 177H87V182H104V177Z" fill="#B1B4B6"/>
</svg>
