<svg xmlns="http://www.w3.org/2000/svg" width="465" height="310" fill="none"><path fill="#6F72AF" d="M465 0H0v310h465V0Z"/><path fill="#F3F2F1" d="M54 56c0-2.21 2.07-4 4.621-4H406.38c2.552 0 4.621 1.79 4.621 4v19H54V56Z"/><path fill="#D4351C" d="M63.5 67a3.5 3.5 0 1 0 0-7 3.5 3.5 0 0 0 0 7Z"/><path fill="#FD0" d="M75.5 67a3.5 3.5 0 1 0 0-7 3.5 3.5 0 0 0 0 7Z"/><path fill="#00703C" d="M87.5 67a3.5 3.5 0 1 0 0-7 3.5 3.5 0 0 0 0 7Z"/><path fill="#C3432B" d="M54 95h357v4H54z"/><path fill="#0B0C0C" d="M54 75h357v20H54z"/><path fill="#fff" d="M54 99h357v155a4 4 0 0 1-4 4H58a4 4 0 0 1-4-4V99Z"/><rect width="49" height="17" x="81" y="227" fill="#1F8823" rx="2"/><path fill="#0B0C0C" d="M155 111H81v12h74v-12ZM155 155H81v12h74v-12Z"/><path stroke="#0B0C0C" stroke-width="2" d="M82 132h126v10H82v-10Z"/><path fill="#F8F8F8" d="M207 177H83v11h124v-11Z"/><path stroke="#D9D9D9" stroke-width="2" d="M82 187h125"/><path stroke="#0B0C0C" stroke-width="2" d="M82 176h126v42H82v-42Z"/></svg>